M48
;Layer_Color=9474304
;FILE_FORMAT=4:3
METRIC,LZ
;TYPE=PLATED
T1F00S00C0.300
T2F00S00C0.500
T3F00S00C0.700
T4F00S00C0.711
T5F00S00C0.762
T6F00S00C0.800
T7F00S00C0.900
T8F00S00C1.000
T9F00S00C1.016
T10F00S00C1.020
T11F00S00C1.050
T12F00S00C1.100
T13F00S00C1.300
T14F00S00C1.397
T15F00S00C1.400
T16F00S00C1.524
T17F00S00C2.159
T19F00S00C2.540
T20F00S00C3.048
T21F00S00C3.556
%
T01
X01485Y0008975
Y001205
X0148425Y00172
X0165021Y0006667
X0169021
X0173021
X0177021
X0181021
X0185021
X02159Y0018
X0246276Y0016917
X0241959Y0023055
X0238521Y0026563
X0238196Y0029115
X0236875Y002787
X0234535Y0029115
X023445Y0021525
X0236875Y002085
X0236125Y0045359
X0238084Y0051613
X0247074Y0051152
X0245584Y0047922
X0244386Y0054768
X0242195Y0058155
X0250817Y0055069
X025164Y003326
X0220781Y0029115
X0217915Y0026621
X0216654Y00221
X0212629
X02122Y00248
X0208875Y0026975
X02011Y0034725
X019805Y003605
X01911Y003825
X0188116Y0038601
X0189175Y0042625
X019195Y004245
X0193246
X0195375Y0045775
Y004805
X0202126Y0049457
X0206325Y0056
X018795Y00521
X0184625Y005235
X0187675Y00243
X0220781Y0021475
X0181491Y0020771
X0178975Y002135
X0177886Y0022275
X0175098
X018075Y002685
X0176722Y0034566
X0176427Y0035697
X0174485Y0035116
X0174314Y0036673
X0178525Y0039023
X0179873Y0040327
X0180439Y0042523
X0181896Y0041327
X0175428Y0047498
X017465Y0048425
X0175524Y004923
X0175275Y005555
X017675Y0055325
X01785Y0057575
X0181025Y005485
X016925Y0052417
X016882Y0050079
X0166484Y0046285
X0164137Y0047452
X0165583Y0041642
X0169806Y004275
X01707Y00435
X0170425Y0045425
X01669Y005515
X0165315Y0054155
X0161775Y00384
X016325Y0032375
X01645Y0032387
X0165725Y0032375
X016695
X0134553Y00391
X0131172Y0039542
X0124518Y0039544
X0122752Y0041796
X0127245Y0048396
X0127196Y005695
X0134407Y0043898
X0126121Y0032243
X0089671Y0034325
X0087399Y0041886
X0085807Y0044309
X0094072Y0041886
X0090198Y0051825
X0059401Y0051575
X0056752Y00419
X005343Y004349
X0063401Y00419
X0057303Y0034613
X0088866Y0092972
X0104404Y0083729
X0110341Y0070015
X0142975Y007945
X0171536Y0065975
X0240775Y0070975
X0247392Y0062839
X0246641Y0061372
X025865Y0100725
X0230945Y0109046
X0134204Y0111425
X009815Y010445
X0208746Y0166776
T02
X000766Y0016812
X000866
X000966
X001065Y0016801
X0162712Y0024238
X016795
X01662Y00357
X01575Y0053425
X01565
Y005445
Y0055425
X01575
Y005445
Y0056425
Y0057425
X01565
Y0058425
X0155477Y0058451
Y0057451
Y0056451
Y0055451
Y0054476
Y0053451
X0154475Y005345
X0153475
X0152475
X0151475
X0150475
X01495
X0148475
X0147475Y0053425
X0146475Y005345
X0145475Y0053425
X014545Y0054425
X0145425Y00554
X0146425Y0055425
X014645Y005445
X014745Y0054425
X0147425Y00554
X014745Y00564
X0147425Y00574
Y00584
X0146425Y0058425
Y0057425
X0145425Y00574
Y00584
X014545Y00564
X014645Y0056425
X014845
X0148425Y0057425
Y0058425
X014945
X0150425
Y0057425
X014945
X0149475Y0056425
X015045
X015145
X015245
X015345
X015445
X0154425Y0057425
X0153425
X0152425
X0151425
Y0058425
X0152425
X0153425
X0154425
Y0055425
X015445Y005445
X015345
X015245
X0152425Y0055425
X0153425
X0151425
X015145Y005445
X015045
X0149475
X014945Y0055425
X0150425
X0148425
X014845Y005445
X01565Y0056425
X0086898Y005495
X0080423Y0054352
X0079875Y006035
X0083725Y00623
X008385Y0064775
X0103925Y007905
X010915Y0086025
X0111437Y0084073
X0116675Y0078873
X0145234Y0068475
X0146234Y00685
X01463Y006745
Y006645
Y006545
X01453Y0065425
Y0066425
Y0067425
X01473Y0067425
Y0066425
Y0065425
X0147325Y0064425
X0146325Y006445
X0145325Y0064425
X01453Y0063425
X0145325Y006245
X0146325Y0062475
X01463Y006345
X01473Y0063425
X0147325Y006245
X0148325Y0062475
X01483Y006345
X0148325Y006445
X01483Y006545
Y006645
X0149325Y006545
X014935Y006445
X0150325
X01503Y006345
X0149325
X014935Y0062475
X0150325
X0151325
X01513Y006345
X0152325Y0062475
X015235Y0061475
X015335
X0153375Y0060475
X0152375
X0151375
X0150375
X01494
X0149375Y0061475
X015035
X015135
X0151425Y0059425
X0152425
X0153425
X0154425
X0155477Y0059451
X0154375Y0060475
X0150425Y0059425
X014945
X0148425
X0147425Y00594
X0146425Y0059425
X0145425Y00594
X0145375Y006045
X0146375Y0060475
X014635Y0061475
X014535Y006145
X014735Y006145
X0147375Y006045
X0148375Y0060475
X014835Y0061475
X01628Y008
X02157Y0077175
X02219Y0067975
X0254875Y00984
X0252475Y0103275
X0064Y0103
Y0104
Y0105
Y0106
Y0107
X0063
Y0107975
X0062
Y0107
X0061
Y0107975
X006
Y0107
X0059
Y0107975
X0058
Y0107
X0057
Y0107975
X0056
Y0107
X0055
Y0107975
Y0109
X0056
X0057
X0058
X0059
X006
X0061
X0062
X0060975Y011
X0059975
X0058975
X0057975
X0056975
X0055975
X0054975
X0055Y0111
X0056
X0057
X0056986Y0111986
X0056011Y0111996
X0055011
X0056986Y0112998
X0057986
Y0111986
X0058Y0111
X0059
X0058986Y0111986
X006Y0111
Y0106
X0061
X0062
X0063
Y0105
Y0104
X0062
Y0105
X0061
X006
Y0104
X0061
Y0103
X006
X0059
Y0104
Y0105
Y0106
X0058
X0057
X0056
X0055
Y0105
Y0104
X0056
Y0105
X0057
Y0104
X0058
Y0105
Y0103
X0057
X0056
X0055
X0062
X0063
X0043011Y0109011
X0042011
Y0110011
X0043011
X0043011Y0111011
X0043Y0112
X0042
Y0111
X0041
Y011
X004
X0039
Y0111
X004
Y0112
X0039
X0038
Y0111
Y011
Y0109
X0037
X0036
X0035
X0034
Y011
Y0111
X0035
Y011
X0036
Y0111
X0037
Y011
Y0112
X0036
X0035
X0034
Y0113
X0035
X0036
X0037
X0038
X0039
X004
X0041
Y0112
X0042Y0113
X0043
Y0114
X0042
X0041
X004
X0039
X0038
X0037
X0036
X0035
X0034
Y0115
X0035
Y0116
X0034011Y0116011
X0034011Y0117011
X0035011
X0036Y0117
X0037
Y0118
X0036011Y0118011
X0035011
X0034011
X0038Y0118
X0039
X004
X0041
X0042
X0043
Y0117
X0042
X0041
X004
X0039
X0038
Y0116
Y0115
X0037
Y0116
X0036
Y0115
X0039
Y0116
X004
Y0115
X0041
Y0116
X0042
Y0115
X0043
Y0116
X0041011Y0109011
X004Y0109
X0039
X0011525Y0163476
X0010535Y0163487
X0009535
X0008535
T03
X0256111Y0045519
Y0048059
Y0050599
Y0055669
Y0058209
X018319Y0025
X017831
X0256111Y0060749
X0256101Y0065734
Y0068274
Y0070814
X0256111Y0075859
Y0078399
Y0080939
T04
X0161815Y003443
X01574Y00698
X01599Y00767
X0165375
X01721Y0082075
X0148723Y00809
X01888Y0080775
X0188681Y00901
T05
X0165021Y0011821
X0169021
X0173021
X0177021
X0181021
X0185021
X0197027Y00141
X0202801Y0013931
X0211253Y0014079
X0219749Y0014101
X02259Y0013916
X0233795Y0013916
X024545Y0014075
X0248Y0012016
X025234Y0011856
X026239Y001237
X026234Y003248
X0247064Y00318
X024145Y003074
X0238031Y0035285
Y0040235
X0243081Y0046709
X0250084Y004342
X0250871Y0052968
X0235321Y0058142
X022862Y0054822
X02264Y0043526
X0215Y0041775
X0212725Y0044425
X0215Y004691
X0213999Y0032725
X0202126Y0051996
X0193375Y005875
X02219Y0057489
X0162682Y0029925
X015985Y0029975
X0158625Y0023163
X0154725Y002202
X0155868Y0019547
X0142349Y004238
X01368Y0040032
X0129672Y0037476
X0119Y003805
Y004104
Y0044322
X0120931Y0048972
X0124145Y0056832
X01163Y0057
X0134425Y0054725
X013545Y0050525
X0083854Y0051783
X00822Y004719
Y004344
Y0040189
X0091308Y0039789
X0060626Y00398
X0051535Y0040075
Y0043525
Y0047151
X0055006Y0051975
X0008225Y0039625
Y0034675
X0102136Y0066538
X0095707Y0083761
X008903Y0082561
X0083082Y0089211
X0090869Y0097088
X0093564
X009813Y0091161
X0106675Y0074555
X0109932
X0112782
X011962Y0071539
X0124622Y006508
X0124675Y006105
X0127022Y0063175
X0114275Y0060125
X0106059Y0060154
X0130525Y0089475
X0130466Y00924
X0170378Y0073427
X0175328Y0073502
X01932Y0092475
X0217075Y0089825
X0219183Y009407
X0236075Y0096425
X02358Y0089075
X0234809Y00637
X0240642Y0063409
X0245496Y0068984
X0249925Y0067393
X024027Y0108168
X0236778Y0111221
X0234873
X0232968
X0181027Y0110291
X0135347Y0107828
X0135225Y010365
X013195Y0105743
X0128686Y0105765
X0132622Y0099259
X0098396Y0099522
X0097325Y0128025
X0064575Y0127325
X0032325Y0127856
X012795Y0142
X0213Y0154155
Y0156655
T06
X013105Y01287
Y01387
T07
X00665Y0135
X0089
X0099
X00565
X0034
X0024
T08
X0191862Y0006225
X0194402
X0196942
X0200205Y000622
X0202745
X0205285
X0208713Y0006229
X0211253
X0213793
X0217295Y0006251
X0219835
X0222375
X022577Y000625
X022831
X023085
X0234325
X0236865
X0239405
X0264306Y0045544
Y0048084
Y0050624
Y0055644
Y0058184
X023Y005873
Y005127
Y004873
X022894Y003501
X023148
X02264
X022386
X0206752Y0039297
Y0041836
Y0044376
Y0046917
Y0049457
Y0051996
X0183008Y0070302
X0180468
X0185548
X0188088
X0190628
X0193168
X0187675Y008555
X023Y006127
X0264306Y0060724
Y0065654
Y0068194
Y0070734
Y0075919
Y0078459
Y0080999
X0171082Y00995
Y01045
X0157632
Y00995
X0144232
Y01045
X014705Y0109275
X0068975Y0102825
X00499Y0111725
X0149107Y0162068
X0152643Y0158532
T09
X0196312Y0099414
X0198852
X0201392
T10
X018047Y0061775
X018301
X018555
X018809
T11
X0196237Y0092475
X0206013
T12
X0163056Y0015196
X0165596
X0168136
X0170676
X0173216
X0176411Y0015221
X0178951
X0181491
X0184031
X0186571
X0176616Y0061773
X0174076
X0171536
X0168996
X0166456
Y0070213
X0168996
X0171536
X0174076
X0176616
T13
X026232Y001759
Y002259
Y002759
X0262075Y0105875
Y0110875
X0154Y01728
X0149
X02025Y01735
X02075
X0214Y0173575
X02205Y01735
X0214Y0161575
X02255Y01735
T14
X01075Y0032635
X0112834
X0102166
X0080334
X0075
X0069666
X0047834
X00425
X0037166
Y0147365
X00425
X0047834
X0069666
X0075
X0080334
X0102166
X01075
X0112834
T15
X01058Y0045
X009935
X00738
X006735
X00418
X003535
X01047Y0135
X011115
X007865
X00722
X004615
X00397
T16
X019Y0033935
Y0053874
X0198725Y0104875
T17
X000946Y008
X0019366
Y009
X000946
X02511Y012265
X02611
Y013265
X02511
X0019366Y01
X000946
T19
X0205Y0125
Y0135
X0155
Y0125
T20
X0177239Y0136171
X0183081Y0136298
X0223298Y0156919
X0223171Y0162761
T21
X018016Y0159539
X0246539Y015984
M30
