%TF.GenerationSoftware,Altium Limited,Altium Designer,21.6.4 (81)*%
G04 Layer_Color=16711935*
%FSLAX43Y43*%
%MOMM*%
%TF.SameCoordinates,76D5CAF9-2094-4FD7-9A7B-915B2AFADFAF*%
%TF.FilePolarity,Positive*%
%TF.FileFunction,Other,Top_Component_Center*%
%TF.Part,Single*%
G01*
G75*
%TA.AperFunction,NonConductor*%
%ADD126C,0.100*%
%ADD132C,0.050*%
D126*
X227670Y36610D02*
Y37610D01*
X227170Y37110D02*
X228170D01*
X219600Y89075D02*
X220600D01*
X220100Y88575D02*
Y89575D01*
X185250Y103125D02*
X186250D01*
X185750Y102625D02*
Y103625D01*
X200625Y92475D02*
X201625D01*
X201125Y91975D02*
Y92975D01*
X130550Y133700D02*
X131550D01*
X131050Y133200D02*
Y134200D01*
D132*
X261320Y22590D02*
X262320D01*
X261820Y22090D02*
Y23090D01*
X261575Y107875D02*
Y108875D01*
X261075Y108375D02*
X262075D01*
X204500Y173000D02*
X205500D01*
X205000Y172500D02*
Y173500D01*
X151500Y171800D02*
Y172800D01*
X151000Y172300D02*
X152000D01*
X222500Y173000D02*
X223500D01*
X223000Y172500D02*
Y173500D01*
%TF.MD5,2d89b6c0568b2eee78acfeaa02388e8e*%
M02*
