%TF.GenerationSoftware,Altium Limited,Altium Designer,21.6.4 (81)*%
G04 Layer_Color=8388736*
%FSLAX43Y43*%
%MOMM*%
%TF.SameCoordinates,76D5CAF9-2094-4FD7-9A7B-915B2AFADFAF*%
%TF.FilePolarity,Positive*%
%TF.FileFunction,Other,Top_Assembly*%
%TF.Part,Single*%
G01*
G75*
%TA.AperFunction,NonConductor*%
%ADD115C,0.200*%
%ADD126C,0.100*%
%ADD131R,3.675X1.300*%
G36*
X228502Y37763D02*
X228514Y37761D01*
X228529Y37758D01*
X228546Y37753D01*
X228562Y37748D01*
X228579Y37741D01*
X228580D01*
X228581Y37740D01*
X228586Y37737D01*
X228595Y37731D01*
X228604Y37725D01*
X228615Y37716D01*
X228626Y37705D01*
X228637Y37693D01*
X228646Y37680D01*
X228647Y37678D01*
X228650Y37673D01*
X228654Y37665D01*
X228658Y37655D01*
X228663Y37643D01*
X228667Y37629D01*
X228669Y37613D01*
X228670Y37597D01*
Y37595D01*
Y37590D01*
X228669Y37582D01*
X228668Y37572D01*
X228665Y37560D01*
X228660Y37547D01*
X228655Y37534D01*
X228647Y37521D01*
X228646Y37520D01*
X228644Y37516D01*
X228638Y37509D01*
X228631Y37502D01*
X228621Y37494D01*
X228610Y37484D01*
X228597Y37476D01*
X228582Y37468D01*
X228583D01*
X228584Y37467D01*
X228587Y37466D01*
X228591Y37465D01*
X228601Y37461D01*
X228614Y37456D01*
X228629Y37448D01*
X228644Y37439D01*
X228657Y37427D01*
X228670Y37413D01*
X228671Y37411D01*
X228675Y37406D01*
X228681Y37397D01*
X228686Y37385D01*
X228692Y37370D01*
X228697Y37352D01*
X228701Y37332D01*
X228702Y37310D01*
Y37309D01*
Y37306D01*
Y37301D01*
X228701Y37296D01*
X228700Y37288D01*
X228698Y37280D01*
X228696Y37271D01*
X228694Y37261D01*
X228687Y37238D01*
X228681Y37226D01*
X228676Y37215D01*
X228669Y37203D01*
X228660Y37191D01*
X228651Y37179D01*
X228640Y37168D01*
X228639Y37167D01*
X228637Y37165D01*
X228633Y37163D01*
X228629Y37159D01*
X228623Y37154D01*
X228616Y37150D01*
X228607Y37144D01*
X228597Y37140D01*
X228587Y37134D01*
X228575Y37128D01*
X228563Y37124D01*
X228549Y37119D01*
X228534Y37116D01*
X228519Y37113D01*
X228503Y37111D01*
X228485Y37110D01*
X228477D01*
X228472Y37111D01*
X228464Y37112D01*
X228456Y37113D01*
X228447Y37115D01*
X228436Y37116D01*
X228414Y37122D01*
X228391Y37131D01*
X228379Y37137D01*
X228368Y37143D01*
X228357Y37152D01*
X228346Y37160D01*
X228345Y37161D01*
X228343Y37163D01*
X228340Y37165D01*
X228338Y37169D01*
X228333Y37174D01*
X228328Y37180D01*
X228323Y37187D01*
X228317Y37195D01*
X228312Y37204D01*
X228306Y37214D01*
X228296Y37236D01*
X228288Y37262D01*
X228285Y37275D01*
X228283Y37290D01*
X228362Y37300D01*
Y37300D01*
X228362Y37298D01*
X228363Y37294D01*
X228364Y37289D01*
X228365Y37284D01*
X228367Y37277D01*
X228372Y37263D01*
X228378Y37247D01*
X228387Y37231D01*
X228396Y37216D01*
X228407Y37203D01*
X228409Y37202D01*
X228412Y37199D01*
X228420Y37194D01*
X228429Y37189D01*
X228440Y37184D01*
X228454Y37179D01*
X228470Y37176D01*
X228486Y37175D01*
X228492D01*
X228496Y37176D01*
X228506Y37177D01*
X228519Y37179D01*
X228534Y37184D01*
X228549Y37190D01*
X228565Y37200D01*
X228580Y37213D01*
X228582Y37214D01*
X228586Y37220D01*
X228592Y37228D01*
X228599Y37239D01*
X228607Y37253D01*
X228612Y37269D01*
X228617Y37287D01*
X228619Y37308D01*
Y37309D01*
Y37311D01*
Y37313D01*
X228618Y37317D01*
X228617Y37327D01*
X228614Y37339D01*
X228610Y37354D01*
X228604Y37369D01*
X228595Y37384D01*
X228583Y37398D01*
X228581Y37399D01*
X228576Y37403D01*
X228569Y37409D01*
X228558Y37415D01*
X228546Y37422D01*
X228530Y37427D01*
X228512Y37431D01*
X228493Y37433D01*
X228485D01*
X228478Y37432D01*
X228470Y37431D01*
X228460Y37429D01*
X228449Y37427D01*
X228437Y37424D01*
X228447Y37494D01*
X228451D01*
X228455Y37493D01*
X228467D01*
X228477Y37495D01*
X228489Y37496D01*
X228503Y37499D01*
X228519Y37504D01*
X228534Y37510D01*
X228549Y37519D01*
X228550D01*
X228551Y37520D01*
X228556Y37523D01*
X228562Y37530D01*
X228570Y37538D01*
X228577Y37550D01*
X228583Y37564D01*
X228588Y37580D01*
X228590Y37589D01*
Y37599D01*
Y37600D01*
Y37601D01*
Y37606D01*
X228588Y37614D01*
X228586Y37624D01*
X228583Y37635D01*
X228578Y37647D01*
X228571Y37659D01*
X228560Y37670D01*
X228559Y37671D01*
X228555Y37675D01*
X228548Y37680D01*
X228540Y37685D01*
X228529Y37690D01*
X228516Y37694D01*
X228501Y37698D01*
X228485Y37699D01*
X228477D01*
X228469Y37697D01*
X228458Y37695D01*
X228446Y37692D01*
X228434Y37687D01*
X228421Y37680D01*
X228409Y37670D01*
X228408Y37669D01*
X228404Y37665D01*
X228399Y37658D01*
X228392Y37649D01*
X228386Y37637D01*
X228379Y37622D01*
X228374Y37605D01*
X228370Y37584D01*
X228291Y37598D01*
Y37599D01*
X228292Y37602D01*
X228293Y37606D01*
X228294Y37611D01*
X228296Y37618D01*
X228299Y37625D01*
X228304Y37643D01*
X228313Y37663D01*
X228325Y37683D01*
X228338Y37703D01*
X228356Y37720D01*
X228357Y37721D01*
X228359Y37722D01*
X228362Y37724D01*
X228365Y37727D01*
X228370Y37730D01*
X228376Y37734D01*
X228383Y37738D01*
X228391Y37742D01*
X228410Y37750D01*
X228431Y37757D01*
X228456Y37762D01*
X228469Y37764D01*
X228492D01*
X228502Y37763D01*
D02*
G37*
G36*
X228173Y37391D02*
Y37390D01*
Y37386D01*
Y37382D01*
Y37375D01*
X228172Y37367D01*
Y37358D01*
X228171Y37347D01*
X228170Y37336D01*
X228167Y37311D01*
X228164Y37285D01*
X228158Y37260D01*
X228154Y37248D01*
X228151Y37237D01*
Y37236D01*
X228150Y37234D01*
X228148Y37231D01*
X228146Y37227D01*
X228141Y37217D01*
X228132Y37204D01*
X228121Y37189D01*
X228108Y37175D01*
X228092Y37159D01*
X228071Y37145D01*
X228070D01*
X228068Y37143D01*
X228066Y37142D01*
X228061Y37140D01*
X228056Y37137D01*
X228048Y37134D01*
X228041Y37131D01*
X228031Y37128D01*
X228021Y37124D01*
X228010Y37121D01*
X227998Y37118D01*
X227984Y37116D01*
X227970Y37114D01*
X227956Y37112D01*
X227922Y37110D01*
X227914D01*
X227908Y37111D01*
X227900D01*
X227891Y37112D01*
X227881Y37113D01*
X227871Y37114D01*
X227848Y37117D01*
X227823Y37123D01*
X227798Y37130D01*
X227775Y37140D01*
X227774D01*
X227773Y37142D01*
X227770Y37144D01*
X227766Y37146D01*
X227756Y37153D01*
X227744Y37164D01*
X227730Y37177D01*
X227717Y37191D01*
X227704Y37210D01*
X227694Y37230D01*
Y37231D01*
X227693Y37233D01*
X227692Y37237D01*
X227690Y37241D01*
X227688Y37247D01*
X227687Y37254D01*
X227684Y37263D01*
X227682Y37273D01*
X227680Y37284D01*
X227677Y37296D01*
X227676Y37309D01*
X227674Y37323D01*
X227672Y37338D01*
X227671Y37355D01*
X227670Y37373D01*
Y37391D01*
Y37761D01*
X227755D01*
Y37391D01*
Y37390D01*
Y37387D01*
Y37383D01*
Y37377D01*
X227756Y37371D01*
Y37362D01*
X227757Y37345D01*
X227759Y37324D01*
X227762Y37304D01*
X227765Y37285D01*
X227767Y37276D01*
X227770Y37268D01*
X227771Y37266D01*
X227773Y37262D01*
X227777Y37255D01*
X227783Y37246D01*
X227789Y37237D01*
X227798Y37226D01*
X227810Y37216D01*
X227823Y37208D01*
X227824Y37207D01*
X227829Y37204D01*
X227837Y37202D01*
X227848Y37198D01*
X227861Y37193D01*
X227878Y37190D01*
X227896Y37188D01*
X227915Y37187D01*
X227924D01*
X227930Y37188D01*
X227938D01*
X227946Y37189D01*
X227967Y37192D01*
X227989Y37197D01*
X228010Y37204D01*
X228031Y37214D01*
X228040Y37221D01*
X228048Y37228D01*
X228049Y37229D01*
X228050Y37230D01*
X228052Y37233D01*
X228055Y37237D01*
X228057Y37242D01*
X228061Y37248D01*
X228065Y37256D01*
X228068Y37264D01*
X228072Y37275D01*
X228075Y37287D01*
X228079Y37300D01*
X228081Y37315D01*
X228084Y37332D01*
X228086Y37349D01*
X228088Y37370D01*
Y37391D01*
Y37761D01*
X228173D01*
Y37391D01*
D02*
G37*
G36*
X220452Y89074D02*
X220461D01*
X220471Y89073D01*
X220483Y89072D01*
X220495Y89070D01*
X220522Y89066D01*
X220551Y89059D01*
X220581Y89050D01*
X220609Y89037D01*
X220610Y89036D01*
X220613Y89035D01*
X220617Y89033D01*
X220621Y89030D01*
X220628Y89026D01*
X220635Y89021D01*
X220652Y89009D01*
X220670Y88994D01*
X220689Y88975D01*
X220707Y88954D01*
X220723Y88929D01*
X220724Y88928D01*
X220725Y88925D01*
X220727Y88922D01*
X220730Y88917D01*
X220732Y88910D01*
X220735Y88902D01*
X220739Y88893D01*
X220743Y88883D01*
X220746Y88872D01*
X220750Y88860D01*
X220755Y88834D01*
X220760Y88804D01*
X220762Y88774D01*
Y88764D01*
X220761Y88758D01*
X220760Y88750D01*
X220759Y88739D01*
X220758Y88729D01*
X220755Y88717D01*
X220750Y88692D01*
X220742Y88665D01*
X220736Y88651D01*
X220730Y88638D01*
X220721Y88625D01*
X220713Y88612D01*
X220712Y88611D01*
X220711Y88609D01*
X220708Y88605D01*
X220704Y88601D01*
X220699Y88596D01*
X220693Y88590D01*
X220685Y88583D01*
X220678Y88576D01*
X220669Y88568D01*
X220658Y88561D01*
X220646Y88553D01*
X220634Y88545D01*
X220621Y88539D01*
X220607Y88531D01*
X220592Y88526D01*
X220575Y88520D01*
X220556Y88603D01*
X220557D01*
X220559Y88604D01*
X220562Y88606D01*
X220567Y88608D01*
X220572Y88610D01*
X220580Y88613D01*
X220595Y88620D01*
X220611Y88629D01*
X220628Y88640D01*
X220644Y88654D01*
X220658Y88669D01*
X220659Y88671D01*
X220663Y88677D01*
X220668Y88686D01*
X220674Y88698D01*
X220680Y88714D01*
X220685Y88731D01*
X220689Y88752D01*
X220690Y88775D01*
Y88783D01*
X220689Y88787D01*
Y88794D01*
X220688Y88801D01*
X220685Y88819D01*
X220682Y88838D01*
X220675Y88859D01*
X220666Y88880D01*
X220654Y88899D01*
Y88900D01*
X220652Y88901D01*
X220647Y88908D01*
X220640Y88916D01*
X220629Y88926D01*
X220615Y88938D01*
X220599Y88949D01*
X220580Y88959D01*
X220559Y88969D01*
X220558D01*
X220556Y88970D01*
X220553Y88971D01*
X220548Y88971D01*
X220543Y88973D01*
X220536Y88975D01*
X220521Y88978D01*
X220502Y88982D01*
X220482Y88985D01*
X220460Y88987D01*
X220436Y88988D01*
X220435D01*
X220432D01*
X220427D01*
X220422D01*
X220415Y88987D01*
X220407D01*
X220398Y88986D01*
X220388Y88985D01*
X220365Y88983D01*
X220341Y88978D01*
X220317Y88972D01*
X220293Y88965D01*
X220292D01*
X220290Y88964D01*
X220288Y88962D01*
X220283Y88960D01*
X220272Y88955D01*
X220259Y88947D01*
X220244Y88936D01*
X220229Y88923D01*
X220215Y88909D01*
X220202Y88891D01*
Y88890D01*
X220201Y88888D01*
X220199Y88885D01*
X220197Y88882D01*
X220195Y88877D01*
X220192Y88872D01*
X220187Y88859D01*
X220181Y88842D01*
X220177Y88824D01*
X220173Y88803D01*
X220172Y88782D01*
Y88775D01*
X220173Y88770D01*
Y88763D01*
X220174Y88757D01*
X220178Y88740D01*
X220182Y88721D01*
X220190Y88701D01*
X220200Y88681D01*
X220205Y88671D01*
X220213Y88662D01*
X220214Y88661D01*
X220215Y88660D01*
X220217Y88657D01*
X220220Y88653D01*
X220225Y88650D01*
X220230Y88645D01*
X220236Y88640D01*
X220243Y88635D01*
X220252Y88629D01*
X220261Y88623D01*
X220270Y88617D01*
X220281Y88612D01*
X220293Y88607D01*
X220306Y88603D01*
X220320Y88598D01*
X220335Y88594D01*
X220314Y88509D01*
X220313D01*
X220309Y88510D01*
X220303Y88512D01*
X220296Y88515D01*
X220288Y88518D01*
X220277Y88521D01*
X220266Y88526D01*
X220254Y88531D01*
X220229Y88544D01*
X220203Y88561D01*
X220190Y88571D01*
X220177Y88581D01*
X220166Y88592D01*
X220155Y88605D01*
X220154Y88606D01*
X220152Y88608D01*
X220150Y88613D01*
X220146Y88617D01*
X220142Y88625D01*
X220137Y88632D01*
X220132Y88642D01*
X220128Y88652D01*
X220122Y88665D01*
X220118Y88677D01*
X220113Y88691D01*
X220108Y88706D01*
X220105Y88722D01*
X220103Y88738D01*
X220101Y88756D01*
X220100Y88775D01*
Y88785D01*
X220101Y88792D01*
Y88800D01*
X220102Y88811D01*
X220104Y88822D01*
X220106Y88835D01*
X220110Y88861D01*
X220118Y88889D01*
X220128Y88917D01*
X220134Y88930D01*
X220142Y88943D01*
X220143Y88944D01*
X220143Y88946D01*
X220146Y88949D01*
X220150Y88953D01*
X220154Y88959D01*
X220159Y88965D01*
X220166Y88972D01*
X220173Y88980D01*
X220181Y88987D01*
X220190Y88995D01*
X220211Y89012D01*
X220236Y89028D01*
X220264Y89042D01*
X220265D01*
X220267Y89044D01*
X220272Y89045D01*
X220277Y89047D01*
X220285Y89049D01*
X220294Y89052D01*
X220304Y89056D01*
X220315Y89058D01*
X220327Y89061D01*
X220341Y89065D01*
X220370Y89069D01*
X220402Y89073D01*
X220436Y89075D01*
X220437D01*
X220440D01*
X220446D01*
X220452Y89074D01*
D02*
G37*
G36*
X220129Y88447D02*
X220137Y88446D01*
X220146Y88444D01*
X220155Y88443D01*
X220166Y88439D01*
X220167D01*
X220167Y88438D01*
X220173Y88436D01*
X220181Y88432D01*
X220192Y88427D01*
X220205Y88420D01*
X220220Y88410D01*
X220235Y88400D01*
X220251Y88387D01*
X220252D01*
X220253Y88385D01*
X220258Y88381D01*
X220266Y88372D01*
X220278Y88360D01*
X220292Y88346D01*
X220309Y88329D01*
X220327Y88308D01*
X220347Y88285D01*
X220348Y88284D01*
X220351Y88280D01*
X220355Y88274D01*
X220361Y88268D01*
X220368Y88260D01*
X220376Y88249D01*
X220386Y88239D01*
X220396Y88227D01*
X220418Y88204D01*
X220440Y88181D01*
X220451Y88170D01*
X220462Y88160D01*
X220473Y88150D01*
X220483Y88143D01*
X220484D01*
X220485Y88141D01*
X220487Y88139D01*
X220491Y88138D01*
X220501Y88131D01*
X220513Y88124D01*
X220528Y88117D01*
X220544Y88111D01*
X220561Y88107D01*
X220578Y88105D01*
X220579D01*
X220580D01*
X220585Y88106D01*
X220595Y88107D01*
X220605Y88110D01*
X220618Y88113D01*
X220631Y88120D01*
X220644Y88128D01*
X220657Y88139D01*
X220658Y88141D01*
X220662Y88146D01*
X220667Y88152D01*
X220673Y88162D01*
X220679Y88175D01*
X220684Y88190D01*
X220688Y88208D01*
X220689Y88227D01*
Y88233D01*
X220688Y88236D01*
X220687Y88248D01*
X220684Y88260D01*
X220681Y88274D01*
X220674Y88290D01*
X220666Y88305D01*
X220655Y88319D01*
X220653Y88321D01*
X220648Y88324D01*
X220641Y88330D01*
X220630Y88335D01*
X220617Y88342D01*
X220600Y88347D01*
X220582Y88351D01*
X220560Y88353D01*
X220569Y88433D01*
X220570D01*
X220572Y88432D01*
X220577D01*
X220584Y88432D01*
X220591Y88430D01*
X220599Y88428D01*
X220609Y88425D01*
X220620Y88422D01*
X220642Y88415D01*
X220664Y88404D01*
X220675Y88397D01*
X220686Y88389D01*
X220696Y88381D01*
X220706Y88371D01*
X220706Y88370D01*
X220707Y88369D01*
X220710Y88366D01*
X220713Y88361D01*
X220717Y88356D01*
X220720Y88349D01*
X220725Y88342D01*
X220730Y88333D01*
X220734Y88322D01*
X220739Y88311D01*
X220743Y88299D01*
X220746Y88286D01*
X220749Y88272D01*
X220752Y88258D01*
X220753Y88242D01*
X220754Y88225D01*
Y88216D01*
X220753Y88210D01*
X220752Y88202D01*
X220751Y88193D01*
X220749Y88183D01*
X220747Y88173D01*
X220741Y88149D01*
X220731Y88125D01*
X220726Y88113D01*
X220719Y88101D01*
X220711Y88089D01*
X220702Y88079D01*
X220701Y88078D01*
X220700Y88076D01*
X220696Y88075D01*
X220693Y88071D01*
X220688Y88066D01*
X220682Y88062D01*
X220675Y88057D01*
X220667Y88052D01*
X220649Y88042D01*
X220627Y88033D01*
X220616Y88029D01*
X220603Y88027D01*
X220590Y88026D01*
X220576Y88025D01*
X220574D01*
X220570D01*
X220562Y88026D01*
X220552Y88027D01*
X220541Y88028D01*
X220528Y88032D01*
X220514Y88036D01*
X220500Y88041D01*
X220498Y88042D01*
X220494Y88044D01*
X220486Y88048D01*
X220476Y88053D01*
X220465Y88061D01*
X220451Y88070D01*
X220437Y88081D01*
X220422Y88094D01*
X220420Y88096D01*
X220414Y88101D01*
X220410Y88105D01*
X220405Y88110D01*
X220400Y88115D01*
X220392Y88123D01*
X220385Y88130D01*
X220376Y88139D01*
X220367Y88149D01*
X220357Y88160D01*
X220347Y88172D01*
X220335Y88185D01*
X220323Y88199D01*
X220310Y88214D01*
X220309Y88215D01*
X220307Y88217D01*
X220304Y88221D01*
X220301Y88225D01*
X220295Y88231D01*
X220290Y88237D01*
X220277Y88252D01*
X220264Y88268D01*
X220250Y88283D01*
X220238Y88296D01*
X220233Y88301D01*
X220229Y88306D01*
X220228Y88307D01*
X220225Y88309D01*
X220221Y88313D01*
X220216Y88318D01*
X220209Y88322D01*
X220203Y88328D01*
X220187Y88339D01*
Y88024D01*
X220111D01*
Y88448D01*
X220112D01*
X220116D01*
X220121D01*
X220129Y88447D01*
D02*
G37*
G36*
X220290Y87860D02*
X220290D01*
X220288Y87859D01*
X220284Y87858D01*
X220279Y87857D01*
X220274Y87856D01*
X220267Y87855D01*
X220253Y87850D01*
X220237Y87843D01*
X220221Y87835D01*
X220206Y87826D01*
X220193Y87815D01*
X220192Y87813D01*
X220189Y87809D01*
X220184Y87802D01*
X220180Y87793D01*
X220174Y87782D01*
X220169Y87768D01*
X220166Y87752D01*
X220165Y87735D01*
Y87730D01*
X220166Y87726D01*
X220167Y87716D01*
X220169Y87703D01*
X220174Y87688D01*
X220180Y87672D01*
X220190Y87657D01*
X220203Y87642D01*
X220204Y87640D01*
X220210Y87635D01*
X220218Y87630D01*
X220229Y87623D01*
X220243Y87615D01*
X220259Y87610D01*
X220277Y87605D01*
X220298Y87603D01*
X220299D01*
X220301D01*
X220303D01*
X220307Y87604D01*
X220317Y87605D01*
X220329Y87608D01*
X220344Y87611D01*
X220359Y87618D01*
X220374Y87627D01*
X220388Y87639D01*
X220389Y87641D01*
X220393Y87646D01*
X220399Y87653D01*
X220405Y87663D01*
X220412Y87676D01*
X220417Y87692D01*
X220421Y87709D01*
X220423Y87729D01*
Y87737D01*
X220422Y87744D01*
X220421Y87752D01*
X220419Y87761D01*
X220417Y87772D01*
X220414Y87784D01*
X220484Y87775D01*
Y87770D01*
X220483Y87767D01*
Y87755D01*
X220485Y87745D01*
X220486Y87733D01*
X220489Y87719D01*
X220494Y87703D01*
X220500Y87688D01*
X220509Y87672D01*
Y87672D01*
X220510Y87671D01*
X220513Y87666D01*
X220520Y87660D01*
X220528Y87652D01*
X220540Y87645D01*
X220554Y87638D01*
X220570Y87634D01*
X220579Y87632D01*
X220589D01*
X220590D01*
X220591D01*
X220596D01*
X220604Y87634D01*
X220614Y87635D01*
X220625Y87639D01*
X220637Y87644D01*
X220649Y87651D01*
X220660Y87661D01*
X220661Y87662D01*
X220665Y87667D01*
X220670Y87673D01*
X220675Y87682D01*
X220680Y87693D01*
X220684Y87706D01*
X220688Y87721D01*
X220689Y87737D01*
Y87745D01*
X220687Y87753D01*
X220685Y87764D01*
X220682Y87776D01*
X220677Y87788D01*
X220670Y87801D01*
X220660Y87813D01*
X220659Y87814D01*
X220655Y87818D01*
X220648Y87823D01*
X220639Y87830D01*
X220627Y87836D01*
X220612Y87843D01*
X220595Y87848D01*
X220574Y87852D01*
X220588Y87930D01*
X220589D01*
X220592Y87929D01*
X220596Y87929D01*
X220601Y87928D01*
X220608Y87926D01*
X220615Y87923D01*
X220633Y87917D01*
X220653Y87908D01*
X220673Y87897D01*
X220693Y87883D01*
X220710Y87866D01*
X220711Y87865D01*
X220712Y87863D01*
X220714Y87860D01*
X220717Y87856D01*
X220720Y87852D01*
X220724Y87845D01*
X220728Y87839D01*
X220732Y87831D01*
X220740Y87812D01*
X220747Y87791D01*
X220752Y87766D01*
X220754Y87753D01*
Y87730D01*
X220753Y87720D01*
X220751Y87708D01*
X220748Y87693D01*
X220743Y87676D01*
X220738Y87660D01*
X220731Y87643D01*
Y87642D01*
X220730Y87641D01*
X220727Y87635D01*
X220721Y87627D01*
X220715Y87618D01*
X220706Y87607D01*
X220695Y87596D01*
X220683Y87585D01*
X220670Y87575D01*
X220668Y87574D01*
X220663Y87572D01*
X220655Y87568D01*
X220645Y87563D01*
X220633Y87559D01*
X220619Y87555D01*
X220603Y87552D01*
X220587Y87551D01*
X220585D01*
X220580D01*
X220572Y87552D01*
X220562Y87554D01*
X220550Y87557D01*
X220537Y87562D01*
X220524Y87567D01*
X220511Y87574D01*
X220510Y87575D01*
X220506Y87578D01*
X220499Y87584D01*
X220492Y87591D01*
X220484Y87600D01*
X220474Y87611D01*
X220466Y87624D01*
X220458Y87640D01*
Y87639D01*
X220457Y87637D01*
X220456Y87635D01*
X220455Y87631D01*
X220451Y87621D01*
X220446Y87608D01*
X220438Y87593D01*
X220429Y87578D01*
X220417Y87564D01*
X220403Y87551D01*
X220401Y87550D01*
X220396Y87547D01*
X220387Y87541D01*
X220375Y87536D01*
X220360Y87530D01*
X220342Y87525D01*
X220322Y87521D01*
X220300Y87520D01*
X220299D01*
X220296D01*
X220291D01*
X220286Y87521D01*
X220278Y87522D01*
X220270Y87524D01*
X220261Y87525D01*
X220251Y87527D01*
X220229Y87535D01*
X220216Y87540D01*
X220205Y87546D01*
X220193Y87553D01*
X220181Y87562D01*
X220169Y87571D01*
X220158Y87582D01*
X220157Y87583D01*
X220155Y87585D01*
X220153Y87588D01*
X220149Y87593D01*
X220144Y87598D01*
X220140Y87606D01*
X220134Y87614D01*
X220130Y87624D01*
X220124Y87635D01*
X220118Y87647D01*
X220114Y87659D01*
X220109Y87672D01*
X220106Y87687D01*
X220103Y87703D01*
X220101Y87719D01*
X220100Y87736D01*
Y87745D01*
X220101Y87750D01*
X220102Y87758D01*
X220103Y87766D01*
X220105Y87775D01*
X220106Y87785D01*
X220112Y87807D01*
X220121Y87831D01*
X220127Y87843D01*
X220133Y87854D01*
X220142Y87865D01*
X220150Y87876D01*
X220151Y87877D01*
X220153Y87879D01*
X220155Y87881D01*
X220159Y87884D01*
X220164Y87889D01*
X220170Y87893D01*
X220177Y87899D01*
X220185Y87905D01*
X220194Y87910D01*
X220204Y87916D01*
X220226Y87926D01*
X220252Y87934D01*
X220265Y87937D01*
X220280Y87939D01*
X220290Y87860D01*
D02*
G37*
G36*
X186102Y103124D02*
X186111D01*
X186121Y103123D01*
X186133Y103122D01*
X186145Y103120D01*
X186172Y103116D01*
X186201Y103109D01*
X186231Y103100D01*
X186259Y103087D01*
X186260Y103086D01*
X186263Y103085D01*
X186267Y103083D01*
X186271Y103080D01*
X186278Y103076D01*
X186285Y103071D01*
X186302Y103059D01*
X186320Y103044D01*
X186339Y103025D01*
X186357Y103004D01*
X186373Y102979D01*
X186374Y102978D01*
X186375Y102975D01*
X186377Y102972D01*
X186380Y102967D01*
X186382Y102960D01*
X186385Y102952D01*
X186389Y102943D01*
X186393Y102933D01*
X186396Y102922D01*
X186400Y102910D01*
X186406Y102884D01*
X186410Y102854D01*
X186412Y102824D01*
Y102814D01*
X186411Y102808D01*
X186410Y102800D01*
X186409Y102789D01*
X186408Y102779D01*
X186406Y102767D01*
X186400Y102742D01*
X186392Y102715D01*
X186386Y102701D01*
X186380Y102688D01*
X186371Y102675D01*
X186363Y102662D01*
X186362Y102661D01*
X186361Y102659D01*
X186358Y102655D01*
X186354Y102651D01*
X186349Y102646D01*
X186343Y102640D01*
X186335Y102633D01*
X186328Y102626D01*
X186319Y102618D01*
X186307Y102611D01*
X186296Y102603D01*
X186284Y102595D01*
X186271Y102589D01*
X186257Y102581D01*
X186242Y102576D01*
X186225Y102570D01*
X186206Y102653D01*
X186207D01*
X186209Y102654D01*
X186212Y102656D01*
X186217Y102658D01*
X186222Y102660D01*
X186230Y102663D01*
X186245Y102670D01*
X186261Y102679D01*
X186278Y102690D01*
X186294Y102704D01*
X186307Y102719D01*
X186309Y102721D01*
X186313Y102727D01*
X186318Y102736D01*
X186324Y102748D01*
X186330Y102764D01*
X186335Y102781D01*
X186339Y102802D01*
X186340Y102825D01*
Y102833D01*
X186339Y102837D01*
Y102844D01*
X186338Y102851D01*
X186335Y102869D01*
X186332Y102888D01*
X186325Y102909D01*
X186316Y102930D01*
X186304Y102949D01*
Y102950D01*
X186302Y102951D01*
X186297Y102958D01*
X186290Y102966D01*
X186279Y102976D01*
X186265Y102988D01*
X186249Y102999D01*
X186230Y103009D01*
X186209Y103019D01*
X186208D01*
X186206Y103020D01*
X186203Y103021D01*
X186198Y103021D01*
X186193Y103023D01*
X186186Y103025D01*
X186171Y103028D01*
X186152Y103032D01*
X186132Y103035D01*
X186110Y103037D01*
X186086Y103038D01*
X186085D01*
X186082D01*
X186077D01*
X186072D01*
X186065Y103037D01*
X186057D01*
X186048Y103036D01*
X186038Y103035D01*
X186015Y103033D01*
X185991Y103028D01*
X185967Y103022D01*
X185943Y103015D01*
X185942D01*
X185940Y103014D01*
X185938Y103012D01*
X185933Y103010D01*
X185922Y103005D01*
X185909Y102996D01*
X185894Y102986D01*
X185878Y102973D01*
X185865Y102959D01*
X185852Y102941D01*
Y102940D01*
X185851Y102938D01*
X185849Y102935D01*
X185847Y102932D01*
X185845Y102927D01*
X185842Y102922D01*
X185837Y102909D01*
X185831Y102892D01*
X185827Y102874D01*
X185823Y102853D01*
X185822Y102832D01*
Y102825D01*
X185823Y102820D01*
Y102813D01*
X185824Y102807D01*
X185828Y102790D01*
X185832Y102771D01*
X185840Y102751D01*
X185850Y102731D01*
X185855Y102721D01*
X185863Y102712D01*
X185864Y102711D01*
X185865Y102710D01*
X185867Y102707D01*
X185870Y102703D01*
X185875Y102700D01*
X185880Y102695D01*
X185886Y102690D01*
X185893Y102685D01*
X185902Y102679D01*
X185911Y102673D01*
X185920Y102667D01*
X185931Y102662D01*
X185943Y102657D01*
X185956Y102653D01*
X185970Y102648D01*
X185985Y102644D01*
X185964Y102559D01*
X185963D01*
X185959Y102560D01*
X185953Y102562D01*
X185946Y102565D01*
X185938Y102567D01*
X185928Y102571D01*
X185916Y102576D01*
X185904Y102581D01*
X185878Y102594D01*
X185853Y102611D01*
X185840Y102621D01*
X185827Y102631D01*
X185816Y102642D01*
X185805Y102655D01*
X185804Y102656D01*
X185802Y102658D01*
X185800Y102663D01*
X185796Y102667D01*
X185792Y102675D01*
X185787Y102682D01*
X185782Y102692D01*
X185778Y102702D01*
X185772Y102715D01*
X185768Y102727D01*
X185763Y102741D01*
X185758Y102756D01*
X185755Y102772D01*
X185753Y102788D01*
X185751Y102806D01*
X185750Y102825D01*
Y102835D01*
X185751Y102842D01*
Y102850D01*
X185752Y102861D01*
X185754Y102872D01*
X185756Y102885D01*
X185760Y102911D01*
X185768Y102939D01*
X185778Y102967D01*
X185784Y102980D01*
X185792Y102993D01*
X185793Y102994D01*
X185793Y102996D01*
X185796Y102999D01*
X185800Y103003D01*
X185804Y103009D01*
X185809Y103015D01*
X185816Y103022D01*
X185823Y103030D01*
X185831Y103037D01*
X185840Y103046D01*
X185861Y103062D01*
X185886Y103078D01*
X185914Y103092D01*
X185915D01*
X185917Y103094D01*
X185922Y103094D01*
X185928Y103097D01*
X185935Y103099D01*
X185944Y103102D01*
X185954Y103106D01*
X185965Y103108D01*
X185977Y103111D01*
X185991Y103115D01*
X186020Y103119D01*
X186052Y103123D01*
X186086Y103125D01*
X186087D01*
X186090D01*
X186096D01*
X186102Y103124D01*
D02*
G37*
G36*
X185779Y102497D02*
X185787Y102496D01*
X185796Y102494D01*
X185805Y102493D01*
X185816Y102489D01*
X185817D01*
X185817Y102488D01*
X185823Y102486D01*
X185831Y102482D01*
X185842Y102477D01*
X185855Y102469D01*
X185870Y102460D01*
X185885Y102450D01*
X185901Y102437D01*
X185902D01*
X185903Y102435D01*
X185908Y102431D01*
X185916Y102422D01*
X185928Y102410D01*
X185942Y102396D01*
X185959Y102379D01*
X185977Y102358D01*
X185997Y102335D01*
X185998Y102334D01*
X186001Y102330D01*
X186005Y102324D01*
X186011Y102318D01*
X186018Y102310D01*
X186026Y102299D01*
X186036Y102289D01*
X186046Y102277D01*
X186068Y102254D01*
X186090Y102231D01*
X186101Y102220D01*
X186112Y102210D01*
X186123Y102200D01*
X186133Y102193D01*
X186134D01*
X186135Y102191D01*
X186137Y102189D01*
X186141Y102188D01*
X186151Y102181D01*
X186163Y102174D01*
X186178Y102167D01*
X186194Y102161D01*
X186211Y102157D01*
X186228Y102155D01*
X186229D01*
X186230D01*
X186235Y102156D01*
X186245Y102157D01*
X186255Y102160D01*
X186268Y102163D01*
X186281Y102170D01*
X186294Y102178D01*
X186307Y102189D01*
X186308Y102191D01*
X186312Y102196D01*
X186317Y102202D01*
X186323Y102212D01*
X186329Y102225D01*
X186334Y102240D01*
X186338Y102258D01*
X186339Y102277D01*
Y102283D01*
X186338Y102286D01*
X186337Y102298D01*
X186334Y102310D01*
X186331Y102324D01*
X186324Y102340D01*
X186316Y102355D01*
X186305Y102369D01*
X186303Y102371D01*
X186298Y102374D01*
X186291Y102380D01*
X186280Y102385D01*
X186267Y102392D01*
X186250Y102397D01*
X186232Y102401D01*
X186210Y102403D01*
X186219Y102483D01*
X186220D01*
X186222Y102482D01*
X186227D01*
X186234Y102482D01*
X186241Y102480D01*
X186249Y102478D01*
X186259Y102475D01*
X186270Y102472D01*
X186292Y102465D01*
X186314Y102454D01*
X186325Y102447D01*
X186336Y102439D01*
X186346Y102431D01*
X186356Y102421D01*
X186357Y102421D01*
X186357Y102419D01*
X186360Y102416D01*
X186363Y102411D01*
X186367Y102406D01*
X186370Y102399D01*
X186375Y102392D01*
X186380Y102383D01*
X186384Y102372D01*
X186389Y102361D01*
X186393Y102349D01*
X186396Y102336D01*
X186399Y102322D01*
X186402Y102308D01*
X186403Y102292D01*
X186404Y102275D01*
Y102266D01*
X186403Y102260D01*
X186402Y102252D01*
X186401Y102243D01*
X186399Y102233D01*
X186397Y102223D01*
X186391Y102199D01*
X186381Y102175D01*
X186376Y102163D01*
X186369Y102151D01*
X186361Y102139D01*
X186352Y102129D01*
X186351Y102128D01*
X186350Y102126D01*
X186346Y102125D01*
X186343Y102121D01*
X186338Y102116D01*
X186332Y102112D01*
X186325Y102107D01*
X186317Y102102D01*
X186299Y102092D01*
X186277Y102083D01*
X186266Y102079D01*
X186253Y102077D01*
X186240Y102076D01*
X186226Y102075D01*
X186224D01*
X186220D01*
X186212Y102076D01*
X186202Y102077D01*
X186191Y102078D01*
X186178Y102082D01*
X186164Y102086D01*
X186150Y102091D01*
X186148Y102092D01*
X186144Y102094D01*
X186136Y102098D01*
X186126Y102103D01*
X186115Y102111D01*
X186101Y102120D01*
X186087Y102131D01*
X186072Y102144D01*
X186070Y102146D01*
X186064Y102151D01*
X186060Y102155D01*
X186055Y102160D01*
X186050Y102165D01*
X186042Y102173D01*
X186035Y102180D01*
X186026Y102189D01*
X186017Y102199D01*
X186007Y102210D01*
X185997Y102222D01*
X185985Y102235D01*
X185973Y102249D01*
X185960Y102264D01*
X185959Y102265D01*
X185957Y102267D01*
X185954Y102271D01*
X185951Y102275D01*
X185945Y102281D01*
X185940Y102287D01*
X185928Y102302D01*
X185914Y102318D01*
X185900Y102333D01*
X185888Y102346D01*
X185883Y102351D01*
X185878Y102356D01*
X185878Y102357D01*
X185875Y102359D01*
X185871Y102363D01*
X185866Y102368D01*
X185859Y102372D01*
X185853Y102378D01*
X185837Y102389D01*
Y102074D01*
X185761D01*
Y102498D01*
X185762D01*
X185766D01*
X185771D01*
X185779Y102497D01*
D02*
G37*
G36*
X186393Y101570D02*
X186331D01*
X186330Y101571D01*
X186328Y101573D01*
X186324Y101576D01*
X186319Y101580D01*
X186312Y101586D01*
X186305Y101593D01*
X186295Y101600D01*
X186284Y101609D01*
X186273Y101617D01*
X186260Y101627D01*
X186246Y101637D01*
X186231Y101648D01*
X186214Y101659D01*
X186197Y101670D01*
X186177Y101681D01*
X186158Y101692D01*
X186157Y101693D01*
X186153Y101695D01*
X186148Y101697D01*
X186139Y101702D01*
X186129Y101707D01*
X186118Y101712D01*
X186105Y101719D01*
X186090Y101725D01*
X186074Y101733D01*
X186057Y101741D01*
X186038Y101748D01*
X186019Y101756D01*
X185979Y101771D01*
X185937Y101784D01*
X185936D01*
X185933Y101785D01*
X185928Y101786D01*
X185923Y101788D01*
X185915Y101790D01*
X185906Y101792D01*
X185896Y101795D01*
X185885Y101796D01*
X185872Y101799D01*
X185858Y101802D01*
X185829Y101807D01*
X185796Y101811D01*
X185761Y101814D01*
Y101894D01*
X185762D01*
X185765D01*
X185768D01*
X185774Y101894D01*
X185781D01*
X185791Y101893D01*
X185801Y101892D01*
X185812Y101891D01*
X185825Y101889D01*
X185838Y101887D01*
X185854Y101884D01*
X185869Y101881D01*
X185886Y101879D01*
X185904Y101875D01*
X185942Y101866D01*
X185943D01*
X185947Y101865D01*
X185952Y101863D01*
X185961Y101860D01*
X185970Y101857D01*
X185981Y101854D01*
X185994Y101850D01*
X186008Y101844D01*
X186024Y101839D01*
X186039Y101833D01*
X186075Y101820D01*
X186111Y101803D01*
X186148Y101784D01*
X186149Y101783D01*
X186153Y101782D01*
X186158Y101779D01*
X186165Y101775D01*
X186173Y101771D01*
X186184Y101764D01*
X186195Y101758D01*
X186207Y101750D01*
X186234Y101733D01*
X186261Y101714D01*
X186290Y101693D01*
X186317Y101671D01*
Y101984D01*
X186393D01*
Y101570D01*
D02*
G37*
G36*
X202034Y92486D02*
X201955D01*
Y92986D01*
X201954Y92985D01*
X201950Y92982D01*
X201944Y92976D01*
X201935Y92970D01*
X201925Y92961D01*
X201912Y92952D01*
X201897Y92942D01*
X201880Y92932D01*
X201879D01*
X201878Y92931D01*
X201873Y92927D01*
X201864Y92922D01*
X201853Y92917D01*
X201840Y92910D01*
X201826Y92904D01*
X201812Y92898D01*
X201798Y92892D01*
Y92968D01*
X201799D01*
X201801Y92970D01*
X201805Y92971D01*
X201809Y92973D01*
X201815Y92976D01*
X201821Y92980D01*
X201837Y92989D01*
X201855Y92999D01*
X201874Y93012D01*
X201893Y93027D01*
X201913Y93043D01*
X201914Y93044D01*
X201915Y93045D01*
X201917Y93047D01*
X201921Y93050D01*
X201929Y93059D01*
X201940Y93070D01*
X201952Y93083D01*
X201964Y93098D01*
X201974Y93113D01*
X201983Y93129D01*
X202034D01*
Y92486D01*
D02*
G37*
G36*
X201388Y93125D02*
X201406Y93124D01*
X201425Y93122D01*
X201443Y93119D01*
X201459Y93117D01*
X201460D01*
X201462Y93116D01*
X201464D01*
X201468Y93114D01*
X201478Y93111D01*
X201491Y93106D01*
X201506Y93100D01*
X201522Y93092D01*
X201537Y93082D01*
X201552Y93070D01*
X201553Y93069D01*
X201554Y93069D01*
X201557Y93066D01*
X201560Y93063D01*
X201570Y93054D01*
X201581Y93041D01*
X201593Y93025D01*
X201606Y93007D01*
X201618Y92985D01*
X201628Y92961D01*
Y92960D01*
X201629Y92959D01*
X201631Y92955D01*
X201632Y92949D01*
X201634Y92943D01*
X201636Y92935D01*
X201638Y92927D01*
X201641Y92917D01*
X201644Y92907D01*
X201646Y92895D01*
X201650Y92869D01*
X201653Y92840D01*
X201654Y92809D01*
Y92808D01*
Y92806D01*
Y92801D01*
Y92797D01*
X201653Y92790D01*
Y92783D01*
X201652Y92765D01*
X201649Y92745D01*
X201646Y92724D01*
X201642Y92701D01*
X201636Y92679D01*
Y92678D01*
X201635Y92677D01*
X201634Y92674D01*
X201633Y92670D01*
X201630Y92660D01*
X201624Y92647D01*
X201619Y92632D01*
X201611Y92617D01*
X201602Y92602D01*
X201593Y92587D01*
X201592Y92585D01*
X201588Y92580D01*
X201583Y92574D01*
X201575Y92566D01*
X201567Y92556D01*
X201557Y92547D01*
X201547Y92537D01*
X201535Y92529D01*
X201533Y92528D01*
X201529Y92525D01*
X201523Y92521D01*
X201513Y92517D01*
X201502Y92511D01*
X201489Y92506D01*
X201474Y92501D01*
X201458Y92496D01*
X201456D01*
X201453Y92495D01*
X201450Y92494D01*
X201441Y92493D01*
X201428Y92492D01*
X201413Y92490D01*
X201396Y92488D01*
X201376Y92487D01*
X201355Y92486D01*
X201125D01*
Y93126D01*
X201371D01*
X201388Y93125D01*
D02*
G37*
G36*
X202463Y93128D02*
X202475Y93126D01*
X202489Y93123D01*
X202504Y93119D01*
X202519Y93115D01*
X202534Y93107D01*
X202535D01*
X202536Y93106D01*
X202540Y93104D01*
X202548Y93099D01*
X202557Y93093D01*
X202567Y93083D01*
X202578Y93073D01*
X202589Y93061D01*
X202599Y93047D01*
X202600Y93045D01*
X202603Y93041D01*
X202607Y93033D01*
X202614Y93020D01*
X202619Y93007D01*
X202626Y92991D01*
X202633Y92972D01*
X202638Y92952D01*
Y92951D01*
X202639Y92949D01*
X202640Y92947D01*
X202641Y92942D01*
X202642Y92936D01*
X202643Y92930D01*
X202645Y92922D01*
X202646Y92912D01*
X202648Y92902D01*
X202649Y92891D01*
X202650Y92878D01*
X202651Y92865D01*
X202652Y92850D01*
Y92836D01*
X202653Y92819D01*
Y92801D01*
Y92800D01*
Y92797D01*
Y92790D01*
Y92783D01*
X202652Y92773D01*
Y92762D01*
X202651Y92750D01*
X202651Y92737D01*
X202648Y92707D01*
X202643Y92677D01*
X202638Y92647D01*
X202634Y92633D01*
X202629Y92619D01*
Y92618D01*
X202628Y92616D01*
X202626Y92613D01*
X202625Y92608D01*
X202623Y92602D01*
X202619Y92595D01*
X202612Y92579D01*
X202602Y92563D01*
X202590Y92544D01*
X202577Y92528D01*
X202560Y92512D01*
X202559D01*
X202558Y92510D01*
X202555Y92508D01*
X202552Y92506D01*
X202547Y92504D01*
X202542Y92500D01*
X202528Y92493D01*
X202512Y92487D01*
X202492Y92481D01*
X202469Y92477D01*
X202444Y92475D01*
X202435D01*
X202429Y92476D01*
X202421Y92477D01*
X202412Y92479D01*
X202402Y92481D01*
X202391Y92483D01*
X202380Y92487D01*
X202368Y92491D01*
X202356Y92496D01*
X202344Y92503D01*
X202332Y92510D01*
X202320Y92519D01*
X202308Y92530D01*
X202298Y92541D01*
X202297Y92542D01*
X202295Y92544D01*
X202293Y92549D01*
X202288Y92556D01*
X202283Y92565D01*
X202279Y92576D01*
X202272Y92589D01*
X202267Y92604D01*
X202261Y92620D01*
X202256Y92640D01*
X202250Y92661D01*
X202246Y92685D01*
X202241Y92711D01*
X202238Y92738D01*
X202236Y92769D01*
X202235Y92801D01*
Y92802D01*
Y92806D01*
Y92812D01*
Y92820D01*
X202236Y92830D01*
Y92841D01*
X202237Y92853D01*
X202238Y92867D01*
X202241Y92896D01*
X202246Y92926D01*
X202251Y92957D01*
X202255Y92971D01*
X202258Y92984D01*
Y92985D01*
X202259Y92987D01*
X202261Y92991D01*
X202263Y92996D01*
X202265Y93002D01*
X202269Y93008D01*
X202276Y93024D01*
X202285Y93041D01*
X202297Y93058D01*
X202311Y93076D01*
X202328Y93091D01*
X202329D01*
X202330Y93093D01*
X202332Y93094D01*
X202336Y93096D01*
X202341Y93100D01*
X202346Y93103D01*
X202360Y93110D01*
X202377Y93117D01*
X202396Y93123D01*
X202419Y93127D01*
X202444Y93129D01*
X202453D01*
X202463Y93128D01*
D02*
G37*
G36*
X131402Y133699D02*
X131411D01*
X131421Y133698D01*
X131433Y133697D01*
X131445Y133695D01*
X131472Y133691D01*
X131501Y133684D01*
X131531Y133675D01*
X131559Y133662D01*
X131560Y133661D01*
X131563Y133660D01*
X131567Y133658D01*
X131571Y133655D01*
X131578Y133651D01*
X131585Y133646D01*
X131602Y133634D01*
X131620Y133619D01*
X131639Y133600D01*
X131657Y133579D01*
X131673Y133554D01*
X131674Y133553D01*
X131675Y133550D01*
X131677Y133547D01*
X131680Y133542D01*
X131682Y133535D01*
X131685Y133527D01*
X131689Y133518D01*
X131693Y133508D01*
X131696Y133497D01*
X131700Y133485D01*
X131706Y133459D01*
X131710Y133429D01*
X131712Y133399D01*
Y133389D01*
X131711Y133383D01*
X131710Y133375D01*
X131709Y133364D01*
X131708Y133354D01*
X131706Y133342D01*
X131700Y133317D01*
X131692Y133290D01*
X131686Y133276D01*
X131680Y133263D01*
X131671Y133250D01*
X131663Y133237D01*
X131662Y133236D01*
X131661Y133234D01*
X131658Y133230D01*
X131654Y133226D01*
X131649Y133221D01*
X131643Y133215D01*
X131635Y133208D01*
X131628Y133201D01*
X131619Y133193D01*
X131607Y133186D01*
X131596Y133178D01*
X131584Y133170D01*
X131571Y133164D01*
X131557Y133156D01*
X131542Y133151D01*
X131525Y133145D01*
X131506Y133228D01*
X131507D01*
X131509Y133229D01*
X131512Y133231D01*
X131517Y133233D01*
X131522Y133235D01*
X131530Y133238D01*
X131545Y133245D01*
X131561Y133254D01*
X131578Y133265D01*
X131594Y133279D01*
X131607Y133294D01*
X131609Y133296D01*
X131613Y133302D01*
X131618Y133311D01*
X131624Y133323D01*
X131630Y133339D01*
X131635Y133356D01*
X131639Y133377D01*
X131640Y133400D01*
Y133408D01*
X131639Y133412D01*
Y133419D01*
X131638Y133426D01*
X131635Y133444D01*
X131632Y133463D01*
X131625Y133484D01*
X131616Y133505D01*
X131604Y133524D01*
Y133525D01*
X131602Y133526D01*
X131597Y133533D01*
X131590Y133541D01*
X131579Y133551D01*
X131565Y133563D01*
X131549Y133574D01*
X131530Y133584D01*
X131509Y133594D01*
X131508D01*
X131506Y133595D01*
X131503Y133596D01*
X131498Y133596D01*
X131493Y133598D01*
X131486Y133600D01*
X131471Y133603D01*
X131452Y133607D01*
X131432Y133610D01*
X131410Y133612D01*
X131386Y133613D01*
X131385D01*
X131382D01*
X131377D01*
X131372D01*
X131365Y133612D01*
X131357D01*
X131348Y133611D01*
X131338Y133610D01*
X131315Y133608D01*
X131291Y133603D01*
X131267Y133597D01*
X131243Y133590D01*
X131242D01*
X131240Y133589D01*
X131238Y133587D01*
X131233Y133585D01*
X131222Y133580D01*
X131209Y133571D01*
X131194Y133561D01*
X131178Y133548D01*
X131165Y133534D01*
X131152Y133516D01*
Y133515D01*
X131151Y133513D01*
X131149Y133510D01*
X131147Y133507D01*
X131145Y133502D01*
X131142Y133497D01*
X131137Y133484D01*
X131131Y133467D01*
X131127Y133449D01*
X131123Y133428D01*
X131122Y133407D01*
Y133400D01*
X131123Y133395D01*
Y133388D01*
X131124Y133382D01*
X131128Y133365D01*
X131132Y133346D01*
X131140Y133326D01*
X131150Y133306D01*
X131155Y133296D01*
X131163Y133287D01*
X131164Y133286D01*
X131165Y133285D01*
X131167Y133282D01*
X131170Y133278D01*
X131175Y133275D01*
X131180Y133270D01*
X131186Y133265D01*
X131193Y133260D01*
X131202Y133254D01*
X131211Y133248D01*
X131220Y133242D01*
X131231Y133237D01*
X131243Y133232D01*
X131256Y133228D01*
X131270Y133223D01*
X131285Y133219D01*
X131264Y133134D01*
X131263D01*
X131259Y133135D01*
X131253Y133137D01*
X131246Y133140D01*
X131238Y133143D01*
X131227Y133146D01*
X131216Y133151D01*
X131204Y133156D01*
X131178Y133169D01*
X131153Y133186D01*
X131140Y133196D01*
X131127Y133206D01*
X131116Y133217D01*
X131105Y133230D01*
X131104Y133231D01*
X131102Y133233D01*
X131100Y133238D01*
X131096Y133242D01*
X131092Y133250D01*
X131087Y133257D01*
X131082Y133267D01*
X131078Y133277D01*
X131072Y133290D01*
X131068Y133302D01*
X131063Y133316D01*
X131058Y133331D01*
X131055Y133347D01*
X131053Y133363D01*
X131051Y133381D01*
X131050Y133400D01*
Y133410D01*
X131051Y133417D01*
Y133425D01*
X131052Y133436D01*
X131054Y133447D01*
X131056Y133460D01*
X131060Y133486D01*
X131068Y133514D01*
X131078Y133542D01*
X131084Y133555D01*
X131092Y133568D01*
X131093Y133569D01*
X131093Y133571D01*
X131096Y133574D01*
X131100Y133578D01*
X131104Y133584D01*
X131109Y133590D01*
X131116Y133597D01*
X131123Y133605D01*
X131131Y133612D01*
X131140Y133620D01*
X131161Y133637D01*
X131186Y133653D01*
X131214Y133667D01*
X131215D01*
X131217Y133669D01*
X131222Y133669D01*
X131227Y133672D01*
X131235Y133674D01*
X131244Y133677D01*
X131254Y133681D01*
X131265Y133683D01*
X131277Y133686D01*
X131291Y133690D01*
X131320Y133694D01*
X131352Y133698D01*
X131386Y133700D01*
X131387D01*
X131390D01*
X131396D01*
X131402Y133699D01*
D02*
G37*
G36*
X131235Y132980D02*
X131234D01*
X131232D01*
X131229Y132979D01*
X131225Y132978D01*
X131215Y132975D01*
X131201Y132971D01*
X131187Y132966D01*
X131171Y132959D01*
X131157Y132949D01*
X131144Y132938D01*
X131143Y132936D01*
X131140Y132933D01*
X131135Y132925D01*
X131130Y132915D01*
X131124Y132904D01*
X131119Y132890D01*
X131116Y132874D01*
X131115Y132857D01*
Y132851D01*
X131116Y132848D01*
X131117Y132836D01*
X131120Y132824D01*
X131125Y132808D01*
X131132Y132792D01*
X131143Y132775D01*
X131150Y132768D01*
X131157Y132761D01*
X131158Y132760D01*
X131159Y132759D01*
X131162Y132757D01*
X131165Y132754D01*
X131175Y132748D01*
X131188Y132740D01*
X131203Y132734D01*
X131223Y132727D01*
X131246Y132723D01*
X131258Y132721D01*
X131271D01*
X131272D01*
X131274D01*
X131277D01*
X131282Y132722D01*
X131288D01*
X131294Y132723D01*
X131309Y132726D01*
X131326Y132730D01*
X131344Y132737D01*
X131361Y132746D01*
X131376Y132759D01*
X131377D01*
X131378Y132761D01*
X131383Y132765D01*
X131389Y132774D01*
X131397Y132785D01*
X131403Y132799D01*
X131410Y132816D01*
X131414Y132836D01*
X131416Y132847D01*
Y132864D01*
X131415Y132872D01*
X131414Y132881D01*
X131411Y132892D01*
X131409Y132903D01*
X131404Y132915D01*
X131399Y132927D01*
X131398Y132928D01*
X131396Y132932D01*
X131391Y132937D01*
X131387Y132945D01*
X131380Y132952D01*
X131372Y132959D01*
X131363Y132968D01*
X131353Y132974D01*
X131363Y133048D01*
X131693Y132986D01*
Y132668D01*
X131618D01*
Y132924D01*
X131445Y132959D01*
X131446Y132958D01*
X131447Y132956D01*
X131448Y132953D01*
X131451Y132948D01*
X131454Y132943D01*
X131458Y132936D01*
X131465Y132922D01*
X131473Y132903D01*
X131479Y132883D01*
X131484Y132861D01*
X131485Y132849D01*
Y132829D01*
X131485Y132824D01*
X131484Y132816D01*
X131483Y132808D01*
X131481Y132799D01*
X131478Y132788D01*
X131472Y132766D01*
X131467Y132754D01*
X131460Y132742D01*
X131454Y132730D01*
X131447Y132718D01*
X131437Y132707D01*
X131427Y132696D01*
X131426Y132695D01*
X131424Y132693D01*
X131422Y132690D01*
X131417Y132687D01*
X131411Y132682D01*
X131404Y132677D01*
X131396Y132672D01*
X131387Y132666D01*
X131376Y132662D01*
X131365Y132656D01*
X131352Y132652D01*
X131339Y132647D01*
X131326Y132643D01*
X131310Y132640D01*
X131294Y132639D01*
X131277Y132638D01*
X131277D01*
X131274D01*
X131269D01*
X131263Y132639D01*
X131255Y132640D01*
X131247Y132640D01*
X131237Y132642D01*
X131227Y132644D01*
X131203Y132650D01*
X131178Y132659D01*
X131165Y132665D01*
X131153Y132672D01*
X131140Y132679D01*
X131128Y132689D01*
X131127Y132689D01*
X131124Y132691D01*
X131120Y132695D01*
X131116Y132700D01*
X131110Y132706D01*
X131103Y132714D01*
X131096Y132723D01*
X131089Y132733D01*
X131081Y132744D01*
X131075Y132757D01*
X131068Y132771D01*
X131062Y132786D01*
X131057Y132801D01*
X131054Y132819D01*
X131051Y132837D01*
X131050Y132857D01*
Y132865D01*
X131051Y132872D01*
X131052Y132879D01*
X131053Y132887D01*
X131054Y132897D01*
X131056Y132908D01*
X131062Y132931D01*
X131070Y132954D01*
X131076Y132966D01*
X131082Y132978D01*
X131090Y132989D01*
X131098Y133000D01*
X131099Y133001D01*
X131100Y133003D01*
X131104Y133005D01*
X131107Y133008D01*
X131112Y133013D01*
X131117Y133018D01*
X131125Y133023D01*
X131133Y133028D01*
X131142Y133033D01*
X131152Y133039D01*
X131174Y133049D01*
X131200Y133057D01*
X131214Y133060D01*
X131228Y133062D01*
X131235Y132980D01*
D02*
G37*
%LPC*%
G36*
X201358Y93050D02*
X201210D01*
Y92562D01*
X201362D01*
X201368Y92563D01*
X201382Y92564D01*
X201398Y92565D01*
X201414Y92567D01*
X201431Y92569D01*
X201445Y92573D01*
X201447Y92574D01*
X201451Y92575D01*
X201458Y92578D01*
X201466Y92581D01*
X201475Y92587D01*
X201485Y92592D01*
X201494Y92599D01*
X201503Y92606D01*
X201504Y92608D01*
X201508Y92612D01*
X201513Y92618D01*
X201520Y92628D01*
X201527Y92640D01*
X201535Y92653D01*
X201543Y92669D01*
X201549Y92687D01*
Y92688D01*
X201550Y92689D01*
X201551Y92692D01*
X201552Y92696D01*
X201553Y92701D01*
X201555Y92707D01*
X201557Y92714D01*
X201559Y92721D01*
X201561Y92739D01*
X201564Y92761D01*
X201566Y92785D01*
X201567Y92811D01*
Y92812D01*
Y92815D01*
Y92820D01*
X201566Y92827D01*
Y92836D01*
X201565Y92845D01*
X201564Y92856D01*
X201563Y92867D01*
X201559Y92892D01*
X201553Y92918D01*
X201545Y92942D01*
X201539Y92954D01*
X201534Y92964D01*
Y92965D01*
X201532Y92967D01*
X201530Y92970D01*
X201528Y92973D01*
X201521Y92983D01*
X201511Y92994D01*
X201499Y93006D01*
X201486Y93018D01*
X201470Y93028D01*
X201453Y93036D01*
X201451Y93037D01*
X201447Y93038D01*
X201438Y93041D01*
X201426Y93044D01*
X201412Y93045D01*
X201393Y93048D01*
X201382Y93049D01*
X201370D01*
X201358Y93050D01*
D02*
G37*
G36*
X202443Y93064D02*
X202438D01*
X202434Y93063D01*
X202424Y93061D01*
X202412Y93058D01*
X202398Y93053D01*
X202383Y93045D01*
X202376Y93039D01*
X202369Y93033D01*
X202362Y93026D01*
X202356Y93018D01*
Y93017D01*
X202354Y93015D01*
X202352Y93011D01*
X202349Y93007D01*
X202346Y92999D01*
X202343Y92991D01*
X202340Y92981D01*
X202336Y92969D01*
X202332Y92955D01*
X202329Y92939D01*
X202325Y92922D01*
X202322Y92902D01*
X202320Y92880D01*
X202318Y92856D01*
X202317Y92830D01*
X202316Y92801D01*
Y92800D01*
Y92795D01*
Y92787D01*
X202317Y92775D01*
Y92763D01*
X202318Y92749D01*
X202319Y92733D01*
X202320Y92716D01*
X202325Y92680D01*
X202328Y92663D01*
X202332Y92646D01*
X202335Y92630D01*
X202341Y92616D01*
X202346Y92603D01*
X202353Y92591D01*
Y92591D01*
X202355Y92590D01*
X202359Y92583D01*
X202368Y92575D01*
X202378Y92566D01*
X202392Y92556D01*
X202407Y92548D01*
X202425Y92542D01*
X202434Y92541D01*
X202444Y92540D01*
X202450D01*
X202454Y92541D01*
X202463Y92542D01*
X202476Y92546D01*
X202490Y92553D01*
X202505Y92562D01*
X202513Y92567D01*
X202520Y92575D01*
X202528Y92582D01*
X202535Y92591D01*
Y92592D01*
X202537Y92594D01*
X202539Y92597D01*
X202540Y92602D01*
X202544Y92608D01*
X202547Y92616D01*
X202551Y92626D01*
X202554Y92637D01*
X202557Y92651D01*
X202561Y92665D01*
X202565Y92683D01*
X202567Y92701D01*
X202569Y92724D01*
X202571Y92747D01*
X202573Y92773D01*
Y92801D01*
Y92802D01*
Y92803D01*
Y92808D01*
Y92816D01*
X202572Y92827D01*
Y92839D01*
X202571Y92854D01*
X202570Y92870D01*
X202568Y92887D01*
X202564Y92922D01*
X202561Y92940D01*
X202557Y92957D01*
X202553Y92972D01*
X202548Y92987D01*
X202542Y93000D01*
X202536Y93011D01*
Y93012D01*
X202534Y93013D01*
X202532Y93016D01*
X202529Y93020D01*
X202521Y93028D01*
X202511Y93038D01*
X202497Y93047D01*
X202481Y93056D01*
X202473Y93059D01*
X202464Y93062D01*
X202454Y93063D01*
X202443Y93064D01*
D02*
G37*
%LPD*%
D115*
X221645Y33885D02*
Y40335D01*
Y33885D02*
X233695D01*
Y40335D01*
X221645D02*
X233695D01*
X219250Y90475D02*
X220950D01*
X219250Y87675D02*
Y90475D01*
Y87675D02*
X220950D01*
Y90475D01*
X181250Y108925D02*
X190250D01*
X181250Y97325D02*
Y108925D01*
Y97325D02*
X190250D01*
Y108925D01*
X195337Y93875D02*
X206913D01*
Y91075D02*
Y93875D01*
X195337Y91075D02*
X206913D01*
X195337D02*
Y93875D01*
X128200Y139800D02*
X133900D01*
X128200Y127600D02*
Y139800D01*
Y127600D02*
X133900D01*
Y139800D01*
D126*
X5500Y42700D02*
X10950D01*
X5500Y31625D02*
X10950D01*
Y42700D01*
X5500Y31625D02*
Y42700D01*
X164582Y108500D02*
X177582D01*
Y95500D02*
Y108500D01*
X164582Y95500D02*
Y108500D01*
Y95500D02*
X177582D01*
X151132Y108500D02*
X164132D01*
Y95500D02*
Y108500D01*
X151132Y95500D02*
Y108500D01*
Y95500D02*
X164132D01*
X137732Y108500D02*
X150732D01*
Y95500D02*
Y108500D01*
X137732Y95500D02*
Y108500D01*
Y95500D02*
X150732D01*
X131599Y53663D02*
Y55187D01*
X128551Y53663D02*
Y55187D01*
X131599D01*
X128551Y53663D02*
X131599D01*
X235306Y43310D02*
X240756D01*
X235306Y32235D02*
X240756D01*
Y43310D01*
X235306Y32235D02*
Y43310D01*
X136199Y41618D02*
X139247D01*
X136199Y43142D02*
X139247D01*
X136199Y41618D02*
Y43142D01*
X139247Y41618D02*
Y43142D01*
X124098Y66589D02*
X127146D01*
X124098Y68113D02*
X127146D01*
X124098Y66589D02*
Y68113D01*
X127146Y66589D02*
Y68113D01*
X150875Y151108D02*
X160067Y160300D01*
X141683D02*
X150875Y151108D01*
Y169492D02*
X160067Y160300D01*
X141683D02*
X150875Y169492D01*
X212175Y160375D02*
Y174725D01*
X213262D01*
X214762D02*
X215850D01*
X213262D02*
X214762D01*
X215850Y160375D02*
Y174725D01*
X212175Y160375D02*
X215850D01*
X35907Y130331D02*
X39231Y127007D01*
X37569Y131993D02*
X40893Y128669D01*
X39231Y127007D02*
X40893Y128669D01*
X35907Y130331D02*
X37569Y131993D01*
X74350Y141875D02*
X79050D01*
X74350Y139525D02*
X79050D01*
X74350D02*
Y141875D01*
X79050Y139525D02*
Y141875D01*
X68307Y130331D02*
X71631Y127007D01*
X69969Y131993D02*
X73293Y128669D01*
X71631Y127007D02*
X73293Y128669D01*
X68307Y130331D02*
X69969Y131993D01*
X106950Y141575D02*
X111650D01*
X106950Y139225D02*
X111650D01*
X106950D02*
Y141575D01*
X111650Y139225D02*
Y141575D01*
X41900Y141275D02*
X46600D01*
X41900Y138925D02*
X46600D01*
X41900D02*
Y141275D01*
X46600Y138925D02*
Y141275D01*
X100725Y44469D02*
Y45556D01*
Y43925D02*
Y44469D01*
Y45556D02*
Y46125D01*
X104500D01*
Y43900D02*
Y46125D01*
X100725Y43900D02*
X104500D01*
X68725Y44469D02*
Y45556D01*
Y43925D02*
Y44469D01*
Y45556D02*
Y46125D01*
X72500D01*
Y43900D02*
Y46125D01*
X68725Y43900D02*
X72500D01*
X36725Y44469D02*
Y45556D01*
Y43925D02*
Y44469D01*
Y45556D02*
Y46125D01*
X40500D01*
Y43900D02*
Y46125D01*
X36725Y43900D02*
X40500D01*
X109775Y134444D02*
Y135531D01*
Y136075D01*
Y133875D02*
Y134444D01*
X106000Y133875D02*
X109775D01*
X106000D02*
Y136100D01*
X109775D01*
X77275Y134444D02*
Y135531D01*
Y136075D01*
Y133875D02*
Y134444D01*
X73500Y133875D02*
X77275D01*
X73500D02*
Y136100D01*
X77275D01*
X44775Y134444D02*
Y135531D01*
Y136075D01*
Y133875D02*
Y134444D01*
X41000Y133875D02*
X44775D01*
X41000D02*
Y136100D01*
X44775D01*
X101307Y129931D02*
X102969Y131593D01*
X104631Y126607D02*
X106293Y128269D01*
X102969Y131593D02*
X106293Y128269D01*
X101307Y129931D02*
X104631Y126607D01*
X8483Y37608D02*
X8600Y37725D01*
Y37958D01*
X8483Y38075D01*
X8017D01*
X7900Y37958D01*
Y37725D01*
X8017Y37608D01*
X8600Y36909D02*
X8483Y37142D01*
X8250Y37375D01*
X8017D01*
X7900Y37259D01*
Y37025D01*
X8017Y36909D01*
X8133D01*
X8250Y37025D01*
Y37375D01*
X8483Y36675D02*
X8600Y36559D01*
Y36326D01*
X8483Y36209D01*
X8367D01*
X8250Y36326D01*
Y36442D01*
Y36326D01*
X8133Y36209D01*
X8017D01*
X7900Y36326D01*
Y36559D01*
X8017Y36675D01*
X171340Y102458D02*
X171457Y102575D01*
Y102808D01*
X171340Y102925D01*
X170873D01*
X170757Y102808D01*
Y102575D01*
X170873Y102458D01*
X170757Y102225D02*
Y101992D01*
Y102109D01*
X171457D01*
X171340Y102225D01*
Y101642D02*
X171457Y101525D01*
Y101292D01*
X171340Y101176D01*
X171223D01*
X171107Y101292D01*
X170990Y101176D01*
X170873D01*
X170757Y101292D01*
Y101525D01*
X170873Y101642D01*
X170990D01*
X171107Y101525D01*
X171223Y101642D01*
X171340D01*
X171107Y101525D02*
Y101292D01*
X157890Y102458D02*
X158007Y102575D01*
Y102808D01*
X157890Y102925D01*
X157424D01*
X157307Y102808D01*
Y102575D01*
X157424Y102458D01*
X157307Y102225D02*
Y101992D01*
Y102109D01*
X158007D01*
X157890Y102225D01*
X158007Y101642D02*
Y101176D01*
X157890D01*
X157424Y101642D01*
X157307D01*
X144490Y102458D02*
X144607Y102575D01*
Y102808D01*
X144490Y102925D01*
X144023D01*
X143907Y102808D01*
Y102575D01*
X144023Y102458D01*
X143907Y102225D02*
Y101992D01*
Y102109D01*
X144607D01*
X144490Y102225D01*
X143907Y101642D02*
Y101409D01*
Y101525D01*
X144607D01*
X144490Y101642D01*
X130584Y54658D02*
X130700Y54775D01*
X130934D01*
X131050Y54658D01*
Y54192D01*
X130934Y54075D01*
X130700D01*
X130584Y54192D01*
X130001Y54075D02*
Y54775D01*
X130351Y54425D01*
X129884D01*
X129184Y54075D02*
X129651D01*
X129184Y54542D01*
Y54658D01*
X129301Y54775D01*
X129534D01*
X129651Y54658D01*
X238289Y38218D02*
X238406Y38335D01*
Y38568D01*
X238289Y38685D01*
X237822D01*
X237706Y38568D01*
Y38335D01*
X237822Y38218D01*
X238406Y37519D02*
X238289Y37752D01*
X238056Y37985D01*
X237822D01*
X237706Y37869D01*
Y37635D01*
X237822Y37519D01*
X237939D01*
X238056Y37635D01*
Y37985D01*
X238289Y37285D02*
X238406Y37169D01*
Y36936D01*
X238289Y36819D01*
X237822D01*
X237706Y36936D01*
Y37169D01*
X237822Y37285D01*
X238289D01*
X138231Y42613D02*
X138348Y42729D01*
X138581D01*
X138698Y42613D01*
Y42146D01*
X138581Y42030D01*
X138348D01*
X138231Y42146D01*
X137648Y42030D02*
Y42729D01*
X137998Y42380D01*
X137531D01*
X136948Y42030D02*
Y42729D01*
X137298Y42380D01*
X136832D01*
X126130Y67584D02*
X126247Y67700D01*
X126480D01*
X126597Y67584D01*
Y67117D01*
X126480Y67001D01*
X126247D01*
X126130Y67117D01*
X125547Y67001D02*
Y67700D01*
X125897Y67351D01*
X125431D01*
X125197Y67584D02*
X125081Y67700D01*
X124848D01*
X124731Y67584D01*
Y67467D01*
X124848Y67351D01*
X124964D01*
X124848D01*
X124731Y67234D01*
Y67117D01*
X124848Y67001D01*
X125081D01*
X125197Y67117D01*
X150733Y160807D02*
Y160972D01*
X150568Y161137D01*
X150403D01*
X150074Y160807D01*
Y160642D01*
X150239Y160477D01*
X150403D01*
X150486Y160229D02*
X150651Y160065D01*
X150568Y160147D01*
X151063Y160642D01*
X150898D01*
X151723Y159982D02*
X151393Y160312D01*
X151146Y160065D01*
X151393Y159982D01*
X151476Y159900D01*
Y159735D01*
X151311Y159570D01*
X151146D01*
X150981Y159735D01*
Y159900D01*
X213650Y166625D02*
X214117D01*
X214350Y166858D01*
X214117Y167092D01*
X213650D01*
Y167325D02*
X214350D01*
Y167675D01*
X214233Y167791D01*
X213767D01*
X213650Y167675D01*
Y167325D01*
X214350Y168025D02*
Y168258D01*
Y168141D01*
X213650D01*
X213767Y168025D01*
X38258Y130007D02*
Y130172D01*
X38093Y130337D01*
X37928D01*
X37599Y130007D01*
Y129842D01*
X37764Y129677D01*
X37928D01*
X38341Y129100D02*
X38011Y129429D01*
X38671D01*
X38753Y129512D01*
Y129677D01*
X38588Y129842D01*
X38423D01*
X38588Y129017D02*
Y128852D01*
X38753Y128687D01*
X38918D01*
X39248Y129017D01*
Y129182D01*
X39083Y129347D01*
X38918D01*
X38836Y129265D01*
Y129100D01*
X39083Y128852D01*
X77158Y140442D02*
X77275Y140325D01*
X77508D01*
X77625Y140442D01*
Y140908D01*
X77508Y141025D01*
X77275D01*
X77158Y140908D01*
X76575Y141025D02*
Y140325D01*
X76925Y140675D01*
X76459D01*
X75759Y140325D02*
X76225D01*
Y140675D01*
X75992Y140558D01*
X75876D01*
X75759Y140675D01*
Y140908D01*
X75876Y141025D01*
X76109D01*
X76225Y140908D01*
X70658Y130007D02*
Y130172D01*
X70493Y130337D01*
X70328D01*
X69999Y130007D01*
Y129842D01*
X70164Y129677D01*
X70328D01*
X71236Y129594D02*
X70906Y129924D01*
X70658Y129677D01*
X70906Y129594D01*
X70988Y129512D01*
Y129347D01*
X70823Y129182D01*
X70658D01*
X70493Y129347D01*
Y129512D01*
X71318Y129347D02*
X71483D01*
X71648Y129182D01*
Y129017D01*
X71565Y128935D01*
X71401D01*
Y128770D01*
X71318Y128687D01*
X71153D01*
X70988Y128852D01*
Y129017D01*
X71071Y129100D01*
X71236D01*
Y129265D01*
X71318Y129347D01*
X71236Y129100D02*
X71401Y128935D01*
X109758Y140142D02*
X109875Y140025D01*
X110108D01*
X110225Y140142D01*
Y140608D01*
X110108Y140725D01*
X109875D01*
X109758Y140608D01*
X109525Y140025D02*
X109059D01*
Y140142D01*
X109525Y140608D01*
Y140725D01*
X108825Y140142D02*
X108709Y140025D01*
X108476D01*
X108359Y140142D01*
Y140608D01*
X108476Y140725D01*
X108709D01*
X108825Y140608D01*
Y140142D01*
X44708Y139842D02*
X44825Y139725D01*
X45058D01*
X45175Y139842D01*
Y140308D01*
X45058Y140425D01*
X44825D01*
X44708Y140308D01*
X44009Y140425D02*
X44475D01*
X44009Y139958D01*
Y139842D01*
X44125Y139725D01*
X44359D01*
X44475Y139842D01*
X43426Y140425D02*
Y139725D01*
X43775Y140075D01*
X43309D01*
X102050Y45350D02*
Y44883D01*
X102283Y44650D01*
X102517Y44883D01*
Y45350D01*
X102750D02*
Y44650D01*
X103100D01*
X103216Y44767D01*
Y45233D01*
X103100Y45350D01*
X102750D01*
X103450Y45233D02*
X103566Y45350D01*
X103799D01*
X103916Y45233D01*
Y45117D01*
X103799Y45000D01*
X103916Y44883D01*
Y44767D01*
X103799Y44650D01*
X103566D01*
X103450Y44767D01*
Y44883D01*
X103566Y45000D01*
X103450Y45117D01*
Y45233D01*
X103566Y45000D02*
X103799D01*
X70050Y45350D02*
Y44883D01*
X70283Y44650D01*
X70517Y44883D01*
Y45350D01*
X70750D02*
Y44650D01*
X71100D01*
X71216Y44767D01*
Y45233D01*
X71100Y45350D01*
X70750D01*
X71916D02*
X71683Y45233D01*
X71450Y45000D01*
Y44767D01*
X71566Y44650D01*
X71799D01*
X71916Y44767D01*
Y44883D01*
X71799Y45000D01*
X71450D01*
X38050Y45350D02*
Y44883D01*
X38283Y44650D01*
X38517Y44883D01*
Y45350D01*
X38750D02*
Y44650D01*
X39100D01*
X39216Y44767D01*
Y45233D01*
X39100Y45350D01*
X38750D01*
X39799Y44650D02*
Y45350D01*
X39450Y45000D01*
X39916D01*
X108450Y134650D02*
Y135117D01*
X108217Y135350D01*
X107983Y135117D01*
Y134650D01*
X107750D02*
Y135350D01*
X107400D01*
X107284Y135233D01*
Y134767D01*
X107400Y134650D01*
X107750D01*
X107050D02*
X106584D01*
Y134767D01*
X107050Y135233D01*
Y135350D01*
X75950Y134650D02*
Y135117D01*
X75717Y135350D01*
X75483Y135117D01*
Y134650D01*
X75250D02*
Y135350D01*
X74900D01*
X74784Y135233D01*
Y134767D01*
X74900Y134650D01*
X75250D01*
X74084D02*
X74550D01*
Y135000D01*
X74317Y134883D01*
X74201D01*
X74084Y135000D01*
Y135233D01*
X74201Y135350D01*
X74434D01*
X74550Y135233D01*
X43450Y134650D02*
Y135117D01*
X43217Y135350D01*
X42983Y135117D01*
Y134650D01*
X42750D02*
Y135350D01*
X42400D01*
X42284Y135233D01*
Y134767D01*
X42400Y134650D01*
X42750D01*
X42050Y134767D02*
X41934Y134650D01*
X41701D01*
X41584Y134767D01*
Y134883D01*
X41701Y135000D01*
X41817D01*
X41701D01*
X41584Y135117D01*
Y135233D01*
X41701Y135350D01*
X41934D01*
X42050Y135233D01*
X103658Y129607D02*
Y129772D01*
X103493Y129937D01*
X103328D01*
X102999Y129607D01*
Y129442D01*
X103164Y129277D01*
X103328D01*
X103906Y129524D02*
X104236Y129194D01*
X104153Y129112D01*
X103493D01*
X103411Y129029D01*
X104153Y128287D02*
X104648Y128782D01*
X104153D01*
X104483Y128452D01*
D131*
X214038Y162451D02*
D03*
%TF.MD5,2db37af7914581067ef3035df076d554*%
M02*
