%TF.GenerationSoftware,Altium Limited,Altium Designer,21.6.4 (81)*%
G04 Layer_Color=32896*
%FSLAX43Y43*%
%MOMM*%
%TF.SameCoordinates,76D5CAF9-2094-4FD7-9A7B-915B2AFADFAF*%
%TF.FilePolarity,Positive*%
%TF.FileFunction,Legend,Bot*%
%TF.Part,Single*%
G01*
G75*
%TA.AperFunction,NonConductor*%
%ADD110C,0.250*%
%ADD111C,0.600*%
%ADD112C,0.152*%
%ADD113C,1.016*%
%ADD114C,0.254*%
%ADD115C,0.200*%
%ADD116C,0.150*%
%ADD117C,0.762*%
%ADD118C,0.076*%
%ADD119R,20.066X1.651*%
G36*
X178715Y35824D02*
Y35570D01*
X178335D01*
Y35824D01*
X178715D01*
D02*
G37*
G36*
X175174Y41866D02*
Y41485D01*
X174920D01*
Y41866D01*
X175174D01*
D02*
G37*
G36*
X180215Y46026D02*
Y46280D01*
X179835D01*
Y46026D01*
X180215D01*
D02*
G37*
G36*
X185376Y42366D02*
Y41985D01*
X185630D01*
Y42366D01*
X185376D01*
D02*
G37*
D110*
X95389Y100088D02*
G03*
X95389Y100088I-125J0D01*
G01*
X131020Y109065D02*
G03*
X131020Y109065I-125J0D01*
G01*
X223060Y20595D02*
G03*
X223060Y20595I-125J0D01*
G01*
X132950Y58650D02*
G03*
X132950Y58650I-125J0D01*
G01*
X160425Y24488D02*
G03*
X160425Y24488I-125J0D01*
G01*
X222925Y69775D02*
G03*
X222925Y69775I-125J0D01*
G01*
X249925Y113500D02*
G03*
X249925Y113500I-125J0D01*
G01*
X194681Y30472D02*
G03*
X194681Y30472I-125J0D01*
G01*
X114400Y77775D02*
G03*
X114400Y77775I-125J0D01*
G01*
X102106Y63720D02*
G03*
X102106Y63720I-125J0D01*
G01*
X117757Y94867D02*
G03*
X117757Y94867I-125J0D01*
G01*
X117702Y99259D02*
G03*
X117702Y99259I-125J0D01*
G01*
X101841Y68515D02*
G03*
X101841Y68515I-125J0D01*
G01*
X82789Y91437D02*
G03*
X82789Y91437I-125J0D01*
G01*
Y86388D02*
G03*
X82789Y86388I-125J0D01*
G01*
X140450Y46200D02*
G03*
X140450Y46200I-125J0D01*
G01*
X128522Y72000D02*
G03*
X128522Y72000I-125J0D01*
G01*
X129748Y45394D02*
G03*
X129748Y45394I-125J0D01*
G01*
X92748Y48139D02*
G03*
X92748Y48139I-125J0D01*
G01*
X61976Y48100D02*
G03*
X61976Y48100I-125J0D01*
G01*
D111*
X225935Y21690D02*
G03*
X225935Y21690I-300J0D01*
G01*
D112*
X183101Y35574D02*
G03*
X183101Y35574I-76J0D01*
G01*
X108347Y64013D02*
Y68255D01*
X113605Y64013D02*
Y68255D01*
X129406Y95144D02*
Y99386D01*
X124148Y95144D02*
Y99386D01*
X94288Y86653D02*
Y90895D01*
X89030Y86653D02*
Y90895D01*
X183996Y37204D02*
Y37690D01*
X176554Y37204D02*
Y37690D01*
Y44646D02*
X177040D01*
X183996Y44160D02*
Y44646D01*
X183510Y37204D02*
X183996D01*
X176554D02*
X177040D01*
X176554Y44160D02*
Y44646D01*
X183510D02*
X183996D01*
D113*
X161872Y159673D02*
G03*
X161872Y159793I18288J120D01*
G01*
X161872Y159673D02*
G03*
X161872Y159793I18288J120D01*
G01*
X246673Y178128D02*
G03*
X246793Y178128I120J-18288D01*
G01*
X246673Y178128D02*
G03*
X246793Y178128I120J-18288D01*
G01*
X180160Y132234D02*
Y140362D01*
X219234Y159840D02*
X227362D01*
D114*
X97467Y144444D02*
Y149524D01*
X117533Y144444D02*
Y149524D01*
X97467D02*
X117533D01*
X97467Y144444D02*
X117533D01*
X64967D02*
Y149524D01*
X85033Y144444D02*
Y149524D01*
X64967D02*
X85033D01*
X64967Y144444D02*
X85033D01*
X32467D02*
Y149524D01*
X52533Y144444D02*
Y149524D01*
X32467D02*
X52533D01*
X32467Y144444D02*
X52533D01*
X214270Y152845D02*
Y157925D01*
X211730Y152845D02*
X214270D01*
X211730D02*
Y157925D01*
X214270D01*
X3491Y85112D02*
Y94826D01*
X22668Y85112D02*
Y94826D01*
X3491Y85112D02*
X22668D01*
X3491Y94826D02*
X22668D01*
X3618Y85049D02*
X22668Y85174D01*
X3491Y95112D02*
Y104826D01*
X22668Y95112D02*
Y104826D01*
X3491Y95112D02*
X22668D01*
X3491Y104826D02*
X22668D01*
X3618Y95049D02*
X22668Y95174D01*
X3491Y75112D02*
Y84826D01*
X22668Y75112D02*
Y84826D01*
X3491Y75112D02*
X22668D01*
X3491Y84826D02*
X22668D01*
X3618Y75049D02*
X22668Y75174D01*
X248099Y127650D02*
X267149Y127775D01*
X248099Y117236D02*
X267149D01*
X248099Y137810D02*
X267149D01*
X248099Y117236D02*
Y137810D01*
X267149Y117236D02*
Y137810D01*
X52533Y30476D02*
Y35556D01*
X32467Y30476D02*
Y35556D01*
Y30476D02*
X52533D01*
X32467Y35556D02*
X52533D01*
X85033Y30476D02*
Y35556D01*
X64967Y30476D02*
Y35556D01*
Y30476D02*
X85033D01*
X64967Y35556D02*
X85033D01*
X117533Y30476D02*
Y35556D01*
X97467Y30476D02*
Y35556D01*
Y30476D02*
X117533D01*
X97467Y35556D02*
X117533D01*
X241000Y8825D02*
X241800D01*
Y9225D01*
X241667Y9359D01*
X241400D01*
X241267Y9225D01*
Y8825D01*
Y9092D02*
X241000Y9359D01*
Y9625D02*
Y9892D01*
Y9758D01*
X241800D01*
X241667Y9625D01*
X241000Y10825D02*
Y10292D01*
X241533Y10825D01*
X241667D01*
X241800Y10692D01*
Y10425D01*
X241667Y10292D01*
X241800Y11625D02*
X241667Y11358D01*
X241400Y11091D01*
X241133D01*
X241000Y11225D01*
Y11491D01*
X241133Y11625D01*
X241267D01*
X241400Y11491D01*
Y11091D01*
X234793Y8900D02*
X235593D01*
Y9299D01*
X235460Y9433D01*
X235193D01*
X235060Y9299D01*
Y8900D01*
Y9166D02*
X234793Y9433D01*
Y9699D02*
Y9966D01*
Y9833D01*
X235593D01*
X235460Y9699D01*
X234793Y10899D02*
Y10366D01*
X235326Y10899D01*
X235460D01*
X235593Y10766D01*
Y10499D01*
X235460Y10366D01*
X235593Y11699D02*
Y11165D01*
X235193D01*
X235326Y11432D01*
Y11565D01*
X235193Y11699D01*
X234926D01*
X234793Y11565D01*
Y11299D01*
X234926Y11165D01*
X125847Y30193D02*
Y30993D01*
X125448D01*
X125314Y30859D01*
Y30593D01*
X125448Y30460D01*
X125847D01*
X125581D02*
X125314Y30193D01*
X125048D02*
X124781D01*
X124914D01*
Y30993D01*
X125048Y30859D01*
X123848Y30193D02*
X124381D01*
X123848Y30726D01*
Y30859D01*
X123981Y30993D01*
X124248D01*
X124381Y30859D01*
X123182Y30193D02*
Y30993D01*
X123582Y30593D01*
X123048D01*
X57002Y32600D02*
Y33400D01*
X56602D01*
X56469Y33267D01*
Y33000D01*
X56602Y32867D01*
X57002D01*
X56735D02*
X56469Y32600D01*
X56202D02*
X55936D01*
X56069D01*
Y33400D01*
X56202Y33267D01*
X55003Y32600D02*
X55536D01*
X55003Y33133D01*
Y33267D01*
X55136Y33400D01*
X55402D01*
X55536Y33267D01*
X54736D02*
X54603Y33400D01*
X54336D01*
X54203Y33267D01*
Y33133D01*
X54336Y33000D01*
X54469D01*
X54336D01*
X54203Y32867D01*
Y32733D01*
X54336Y32600D01*
X54603D01*
X54736Y32733D01*
X89475Y32400D02*
Y33200D01*
X89075D01*
X88941Y33067D01*
Y32800D01*
X89075Y32667D01*
X89475D01*
X89208D02*
X88941Y32400D01*
X88675D02*
X88408D01*
X88542D01*
Y33200D01*
X88675Y33067D01*
X87475Y32400D02*
X88008D01*
X87475Y32933D01*
Y33067D01*
X87608Y33200D01*
X87875D01*
X88008Y33067D01*
X86675Y32400D02*
X87209D01*
X86675Y32933D01*
Y33067D01*
X86809Y33200D01*
X87075D01*
X87209Y33067D01*
X139983Y41107D02*
X140116Y41240D01*
X140383D01*
X140516Y41107D01*
Y40574D01*
X140383Y40441D01*
X140116D01*
X139983Y40574D01*
X139317Y40441D02*
Y41240D01*
X139717Y40841D01*
X139183D01*
X138517Y40441D02*
Y41240D01*
X138917Y40841D01*
X138384D01*
X129212Y67617D02*
X129346Y67751D01*
X129612D01*
X129745Y67617D01*
Y67084D01*
X129612Y66951D01*
X129346D01*
X129212Y67084D01*
X128546Y66951D02*
Y67751D01*
X128946Y67351D01*
X128413D01*
X128146Y67617D02*
X128013Y67751D01*
X127746D01*
X127613Y67617D01*
Y67484D01*
X127746Y67351D01*
X127879D01*
X127746D01*
X127613Y67218D01*
Y67084D01*
X127746Y66951D01*
X128013D01*
X128146Y67084D01*
X130658Y52892D02*
X130791Y53025D01*
X131058D01*
X131191Y52892D01*
Y52359D01*
X131058Y52225D01*
X130791D01*
X130658Y52359D01*
X129992Y52225D02*
Y53025D01*
X130391Y52625D01*
X129858D01*
X129059Y52225D02*
X129592D01*
X129059Y52758D01*
Y52892D01*
X129192Y53025D01*
X129458D01*
X129592Y52892D01*
X86708Y87923D02*
Y88723D01*
X86308D01*
X86175Y88589D01*
Y88323D01*
X86308Y88189D01*
X86708D01*
X86441D02*
X86175Y87923D01*
X85908Y88589D02*
X85775Y88723D01*
X85508D01*
X85375Y88589D01*
Y88456D01*
X85508Y88323D01*
X85642D01*
X85508D01*
X85375Y88189D01*
Y88056D01*
X85508Y87923D01*
X85775D01*
X85908Y88056D01*
X85109Y88589D02*
X84975Y88723D01*
X84709D01*
X84575Y88589D01*
Y88056D01*
X84709Y87923D01*
X84975D01*
X85109Y88056D01*
Y88589D01*
X249071Y53410D02*
X248271D01*
Y53809D01*
X248404Y53943D01*
X248937D01*
X249071Y53809D01*
Y53410D01*
X248271Y54742D02*
Y54209D01*
X248804Y54742D01*
X248937D01*
X249071Y54609D01*
Y54343D01*
X248937Y54209D01*
X248271Y55009D02*
Y55276D01*
Y55142D01*
X249071D01*
X248937Y55009D01*
X182995Y58267D02*
X183128Y58400D01*
X183395D01*
X183528Y58267D01*
Y57733D01*
X183395Y57600D01*
X183128D01*
X182995Y57733D01*
X182729Y58267D02*
X182595Y58400D01*
X182329D01*
X182195Y58267D01*
Y58133D01*
X182329Y58000D01*
X182462D01*
X182329D01*
X182195Y57867D01*
Y57733D01*
X182329Y57600D01*
X182595D01*
X182729Y57733D01*
X181929Y58267D02*
X181796Y58400D01*
X181529D01*
X181396Y58267D01*
Y58133D01*
X181529Y58000D01*
X181662D01*
X181529D01*
X181396Y57867D01*
Y57733D01*
X181529Y57600D01*
X181796D01*
X181929Y57733D01*
X129541Y32497D02*
Y33297D01*
X129141D01*
X129008Y33164D01*
Y32897D01*
X129141Y32764D01*
X129541D01*
X129275D02*
X129008Y32497D01*
X128742D02*
X128475D01*
X128608D01*
Y33297D01*
X128742Y33164D01*
X127542Y32497D02*
X128075D01*
X127542Y33030D01*
Y33164D01*
X127675Y33297D01*
X127942D01*
X128075Y33164D01*
X127275Y32497D02*
X127009D01*
X127142D01*
Y33297D01*
X127275Y33164D01*
X92416Y34925D02*
Y35725D01*
X92016D01*
X91883Y35592D01*
Y35325D01*
X92016Y35192D01*
X92416D01*
X92150D02*
X91883Y34925D01*
X91617Y35725D02*
X91083D01*
Y35592D01*
X91617Y35058D01*
Y34925D01*
X90817Y35592D02*
X90684Y35725D01*
X90417D01*
X90284Y35592D01*
Y35458D01*
X90417Y35325D01*
X90550D01*
X90417D01*
X90284Y35192D01*
Y35058D01*
X90417Y34925D01*
X90684D01*
X90817Y35058D01*
X63773Y36750D02*
Y37550D01*
X63373D01*
X63240Y37417D01*
Y37150D01*
X63373Y37017D01*
X63773D01*
X63507D02*
X63240Y36750D01*
X62973Y37417D02*
X62840Y37550D01*
X62574D01*
X62440Y37417D01*
Y37283D01*
X62574Y37150D01*
X62707D01*
X62574D01*
X62440Y37017D01*
Y36883D01*
X62574Y36750D01*
X62840D01*
X62973Y36883D01*
X62174Y37550D02*
X61640D01*
Y37417D01*
X62174Y36883D01*
Y36750D01*
X252706Y28347D02*
Y29147D01*
X252306D01*
X252173Y29013D01*
Y28747D01*
X252306Y28613D01*
X252706D01*
X252440D02*
X252173Y28347D01*
X251373D02*
X251907D01*
X251373Y28880D01*
Y29013D01*
X251507Y29147D01*
X251773D01*
X251907Y29013D01*
X251107D02*
X250974Y29147D01*
X250707D01*
X250574Y29013D01*
Y28880D01*
X250707Y28747D01*
X250840D01*
X250707D01*
X250574Y28613D01*
Y28480D01*
X250707Y28347D01*
X250974D01*
X251107Y28480D01*
X211241Y168100D02*
Y168900D01*
X210842D01*
X210708Y168767D01*
Y168500D01*
X210842Y168367D01*
X211241D01*
X210975D02*
X210708Y168100D01*
X210442D02*
X210175D01*
X210308D01*
Y168900D01*
X210442Y168767D01*
X209775Y168100D02*
X209509D01*
X209642D01*
Y168900D01*
X209775Y168767D01*
X110981Y87708D02*
Y88241D01*
X110848D01*
X110314Y87708D01*
X110181D01*
Y88241D01*
X110981Y88507D02*
X110181D01*
Y88907D01*
X110314Y89041D01*
X110848D01*
X110981Y88907D01*
Y88507D01*
X110314Y89307D02*
X110181Y89440D01*
Y89707D01*
X110314Y89840D01*
X110848D01*
X110981Y89707D01*
Y89440D01*
X110848Y89307D01*
X110714D01*
X110581Y89440D01*
Y89840D01*
X112775Y103809D02*
Y104342D01*
X112642D01*
X112108Y103809D01*
X111975D01*
Y104342D01*
X112775Y104608D02*
X111975D01*
Y105008D01*
X112108Y105142D01*
X112642D01*
X112775Y105008D01*
Y104608D01*
X112642Y105408D02*
X112775Y105541D01*
Y105808D01*
X112642Y105941D01*
X112508D01*
X112375Y105808D01*
X112242Y105941D01*
X112108D01*
X111975Y105808D01*
Y105541D01*
X112108Y105408D01*
X112242D01*
X112375Y105541D01*
X112508Y105408D01*
X112642D01*
X112375Y105541D02*
Y105808D01*
X95733Y57054D02*
Y57587D01*
X95599D01*
X95066Y57054D01*
X94933D01*
Y57587D01*
X95733Y57853D02*
X94933D01*
Y58253D01*
X95066Y58387D01*
X95599D01*
X95733Y58253D01*
Y57853D01*
Y58653D02*
Y59186D01*
X95599D01*
X95066Y58653D01*
X94933D01*
X97041Y72949D02*
Y73482D01*
X96908D01*
X96375Y72949D01*
X96241D01*
Y73482D01*
X97041Y73748D02*
X96241D01*
Y74148D01*
X96375Y74281D01*
X96908D01*
X97041Y74148D01*
Y73748D01*
Y75081D02*
X96908Y74815D01*
X96641Y74548D01*
X96375D01*
X96241Y74681D01*
Y74948D01*
X96375Y75081D01*
X96508D01*
X96641Y74948D01*
Y74548D01*
X81930Y77050D02*
X81397D01*
Y76917D01*
X81930Y76383D01*
Y76250D01*
X81397D01*
X81131Y77050D02*
Y76250D01*
X80731D01*
X80598Y76383D01*
Y76917D01*
X80731Y77050D01*
X81131D01*
X79798D02*
X80331D01*
Y76650D01*
X80064Y76783D01*
X79931D01*
X79798Y76650D01*
Y76383D01*
X79931Y76250D01*
X80198D01*
X80331Y76383D01*
X77366Y97525D02*
X76833D01*
Y97392D01*
X77366Y96858D01*
Y96725D01*
X76833D01*
X76567Y97525D02*
Y96725D01*
X76167D01*
X76033Y96858D01*
Y97392D01*
X76167Y97525D01*
X76567D01*
X75367Y96725D02*
Y97525D01*
X75767Y97125D01*
X75234D01*
X205441Y95975D02*
X204908D01*
Y95842D01*
X205441Y95308D01*
Y95175D01*
X204908D01*
X204642Y95975D02*
Y95175D01*
X204242D01*
X204108Y95308D01*
Y95842D01*
X204242Y95975D01*
X204642D01*
X203842Y95842D02*
X203709Y95975D01*
X203442D01*
X203309Y95842D01*
Y95708D01*
X203442Y95575D01*
X203575D01*
X203442D01*
X203309Y95442D01*
Y95308D01*
X203442Y95175D01*
X203709D01*
X203842Y95308D01*
X256186Y14320D02*
X255653D01*
Y14187D01*
X256186Y13653D01*
Y13520D01*
X255653D01*
X255387Y14320D02*
Y13520D01*
X254987D01*
X254853Y13653D01*
Y14187D01*
X254987Y14320D01*
X255387D01*
X254054Y13520D02*
X254587D01*
X254054Y14053D01*
Y14187D01*
X254187Y14320D01*
X254454D01*
X254587Y14187D01*
X255813Y31510D02*
X255280D01*
Y31377D01*
X255813Y30843D01*
Y30710D01*
X255280D01*
X255013Y31510D02*
Y30710D01*
X254613D01*
X254480Y30843D01*
Y31377D01*
X254613Y31510D01*
X255013D01*
X254214Y30710D02*
X253947D01*
X254080D01*
Y31510D01*
X254214Y31377D01*
X130866Y96976D02*
X130199D01*
X130066Y97110D01*
Y97376D01*
X130199Y97510D01*
X130866D01*
X130066Y97776D02*
Y98043D01*
Y97909D01*
X130866D01*
X130733Y97776D01*
X130866Y98976D02*
X130733Y98709D01*
X130466Y98443D01*
X130199D01*
X130066Y98576D01*
Y98842D01*
X130199Y98976D01*
X130333D01*
X130466Y98842D01*
Y98443D01*
X130422Y76725D02*
Y76058D01*
X130288Y75925D01*
X130022D01*
X129888Y76058D01*
Y76725D01*
X129622Y75925D02*
X129355D01*
X129489D01*
Y76725D01*
X129622Y76592D01*
X128422Y76725D02*
X128955D01*
Y76325D01*
X128689Y76458D01*
X128556D01*
X128422Y76325D01*
Y76058D01*
X128556Y75925D01*
X128822D01*
X128955Y76058D01*
X139500Y50117D02*
Y49450D01*
X139367Y49317D01*
X139100D01*
X138967Y49450D01*
Y50117D01*
X138700Y49317D02*
X138433D01*
X138567D01*
Y50117D01*
X138700Y49983D01*
X137634Y49317D02*
Y50117D01*
X138034Y49717D01*
X137500D01*
X159200Y25460D02*
Y24794D01*
X159066Y24660D01*
X158800D01*
X158667Y24794D01*
Y25460D01*
X158400Y24660D02*
X158133D01*
X158267D01*
Y25460D01*
X158400Y25327D01*
X157733D02*
X157600Y25460D01*
X157334D01*
X157200Y25327D01*
Y25194D01*
X157334Y25060D01*
X157467D01*
X157334D01*
X157200Y24927D01*
Y24794D01*
X157334Y24660D01*
X157600D01*
X157733Y24794D01*
X132000Y62432D02*
Y61766D01*
X131866Y61632D01*
X131600D01*
X131467Y61766D01*
Y62432D01*
X131200Y61632D02*
X130933D01*
X131067D01*
Y62432D01*
X131200Y62299D01*
X130000Y61632D02*
X130533D01*
X130000Y62165D01*
Y62299D01*
X130134Y62432D01*
X130400D01*
X130533Y62299D01*
X115000Y65809D02*
X114333D01*
X114200Y65942D01*
Y66208D01*
X114333Y66342D01*
X115000D01*
X114200Y66608D02*
Y66875D01*
Y66742D01*
X115000D01*
X114867Y66608D01*
X114200Y67275D02*
Y67541D01*
Y67408D01*
X115000D01*
X114867Y67275D01*
X131231Y42569D02*
X130565D01*
X130431Y42702D01*
Y42969D01*
X130565Y43102D01*
X131231D01*
X130431Y43369D02*
Y43635D01*
Y43502D01*
X131231D01*
X131098Y43369D01*
Y44035D02*
X131231Y44168D01*
Y44435D01*
X131098Y44568D01*
X130565D01*
X130431Y44435D01*
Y44168D01*
X130565Y44035D01*
X131098D01*
X94739Y46714D02*
Y46048D01*
X94606Y45915D01*
X94339D01*
X94206Y46048D01*
Y46714D01*
X93939Y46048D02*
X93806Y45915D01*
X93539D01*
X93406Y46048D01*
Y46581D01*
X93539Y46714D01*
X93806D01*
X93939Y46581D01*
Y46448D01*
X93806Y46315D01*
X93406D01*
X64067Y46675D02*
Y46008D01*
X63934Y45875D01*
X63667D01*
X63534Y46008D01*
Y46675D01*
X63267Y46542D02*
X63134Y46675D01*
X62867D01*
X62734Y46542D01*
Y46408D01*
X62867Y46275D01*
X62734Y46142D01*
Y46008D01*
X62867Y45875D01*
X63134D01*
X63267Y46008D01*
Y46142D01*
X63134Y46275D01*
X63267Y46408D01*
Y46542D01*
X63134Y46275D02*
X62867D01*
X95600Y88784D02*
X94933D01*
X94800Y88917D01*
Y89183D01*
X94933Y89317D01*
X95600D01*
Y89583D02*
Y90116D01*
X95467D01*
X94933Y89583D01*
X94800D01*
X247266Y106100D02*
Y105433D01*
X247133Y105300D01*
X246867D01*
X246733Y105433D01*
Y106100D01*
X245934D02*
X246200Y105967D01*
X246467Y105700D01*
Y105433D01*
X246333Y105300D01*
X246067D01*
X245934Y105433D01*
Y105567D01*
X246067Y105700D01*
X246467D01*
X245176Y26430D02*
Y25763D01*
X245043Y25630D01*
X244777D01*
X244643Y25763D01*
Y26430D01*
X243844D02*
X244377D01*
Y26030D01*
X244110Y26163D01*
X243977D01*
X243844Y26030D01*
Y25763D01*
X243977Y25630D01*
X244243D01*
X244377Y25763D01*
X224991Y19600D02*
Y18933D01*
X224857Y18800D01*
X224591D01*
X224458Y18933D01*
Y19600D01*
X223791Y18800D02*
Y19600D01*
X224191Y19200D01*
X223658D01*
X185233Y35700D02*
Y35033D01*
X185100Y34900D01*
X184833D01*
X184700Y35033D01*
Y35700D01*
X184433Y34900D02*
X184167D01*
X184300D01*
Y35700D01*
X184433Y35567D01*
X240280Y42760D02*
X241079D01*
Y43160D01*
X240946Y43293D01*
X240679D01*
X240546Y43160D01*
Y42760D01*
Y43026D02*
X240280Y43293D01*
Y43559D02*
Y43826D01*
Y43693D01*
X241079D01*
X240946Y43559D01*
X240280Y44759D02*
Y44226D01*
X240813Y44759D01*
X240946D01*
X241079Y44626D01*
Y44359D01*
X240946Y44226D01*
Y45026D02*
X241079Y45159D01*
Y45426D01*
X240946Y45559D01*
X240413D01*
X240280Y45426D01*
Y45159D01*
X240413Y45026D01*
X240946D01*
X239417Y68584D02*
Y69384D01*
X239017D01*
X238883Y69250D01*
Y68984D01*
X239017Y68850D01*
X239417D01*
X239150D02*
X238883Y68584D01*
X238617D02*
X238350D01*
X238484D01*
Y69384D01*
X238617Y69250D01*
X237950Y68584D02*
X237684D01*
X237817D01*
Y69384D01*
X237950Y69250D01*
X237284Y68717D02*
X237151Y68584D01*
X236884D01*
X236751Y68717D01*
Y69250D01*
X236884Y69384D01*
X237151D01*
X237284Y69250D01*
Y69117D01*
X237151Y68984D01*
X236751D01*
X197982Y9137D02*
X198782D01*
Y9537D01*
X198649Y9670D01*
X198382D01*
X198249Y9537D01*
Y9137D01*
Y9403D02*
X197982Y9670D01*
Y9936D02*
Y10203D01*
Y10070D01*
X198782D01*
X198649Y9936D01*
X197982Y10603D02*
Y10869D01*
Y10736D01*
X198782D01*
X198649Y10603D01*
Y11269D02*
X198782Y11403D01*
Y11669D01*
X198649Y11803D01*
X198516D01*
X198382Y11669D01*
X198249Y11803D01*
X198116D01*
X197982Y11669D01*
Y11403D01*
X198116Y11269D01*
X198249D01*
X198382Y11403D01*
X198516Y11269D01*
X198649D01*
X198382Y11403D02*
Y11669D01*
X117708Y18550D02*
Y19350D01*
X117308D01*
X117175Y19217D01*
Y18950D01*
X117308Y18817D01*
X117708D01*
X117441D02*
X117175Y18550D01*
X116908D02*
X116642D01*
X116775D01*
Y19350D01*
X116908Y19217D01*
X116242Y18550D02*
X115975D01*
X116108D01*
Y19350D01*
X116242Y19217D01*
X115575Y19350D02*
X115042D01*
Y19217D01*
X115575Y18683D01*
Y18550D01*
X122381Y34525D02*
Y35325D01*
X121981D01*
X121848Y35192D01*
Y34925D01*
X121981Y34792D01*
X122381D01*
X122114D02*
X121848Y34525D01*
X121581D02*
X121314D01*
X121448D01*
Y35325D01*
X121581Y35192D01*
X120915Y34525D02*
X120648D01*
X120781D01*
Y35325D01*
X120915Y35192D01*
X119715Y35325D02*
X119982Y35192D01*
X120248Y34925D01*
Y34658D01*
X120115Y34525D01*
X119848D01*
X119715Y34658D01*
Y34792D01*
X119848Y34925D01*
X120248D01*
X261457Y49474D02*
Y50274D01*
X261057D01*
X260924Y50141D01*
Y49874D01*
X261057Y49741D01*
X261457D01*
X261190D02*
X260924Y49474D01*
X260657D02*
X260391D01*
X260524D01*
Y50274D01*
X260657Y50141D01*
X259991Y49474D02*
X259724D01*
X259857D01*
Y50274D01*
X259991Y50141D01*
X258791Y50274D02*
X259324D01*
Y49874D01*
X259058Y50008D01*
X258924D01*
X258791Y49874D01*
Y49608D01*
X258924Y49474D01*
X259191D01*
X259324Y49608D01*
X192450Y9167D02*
X193250D01*
Y9567D01*
X193117Y9700D01*
X192850D01*
X192717Y9567D01*
Y9167D01*
Y9434D02*
X192450Y9700D01*
Y9967D02*
Y10233D01*
Y10100D01*
X193250D01*
X193117Y9967D01*
X192450Y10633D02*
Y10900D01*
Y10767D01*
X193250D01*
X193117Y10633D01*
X192450Y11700D02*
X193250D01*
X192850Y11300D01*
Y11833D01*
X239417Y65934D02*
Y66734D01*
X239017D01*
X238883Y66601D01*
Y66334D01*
X239017Y66201D01*
X239417D01*
X239150D02*
X238883Y65934D01*
X238617D02*
X238350D01*
X238484D01*
Y66734D01*
X238617Y66601D01*
X237950Y65934D02*
X237684D01*
X237817D01*
Y66734D01*
X237950Y66601D01*
X237284D02*
X237151Y66734D01*
X236884D01*
X236751Y66601D01*
Y66468D01*
X236884Y66334D01*
X237017D01*
X236884D01*
X236751Y66201D01*
Y66068D01*
X236884Y65934D01*
X237151D01*
X237284Y66068D01*
X261535Y59749D02*
Y60549D01*
X261135D01*
X261002Y60416D01*
Y60149D01*
X261135Y60016D01*
X261535D01*
X261269D02*
X261002Y59749D01*
X260736D02*
X260469D01*
X260602D01*
Y60549D01*
X260736Y60416D01*
X260069Y59749D02*
X259803D01*
X259936D01*
Y60549D01*
X260069Y60416D01*
X258869Y59749D02*
X259403D01*
X258869Y60283D01*
Y60416D01*
X259003Y60549D01*
X259269D01*
X259403Y60416D01*
X237631Y42960D02*
X238431D01*
Y43360D01*
X238297Y43493D01*
X238031D01*
X237897Y43360D01*
Y42960D01*
Y43226D02*
X237631Y43493D01*
Y43759D02*
Y44026D01*
Y43893D01*
X238431D01*
X238297Y43759D01*
X237631Y44426D02*
Y44692D01*
Y44559D01*
X238431D01*
X238297Y44426D01*
X237631Y45092D02*
Y45359D01*
Y45226D01*
X238431D01*
X238297Y45092D01*
X253875Y47666D02*
X254675D01*
Y48066D01*
X254542Y48200D01*
X254275D01*
X254142Y48066D01*
Y47666D01*
Y47933D02*
X253875Y48200D01*
Y48466D02*
Y48733D01*
Y48599D01*
X254675D01*
X254542Y48466D01*
X253875Y49133D02*
Y49399D01*
Y49266D01*
X254675D01*
X254542Y49133D01*
Y49799D02*
X254675Y49932D01*
Y50199D01*
X254542Y50332D01*
X254008D01*
X253875Y50199D01*
Y49932D01*
X254008Y49799D01*
X254542D01*
X251471Y66375D02*
X252271D01*
Y66775D01*
X252137Y66908D01*
X251871D01*
X251738Y66775D01*
Y66375D01*
Y66641D02*
X251471Y66908D01*
Y67174D02*
Y67441D01*
Y67308D01*
X252271D01*
X252137Y67174D01*
Y67841D02*
X252271Y67974D01*
Y68241D01*
X252137Y68374D01*
X251604D01*
X251471Y68241D01*
Y67974D01*
X251604Y67841D01*
X252137D01*
X251604Y68641D02*
X251471Y68774D01*
Y69041D01*
X251604Y69174D01*
X252137D01*
X252271Y69041D01*
Y68774D01*
X252137Y68641D01*
X252004D01*
X251871Y68774D01*
Y69174D01*
X108425Y92468D02*
X109225D01*
Y92868D01*
X109092Y93001D01*
X108825D01*
X108692Y92868D01*
Y92468D01*
Y92734D02*
X108425Y93001D01*
Y93267D02*
Y93534D01*
Y93401D01*
X109225D01*
X109092Y93267D01*
Y93934D02*
X109225Y94067D01*
Y94334D01*
X109092Y94467D01*
X108558D01*
X108425Y94334D01*
Y94067D01*
X108558Y93934D01*
X109092D01*
Y94734D02*
X109225Y94867D01*
Y95133D01*
X109092Y95267D01*
X108958D01*
X108825Y95133D01*
X108692Y95267D01*
X108558D01*
X108425Y95133D01*
Y94867D01*
X108558Y94734D01*
X108692D01*
X108825Y94867D01*
X108958Y94734D01*
X109092D01*
X108825Y94867D02*
Y95133D01*
X117131Y90874D02*
X117931D01*
Y91274D01*
X117798Y91408D01*
X117531D01*
X117398Y91274D01*
Y90874D01*
Y91141D02*
X117131Y91408D01*
Y91674D02*
Y91941D01*
Y91808D01*
X117931D01*
X117798Y91674D01*
Y92341D02*
X117931Y92474D01*
Y92741D01*
X117798Y92874D01*
X117264D01*
X117131Y92741D01*
Y92474D01*
X117264Y92341D01*
X117798D01*
X117931Y93140D02*
Y93674D01*
X117798D01*
X117264Y93140D01*
X117131D01*
X235729Y52245D02*
X236529D01*
Y52645D01*
X236396Y52779D01*
X236129D01*
X235996Y52645D01*
Y52245D01*
Y52512D02*
X235729Y52779D01*
Y53045D02*
Y53312D01*
Y53178D01*
X236529D01*
X236396Y53045D01*
Y53712D02*
X236529Y53845D01*
Y54111D01*
X236396Y54245D01*
X235862D01*
X235729Y54111D01*
Y53845D01*
X235862Y53712D01*
X236396D01*
X236529Y55045D02*
X236396Y54778D01*
X236129Y54511D01*
X235862D01*
X235729Y54645D01*
Y54911D01*
X235862Y55045D01*
X235996D01*
X236129Y54911D01*
Y54511D01*
X237684Y61201D02*
X238484D01*
Y61601D01*
X238350Y61734D01*
X238084D01*
X237950Y61601D01*
Y61201D01*
Y61467D02*
X237684Y61734D01*
Y62001D02*
Y62267D01*
Y62134D01*
X238484D01*
X238350Y62001D01*
Y62667D02*
X238484Y62800D01*
Y63067D01*
X238350Y63200D01*
X237817D01*
X237684Y63067D01*
Y62800D01*
X237817Y62667D01*
X238350D01*
X238484Y64000D02*
Y63467D01*
X238084D01*
X238217Y63733D01*
Y63867D01*
X238084Y64000D01*
X237817D01*
X237684Y63867D01*
Y63600D01*
X237817Y63467D01*
X224175Y9300D02*
X224975D01*
Y9700D01*
X224842Y9834D01*
X224575D01*
X224442Y9700D01*
Y9300D01*
Y9567D02*
X224175Y9834D01*
Y10100D02*
Y10367D01*
Y10233D01*
X224975D01*
X224842Y10100D01*
Y10767D02*
X224975Y10900D01*
Y11167D01*
X224842Y11300D01*
X224308D01*
X224175Y11167D01*
Y10900D01*
X224308Y10767D01*
X224842D01*
X224175Y11966D02*
X224975D01*
X224575Y11566D01*
Y12100D01*
X121877Y92628D02*
Y93428D01*
X121477D01*
X121344Y93295D01*
Y93028D01*
X121477Y92895D01*
X121877D01*
X121610D02*
X121344Y92628D01*
X121077D02*
X120811D01*
X120944D01*
Y93428D01*
X121077Y93295D01*
X120411D02*
X120277Y93428D01*
X120011D01*
X119878Y93295D01*
Y92762D01*
X120011Y92628D01*
X120277D01*
X120411Y92762D01*
Y93295D01*
X119611D02*
X119478Y93428D01*
X119211D01*
X119078Y93295D01*
Y93161D01*
X119211Y93028D01*
X119344D01*
X119211D01*
X119078Y92895D01*
Y92762D01*
X119211Y92628D01*
X119478D01*
X119611Y92762D01*
X251484Y45959D02*
Y46759D01*
X251084D01*
X250951Y46626D01*
Y46359D01*
X251084Y46226D01*
X251484D01*
X251217D02*
X250951Y45959D01*
X250684D02*
X250417D01*
X250551D01*
Y46759D01*
X250684Y46626D01*
X250018D02*
X249884Y46759D01*
X249618D01*
X249484Y46626D01*
Y46093D01*
X249618Y45959D01*
X249884D01*
X250018Y46093D01*
Y46626D01*
X248685Y45959D02*
X249218D01*
X248685Y46492D01*
Y46626D01*
X248818Y46759D01*
X249084D01*
X249218Y46626D01*
X247621Y66399D02*
X248420D01*
Y66799D01*
X248287Y66932D01*
X248021D01*
X247887Y66799D01*
Y66399D01*
Y66666D02*
X247621Y66932D01*
Y67199D02*
Y67465D01*
Y67332D01*
X248420D01*
X248287Y67199D01*
Y67865D02*
X248420Y67998D01*
Y68265D01*
X248287Y68398D01*
X247754D01*
X247621Y68265D01*
Y67998D01*
X247754Y67865D01*
X248287D01*
X247621Y68665D02*
Y68931D01*
Y68798D01*
X248420D01*
X248287Y68665D01*
X235175Y49825D02*
Y50625D01*
X234775D01*
X234641Y50492D01*
Y50225D01*
X234775Y50092D01*
X235175D01*
X234908D02*
X234641Y49825D01*
X234375D02*
X234108D01*
X234242D01*
Y50625D01*
X234375Y50492D01*
X233708D02*
X233575Y50625D01*
X233308D01*
X233175Y50492D01*
Y49958D01*
X233308Y49825D01*
X233575D01*
X233708Y49958D01*
Y50492D01*
X232909D02*
X232775Y50625D01*
X232509D01*
X232375Y50492D01*
Y49958D01*
X232509Y49825D01*
X232775D01*
X232909Y49958D01*
Y50492D01*
X232116Y64825D02*
Y65625D01*
X231716D01*
X231583Y65492D01*
Y65225D01*
X231716Y65092D01*
X232116D01*
X231850D02*
X231583Y64825D01*
X231317Y64958D02*
X231183Y64825D01*
X230917D01*
X230783Y64958D01*
Y65492D01*
X230917Y65625D01*
X231183D01*
X231317Y65492D01*
Y65358D01*
X231183Y65225D01*
X230783D01*
X230517Y64958D02*
X230384Y64825D01*
X230117D01*
X229984Y64958D01*
Y65492D01*
X230117Y65625D01*
X230384D01*
X230517Y65492D01*
Y65358D01*
X230384Y65225D01*
X229984D01*
X138365Y96822D02*
Y97622D01*
X137965D01*
X137832Y97489D01*
Y97222D01*
X137965Y97089D01*
X138365D01*
X138098D02*
X137832Y96822D01*
X137565Y96955D02*
X137432Y96822D01*
X137165D01*
X137032Y96955D01*
Y97489D01*
X137165Y97622D01*
X137432D01*
X137565Y97489D01*
Y97355D01*
X137432Y97222D01*
X137032D01*
X136765Y97489D02*
X136632Y97622D01*
X136366D01*
X136232Y97489D01*
Y97355D01*
X136366Y97222D01*
X136232Y97089D01*
Y96955D01*
X136366Y96822D01*
X136632D01*
X136765Y96955D01*
Y97089D01*
X136632Y97222D01*
X136765Y97355D01*
Y97489D01*
X136632Y97222D02*
X136366D01*
X138164Y94357D02*
Y95157D01*
X137764D01*
X137631Y95023D01*
Y94757D01*
X137764Y94624D01*
X138164D01*
X137897D02*
X137631Y94357D01*
X137364Y94490D02*
X137231Y94357D01*
X136964D01*
X136831Y94490D01*
Y95023D01*
X136964Y95157D01*
X137231D01*
X137364Y95023D01*
Y94890D01*
X137231Y94757D01*
X136831D01*
X136564Y95157D02*
X136031D01*
Y95023D01*
X136564Y94490D01*
Y94357D01*
X261138Y69584D02*
Y70384D01*
X260738D01*
X260605Y70251D01*
Y69984D01*
X260738Y69851D01*
X261138D01*
X260871D02*
X260605Y69584D01*
X260338Y69718D02*
X260205Y69584D01*
X259938D01*
X259805Y69718D01*
Y70251D01*
X259938Y70384D01*
X260205D01*
X260338Y70251D01*
Y70118D01*
X260205Y69984D01*
X259805D01*
X259005Y70384D02*
X259272Y70251D01*
X259539Y69984D01*
Y69718D01*
X259405Y69584D01*
X259139D01*
X259005Y69718D01*
Y69851D01*
X259139Y69984D01*
X259539D01*
X261049Y80010D02*
Y80810D01*
X260649D01*
X260516Y80677D01*
Y80410D01*
X260649Y80277D01*
X261049D01*
X260783D02*
X260516Y80010D01*
X260250Y80143D02*
X260116Y80010D01*
X259850D01*
X259716Y80143D01*
Y80677D01*
X259850Y80810D01*
X260116D01*
X260250Y80677D01*
Y80543D01*
X260116Y80410D01*
X259716D01*
X258917Y80810D02*
X259450D01*
Y80410D01*
X259183Y80543D01*
X259050D01*
X258917Y80410D01*
Y80143D01*
X259050Y80010D01*
X259317D01*
X259450Y80143D01*
X217645Y9290D02*
X218445D01*
Y9690D01*
X218312Y9823D01*
X218045D01*
X217912Y9690D01*
Y9290D01*
Y9557D02*
X217645Y9823D01*
X217778Y10090D02*
X217645Y10223D01*
Y10490D01*
X217778Y10623D01*
X218312D01*
X218445Y10490D01*
Y10223D01*
X218312Y10090D01*
X218178D01*
X218045Y10223D01*
Y10623D01*
X217645Y11290D02*
X218445D01*
X218045Y10890D01*
Y11423D01*
X243552Y62651D02*
X244352D01*
Y63051D01*
X244219Y63184D01*
X243952D01*
X243819Y63051D01*
Y62651D01*
Y62918D02*
X243552Y63184D01*
X243686Y63451D02*
X243552Y63584D01*
Y63851D01*
X243686Y63984D01*
X244219D01*
X244352Y63851D01*
Y63584D01*
X244219Y63451D01*
X244086D01*
X243952Y63584D01*
Y63984D01*
X244219Y64251D02*
X244352Y64384D01*
Y64651D01*
X244219Y64784D01*
X244086D01*
X243952Y64651D01*
Y64517D01*
Y64651D01*
X243819Y64784D01*
X243686D01*
X243552Y64651D01*
Y64384D01*
X243686Y64251D01*
X245512Y47933D02*
X246312D01*
Y48333D01*
X246178Y48466D01*
X245912D01*
X245779Y48333D01*
Y47933D01*
Y48200D02*
X245512Y48466D01*
X245645Y48733D02*
X245512Y48866D01*
Y49133D01*
X245645Y49266D01*
X246178D01*
X246312Y49133D01*
Y48866D01*
X246178Y48733D01*
X246045D01*
X245912Y48866D01*
Y49266D01*
X245512Y50066D02*
Y49532D01*
X246045Y50066D01*
X246178D01*
X246312Y49932D01*
Y49666D01*
X246178Y49532D01*
X234323Y52835D02*
X235122D01*
Y53234D01*
X234989Y53368D01*
X234723D01*
X234589Y53234D01*
Y52835D01*
Y53101D02*
X234323Y53368D01*
X234456Y53634D02*
X234323Y53768D01*
Y54034D01*
X234456Y54167D01*
X234989D01*
X235122Y54034D01*
Y53768D01*
X234989Y53634D01*
X234856D01*
X234723Y53768D01*
Y54167D01*
X234323Y54434D02*
Y54701D01*
Y54567D01*
X235122D01*
X234989Y54434D01*
X241795Y59805D02*
X242595D01*
Y60205D01*
X242461Y60339D01*
X242195D01*
X242061Y60205D01*
Y59805D01*
Y60072D02*
X241795Y60339D01*
X241928Y60605D02*
X241795Y60738D01*
Y61005D01*
X241928Y61138D01*
X242461D01*
X242595Y61005D01*
Y60738D01*
X242461Y60605D01*
X242328D01*
X242195Y60738D01*
Y61138D01*
X242461Y61405D02*
X242595Y61538D01*
Y61805D01*
X242461Y61938D01*
X241928D01*
X241795Y61805D01*
Y61538D01*
X241928Y61405D01*
X242461D01*
X121544Y97540D02*
Y98339D01*
X121144D01*
X121011Y98206D01*
Y97939D01*
X121144Y97806D01*
X121544D01*
X121277D02*
X121011Y97540D01*
X120744Y98206D02*
X120611Y98339D01*
X120344D01*
X120211Y98206D01*
Y98073D01*
X120344Y97939D01*
X120211Y97806D01*
Y97673D01*
X120344Y97540D01*
X120611D01*
X120744Y97673D01*
Y97806D01*
X120611Y97939D01*
X120744Y98073D01*
Y98206D01*
X120611Y97939D02*
X120344D01*
X119944Y97673D02*
X119811Y97540D01*
X119544D01*
X119411Y97673D01*
Y98206D01*
X119544Y98339D01*
X119811D01*
X119944Y98206D01*
Y98073D01*
X119811Y97939D01*
X119411D01*
X117996Y109696D02*
Y110495D01*
X117596D01*
X117463Y110362D01*
Y110095D01*
X117596Y109962D01*
X117996D01*
X117730D02*
X117463Y109696D01*
X117196Y110362D02*
X117063Y110495D01*
X116796D01*
X116663Y110362D01*
Y110229D01*
X116796Y110095D01*
X116663Y109962D01*
Y109829D01*
X116796Y109696D01*
X117063D01*
X117196Y109829D01*
Y109962D01*
X117063Y110095D01*
X117196Y110229D01*
Y110362D01*
X117063Y110095D02*
X116796D01*
X116397Y110362D02*
X116263Y110495D01*
X115997D01*
X115863Y110362D01*
Y110229D01*
X115997Y110095D01*
X115863Y109962D01*
Y109829D01*
X115997Y109696D01*
X116263D01*
X116397Y109829D01*
Y109962D01*
X116263Y110095D01*
X116397Y110229D01*
Y110362D01*
X116263Y110095D02*
X115997D01*
X215050Y9534D02*
X215850D01*
Y9934D01*
X215717Y10067D01*
X215450D01*
X215317Y9934D01*
Y9534D01*
Y9800D02*
X215050Y10067D01*
X215717Y10333D02*
X215850Y10467D01*
Y10733D01*
X215717Y10867D01*
X215583D01*
X215450Y10733D01*
X215317Y10867D01*
X215183D01*
X215050Y10733D01*
Y10467D01*
X215183Y10333D01*
X215317D01*
X215450Y10467D01*
X215583Y10333D01*
X215717D01*
X215450Y10467D02*
Y10733D01*
X215850Y11133D02*
Y11666D01*
X215717D01*
X215183Y11133D01*
X215050D01*
X112103Y100699D02*
X112902D01*
Y101098D01*
X112769Y101232D01*
X112502D01*
X112369Y101098D01*
Y100699D01*
Y100965D02*
X112103Y101232D01*
X112769Y101498D02*
X112902Y101632D01*
Y101898D01*
X112769Y102031D01*
X112636D01*
X112502Y101898D01*
X112369Y102031D01*
X112236D01*
X112103Y101898D01*
Y101632D01*
X112236Y101498D01*
X112369D01*
X112502Y101632D01*
X112636Y101498D01*
X112769D01*
X112502Y101632D02*
Y101898D01*
X112902Y102831D02*
X112769Y102565D01*
X112502Y102298D01*
X112236D01*
X112103Y102431D01*
Y102698D01*
X112236Y102831D01*
X112369D01*
X112502Y102698D01*
Y102298D01*
X209115Y9526D02*
X209915D01*
Y9926D01*
X209781Y10059D01*
X209515D01*
X209381Y9926D01*
Y9526D01*
Y9792D02*
X209115Y10059D01*
X209781Y10326D02*
X209915Y10459D01*
Y10726D01*
X209781Y10859D01*
X209648D01*
X209515Y10726D01*
X209381Y10859D01*
X209248D01*
X209115Y10726D01*
Y10459D01*
X209248Y10326D01*
X209381D01*
X209515Y10459D01*
X209648Y10326D01*
X209781D01*
X209515Y10459D02*
Y10726D01*
X209915Y11659D02*
Y11125D01*
X209515D01*
X209648Y11392D01*
Y11525D01*
X209515Y11659D01*
X209248D01*
X209115Y11525D01*
Y11259D01*
X209248Y11125D01*
X165885Y18493D02*
Y19293D01*
X165486D01*
X165352Y19160D01*
Y18893D01*
X165486Y18760D01*
X165885D01*
X165619D02*
X165352Y18493D01*
X165086Y19160D02*
X164952Y19293D01*
X164686D01*
X164553Y19160D01*
Y19027D01*
X164686Y18893D01*
X164553Y18760D01*
Y18627D01*
X164686Y18493D01*
X164952D01*
X165086Y18627D01*
Y18760D01*
X164952Y18893D01*
X165086Y19027D01*
Y19160D01*
X164952Y18893D02*
X164686D01*
X163886Y18493D02*
Y19293D01*
X164286Y18893D01*
X163753D01*
X232475Y9509D02*
X233275D01*
Y9909D01*
X233142Y10042D01*
X232875D01*
X232742Y9909D01*
Y9509D01*
Y9775D02*
X232475Y10042D01*
X233142Y10308D02*
X233275Y10442D01*
Y10708D01*
X233142Y10842D01*
X233008D01*
X232875Y10708D01*
X232742Y10842D01*
X232608D01*
X232475Y10708D01*
Y10442D01*
X232608Y10308D01*
X232742D01*
X232875Y10442D01*
X233008Y10308D01*
X233142D01*
X232875Y10442D02*
Y10708D01*
X233142Y11108D02*
X233275Y11242D01*
Y11508D01*
X233142Y11641D01*
X233008D01*
X232875Y11508D01*
Y11375D01*
Y11508D01*
X232742Y11641D01*
X232608D01*
X232475Y11508D01*
Y11242D01*
X232608Y11108D01*
X166008Y20370D02*
Y21170D01*
X165608D01*
X165475Y21037D01*
Y20770D01*
X165608Y20637D01*
X166008D01*
X165742D02*
X165475Y20370D01*
X165208Y21037D02*
X165075Y21170D01*
X164808D01*
X164675Y21037D01*
Y20903D01*
X164808Y20770D01*
X164675Y20637D01*
Y20504D01*
X164808Y20370D01*
X165075D01*
X165208Y20504D01*
Y20637D01*
X165075Y20770D01*
X165208Y20903D01*
Y21037D01*
X165075Y20770D02*
X164808D01*
X163875Y20370D02*
X164409D01*
X163875Y20903D01*
Y21037D01*
X164009Y21170D01*
X164275D01*
X164409Y21037D01*
X141383Y43879D02*
Y44679D01*
X140983D01*
X140850Y44545D01*
Y44279D01*
X140983Y44146D01*
X141383D01*
X141116D02*
X140850Y43879D01*
X140583Y44545D02*
X140450Y44679D01*
X140183D01*
X140050Y44545D01*
Y44412D01*
X140183Y44279D01*
X140050Y44146D01*
Y44012D01*
X140183Y43879D01*
X140450D01*
X140583Y44012D01*
Y44146D01*
X140450Y44279D01*
X140583Y44412D01*
Y44545D01*
X140450Y44279D02*
X140183D01*
X139784Y43879D02*
X139517D01*
X139650D01*
Y44679D01*
X139784Y44545D01*
X129463Y69175D02*
Y69975D01*
X129063D01*
X128930Y69842D01*
Y69575D01*
X129063Y69442D01*
X129463D01*
X129197D02*
X128930Y69175D01*
X128664Y69842D02*
X128530Y69975D01*
X128264D01*
X128130Y69842D01*
Y69708D01*
X128264Y69575D01*
X128130Y69442D01*
Y69308D01*
X128264Y69175D01*
X128530D01*
X128664Y69308D01*
Y69442D01*
X128530Y69575D01*
X128664Y69708D01*
Y69842D01*
X128530Y69575D02*
X128264D01*
X127864Y69842D02*
X127730Y69975D01*
X127464D01*
X127331Y69842D01*
Y69308D01*
X127464Y69175D01*
X127730D01*
X127864Y69308D01*
Y69842D01*
X133616Y56219D02*
Y57019D01*
X133216D01*
X133083Y56885D01*
Y56619D01*
X133216Y56486D01*
X133616D01*
X133350D02*
X133083Y56219D01*
X132817Y57019D02*
X132283D01*
Y56885D01*
X132817Y56352D01*
Y56219D01*
X132017Y56352D02*
X131884Y56219D01*
X131617D01*
X131484Y56352D01*
Y56885D01*
X131617Y57019D01*
X131884D01*
X132017Y56885D01*
Y56752D01*
X131884Y56619D01*
X131484D01*
X225900Y9432D02*
X226700D01*
Y9832D01*
X226567Y9966D01*
X226300D01*
X226167Y9832D01*
Y9432D01*
Y9699D02*
X225900Y9966D01*
X226700Y10232D02*
Y10765D01*
X226567D01*
X226034Y10232D01*
X225900D01*
X226567Y11032D02*
X226700Y11165D01*
Y11432D01*
X226567Y11565D01*
X226434D01*
X226300Y11432D01*
X226167Y11565D01*
X226034D01*
X225900Y11432D01*
Y11165D01*
X226034Y11032D01*
X226167D01*
X226300Y11165D01*
X226434Y11032D01*
X226567D01*
X226300Y11165D02*
Y11432D01*
X158997Y16134D02*
X159797D01*
Y16534D01*
X159663Y16667D01*
X159397D01*
X159263Y16534D01*
Y16134D01*
Y16400D02*
X158997Y16667D01*
X159797Y16933D02*
Y17467D01*
X159663D01*
X159130Y16933D01*
X158997D01*
X159797Y17733D02*
Y18266D01*
X159663D01*
X159130Y17733D01*
X158997D01*
X155350Y28591D02*
X156150D01*
Y28991D01*
X156016Y29124D01*
X155750D01*
X155616Y28991D01*
Y28591D01*
Y28857D02*
X155350Y29124D01*
X156150Y29391D02*
Y29924D01*
X156016D01*
X155483Y29391D01*
X155350D01*
X156150Y30724D02*
X156016Y30457D01*
X155750Y30190D01*
X155483D01*
X155350Y30324D01*
Y30590D01*
X155483Y30724D01*
X155616D01*
X155750Y30590D01*
Y30190D01*
X153143Y28818D02*
X153943D01*
Y29217D01*
X153810Y29351D01*
X153543D01*
X153410Y29217D01*
Y28818D01*
Y29084D02*
X153143Y29351D01*
X153943Y29617D02*
Y30151D01*
X153810D01*
X153276Y29617D01*
X153143D01*
X153943Y30950D02*
Y30417D01*
X153543D01*
X153676Y30684D01*
Y30817D01*
X153543Y30950D01*
X153276D01*
X153143Y30817D01*
Y30550D01*
X153276Y30417D01*
X133275Y46159D02*
X134075D01*
Y46559D01*
X133942Y46692D01*
X133675D01*
X133542Y46559D01*
Y46159D01*
Y46425D02*
X133275Y46692D01*
X134075Y46958D02*
Y47492D01*
X133942D01*
X133408Y46958D01*
X133275D01*
Y48158D02*
X134075D01*
X133675Y47758D01*
Y48291D01*
X121553Y72134D02*
X122352D01*
Y72534D01*
X122219Y72667D01*
X121953D01*
X121819Y72534D01*
Y72134D01*
Y72400D02*
X121553Y72667D01*
X122352Y72933D02*
Y73467D01*
X122219D01*
X121686Y72933D01*
X121553D01*
Y74266D02*
Y73733D01*
X122086Y74266D01*
X122219D01*
X122352Y74133D01*
Y73866D01*
X122219Y73733D01*
X133306Y42636D02*
X134106D01*
Y43035D01*
X133973Y43169D01*
X133706D01*
X133573Y43035D01*
Y42636D01*
Y42902D02*
X133306Y43169D01*
X134106Y43435D02*
Y43968D01*
X133973D01*
X133440Y43435D01*
X133306D01*
Y44235D02*
Y44502D01*
Y44368D01*
X134106D01*
X133973Y44235D01*
X123394Y67606D02*
Y68406D01*
X122994D01*
X122861Y68272D01*
Y68006D01*
X122994Y67873D01*
X123394D01*
X123127D02*
X122861Y67606D01*
X122594Y68406D02*
X122061D01*
Y68272D01*
X122594Y67739D01*
Y67606D01*
X121794Y68272D02*
X121661Y68406D01*
X121395D01*
X121261Y68272D01*
Y67739D01*
X121395Y67606D01*
X121661D01*
X121794Y67739D01*
Y68272D01*
X126130Y58636D02*
X126929D01*
Y59036D01*
X126796Y59169D01*
X126530D01*
X126396Y59036D01*
Y58636D01*
Y58903D02*
X126130Y59169D01*
X126929Y59969D02*
X126796Y59702D01*
X126530Y59436D01*
X126263D01*
X126130Y59569D01*
Y59836D01*
X126263Y59969D01*
X126396D01*
X126530Y59836D01*
Y59436D01*
X126263Y60236D02*
X126130Y60369D01*
Y60635D01*
X126263Y60769D01*
X126796D01*
X126929Y60635D01*
Y60369D01*
X126796Y60236D01*
X126663D01*
X126530Y60369D01*
Y60769D01*
X165700Y25159D02*
X166500D01*
Y25559D01*
X166367Y25692D01*
X166100D01*
X165967Y25559D01*
Y25159D01*
Y25425D02*
X165700Y25692D01*
X166500Y26492D02*
X166367Y26225D01*
X166100Y25958D01*
X165833D01*
X165700Y26092D01*
Y26358D01*
X165833Y26492D01*
X165967D01*
X166100Y26358D01*
Y25958D01*
X166367Y26758D02*
X166500Y26891D01*
Y27158D01*
X166367Y27291D01*
X166233D01*
X166100Y27158D01*
X165967Y27291D01*
X165833D01*
X165700Y27158D01*
Y26891D01*
X165833Y26758D01*
X165967D01*
X166100Y26891D01*
X166233Y26758D01*
X166367D01*
X166100Y26891D02*
Y27158D01*
X139416Y52800D02*
Y53600D01*
X139017D01*
X138883Y53467D01*
Y53200D01*
X139017Y53067D01*
X139416D01*
X139150D02*
X138883Y52800D01*
X138084Y53600D02*
X138350Y53467D01*
X138617Y53200D01*
Y52933D01*
X138483Y52800D01*
X138217D01*
X138084Y52933D01*
Y53067D01*
X138217Y53200D01*
X138617D01*
X137817Y53600D02*
X137284D01*
Y53467D01*
X137817Y52933D01*
Y52800D01*
X125698Y54312D02*
X126498D01*
Y54712D01*
X126365Y54845D01*
X126098D01*
X125965Y54712D01*
Y54312D01*
Y54579D02*
X125698Y54845D01*
X126498Y55645D02*
X126365Y55378D01*
X126098Y55112D01*
X125832D01*
X125698Y55245D01*
Y55512D01*
X125832Y55645D01*
X125965D01*
X126098Y55512D01*
Y55112D01*
X126498Y56445D02*
X126365Y56178D01*
X126098Y55911D01*
X125832D01*
X125698Y56045D01*
Y56311D01*
X125832Y56445D01*
X125965D01*
X126098Y56311D01*
Y55911D01*
X127563Y77617D02*
Y78417D01*
X127163D01*
X127030Y78284D01*
Y78017D01*
X127163Y77884D01*
X127563D01*
X127297D02*
X127030Y77617D01*
X126230Y78417D02*
X126497Y78284D01*
X126764Y78017D01*
Y77750D01*
X126630Y77617D01*
X126364D01*
X126230Y77750D01*
Y77884D01*
X126364Y78017D01*
X126764D01*
X125431Y78417D02*
X125964D01*
Y78017D01*
X125697Y78150D01*
X125564D01*
X125431Y78017D01*
Y77750D01*
X125564Y77617D01*
X125831D01*
X125964Y77750D01*
X84541Y18650D02*
Y19450D01*
X84141D01*
X84008Y19317D01*
Y19050D01*
X84141Y18917D01*
X84541D01*
X84275D02*
X84008Y18650D01*
X83208Y19450D02*
X83475Y19317D01*
X83742Y19050D01*
Y18783D01*
X83608Y18650D01*
X83342D01*
X83208Y18783D01*
Y18917D01*
X83342Y19050D01*
X83742D01*
X82542Y18650D02*
Y19450D01*
X82942Y19050D01*
X82409D01*
X85688Y36550D02*
Y37350D01*
X85288D01*
X85155Y37216D01*
Y36950D01*
X85288Y36816D01*
X85688D01*
X85422D02*
X85155Y36550D01*
X84355Y37350D02*
X84622Y37216D01*
X84889Y36950D01*
Y36683D01*
X84755Y36550D01*
X84489D01*
X84355Y36683D01*
Y36816D01*
X84489Y36950D01*
X84889D01*
X84089Y37216D02*
X83956Y37350D01*
X83689D01*
X83556Y37216D01*
Y37083D01*
X83689Y36950D01*
X83822D01*
X83689D01*
X83556Y36816D01*
Y36683D01*
X83689Y36550D01*
X83956D01*
X84089Y36683D01*
X206550Y9509D02*
X207350D01*
Y9909D01*
X207217Y10042D01*
X206950D01*
X206817Y9909D01*
Y9509D01*
Y9775D02*
X206550Y10042D01*
X207350Y10842D02*
X207217Y10575D01*
X206950Y10308D01*
X206683D01*
X206550Y10442D01*
Y10708D01*
X206683Y10842D01*
X206817D01*
X206950Y10708D01*
Y10308D01*
X206550Y11641D02*
Y11108D01*
X207083Y11641D01*
X207217D01*
X207350Y11508D01*
Y11241D01*
X207217Y11108D01*
X131885Y64432D02*
Y65232D01*
X131486D01*
X131352Y65099D01*
Y64832D01*
X131486Y64699D01*
X131885D01*
X131619D02*
X131352Y64432D01*
X130553Y65232D02*
X130819Y65099D01*
X131086Y64832D01*
Y64566D01*
X130952Y64432D01*
X130686D01*
X130553Y64566D01*
Y64699D01*
X130686Y64832D01*
X131086D01*
X130286Y64432D02*
X130019D01*
X130153D01*
Y65232D01*
X130286Y65099D01*
X200925Y9403D02*
X201725D01*
Y9803D01*
X201592Y9936D01*
X201325D01*
X201192Y9803D01*
Y9403D01*
Y9670D02*
X200925Y9936D01*
X201725Y10736D02*
X201592Y10470D01*
X201325Y10203D01*
X201058D01*
X200925Y10336D01*
Y10603D01*
X201058Y10736D01*
X201192D01*
X201325Y10603D01*
Y10203D01*
X201592Y11003D02*
X201725Y11136D01*
Y11403D01*
X201592Y11536D01*
X201058D01*
X200925Y11403D01*
Y11136D01*
X201058Y11003D01*
X201592D01*
X91741Y60625D02*
Y61425D01*
X91341D01*
X91208Y61292D01*
Y61025D01*
X91341Y60892D01*
X91741D01*
X91475D02*
X91208Y60625D01*
X90408Y61425D02*
X90942D01*
Y61025D01*
X90675Y61158D01*
X90542D01*
X90408Y61025D01*
Y60758D01*
X90542Y60625D01*
X90808D01*
X90942Y60758D01*
X90142D02*
X90009Y60625D01*
X89742D01*
X89609Y60758D01*
Y61292D01*
X89742Y61425D01*
X90009D01*
X90142Y61292D01*
Y61158D01*
X90009Y61025D01*
X89609D01*
X103048Y60820D02*
Y61620D01*
X102648D01*
X102514Y61487D01*
Y61220D01*
X102648Y61087D01*
X103048D01*
X102781D02*
X102514Y60820D01*
X101715Y61620D02*
X102248D01*
Y61220D01*
X101981Y61353D01*
X101848D01*
X101715Y61220D01*
Y60953D01*
X101848Y60820D01*
X102115D01*
X102248Y60953D01*
X101448Y61487D02*
X101315Y61620D01*
X101048D01*
X100915Y61487D01*
Y61353D01*
X101048Y61220D01*
X100915Y61087D01*
Y60953D01*
X101048Y60820D01*
X101315D01*
X101448Y60953D01*
Y61087D01*
X101315Y61220D01*
X101448Y61353D01*
Y61487D01*
X101315Y61220D02*
X101048D01*
X105591Y61850D02*
Y62650D01*
X105191D01*
X105058Y62517D01*
Y62250D01*
X105191Y62117D01*
X105591D01*
X105325D02*
X105058Y61850D01*
X104258Y62650D02*
X104792D01*
Y62250D01*
X104525Y62383D01*
X104392D01*
X104258Y62250D01*
Y61983D01*
X104392Y61850D01*
X104658D01*
X104792Y61983D01*
X103992Y62650D02*
X103459D01*
Y62517D01*
X103992Y61983D01*
Y61850D01*
X121308Y64564D02*
Y65363D01*
X120909D01*
X120775Y65230D01*
Y64963D01*
X120909Y64830D01*
X121308D01*
X121042D02*
X120775Y64564D01*
X119976Y65363D02*
X120509D01*
Y64963D01*
X120242Y65097D01*
X120109D01*
X119976Y64963D01*
Y64697D01*
X120109Y64564D01*
X120375D01*
X120509Y64697D01*
X119176Y65363D02*
X119442Y65230D01*
X119709Y64963D01*
Y64697D01*
X119576Y64564D01*
X119309D01*
X119176Y64697D01*
Y64830D01*
X119309Y64963D01*
X119709D01*
X123437Y39143D02*
Y39943D01*
X123037D01*
X122904Y39810D01*
Y39543D01*
X123037Y39410D01*
X123437D01*
X123171D02*
X122904Y39143D01*
X122104Y39943D02*
X122637D01*
Y39543D01*
X122371Y39676D01*
X122238D01*
X122104Y39543D01*
Y39277D01*
X122238Y39143D01*
X122504D01*
X122637Y39277D01*
X121305Y39943D02*
X121838D01*
Y39543D01*
X121571Y39676D01*
X121438D01*
X121305Y39543D01*
Y39277D01*
X121438Y39143D01*
X121704D01*
X121838Y39277D01*
X121308Y61964D02*
Y62763D01*
X120909D01*
X120775Y62630D01*
Y62363D01*
X120909Y62230D01*
X121308D01*
X121042D02*
X120775Y61964D01*
X119976Y62763D02*
X120509D01*
Y62363D01*
X120242Y62497D01*
X120109D01*
X119976Y62363D01*
Y62097D01*
X120109Y61964D01*
X120375D01*
X120509Y62097D01*
X119309Y61964D02*
Y62763D01*
X119709Y62363D01*
X119176D01*
X84055Y42374D02*
X84855D01*
Y42773D01*
X84722Y42907D01*
X84455D01*
X84322Y42773D01*
Y42374D01*
Y42640D02*
X84055Y42907D01*
X84855Y43707D02*
Y43173D01*
X84455D01*
X84588Y43440D01*
Y43573D01*
X84455Y43707D01*
X84188D01*
X84055Y43573D01*
Y43307D01*
X84188Y43173D01*
X84722Y43973D02*
X84855Y44106D01*
Y44373D01*
X84722Y44506D01*
X84588D01*
X84455Y44373D01*
Y44240D01*
Y44373D01*
X84322Y44506D01*
X84188D01*
X84055Y44373D01*
Y44106D01*
X84188Y43973D01*
X120722Y42380D02*
X121522D01*
Y42780D01*
X121389Y42913D01*
X121122D01*
X120989Y42780D01*
Y42380D01*
Y42646D02*
X120722Y42913D01*
X121522Y43713D02*
Y43179D01*
X121122D01*
X121255Y43446D01*
Y43579D01*
X121122Y43713D01*
X120855D01*
X120722Y43579D01*
Y43313D01*
X120855Y43179D01*
X120722Y44512D02*
Y43979D01*
X121255Y44512D01*
X121389D01*
X121522Y44379D01*
Y44112D01*
X121389Y43979D01*
X55939Y41500D02*
Y42300D01*
X55540D01*
X55406Y42167D01*
Y41900D01*
X55540Y41767D01*
X55939D01*
X55673D02*
X55406Y41500D01*
X54607Y42300D02*
X55140D01*
Y41900D01*
X54873Y42033D01*
X54740D01*
X54607Y41900D01*
Y41633D01*
X54740Y41500D01*
X55006D01*
X55140Y41633D01*
X54340Y41500D02*
X54073D01*
X54207D01*
Y42300D01*
X54340Y42167D01*
X83800Y45246D02*
X84600D01*
Y45646D01*
X84467Y45779D01*
X84200D01*
X84067Y45646D01*
Y45246D01*
Y45513D02*
X83800Y45779D01*
X84600Y46579D02*
Y46046D01*
X84200D01*
X84333Y46312D01*
Y46446D01*
X84200Y46579D01*
X83933D01*
X83800Y46446D01*
Y46179D01*
X83933Y46046D01*
X84467Y46846D02*
X84600Y46979D01*
Y47245D01*
X84467Y47379D01*
X83933D01*
X83800Y47245D01*
Y46979D01*
X83933Y46846D01*
X84467D01*
X53030Y45331D02*
X53829D01*
Y45731D01*
X53696Y45864D01*
X53430D01*
X53296Y45731D01*
Y45331D01*
Y45598D02*
X53030Y45864D01*
Y46531D02*
X53829D01*
X53430Y46131D01*
Y46664D01*
X53163Y46931D02*
X53030Y47064D01*
Y47331D01*
X53163Y47464D01*
X53696D01*
X53829Y47331D01*
Y47064D01*
X53696Y46931D01*
X53563D01*
X53430Y47064D01*
Y47464D01*
X105933Y66588D02*
Y67388D01*
X105533D01*
X105399Y67254D01*
Y66988D01*
X105533Y66855D01*
X105933D01*
X105666D02*
X105399Y66588D01*
X104733D02*
Y67388D01*
X105133Y66988D01*
X104600D01*
X104333Y67254D02*
X104200Y67388D01*
X103933D01*
X103800Y67254D01*
Y67121D01*
X103933Y66988D01*
X103800Y66855D01*
Y66721D01*
X103933Y66588D01*
X104200D01*
X104333Y66721D01*
Y66855D01*
X104200Y66988D01*
X104333Y67121D01*
Y67254D01*
X104200Y66988D02*
X103933D01*
X174344Y63556D02*
Y64356D01*
X173944D01*
X173811Y64223D01*
Y63956D01*
X173944Y63823D01*
X174344D01*
X174078D02*
X173811Y63556D01*
X173145D02*
Y64356D01*
X173545Y63956D01*
X173011D01*
X172745Y64356D02*
X172212D01*
Y64223D01*
X172745Y63690D01*
Y63556D01*
X174235Y65575D02*
Y66375D01*
X173835D01*
X173702Y66241D01*
Y65975D01*
X173835Y65841D01*
X174235D01*
X173968D02*
X173702Y65575D01*
X173035D02*
Y66375D01*
X173435Y65975D01*
X172902D01*
X172102Y66375D02*
X172369Y66241D01*
X172635Y65975D01*
Y65708D01*
X172502Y65575D01*
X172236D01*
X172102Y65708D01*
Y65841D01*
X172236Y65975D01*
X172635D01*
X102280Y78915D02*
Y79715D01*
X101880D01*
X101747Y79581D01*
Y79315D01*
X101880Y79182D01*
X102280D01*
X102014D02*
X101747Y78915D01*
X101081D02*
Y79715D01*
X101480Y79315D01*
X100947D01*
X100147Y79715D02*
X100681D01*
Y79315D01*
X100414Y79448D01*
X100281D01*
X100147Y79315D01*
Y79048D01*
X100281Y78915D01*
X100547D01*
X100681Y79048D01*
X120722Y45256D02*
X121522D01*
Y45656D01*
X121389Y45789D01*
X121122D01*
X120989Y45656D01*
Y45256D01*
Y45523D02*
X120722Y45789D01*
Y46456D02*
X121522D01*
X121122Y46056D01*
Y46589D01*
X120722Y47256D02*
X121522D01*
X121122Y46856D01*
Y47389D01*
X83800Y48348D02*
X84600D01*
Y48748D01*
X84467Y48881D01*
X84200D01*
X84067Y48748D01*
Y48348D01*
Y48615D02*
X83800Y48881D01*
Y49548D02*
X84600D01*
X84200Y49148D01*
Y49681D01*
X84467Y49948D02*
X84600Y50081D01*
Y50347D01*
X84467Y50481D01*
X84333D01*
X84200Y50347D01*
Y50214D01*
Y50347D01*
X84067Y50481D01*
X83933D01*
X83800Y50347D01*
Y50081D01*
X83933Y49948D01*
X128844Y39103D02*
Y39902D01*
X128444D01*
X128311Y39769D01*
Y39503D01*
X128444Y39369D01*
X128844D01*
X128577D02*
X128311Y39103D01*
X127644D02*
Y39902D01*
X128044Y39503D01*
X127511D01*
X126711Y39103D02*
X127244D01*
X126711Y39636D01*
Y39769D01*
X126844Y39902D01*
X127111D01*
X127244Y39769D01*
X53020Y48459D02*
X53819D01*
Y48858D01*
X53686Y48992D01*
X53419D01*
X53286Y48858D01*
Y48459D01*
Y48725D02*
X53020Y48992D01*
Y49658D02*
X53819D01*
X53419Y49258D01*
Y49791D01*
X53020Y50058D02*
Y50325D01*
Y50191D01*
X53819D01*
X53686Y50058D01*
X91430Y41487D02*
Y42286D01*
X91030D01*
X90897Y42153D01*
Y41886D01*
X91030Y41753D01*
X91430D01*
X91163D02*
X90897Y41487D01*
X90230D02*
Y42286D01*
X90630Y41886D01*
X90097D01*
X89830Y42153D02*
X89697Y42286D01*
X89430D01*
X89297Y42153D01*
Y41620D01*
X89430Y41487D01*
X89697D01*
X89830Y41620D01*
Y42153D01*
X60939Y41500D02*
Y42300D01*
X60540D01*
X60406Y42167D01*
Y41900D01*
X60540Y41767D01*
X60939D01*
X60673D02*
X60406Y41500D01*
X60140Y42167D02*
X60006Y42300D01*
X59740D01*
X59607Y42167D01*
Y42033D01*
X59740Y41900D01*
X59873D01*
X59740D01*
X59607Y41767D01*
Y41633D01*
X59740Y41500D01*
X60006D01*
X60140Y41633D01*
X59340D02*
X59207Y41500D01*
X58940D01*
X58807Y41633D01*
Y42167D01*
X58940Y42300D01*
X59207D01*
X59340Y42167D01*
Y42033D01*
X59207Y41900D01*
X58807D01*
X95816Y70049D02*
X96616D01*
Y70448D01*
X96483Y70582D01*
X96216D01*
X96083Y70448D01*
Y70049D01*
Y70315D02*
X95816Y70582D01*
X96483Y70848D02*
X96616Y70982D01*
Y71248D01*
X96483Y71381D01*
X96350D01*
X96216Y71248D01*
Y71115D01*
Y71248D01*
X96083Y71381D01*
X95950D01*
X95816Y71248D01*
Y70982D01*
X95950Y70848D01*
X96483Y71648D02*
X96616Y71781D01*
Y72048D01*
X96483Y72181D01*
X96350D01*
X96216Y72048D01*
X96083Y72181D01*
X95950D01*
X95816Y72048D01*
Y71781D01*
X95950Y71648D01*
X96083D01*
X96216Y71781D01*
X96350Y71648D01*
X96483D01*
X96216Y71781D02*
Y72048D01*
X51866Y18750D02*
Y19550D01*
X51466D01*
X51333Y19417D01*
Y19150D01*
X51466Y19017D01*
X51866D01*
X51600D02*
X51333Y18750D01*
X51067Y19417D02*
X50933Y19550D01*
X50667D01*
X50533Y19417D01*
Y19283D01*
X50667Y19150D01*
X50800D01*
X50667D01*
X50533Y19017D01*
Y18883D01*
X50667Y18750D01*
X50933D01*
X51067Y18883D01*
X49734Y19550D02*
X50000Y19417D01*
X50267Y19150D01*
Y18883D01*
X50134Y18750D01*
X49867D01*
X49734Y18883D01*
Y19017D01*
X49867Y19150D01*
X50267D01*
X53594Y36750D02*
Y37550D01*
X53194D01*
X53061Y37417D01*
Y37150D01*
X53194Y37017D01*
X53594D01*
X53328D02*
X53061Y36750D01*
X52795Y37417D02*
X52661Y37550D01*
X52395D01*
X52261Y37417D01*
Y37283D01*
X52395Y37150D01*
X52528D01*
X52395D01*
X52261Y37017D01*
Y36883D01*
X52395Y36750D01*
X52661D01*
X52795Y36883D01*
X51462Y37550D02*
X51995D01*
Y37150D01*
X51728Y37283D01*
X51595D01*
X51462Y37150D01*
Y36883D01*
X51595Y36750D01*
X51862D01*
X51995Y36883D01*
X175924Y25200D02*
Y26000D01*
X175524D01*
X175391Y25867D01*
Y25600D01*
X175524Y25467D01*
X175924D01*
X175658D02*
X175391Y25200D01*
X175124Y25867D02*
X174991Y26000D01*
X174725D01*
X174591Y25867D01*
Y25733D01*
X174725Y25600D01*
X174858D01*
X174725D01*
X174591Y25467D01*
Y25333D01*
X174725Y25200D01*
X174991D01*
X175124Y25333D01*
X173925Y25200D02*
Y26000D01*
X174325Y25600D01*
X173792D01*
X72916Y82950D02*
Y83750D01*
X72516D01*
X72383Y83617D01*
Y83350D01*
X72516Y83217D01*
X72916D01*
X72650D02*
X72383Y82950D01*
X72117Y83617D02*
X71983Y83750D01*
X71717D01*
X71583Y83617D01*
Y83483D01*
X71717Y83350D01*
X71850D01*
X71717D01*
X71583Y83217D01*
Y83083D01*
X71717Y82950D01*
X71983D01*
X72117Y83083D01*
X71317Y83617D02*
X71184Y83750D01*
X70917D01*
X70784Y83617D01*
Y83483D01*
X70917Y83350D01*
X71050D01*
X70917D01*
X70784Y83217D01*
Y83083D01*
X70917Y82950D01*
X71184D01*
X71317Y83083D01*
X81453Y85507D02*
Y86307D01*
X81053D01*
X80920Y86174D01*
Y85907D01*
X81053Y85774D01*
X81453D01*
X81187D02*
X80920Y85507D01*
X80654Y86174D02*
X80520Y86307D01*
X80254D01*
X80120Y86174D01*
Y86040D01*
X80254Y85907D01*
X80387D01*
X80254D01*
X80120Y85774D01*
Y85641D01*
X80254Y85507D01*
X80520D01*
X80654Y85641D01*
X79321Y85507D02*
X79854D01*
X79321Y86040D01*
Y86174D01*
X79454Y86307D01*
X79720D01*
X79854Y86174D01*
X257283Y102450D02*
Y103250D01*
X256883D01*
X256750Y103117D01*
Y102850D01*
X256883Y102717D01*
X257283D01*
X257016D02*
X256750Y102450D01*
X256483Y103117D02*
X256350Y103250D01*
X256083D01*
X255950Y103117D01*
Y102983D01*
X256083Y102850D01*
X256217D01*
X256083D01*
X255950Y102717D01*
Y102583D01*
X256083Y102450D01*
X256350D01*
X256483Y102583D01*
X255684Y102450D02*
X255417D01*
X255550D01*
Y103250D01*
X255684Y103117D01*
X103838Y88319D02*
Y89119D01*
X103438D01*
X103305Y88986D01*
Y88719D01*
X103438Y88586D01*
X103838D01*
X103572D02*
X103305Y88319D01*
X102505D02*
X103038D01*
X102505Y88852D01*
Y88986D01*
X102639Y89119D01*
X102905D01*
X103038Y88986D01*
X102239Y88453D02*
X102105Y88319D01*
X101839D01*
X101705Y88453D01*
Y88986D01*
X101839Y89119D01*
X102105D01*
X102239Y88986D01*
Y88852D01*
X102105Y88719D01*
X101705D01*
X103838Y85649D02*
Y86449D01*
X103438D01*
X103305Y86316D01*
Y86049D01*
X103438Y85916D01*
X103838D01*
X103572D02*
X103305Y85649D01*
X102505D02*
X103038D01*
X102505Y86182D01*
Y86316D01*
X102639Y86449D01*
X102905D01*
X103038Y86316D01*
X102239D02*
X102105Y86449D01*
X101839D01*
X101705Y86316D01*
Y86182D01*
X101839Y86049D01*
X101705Y85916D01*
Y85783D01*
X101839Y85649D01*
X102105D01*
X102239Y85783D01*
Y85916D01*
X102105Y86049D01*
X102239Y86182D01*
Y86316D01*
X102105Y86049D02*
X101839D01*
X86653Y89588D02*
Y90388D01*
X86253D01*
X86120Y90255D01*
Y89988D01*
X86253Y89855D01*
X86653D01*
X86387D02*
X86120Y89588D01*
X85320D02*
X85853D01*
X85320Y90121D01*
Y90255D01*
X85453Y90388D01*
X85720D01*
X85853Y90255D01*
X85054Y90388D02*
X84520D01*
Y90255D01*
X85054Y89721D01*
Y89588D01*
X82508Y102088D02*
Y102888D01*
X82108D01*
X81975Y102755D01*
Y102488D01*
X82108Y102355D01*
X82508D01*
X82241D02*
X81975Y102088D01*
X81175D02*
X81708D01*
X81175Y102621D01*
Y102755D01*
X81308Y102888D01*
X81575D01*
X81708Y102755D01*
X80375Y102888D02*
X80642Y102755D01*
X80908Y102488D01*
Y102221D01*
X80775Y102088D01*
X80509D01*
X80375Y102221D01*
Y102355D01*
X80509Y102488D01*
X80908D01*
X78030Y93837D02*
Y94637D01*
X77631D01*
X77497Y94503D01*
Y94237D01*
X77631Y94103D01*
X78030D01*
X77764D02*
X77497Y93837D01*
X76698D02*
X77231D01*
X76698Y94370D01*
Y94503D01*
X76831Y94637D01*
X77097D01*
X77231Y94503D01*
X75898Y94637D02*
X76431D01*
Y94237D01*
X76164Y94370D01*
X76031D01*
X75898Y94237D01*
Y93970D01*
X76031Y93837D01*
X76298D01*
X76431Y93970D01*
X219491Y26975D02*
Y27775D01*
X219091D01*
X218958Y27642D01*
Y27375D01*
X219091Y27242D01*
X219491D01*
X219225D02*
X218958Y26975D01*
X218158D02*
X218692D01*
X218158Y27508D01*
Y27642D01*
X218292Y27775D01*
X218558D01*
X218692Y27642D01*
X217492Y26975D02*
Y27775D01*
X217892Y27375D01*
X217359D01*
X252530Y25810D02*
Y26610D01*
X252130D01*
X251997Y26477D01*
Y26210D01*
X252130Y26077D01*
X252530D01*
X252263D02*
X251997Y25810D01*
X251197D02*
X251730D01*
X251197Y26344D01*
Y26477D01*
X251330Y26610D01*
X251597D01*
X251730Y26477D01*
X250397Y25810D02*
X250930D01*
X250397Y26344D01*
Y26477D01*
X250530Y26610D01*
X250797D01*
X250930Y26477D01*
X219458Y24450D02*
Y25250D01*
X219058D01*
X218925Y25117D01*
Y24850D01*
X219058Y24717D01*
X219458D01*
X219191D02*
X218925Y24450D01*
X218125D02*
X218658D01*
X218125Y24983D01*
Y25117D01*
X218258Y25250D01*
X218525D01*
X218658Y25117D01*
X217859Y24450D02*
X217592D01*
X217725D01*
Y25250D01*
X217859Y25117D01*
X241290Y19790D02*
Y20590D01*
X240890D01*
X240757Y20457D01*
Y20190D01*
X240890Y20057D01*
X241290D01*
X241023D02*
X240757Y19790D01*
X239957D02*
X240490D01*
X239957Y20323D01*
Y20457D01*
X240090Y20590D01*
X240357D01*
X240490Y20457D01*
X239690D02*
X239557Y20590D01*
X239291D01*
X239157Y20457D01*
Y19923D01*
X239291Y19790D01*
X239557D01*
X239690Y19923D01*
Y20457D01*
X237428Y102472D02*
X238228D01*
Y102872D01*
X238095Y103005D01*
X237828D01*
X237695Y102872D01*
Y102472D01*
Y102739D02*
X237428Y103005D01*
Y103272D02*
Y103538D01*
Y103405D01*
X238228D01*
X238095Y103272D01*
X237562Y103938D02*
X237428Y104072D01*
Y104338D01*
X237562Y104471D01*
X238095D01*
X238228Y104338D01*
Y104072D01*
X238095Y103938D01*
X237961D01*
X237828Y104072D01*
Y104471D01*
X237765Y24905D02*
Y25705D01*
X237365D01*
X237232Y25572D01*
Y25305D01*
X237365Y25172D01*
X237765D01*
X237498D02*
X237232Y24905D01*
X236965D02*
X236698D01*
X236832D01*
Y25705D01*
X236965Y25572D01*
X236298D02*
X236165Y25705D01*
X235899D01*
X235765Y25572D01*
Y25438D01*
X235899Y25305D01*
X235765Y25172D01*
Y25038D01*
X235899Y24905D01*
X236165D01*
X236298Y25038D01*
Y25172D01*
X236165Y25305D01*
X236298Y25438D01*
Y25572D01*
X236165Y25305D02*
X235899D01*
X178777Y114991D02*
Y115791D01*
X178377D01*
X178244Y115658D01*
Y115391D01*
X178377Y115258D01*
X178777D01*
X178510D02*
X178244Y114991D01*
X177977D02*
X177711D01*
X177844D01*
Y115791D01*
X177977Y115658D01*
X177311Y115791D02*
X176778D01*
Y115658D01*
X177311Y115124D01*
Y114991D01*
X237765Y27470D02*
Y28270D01*
X237365D01*
X237232Y28137D01*
Y27870D01*
X237365Y27737D01*
X237765D01*
X237498D02*
X237232Y27470D01*
X236965D02*
X236698D01*
X236832D01*
Y28270D01*
X236965Y28137D01*
X235765Y28270D02*
X236032Y28137D01*
X236298Y27870D01*
Y27603D01*
X236165Y27470D01*
X235899D01*
X235765Y27603D01*
Y27737D01*
X235899Y27870D01*
X236298D01*
X246322Y15583D02*
Y16383D01*
X245922D01*
X245789Y16250D01*
Y15983D01*
X245922Y15850D01*
X246322D01*
X246055D02*
X245789Y15583D01*
X245522D02*
X245256D01*
X245389D01*
Y16383D01*
X245522Y16250D01*
X244323Y16383D02*
X244856D01*
Y15983D01*
X244589Y16116D01*
X244456D01*
X244323Y15983D01*
Y15716D01*
X244456Y15583D01*
X244723D01*
X244856Y15716D01*
X219525Y22015D02*
Y22815D01*
X219125D01*
X218992Y22682D01*
Y22415D01*
X219125Y22282D01*
X219525D01*
X219258D02*
X218992Y22015D01*
X218725D02*
X218458D01*
X218592D01*
Y22815D01*
X218725Y22682D01*
X217659Y22015D02*
Y22815D01*
X218058Y22415D01*
X217525D01*
X219425Y29738D02*
Y30537D01*
X219025D01*
X218891Y30404D01*
Y30138D01*
X219025Y30004D01*
X219425D01*
X219158D02*
X218891Y29738D01*
X218625D02*
X218358D01*
X218492D01*
Y30537D01*
X218625Y30404D01*
X217958D02*
X217825Y30537D01*
X217559D01*
X217425Y30404D01*
Y30271D01*
X217559Y30138D01*
X217692D01*
X217559D01*
X217425Y30004D01*
Y29871D01*
X217559Y29738D01*
X217825D01*
X217958Y29871D01*
X255090Y34930D02*
Y35730D01*
X254690D01*
X254557Y35597D01*
Y35330D01*
X254690Y35197D01*
X255090D01*
X254823D02*
X254557Y34930D01*
X254290D02*
X254023D01*
X254157D01*
Y35730D01*
X254290Y35597D01*
X253090Y34930D02*
X253623D01*
X253090Y35463D01*
Y35597D01*
X253224Y35730D01*
X253490D01*
X253623Y35597D01*
X237428Y107446D02*
X238228D01*
Y107846D01*
X238095Y107979D01*
X237828D01*
X237695Y107846D01*
Y107446D01*
Y107712D02*
X237428Y107979D01*
Y108246D02*
Y108512D01*
Y108379D01*
X238228D01*
X238095Y108246D01*
Y108912D02*
X238228Y109045D01*
Y109312D01*
X238095Y109445D01*
X237562D01*
X237428Y109312D01*
Y109045D01*
X237562Y108912D01*
X238095D01*
X196788Y39303D02*
Y40103D01*
X196389D01*
X196255Y39970D01*
Y39703D01*
X196389Y39570D01*
X196788D01*
X196522D02*
X196255Y39303D01*
X195989Y39436D02*
X195855Y39303D01*
X195589D01*
X195456Y39436D01*
Y39970D01*
X195589Y40103D01*
X195855D01*
X195989Y39970D01*
Y39836D01*
X195855Y39703D01*
X195456D01*
X208912Y163084D02*
Y163884D01*
X208512D01*
X208379Y163750D01*
Y163484D01*
X208512Y163351D01*
X208912D01*
X208646D02*
X208379Y163084D01*
X208113Y163750D02*
X207979Y163884D01*
X207713D01*
X207579Y163750D01*
Y163617D01*
X207713Y163484D01*
X207579Y163351D01*
Y163217D01*
X207713Y163084D01*
X207979D01*
X208113Y163217D01*
Y163351D01*
X207979Y163484D01*
X208113Y163617D01*
Y163750D01*
X207979Y163484D02*
X207713D01*
X182770Y114991D02*
Y115791D01*
X182370D01*
X182237Y115658D01*
Y115391D01*
X182370Y115258D01*
X182770D01*
X182503D02*
X182237Y114991D01*
X181970Y115791D02*
X181437D01*
Y115658D01*
X181970Y115124D01*
Y114991D01*
X166375Y8209D02*
X167175D01*
Y8608D01*
X167042Y8742D01*
X166775D01*
X166642Y8608D01*
Y8209D01*
Y8475D02*
X166375Y8742D01*
X167175Y9541D02*
X167042Y9275D01*
X166775Y9008D01*
X166508D01*
X166375Y9142D01*
Y9408D01*
X166508Y9541D01*
X166642D01*
X166775Y9408D01*
Y9008D01*
X170300Y8184D02*
X171100D01*
Y8583D01*
X170967Y8717D01*
X170700D01*
X170567Y8583D01*
Y8184D01*
Y8450D02*
X170300Y8717D01*
X171100Y9516D02*
Y8983D01*
X170700D01*
X170833Y9250D01*
Y9383D01*
X170700Y9516D01*
X170433D01*
X170300Y9383D01*
Y9117D01*
X170433Y8983D01*
X174324Y8155D02*
X175124D01*
Y8555D01*
X174991Y8688D01*
X174724D01*
X174591Y8555D01*
Y8155D01*
Y8421D02*
X174324Y8688D01*
Y9354D02*
X175124D01*
X174724Y8955D01*
Y9488D01*
X178250Y8184D02*
X179050D01*
Y8583D01*
X178917Y8717D01*
X178650D01*
X178517Y8583D01*
Y8184D01*
Y8450D02*
X178250Y8717D01*
X178917Y8983D02*
X179050Y9117D01*
Y9383D01*
X178917Y9516D01*
X178783D01*
X178650Y9383D01*
Y9250D01*
Y9383D01*
X178517Y9516D01*
X178383D01*
X178250Y9383D01*
Y9117D01*
X178383Y8983D01*
X182250Y8255D02*
X183050D01*
Y8655D01*
X182917Y8788D01*
X182650D01*
X182517Y8655D01*
Y8255D01*
Y8521D02*
X182250Y8788D01*
Y9588D02*
Y9055D01*
X182783Y9588D01*
X182917D01*
X183050Y9454D01*
Y9188D01*
X182917Y9055D01*
X186422Y8411D02*
X187221D01*
Y8811D01*
X187088Y8944D01*
X186821D01*
X186688Y8811D01*
Y8411D01*
Y8677D02*
X186422Y8944D01*
Y9210D02*
Y9477D01*
Y9344D01*
X187221D01*
X187088Y9210D01*
X115241Y97100D02*
Y96300D01*
X114841D01*
X114708Y96433D01*
Y96967D01*
X114841Y97100D01*
X115241D01*
X113908Y96300D02*
X114442D01*
X113908Y96833D01*
Y96967D01*
X114042Y97100D01*
X114308D01*
X114442Y96967D01*
X113642D02*
X113509Y97100D01*
X113242D01*
X113109Y96967D01*
Y96433D01*
X113242Y96300D01*
X113509D01*
X113642Y96433D01*
Y96967D01*
X128095Y112058D02*
Y111258D01*
X127695D01*
X127562Y111391D01*
Y111924D01*
X127695Y112058D01*
X128095D01*
X127295Y111258D02*
X127029D01*
X127162D01*
Y112058D01*
X127295Y111924D01*
X126629Y111391D02*
X126496Y111258D01*
X126229D01*
X126096Y111391D01*
Y111924D01*
X126229Y112058D01*
X126496D01*
X126629Y111924D01*
Y111791D01*
X126496Y111658D01*
X126096D01*
X111350Y99600D02*
Y98800D01*
X110950D01*
X110817Y98933D01*
Y99467D01*
X110950Y99600D01*
X111350D01*
X110550Y98800D02*
X110283D01*
X110417D01*
Y99600D01*
X110550Y99467D01*
X109883D02*
X109750Y99600D01*
X109484D01*
X109350Y99467D01*
Y99333D01*
X109484Y99200D01*
X109350Y99067D01*
Y98933D01*
X109484Y98800D01*
X109750D01*
X109883Y98933D01*
Y99067D01*
X109750Y99200D01*
X109883Y99333D01*
Y99467D01*
X109750Y99200D02*
X109484D01*
X96022Y64120D02*
Y63320D01*
X95622D01*
X95489Y63453D01*
Y63987D01*
X95622Y64120D01*
X96022D01*
X95222Y63320D02*
X94955D01*
X95089D01*
Y64120D01*
X95222Y63987D01*
X94556Y64120D02*
X94022D01*
Y63987D01*
X94556Y63453D01*
Y63320D01*
X111150Y80625D02*
Y79825D01*
X110750D01*
X110617Y79958D01*
Y80492D01*
X110750Y80625D01*
X111150D01*
X110350Y79825D02*
X110083D01*
X110217D01*
Y80625D01*
X110350Y80492D01*
X109150Y80625D02*
X109417Y80492D01*
X109683Y80225D01*
Y79958D01*
X109550Y79825D01*
X109284D01*
X109150Y79958D01*
Y80092D01*
X109284Y80225D01*
X109683D01*
X95500Y68850D02*
Y68050D01*
X95100D01*
X94967Y68183D01*
Y68717D01*
X95100Y68850D01*
X95500D01*
X94700Y68050D02*
X94433D01*
X94567D01*
Y68850D01*
X94700Y68717D01*
X93500Y68850D02*
X94033D01*
Y68450D01*
X93767Y68583D01*
X93634D01*
X93500Y68450D01*
Y68183D01*
X93634Y68050D01*
X93900D01*
X94033Y68183D01*
X195438Y29438D02*
Y28638D01*
X195038D01*
X194905Y28771D01*
Y29305D01*
X195038Y29438D01*
X195438D01*
X194638Y28638D02*
X194371D01*
X194505D01*
Y29438D01*
X194638Y29305D01*
X193572Y28638D02*
Y29438D01*
X193972Y29038D01*
X193438D01*
X221800Y71925D02*
Y71125D01*
X221400D01*
X221267Y71258D01*
Y71792D01*
X221400Y71925D01*
X221800D01*
X221000Y71125D02*
X220733D01*
X220867D01*
Y71925D01*
X221000Y71792D01*
X220333D02*
X220200Y71925D01*
X219934D01*
X219800Y71792D01*
Y71658D01*
X219934Y71525D01*
X220067D01*
X219934D01*
X219800Y71392D01*
Y71258D01*
X219934Y71125D01*
X220200D01*
X220333Y71258D01*
X76806Y86788D02*
Y85988D01*
X76407D01*
X76273Y86121D01*
Y86655D01*
X76407Y86788D01*
X76806D01*
X76007Y85988D02*
X75740D01*
X75873D01*
Y86788D01*
X76007Y86655D01*
X75340Y85988D02*
X75074D01*
X75207D01*
Y86788D01*
X75340Y86655D01*
X92016Y102925D02*
Y102125D01*
X91617D01*
X91483Y102258D01*
Y102792D01*
X91617Y102925D01*
X92016D01*
X91217Y102258D02*
X91083Y102125D01*
X90817D01*
X90684Y102258D01*
Y102792D01*
X90817Y102925D01*
X91083D01*
X91217Y102792D01*
Y102658D01*
X91083Y102525D01*
X90684D01*
X76781Y91988D02*
Y91188D01*
X76381D01*
X76247Y91321D01*
Y91855D01*
X76381Y91988D01*
X76781D01*
X75981Y91855D02*
X75848Y91988D01*
X75581D01*
X75448Y91855D01*
Y91721D01*
X75581Y91588D01*
X75448Y91455D01*
Y91321D01*
X75581Y91188D01*
X75848D01*
X75981Y91321D01*
Y91455D01*
X75848Y91588D01*
X75981Y91721D01*
Y91855D01*
X75848Y91588D02*
X75581D01*
X123296Y38300D02*
X123429Y38433D01*
X123696D01*
X123829Y38300D01*
Y37767D01*
X123696Y37633D01*
X123429D01*
X123296Y37767D01*
X123029Y38433D02*
X122496D01*
Y38300D01*
X123029Y37767D01*
Y37633D01*
X122229Y38433D02*
X121696D01*
Y38300D01*
X122229Y37767D01*
Y37633D01*
X249337Y59684D02*
X249471Y59551D01*
Y59285D01*
X249337Y59151D01*
X248804D01*
X248671Y59285D01*
Y59551D01*
X248804Y59684D01*
X249471Y59951D02*
Y60484D01*
X249337D01*
X248804Y59951D01*
X248671D01*
X249471Y61284D02*
X249337Y61017D01*
X249071Y60751D01*
X248804D01*
X248671Y60884D01*
Y61151D01*
X248804Y61284D01*
X248938D01*
X249071Y61151D01*
Y60751D01*
X251637Y59743D02*
X251770Y59610D01*
Y59343D01*
X251637Y59210D01*
X251104D01*
X250971Y59343D01*
Y59610D01*
X251104Y59743D01*
X251770Y60010D02*
Y60543D01*
X251637D01*
X251104Y60010D01*
X250971D01*
X251770Y61343D02*
Y60809D01*
X251370D01*
X251504Y61076D01*
Y61209D01*
X251370Y61343D01*
X251104D01*
X250971Y61209D01*
Y60943D01*
X251104Y60809D01*
X132012Y103231D02*
X132145Y103365D01*
X132412D01*
X132545Y103231D01*
Y102698D01*
X132412Y102565D01*
X132145D01*
X132012Y102698D01*
X131745Y103365D02*
X131212D01*
Y103231D01*
X131745Y102698D01*
Y102565D01*
X130945Y103231D02*
X130812Y103365D01*
X130545D01*
X130412Y103231D01*
Y103098D01*
X130545Y102965D01*
X130679D01*
X130545D01*
X130412Y102832D01*
Y102698D01*
X130545Y102565D01*
X130812D01*
X130945Y102698D01*
X117319Y101365D02*
X117452Y101232D01*
Y100965D01*
X117319Y100832D01*
X116786D01*
X116653Y100965D01*
Y101232D01*
X116786Y101365D01*
X117452Y101632D02*
Y102165D01*
X117319D01*
X116786Y101632D01*
X116653D01*
Y102431D02*
Y102698D01*
Y102565D01*
X117452D01*
X117319Y102431D01*
X158217Y29201D02*
X158350Y29067D01*
Y28801D01*
X158217Y28668D01*
X157683D01*
X157550Y28801D01*
Y29067D01*
X157683Y29201D01*
X158350Y30001D02*
X158217Y29734D01*
X157950Y29467D01*
X157683D01*
X157550Y29601D01*
Y29867D01*
X157683Y30001D01*
X157817D01*
X157950Y29867D01*
Y29467D01*
X157683Y30267D02*
X157550Y30400D01*
Y30667D01*
X157683Y30800D01*
X158217D01*
X158350Y30667D01*
Y30400D01*
X158217Y30267D01*
X158083D01*
X157950Y30400D01*
Y30800D01*
X153258Y24327D02*
X153391Y24460D01*
X153658D01*
X153791Y24327D01*
Y23794D01*
X153658Y23660D01*
X153391D01*
X153258Y23794D01*
X152458Y24460D02*
X152725Y24327D01*
X152992Y24060D01*
Y23794D01*
X152858Y23660D01*
X152592D01*
X152458Y23794D01*
Y23927D01*
X152592Y24060D01*
X152992D01*
X152192Y24327D02*
X152059Y24460D01*
X151792D01*
X151659Y24327D01*
Y24193D01*
X151792Y24060D01*
X151659Y23927D01*
Y23794D01*
X151792Y23660D01*
X152059D01*
X152192Y23794D01*
Y23927D01*
X152059Y24060D01*
X152192Y24193D01*
Y24327D01*
X152059Y24060D02*
X151792D01*
X85510Y40455D02*
X85643Y40588D01*
X85910D01*
X86043Y40455D01*
Y39922D01*
X85910Y39789D01*
X85643D01*
X85510Y39922D01*
X84710Y40588D02*
X84977Y40455D01*
X85244Y40189D01*
Y39922D01*
X85110Y39789D01*
X84844D01*
X84710Y39922D01*
Y40055D01*
X84844Y40189D01*
X85244D01*
X84444Y40588D02*
X83911D01*
Y40455D01*
X84444Y39922D01*
Y39789D01*
X165352Y23429D02*
X165486Y23562D01*
X165752D01*
X165885Y23429D01*
Y22896D01*
X165752Y22763D01*
X165486D01*
X165352Y22896D01*
X164553Y23562D02*
X164819Y23429D01*
X165086Y23163D01*
Y22896D01*
X164952Y22763D01*
X164686D01*
X164553Y22896D01*
Y23029D01*
X164686Y23163D01*
X165086D01*
X163886Y22763D02*
Y23562D01*
X164286Y23163D01*
X163753D01*
X144142Y47467D02*
X144275Y47334D01*
Y47067D01*
X144142Y46934D01*
X143608D01*
X143475Y47067D01*
Y47334D01*
X143608Y47467D01*
X144275Y48267D02*
X144142Y48000D01*
X143875Y47733D01*
X143608D01*
X143475Y47867D01*
Y48133D01*
X143608Y48267D01*
X143742D01*
X143875Y48133D01*
Y47733D01*
X143475Y49066D02*
Y48533D01*
X144008Y49066D01*
X144142D01*
X144275Y48933D01*
Y48666D01*
X144142Y48533D01*
X132442Y73150D02*
X132575Y73017D01*
Y72750D01*
X132442Y72617D01*
X131908D01*
X131775Y72750D01*
Y73017D01*
X131908Y73150D01*
X132575Y73950D02*
X132442Y73683D01*
X132175Y73417D01*
X131908D01*
X131775Y73550D01*
Y73817D01*
X131908Y73950D01*
X132042D01*
X132175Y73817D01*
Y73417D01*
X131775Y74216D02*
Y74483D01*
Y74350D01*
X132575D01*
X132442Y74216D01*
X136866Y59942D02*
X137000Y59809D01*
Y59542D01*
X136866Y59409D01*
X136333D01*
X136200Y59542D01*
Y59809D01*
X136333Y59942D01*
X137000Y60742D02*
Y60208D01*
X136600D01*
X136733Y60475D01*
Y60608D01*
X136600Y60742D01*
X136333D01*
X136200Y60608D01*
Y60342D01*
X136333Y60208D01*
Y61008D02*
X136200Y61141D01*
Y61408D01*
X136333Y61541D01*
X136866D01*
X137000Y61408D01*
Y61141D01*
X136866Y61008D01*
X136733D01*
X136600Y61141D01*
Y61541D01*
X116183Y71978D02*
X116316Y72112D01*
X116583D01*
X116716Y71978D01*
Y71445D01*
X116583Y71312D01*
X116316D01*
X116183Y71445D01*
X115383Y72112D02*
X115917D01*
Y71712D01*
X115650Y71845D01*
X115517D01*
X115383Y71712D01*
Y71445D01*
X115517Y71312D01*
X115783D01*
X115917Y71445D01*
X115117Y72112D02*
X114584D01*
Y71978D01*
X115117Y71445D01*
Y71312D01*
X88656Y52483D02*
X88789Y52617D01*
X89056D01*
X89189Y52483D01*
Y51950D01*
X89056Y51817D01*
X88789D01*
X88656Y51950D01*
X87856Y52617D02*
X88389D01*
Y52217D01*
X88123Y52350D01*
X87989D01*
X87856Y52217D01*
Y51950D01*
X87989Y51817D01*
X88256D01*
X88389Y51950D01*
X87056Y52617D02*
X87323Y52483D01*
X87589Y52217D01*
Y51950D01*
X87456Y51817D01*
X87190D01*
X87056Y51950D01*
Y52083D01*
X87190Y52217D01*
X87589D01*
X125755Y49347D02*
X125888Y49481D01*
X126155D01*
X126288Y49347D01*
Y48814D01*
X126155Y48681D01*
X125888D01*
X125755Y48814D01*
X124955Y49481D02*
X125489D01*
Y49081D01*
X125222Y49214D01*
X125089D01*
X124955Y49081D01*
Y48814D01*
X125089Y48681D01*
X125355D01*
X125489Y48814D01*
X124156Y49481D02*
X124689D01*
Y49081D01*
X124422Y49214D01*
X124289D01*
X124156Y49081D01*
Y48814D01*
X124289Y48681D01*
X124556D01*
X124689Y48814D01*
X133607Y41088D02*
X133741Y41221D01*
X134007D01*
X134141Y41088D01*
Y40554D01*
X134007Y40421D01*
X133741D01*
X133607Y40554D01*
X132808Y41221D02*
X133341D01*
Y40821D01*
X133074Y40954D01*
X132941D01*
X132808Y40821D01*
Y40554D01*
X132941Y40421D01*
X133207D01*
X133341Y40554D01*
X132141Y40421D02*
Y41221D01*
X132541Y40821D01*
X132008D01*
X125555Y45613D02*
X125688Y45746D01*
X125955D01*
X126088Y45613D01*
Y45079D01*
X125955Y44946D01*
X125688D01*
X125555Y45079D01*
X124755Y45746D02*
X125289D01*
Y45346D01*
X125022Y45479D01*
X124889D01*
X124755Y45346D01*
Y45079D01*
X124889Y44946D01*
X125155D01*
X125289Y45079D01*
X124489Y45613D02*
X124356Y45746D01*
X124089D01*
X123956Y45613D01*
Y45479D01*
X124089Y45346D01*
X124222D01*
X124089D01*
X123956Y45213D01*
Y45079D01*
X124089Y44946D01*
X124356D01*
X124489Y45079D01*
X58014Y51842D02*
X58147Y51975D01*
X58414D01*
X58547Y51842D01*
Y51308D01*
X58414Y51175D01*
X58147D01*
X58014Y51308D01*
X57214Y51975D02*
X57747D01*
Y51575D01*
X57481Y51708D01*
X57347D01*
X57214Y51575D01*
Y51308D01*
X57347Y51175D01*
X57614D01*
X57747Y51308D01*
X56414Y51175D02*
X56947D01*
X56414Y51708D01*
Y51842D01*
X56548Y51975D01*
X56814D01*
X56947Y51842D01*
X101708Y70382D02*
X101841Y70248D01*
Y69982D01*
X101708Y69849D01*
X101175D01*
X101041Y69982D01*
Y70248D01*
X101175Y70382D01*
X101841Y71181D02*
Y70648D01*
X101441D01*
X101575Y70915D01*
Y71048D01*
X101441Y71181D01*
X101175D01*
X101041Y71048D01*
Y70782D01*
X101175Y70648D01*
X101708Y71448D02*
X101841Y71581D01*
Y71848D01*
X101708Y71981D01*
X101175D01*
X101041Y71848D01*
Y71581D01*
X101175Y71448D01*
X101708D01*
X88356Y48392D02*
X88489Y48525D01*
X88756D01*
X88889Y48392D01*
Y47859D01*
X88756Y47726D01*
X88489D01*
X88356Y47859D01*
X87690Y47726D02*
Y48525D01*
X88089Y48126D01*
X87556D01*
X87290Y47859D02*
X87156Y47726D01*
X86890D01*
X86757Y47859D01*
Y48392D01*
X86890Y48525D01*
X87156D01*
X87290Y48392D01*
Y48259D01*
X87156Y48126D01*
X86757D01*
X96608Y43804D02*
X96741Y43937D01*
X97008D01*
X97141Y43804D01*
Y43271D01*
X97008Y43137D01*
X96741D01*
X96608Y43271D01*
X95941Y43137D02*
Y43937D01*
X96341Y43537D01*
X95808D01*
X95542Y43804D02*
X95408Y43937D01*
X95142D01*
X95008Y43804D01*
Y43671D01*
X95142Y43537D01*
X95008Y43404D01*
Y43271D01*
X95142Y43137D01*
X95408D01*
X95542Y43271D01*
Y43404D01*
X95408Y43537D01*
X95542Y43671D01*
Y43804D01*
X95408Y43537D02*
X95142D01*
X57694Y48367D02*
X57827Y48500D01*
X58094D01*
X58227Y48367D01*
Y47833D01*
X58094Y47700D01*
X57827D01*
X57694Y47833D01*
X57027Y47700D02*
Y48500D01*
X57427Y48100D01*
X56894D01*
X56627Y48500D02*
X56094D01*
Y48367D01*
X56627Y47833D01*
Y47700D01*
X65936Y43792D02*
X66069Y43925D01*
X66336D01*
X66469Y43792D01*
Y43259D01*
X66336Y43125D01*
X66069D01*
X65936Y43259D01*
X65269Y43125D02*
Y43925D01*
X65669Y43525D01*
X65136D01*
X64336Y43925D02*
X64603Y43792D01*
X64870Y43525D01*
Y43259D01*
X64736Y43125D01*
X64470D01*
X64336Y43259D01*
Y43392D01*
X64470Y43525D01*
X64870D01*
X131100Y47514D02*
X131233Y47647D01*
X131500D01*
X131633Y47514D01*
Y46981D01*
X131500Y46848D01*
X131233D01*
X131100Y46981D01*
X130433Y46848D02*
Y47647D01*
X130833Y47247D01*
X130300D01*
X130034Y46848D02*
X129767D01*
X129900D01*
Y47647D01*
X130034Y47514D01*
X63358Y50036D02*
X63491Y50169D01*
X63758D01*
X63891Y50036D01*
Y49502D01*
X63758Y49369D01*
X63491D01*
X63358Y49502D01*
X62692Y49369D02*
Y50169D01*
X63092Y49769D01*
X62558D01*
X62292Y50036D02*
X62159Y50169D01*
X61892D01*
X61759Y50036D01*
Y49502D01*
X61892Y49369D01*
X62159D01*
X62292Y49502D01*
Y50036D01*
X94208Y50442D02*
X94341Y50575D01*
X94608D01*
X94741Y50442D01*
Y49908D01*
X94608Y49775D01*
X94341D01*
X94208Y49908D01*
X93942Y50442D02*
X93808Y50575D01*
X93542D01*
X93408Y50442D01*
Y50308D01*
X93542Y50175D01*
X93675D01*
X93542D01*
X93408Y50042D01*
Y49908D01*
X93542Y49775D01*
X93808D01*
X93942Y49908D01*
X93142D02*
X93009Y49775D01*
X92742D01*
X92609Y49908D01*
Y50442D01*
X92742Y50575D01*
X93009D01*
X93142Y50442D01*
Y50308D01*
X93009Y50175D01*
X92609D01*
X186363Y48941D02*
Y49129D01*
X186552Y49318D01*
X186740Y49318D01*
X187117Y48941D01*
Y48752D01*
X186929Y48563D01*
X186740Y48563D01*
X186175Y48752D02*
X185986Y48752D01*
X185798Y48563D01*
Y48375D01*
X185892Y48281D01*
X186081D01*
X186175Y48375D01*
X186081Y48281D01*
X186081Y48092D01*
X186175Y47998D01*
X186363Y47998D01*
X186552Y48187D01*
Y48375D01*
X185609Y48187D02*
X185421Y48187D01*
X185232Y47998D01*
Y47810D01*
X185327Y47715D01*
X185515D01*
X185515Y47527D01*
X185609Y47432D01*
X185798Y47432D01*
X185986Y47621D01*
Y47810D01*
X185892Y47904D01*
X185704D01*
X185704Y48092D01*
X185609Y48187D01*
X185704Y47904D02*
X185515Y47715D01*
X54982Y40051D02*
X55115Y40185D01*
X55382D01*
X55515Y40051D01*
Y39518D01*
X55382Y39385D01*
X55115D01*
X54982Y39518D01*
X54715Y40051D02*
X54582Y40185D01*
X54315D01*
X54182Y40051D01*
Y39918D01*
X54315Y39785D01*
X54449D01*
X54315D01*
X54182Y39651D01*
Y39518D01*
X54315Y39385D01*
X54582D01*
X54715Y39518D01*
X53916Y40185D02*
X53382D01*
Y40051D01*
X53916Y39518D01*
Y39385D01*
X213658Y79601D02*
X213791Y79734D01*
X214058D01*
X214191Y79601D01*
Y79067D01*
X214058Y78934D01*
X213791D01*
X213658Y79067D01*
X213392Y79601D02*
X213258Y79734D01*
X212992D01*
X212858Y79601D01*
Y79467D01*
X212992Y79334D01*
X213125D01*
X212992D01*
X212858Y79201D01*
Y79067D01*
X212992Y78934D01*
X213258D01*
X213392Y79067D01*
X212059Y79734D02*
X212325Y79601D01*
X212592Y79334D01*
Y79067D01*
X212459Y78934D01*
X212192D01*
X212059Y79067D01*
Y79201D01*
X212192Y79334D01*
X212592D01*
X184115Y54143D02*
X184248Y54276D01*
X184515D01*
X184648Y54143D01*
Y53609D01*
X184515Y53476D01*
X184248D01*
X184115Y53609D01*
X183848Y54143D02*
X183715Y54276D01*
X183449D01*
X183315Y54143D01*
Y54009D01*
X183449Y53876D01*
X183582D01*
X183449D01*
X183315Y53743D01*
Y53609D01*
X183449Y53476D01*
X183715D01*
X183848Y53609D01*
X182515Y54276D02*
X183049D01*
Y53876D01*
X182782Y54009D01*
X182649D01*
X182515Y53876D01*
Y53609D01*
X182649Y53476D01*
X182915D01*
X183049Y53609D01*
X253175Y108617D02*
X253308Y108750D01*
X253575D01*
X253708Y108617D01*
Y108083D01*
X253575Y107950D01*
X253308D01*
X253175Y108083D01*
X252908Y108617D02*
X252775Y108750D01*
X252509D01*
X252375Y108617D01*
Y108483D01*
X252509Y108350D01*
X252642D01*
X252509D01*
X252375Y108217D01*
Y108083D01*
X252509Y107950D01*
X252775D01*
X252908Y108083D01*
X252109Y107950D02*
X251842D01*
X251975D01*
Y108750D01*
X252109Y108617D01*
X96608Y94417D02*
X96741Y94550D01*
X97008D01*
X97141Y94417D01*
Y93883D01*
X97008Y93750D01*
X96741D01*
X96608Y93883D01*
X95808Y93750D02*
X96342D01*
X95808Y94283D01*
Y94417D01*
X95942Y94550D01*
X96208D01*
X96342Y94417D01*
X95542D02*
X95409Y94550D01*
X95142D01*
X95009Y94417D01*
Y94283D01*
X95142Y94150D01*
X95009Y94017D01*
Y93883D01*
X95142Y93750D01*
X95409D01*
X95542Y93883D01*
Y94017D01*
X95409Y94150D01*
X95542Y94283D01*
Y94417D01*
X95409Y94150D02*
X95142D01*
X82731Y93447D02*
X82864Y93313D01*
Y93047D01*
X82731Y92913D01*
X82198D01*
X82064Y93047D01*
Y93313D01*
X82198Y93447D01*
X82064Y94246D02*
Y93713D01*
X82597Y94246D01*
X82731D01*
X82864Y94113D01*
Y93846D01*
X82731Y93713D01*
X82864Y95046D02*
Y94513D01*
X82464D01*
X82597Y94779D01*
Y94913D01*
X82464Y95046D01*
X82198D01*
X82064Y94913D01*
Y94646D01*
X82198Y94513D01*
X230412Y106783D02*
X230545Y106916D01*
X230811D01*
X230945Y106783D01*
Y106250D01*
X230811Y106117D01*
X230545D01*
X230412Y106250D01*
X230145Y106117D02*
X229878D01*
X230012D01*
Y106916D01*
X230145Y106783D01*
X229478Y106250D02*
X229345Y106117D01*
X229079D01*
X228945Y106250D01*
Y106783D01*
X229079Y106916D01*
X229345D01*
X229478Y106783D01*
Y106650D01*
X229345Y106516D01*
X228945D01*
X178244Y108675D02*
X178377Y108809D01*
X178644D01*
X178777Y108675D01*
Y108142D01*
X178644Y108009D01*
X178377D01*
X178244Y108142D01*
X177977Y108009D02*
X177711D01*
X177844D01*
Y108809D01*
X177977Y108675D01*
X176778Y108809D02*
X177044Y108675D01*
X177311Y108409D01*
Y108142D01*
X177178Y108009D01*
X176911D01*
X176778Y108142D01*
Y108276D01*
X176911Y108409D01*
X177311D01*
X168363Y106910D02*
X168496Y107044D01*
X168763D01*
X168896Y106910D01*
Y106377D01*
X168763Y106244D01*
X168496D01*
X168363Y106377D01*
X168096Y106244D02*
X167830D01*
X167963D01*
Y107044D01*
X168096Y106910D01*
X167030Y106244D02*
Y107044D01*
X167430Y106644D01*
X166897D01*
X155282Y106910D02*
X155415Y107044D01*
X155682D01*
X155815Y106910D01*
Y106377D01*
X155682Y106244D01*
X155415D01*
X155282Y106377D01*
X155015Y106244D02*
X154749D01*
X154882D01*
Y107044D01*
X155015Y106910D01*
X154349D02*
X154216Y107044D01*
X153949D01*
X153816Y106910D01*
Y106777D01*
X153949Y106644D01*
X154082D01*
X153949D01*
X153816Y106510D01*
Y106377D01*
X153949Y106244D01*
X154216D01*
X154349Y106377D01*
X141693Y106910D02*
X141826Y107044D01*
X142093D01*
X142226Y106910D01*
Y106377D01*
X142093Y106244D01*
X141826D01*
X141693Y106377D01*
X141426Y106244D02*
X141160D01*
X141293D01*
Y107044D01*
X141426Y106910D01*
X140227Y106244D02*
X140760D01*
X140227Y106777D01*
Y106910D01*
X140360Y107044D01*
X140627D01*
X140760Y106910D01*
X249217Y16492D02*
X249350Y16625D01*
X249616D01*
X249750Y16492D01*
Y15958D01*
X249616Y15825D01*
X249350D01*
X249217Y15958D01*
X248950Y15825D02*
X248683D01*
X248817D01*
Y16625D01*
X248950Y16492D01*
X248283D02*
X248150Y16625D01*
X247884D01*
X247750Y16492D01*
Y15958D01*
X247884Y15825D01*
X248150D01*
X248283Y15958D01*
Y16492D01*
X178107Y32210D02*
X178240Y32344D01*
X178507D01*
X178640Y32210D01*
Y31677D01*
X178507Y31544D01*
X178240D01*
X178107Y31677D01*
X177840D02*
X177707Y31544D01*
X177440D01*
X177307Y31677D01*
Y32210D01*
X177440Y32344D01*
X177707D01*
X177840Y32210D01*
Y32077D01*
X177707Y31944D01*
X177307D01*
X229838Y109313D02*
X229972Y109446D01*
X230238D01*
X230371Y109313D01*
Y108780D01*
X230238Y108647D01*
X229972D01*
X229838Y108780D01*
X229572Y109313D02*
X229438Y109446D01*
X229172D01*
X229039Y109313D01*
Y109180D01*
X229172Y109046D01*
X229039Y108913D01*
Y108780D01*
X229172Y108647D01*
X229438D01*
X229572Y108780D01*
Y108913D01*
X229438Y109046D01*
X229572Y109180D01*
Y109313D01*
X229438Y109046D02*
X229172D01*
X179934Y30006D02*
X180068Y30139D01*
X180334D01*
X180467Y30006D01*
Y29472D01*
X180334Y29339D01*
X180068D01*
X179934Y29472D01*
X179268Y29339D02*
Y30139D01*
X179668Y29739D01*
X179135D01*
X225708Y39592D02*
X225842Y39725D01*
X226108D01*
X226241Y39592D01*
Y39058D01*
X226108Y38925D01*
X225842D01*
X225708Y39058D01*
X225442Y39592D02*
X225308Y39725D01*
X225042D01*
X224909Y39592D01*
Y39458D01*
X225042Y39325D01*
X225175D01*
X225042D01*
X224909Y39192D01*
Y39058D01*
X225042Y38925D01*
X225308D01*
X225442Y39058D01*
X182150Y30006D02*
X182283Y30139D01*
X182550D01*
X182683Y30006D01*
Y29472D01*
X182550Y29339D01*
X182283D01*
X182150Y29472D01*
X181883Y29339D02*
X181617D01*
X181750D01*
Y30139D01*
X181883Y30006D01*
D115*
X81214Y79988D02*
X81814D01*
X81214Y79288D02*
Y79988D01*
X79914D02*
X81214D01*
Y80688D01*
X80507Y79281D02*
Y80695D01*
Y79281D02*
X81214Y79988D01*
X80507Y80695D02*
X81214Y79988D01*
X84564Y78488D02*
Y81488D01*
X77164D02*
X84564D01*
X77164Y78488D02*
X84564D01*
X77164D02*
Y81488D01*
X81914Y97088D02*
X82514D01*
X81914Y96388D02*
Y97088D01*
X80614D02*
X81914D01*
Y97788D01*
X81207Y96381D02*
Y97795D01*
Y96381D02*
X81914Y97088D01*
X81207Y97795D02*
X81914Y97088D01*
X85264Y95588D02*
Y98588D01*
X77864D02*
X85264D01*
X77864Y95588D02*
X85264D01*
X77864D02*
Y98588D01*
X93764Y101313D02*
Y101548D01*
Y98628D02*
Y98863D01*
X89164Y98628D02*
X93764D01*
X89164Y101313D02*
Y101548D01*
Y98628D02*
Y98863D01*
Y101548D02*
X93764D01*
X89919Y95488D02*
X94669D01*
X89919Y93088D02*
Y95488D01*
Y93088D02*
X94669D01*
Y95488D01*
X114171Y70512D02*
Y72912D01*
X109421Y70512D02*
X114171D01*
X109421D02*
Y72912D01*
X114171D01*
X116930Y108956D02*
X117175D01*
X116930Y107706D02*
X117175D01*
X124795Y110525D02*
X129395D01*
X124795Y107605D02*
Y107840D01*
Y110290D02*
Y110525D01*
Y107605D02*
X129395D01*
Y107840D01*
Y110290D02*
Y110525D01*
X40732Y27435D02*
X48935Y19232D01*
X44268Y14565D02*
X48935Y19232D01*
X36065Y22768D02*
X40732Y27435D01*
X36065Y22768D02*
X44268Y14565D01*
X73232Y27435D02*
X81435Y19232D01*
X76768Y14565D02*
X81435Y19232D01*
X68565Y22768D02*
X73232Y27435D01*
X68565Y22768D02*
X76768Y14565D01*
X105832Y27435D02*
X114035Y19232D01*
X109368Y14565D02*
X114035Y19232D01*
X101165Y22768D02*
X105832Y27435D01*
X101165Y22768D02*
X109368Y14565D01*
X178169Y28875D02*
X180581D01*
X178169Y26725D02*
X180581D01*
X180944D02*
X183356D01*
X180944Y28875D02*
X183356D01*
X176610Y28950D02*
X178810D01*
X176610Y31100D02*
X178810D01*
X184975Y54949D02*
X187175D01*
X184975Y52799D02*
X187175D01*
X193375Y39877D02*
Y40123D01*
X194625Y39877D02*
Y40123D01*
X224635Y31190D02*
X230485D01*
X224635Y20690D02*
X230485D01*
Y31190D01*
X224635Y20690D02*
Y31190D01*
X212025Y78250D02*
X214225D01*
X212025Y76100D02*
X214225D01*
X230977Y64325D02*
X231223D01*
X230977Y63075D02*
X231223D01*
X259949Y67569D02*
X260194D01*
X259949Y68819D02*
X260194D01*
X210296Y154050D02*
Y162575D01*
X206196Y154050D02*
X210246D01*
X206196Y162575D02*
X210296D01*
X206196Y154050D02*
Y162575D01*
X240030Y10178D02*
Y10423D01*
X238780Y10178D02*
Y10423D01*
X237490Y10179D02*
Y10424D01*
X236240Y10179D02*
Y10424D01*
X129752Y101765D02*
Y104165D01*
X125002Y101765D02*
X129752D01*
X125002D02*
Y104165D01*
X129752D01*
X129450Y60200D02*
X132550D01*
X129450Y59500D02*
X132550D01*
X129450D02*
Y60200D01*
X132550Y59500D02*
Y60200D01*
X129952Y57075D02*
X130197D01*
X129952Y55825D02*
X130197D01*
X128081Y55256D02*
Y55501D01*
X126831Y55256D02*
Y55501D01*
X128650Y59702D02*
Y59948D01*
X127400Y59702D02*
Y59948D01*
X130952Y62675D02*
X131198D01*
X130952Y63925D02*
X131198D01*
X128551Y55187D02*
X131599D01*
Y53663D02*
Y55187D01*
X128551Y53663D02*
Y55187D01*
Y53663D02*
X131599D01*
X135725Y59250D02*
Y61450D01*
X133575Y59250D02*
Y61450D01*
X161906Y18268D02*
X162151D01*
X161906Y19518D02*
X162151D01*
X161906Y21395D02*
X162151D01*
X161906Y20145D02*
X162151D01*
X160150Y19848D02*
Y20093D01*
X158900Y19848D02*
Y20093D01*
X161850Y24763D02*
Y27863D01*
X161150Y24763D02*
Y27863D01*
X161850D01*
X161150Y24763D02*
X161850D01*
X153125Y26790D02*
Y27035D01*
X154375Y26790D02*
Y27035D01*
X165125Y26195D02*
Y26440D01*
X163875Y26195D02*
Y26440D01*
X156375Y26815D02*
Y27060D01*
X155125Y26815D02*
Y27060D01*
X154400Y25288D02*
X156600D01*
X154400Y23138D02*
X156600D01*
X160875Y22088D02*
X163075D01*
X160875Y24238D02*
X163075D01*
X159025Y25963D02*
Y28163D01*
X156875Y25963D02*
Y28163D01*
X190950Y58000D02*
X191550D01*
X191250Y57700D02*
Y58300D01*
X186450Y59700D02*
X188200D01*
X186450Y56300D02*
X188200D01*
X184250Y51799D02*
X185806Y50243D01*
X182730Y50279D02*
X184286Y48723D01*
X174852Y27794D02*
X175098D01*
X174852Y26544D02*
X175098D01*
X136199Y41618D02*
X139247D01*
X136199D02*
Y43142D01*
X139247Y41618D02*
Y43142D01*
X136199D02*
X139247D01*
X124098Y66589D02*
X127146D01*
X124098D02*
Y68113D01*
X127146Y66589D02*
Y68113D01*
X124098D02*
X127146D01*
X124275Y32868D02*
X124521D01*
X124275Y31618D02*
X124521D01*
X88027Y34950D02*
X88272D01*
X88027Y33700D02*
X88272D01*
X55602Y35300D02*
X55848D01*
X55602Y34050D02*
X55848D01*
X220375Y70450D02*
X221225D01*
X220375Y69100D02*
X221225D01*
X224525Y36035D02*
X226725D01*
X224525Y38185D02*
X226725D01*
X169673Y65350D02*
X169918D01*
X169673Y66600D02*
X169918D01*
X169780Y63550D02*
X170026D01*
X169780Y64800D02*
X170026D01*
X244675Y106850D02*
X248775D01*
X244675Y113550D02*
X248775D01*
X244675Y106850D02*
Y113550D01*
X248775Y106850D02*
Y113550D01*
X255927Y100097D02*
X256173D01*
X255927Y101347D02*
X256173D01*
X251200Y109825D02*
Y112025D01*
X253350Y109825D02*
Y112025D01*
X193777Y10377D02*
Y10623D01*
X195027Y10377D02*
Y10623D01*
X196317Y10377D02*
Y10623D01*
X197567Y10377D02*
Y10623D01*
X210628Y10357D02*
Y10602D01*
X211878Y10357D02*
Y10602D01*
X213168Y10357D02*
Y10602D01*
X214418Y10357D02*
Y10602D01*
X202120Y10347D02*
Y10592D01*
X203370Y10347D02*
Y10592D01*
X204720Y10347D02*
Y10592D01*
X205970Y10347D02*
Y10592D01*
X219210Y10377D02*
Y10623D01*
X220460Y10377D02*
Y10623D01*
X221750Y10377D02*
Y10623D01*
X223000Y10377D02*
Y10623D01*
X227685Y10377D02*
Y10623D01*
X228935Y10377D02*
Y10623D01*
X230225Y10377D02*
Y10623D01*
X231475Y10377D02*
Y10623D01*
X194700Y94175D02*
Y97175D01*
Y94175D02*
X202100D01*
X194700Y97175D02*
X202100D01*
Y94175D02*
Y97175D01*
X198043Y96382D02*
X198750Y95675D01*
X198043Y94968D02*
X198750Y95675D01*
X198043Y94968D02*
Y96382D01*
X198750Y95675D02*
Y96375D01*
X197450Y95675D02*
X198750D01*
Y94975D02*
Y95675D01*
X199350D01*
X193756Y32797D02*
Y34547D01*
X195356Y32797D02*
Y34547D01*
X166750Y100625D02*
Y105375D01*
Y100625D02*
X169150D01*
Y105375D01*
X166750D02*
X169150D01*
X153650Y100625D02*
Y105375D01*
Y100625D02*
X156050D01*
Y105375D01*
X153650D02*
X156050D01*
X140075Y100625D02*
Y105375D01*
Y100625D02*
X142475D01*
Y105375D01*
X140075D02*
X142475D01*
X259983Y77774D02*
X260228D01*
X259983Y79024D02*
X260228D01*
X260202Y58809D02*
X260448D01*
X260202Y57559D02*
X260448D01*
X260124Y47459D02*
X260369D01*
X260124Y48709D02*
X260369D01*
X237459Y47701D02*
Y47946D01*
X238709Y47701D02*
Y47946D01*
X238709Y53645D02*
Y53890D01*
X237459Y53645D02*
Y53890D01*
X241267Y47700D02*
Y47945D01*
X240017Y47700D02*
Y47945D01*
X246896Y48875D02*
Y49121D01*
X248146Y48875D02*
Y49121D01*
X112775Y79000D02*
Y79235D01*
Y76315D02*
Y76550D01*
X108175Y76315D02*
X112775D01*
X108175Y79000D02*
Y79235D01*
Y76315D02*
Y76550D01*
Y79235D02*
X112775D01*
X97906Y62920D02*
X99656D01*
X97906Y64520D02*
X99656D01*
X133575Y94132D02*
X133820D01*
X133575Y95382D02*
X133820D01*
X120309Y95476D02*
X120554D01*
X120309Y94226D02*
X120554D01*
X133575Y96597D02*
X133820D01*
X133575Y97847D02*
X133820D01*
X111206Y93745D02*
Y93990D01*
X109956Y93745D02*
Y93990D01*
X114257Y92899D02*
X114502D01*
X114257Y91649D02*
X114502D01*
X113557Y94067D02*
X115307D01*
X113557Y95667D02*
X115307D01*
X120104Y98685D02*
X120554D01*
X120104Y100035D02*
X120554D01*
X117402Y105165D02*
X118002D01*
X117402Y104465D02*
Y105165D01*
X116102D02*
X117402D01*
Y105865D01*
X116695Y104458D02*
Y105872D01*
Y104458D02*
X117402Y105165D01*
X116695Y105872D02*
X117402Y105165D01*
X120752Y103665D02*
Y106665D01*
X113352D02*
X120752D01*
X113352Y103665D02*
X120752D01*
X113352D02*
Y106665D01*
X113371Y102740D02*
X115783D01*
X113371Y100590D02*
X115783D01*
X113502Y98459D02*
X115252D01*
X113502Y100059D02*
X115252D01*
X117954Y102965D02*
X122704D01*
X117954Y100565D02*
Y102965D01*
Y100565D02*
X122704D01*
Y102965D01*
X115731Y88974D02*
X116331D01*
X115731Y88274D02*
Y88974D01*
X114431D02*
X115731D01*
Y89674D01*
X115024Y88267D02*
Y89681D01*
Y88267D02*
X115731Y88974D01*
X115024Y89681D02*
X115731Y88974D01*
X119081Y87474D02*
Y90474D01*
X111681D02*
X119081D01*
X111681Y87474D02*
X119081D01*
X111681D02*
Y90474D01*
X98659Y61845D02*
X98904D01*
X98659Y60595D02*
X98904D01*
X104559Y64345D02*
X104804D01*
X104559Y63095D02*
X104804D01*
X117213Y61738D02*
X117458D01*
X117213Y62988D02*
X117458D01*
X117213Y64338D02*
X117458D01*
X117213Y65588D02*
X117458D01*
X101092Y76590D02*
X101338D01*
X101092Y77840D02*
X101338D01*
X101416Y74015D02*
X102016D01*
X101416Y73315D02*
Y74015D01*
X100116D02*
X101416D01*
Y74715D01*
X100709Y73308D02*
Y74722D01*
Y73308D02*
X101416Y74015D01*
X100709Y74722D02*
X101416Y74015D01*
X104766Y72515D02*
Y75515D01*
X97366D02*
X104766D01*
X97366Y72515D02*
X104766D01*
X97366D02*
Y75515D01*
X100205Y58120D02*
X100805D01*
X100205Y57420D02*
Y58120D01*
X98905D02*
X100205D01*
Y58820D01*
X99498Y57413D02*
Y58827D01*
Y57413D02*
X100205Y58120D01*
X99498Y58827D02*
X100205Y58120D01*
X103555Y56620D02*
Y59620D01*
X96155D02*
X103555D01*
X96155Y56620D02*
X103555D01*
X96155D02*
Y59620D01*
X97310Y71990D02*
X99722D01*
X97310Y69840D02*
X99722D01*
X97641Y67715D02*
X99391D01*
X97641Y69315D02*
X99391D01*
X102266Y72115D02*
X107016D01*
X102266Y69715D02*
Y72115D01*
Y69715D02*
X107016D01*
Y72115D01*
X104416Y67840D02*
X104866D01*
X104416Y69190D02*
X104866D01*
X93824Y61845D02*
X94069D01*
X93824Y60595D02*
X94069D01*
X81442Y101013D02*
X81687D01*
X81442Y99763D02*
X81687D01*
X74742Y82763D02*
X74987D01*
X74742Y84013D02*
X74987D01*
X79342Y82763D02*
X79587D01*
X79342Y84013D02*
X79587D01*
X85464Y85763D02*
X85709D01*
X85464Y87013D02*
X85709D01*
X99009Y89344D02*
X99254D01*
X99009Y88094D02*
X99254D01*
X99009Y86674D02*
X99254D01*
X99009Y85424D02*
X99254D01*
X78258Y93162D02*
X80670D01*
X78258Y95312D02*
X80670D01*
X88064Y92780D02*
Y95180D01*
X83314Y92780D02*
X88064D01*
X83314D02*
Y95180D01*
X88064D01*
X85239Y92112D02*
X85689D01*
X85239Y90762D02*
X85689D01*
X78589Y92237D02*
X80339D01*
X78589Y90637D02*
X80339D01*
X78589Y87188D02*
X80339D01*
X78589Y85588D02*
X80339D01*
X241533Y68359D02*
X241778D01*
X241533Y69609D02*
X241778D01*
X241267Y59095D02*
Y59340D01*
X240017Y59095D02*
Y59340D01*
X245262Y63719D02*
Y63964D01*
X246512Y63719D02*
Y63964D01*
X250345Y56326D02*
Y58526D01*
X252495Y56326D02*
Y58526D01*
X247996Y56312D02*
Y58512D01*
X250146Y56312D02*
Y58512D01*
X233600Y48105D02*
X233845D01*
X233600Y49355D02*
X233845D01*
X250688Y48877D02*
Y49122D01*
X249438Y48877D02*
Y49122D01*
X241267Y53645D02*
Y53890D01*
X240017Y53645D02*
Y53890D01*
X252145Y48877D02*
Y49122D01*
X253395Y48877D02*
Y49122D01*
X241534Y66959D02*
X241780D01*
X241534Y65709D02*
X241780D01*
X237446Y59095D02*
Y59340D01*
X238696Y59095D02*
Y59340D01*
X251996Y63718D02*
Y63963D01*
X250746Y63718D02*
Y63963D01*
X248021Y63718D02*
Y63963D01*
X249271Y63718D02*
Y63963D01*
X231630Y108046D02*
X233830D01*
X231630Y110196D02*
X233830D01*
X236403Y107923D02*
Y108168D01*
X235153Y107923D02*
Y108168D01*
X236420Y103348D02*
Y103593D01*
X235170Y103348D02*
Y103593D01*
X231745Y105316D02*
X233945D01*
X231745Y107466D02*
X233945D01*
X176677Y109216D02*
X178877D01*
X176677Y111366D02*
X178877D01*
X177455Y112441D02*
X177700D01*
X177455Y113691D02*
X177700D01*
X181980Y112441D02*
X182225D01*
X181980Y113691D02*
X182225D01*
X209750Y165577D02*
Y165823D01*
X211000Y165577D02*
Y165823D01*
X140900Y46800D02*
Y49000D01*
X143050Y46800D02*
Y49000D01*
X129022Y72600D02*
Y74800D01*
X131172Y72600D02*
Y74800D01*
X122972Y73052D02*
Y73298D01*
X124222Y73052D02*
Y73298D01*
X134825Y47252D02*
Y47498D01*
X136075Y47252D02*
Y47498D01*
X138378Y51950D02*
X138623D01*
X138378Y50700D02*
X138623D01*
X140050Y47050D02*
Y47750D01*
X136950Y47050D02*
Y47750D01*
Y47050D02*
X140050D01*
X136950Y47750D02*
X140050D01*
X122328Y68950D02*
X122573D01*
X122328Y70200D02*
X122573D01*
X126449Y76950D02*
X126695D01*
X126449Y75700D02*
X126695D01*
X128122Y72850D02*
Y73550D01*
X125022Y72850D02*
Y73550D01*
Y72850D02*
X128122D01*
X125022Y73550D02*
X128122D01*
X125499Y68950D02*
X125745D01*
X125499Y70200D02*
X125745D01*
X134582Y43156D02*
Y43401D01*
X135832Y43156D02*
Y43401D01*
X137600Y43700D02*
X137845D01*
X137600Y44950D02*
X137845D01*
X165646Y8699D02*
Y8944D01*
X164396Y8699D02*
Y8944D01*
X173646Y8699D02*
Y8944D01*
X172396Y8699D02*
Y8944D01*
X177646Y8699D02*
Y8944D01*
X176396Y8699D02*
Y8944D01*
X181646Y8699D02*
Y8944D01*
X180396Y8699D02*
Y8944D01*
X169646Y8699D02*
Y8944D01*
X168396Y8699D02*
Y8944D01*
X184396Y8699D02*
Y8944D01*
X185646Y8699D02*
Y8944D01*
X58752Y36525D02*
X58997D01*
X58752Y37775D02*
X58997D01*
X86324Y41264D02*
X88524D01*
X86324Y39114D02*
X88524D01*
X86400Y42815D02*
X86645D01*
X86400Y44065D02*
X86645D01*
X90241Y44065D02*
X90486D01*
X90241Y42815D02*
X90486D01*
X129322Y39746D02*
X131522D01*
X129322Y41896D02*
X131522D01*
X124122Y46246D02*
X126322D01*
X124122Y48396D02*
X126322D01*
X126097Y42345D02*
Y44545D01*
X123947Y42345D02*
Y44545D01*
X128073Y45119D02*
X128773D01*
X128073Y42019D02*
X128773D01*
Y45119D01*
X128073Y42019D02*
Y45119D01*
X127072Y46246D02*
X129272D01*
X127072Y48396D02*
X129272D01*
X87023Y49014D02*
X89223D01*
X87023Y51164D02*
X89223D01*
X92223Y42365D02*
X94423D01*
X92223Y44515D02*
X94423D01*
X85098Y49192D02*
Y49437D01*
X86348Y49192D02*
Y49437D01*
X88898Y45091D02*
Y47291D01*
X86748Y45091D02*
Y47291D01*
X89823Y49014D02*
X92023D01*
X89823Y51164D02*
X92023D01*
X91073Y47864D02*
X91773D01*
X91073Y44764D02*
X91773D01*
Y47864D01*
X91073Y44764D02*
Y47864D01*
X55684Y42900D02*
X55929D01*
X55684Y44150D02*
X55929D01*
X61551Y42450D02*
X63751D01*
X61551Y44600D02*
X63751D01*
X56106Y48694D02*
X58306D01*
X56106Y50844D02*
X58306D01*
X54381Y49146D02*
Y49392D01*
X55631Y49146D02*
Y49392D01*
X58182Y45175D02*
Y47375D01*
X56032Y45175D02*
Y47375D01*
X59051Y48694D02*
X61251D01*
X59051Y50844D02*
X61251D01*
X60301Y47825D02*
X61001D01*
X60301Y44725D02*
X61001D01*
Y47825D01*
X60301Y44725D02*
Y47825D01*
X123520Y40196D02*
X123765D01*
X123520Y41446D02*
X123765D01*
X122097Y43323D02*
Y43569D01*
X123347Y43323D02*
Y43569D01*
X122097Y46323D02*
Y46568D01*
X123347Y46323D02*
Y46568D01*
X127400Y41446D02*
X127646D01*
X127400Y40196D02*
X127646D01*
X59628Y44150D02*
X59873D01*
X59628Y42900D02*
X59873D01*
X54382Y46152D02*
Y46398D01*
X55632Y46152D02*
Y46398D01*
X85098Y46191D02*
Y46436D01*
X86348Y46191D02*
Y46436D01*
X124181Y39125D02*
X126381D01*
X124181Y36975D02*
X126381D01*
X124277Y35550D02*
X124523D01*
X124277Y34300D02*
X124523D01*
X128152Y35550D02*
X128398D01*
X128152Y34300D02*
X128398D01*
X87303Y37575D02*
X87548D01*
X87303Y36325D02*
X87548D01*
X91177Y37575D02*
X91423D01*
X91177Y36325D02*
X91423D01*
X55928Y38710D02*
X58128D01*
X55928Y40860D02*
X58128D01*
X55183Y36525D02*
X55428D01*
X55183Y37775D02*
X55428D01*
X214877Y30650D02*
X215123D01*
X214877Y29400D02*
X215123D01*
X214877Y26750D02*
X215123D01*
X214877Y28000D02*
X215123D01*
X214877Y24175D02*
X215123D01*
X214877Y25425D02*
X215123D01*
X214877Y22725D02*
X215123D01*
X214877Y21475D02*
X215123D01*
X254057Y33885D02*
X254303D01*
X254057Y32635D02*
X254303D01*
X245077Y17546D02*
X245322D01*
X245077Y18796D02*
X245322D01*
X240182D02*
X240427D01*
X240182Y17546D02*
X240427D01*
X240227Y28495D02*
X240473D01*
X240227Y27245D02*
X240473D01*
X240224Y25795D02*
X240469D01*
X240224Y24545D02*
X240469D01*
X243325Y19840D02*
X244850D01*
X245200Y19970D02*
Y24870D01*
X248400D01*
Y19970D02*
Y24870D01*
X245200Y19970D02*
X248400D01*
X248017Y29369D02*
X248263D01*
X248017Y28119D02*
X248263D01*
X247650Y19285D02*
X249850D01*
X247650Y17135D02*
X249850D01*
X253650Y15100D02*
X256650D01*
Y22500D01*
X253650Y15100D02*
Y22500D01*
X256650D01*
X254443Y18443D02*
X255150Y19150D01*
X255857Y18443D01*
X254443D02*
X255857D01*
X254450Y19150D02*
X255150D01*
Y17850D02*
Y19150D01*
X255850D01*
X255150D02*
Y19750D01*
X253680Y30125D02*
X256680D01*
X253680Y22725D02*
Y30125D01*
X256680Y22725D02*
Y30125D01*
X253680Y22725D02*
X256680D01*
X255180Y26075D02*
X255887Y26782D01*
X254473D02*
X255180Y26075D01*
X254473Y26782D02*
X255887D01*
X255180Y26075D02*
X255880D01*
X255180D02*
Y27375D01*
X254480Y26075D02*
X255180D01*
Y25475D02*
Y26075D01*
X248517Y26835D02*
X248763D01*
X248517Y25585D02*
X248763D01*
D116*
X246771Y54068D02*
Y57068D01*
X242521Y54068D02*
X247521D01*
X242521Y57068D02*
X247521D01*
Y54068D02*
Y57068D01*
X242521Y54068D02*
Y57068D01*
D117*
X234873Y129255D02*
X244525D01*
X234746D02*
Y137891D01*
X225094Y129255D02*
X234619D01*
D118*
X114320Y63149D02*
X113474Y63995D01*
Y63149D02*
X114320Y63995D01*
X113897Y63149D02*
Y63995D01*
X113474Y63572D02*
X114320D01*
X130121Y94280D02*
X129275Y95126D01*
Y94280D02*
X130121Y95126D01*
X129698Y94280D02*
Y95126D01*
X129275Y94703D02*
X130121D01*
X95003Y85789D02*
X94157Y86635D01*
Y85789D02*
X95003Y86635D01*
X94580Y85789D02*
Y86635D01*
X94157Y86212D02*
X95003D01*
D119*
X107500Y150096D02*
D03*
X75000Y150096D02*
D03*
X42500Y150096D02*
D03*
X42500Y29904D02*
D03*
X75000Y29905D02*
D03*
X107500Y29904D02*
D03*
%TF.MD5,80535ca4550b466b30af5086427d5194*%
M02*
