%TF.GenerationSoftware,Altium Limited,Altium Designer,21.6.4 (81)*%
G04 Layer_Color=32896*
%FSLAX43Y43*%
%MOMM*%
%TF.SameCoordinates,76D5CAF9-2094-4FD7-9A7B-915B2AFADFAF*%
%TF.FilePolarity,Positive*%
%TF.FileFunction,Other,Bottom_3D_Body*%
%TF.Part,Single*%
G01*
G75*
%TA.AperFunction,NonConductor*%
%ADD115C,0.200*%
D115*
X93764Y98628D02*
Y101548D01*
X89164Y98628D02*
X93764D01*
X89164D02*
Y101548D01*
X93764D01*
X124795Y110525D02*
X129395D01*
X124795Y107605D02*
Y110525D01*
Y107605D02*
X129395D01*
Y110525D01*
X178375Y27175D02*
X180375D01*
Y28425D01*
X178375D02*
X180375D01*
X178375Y27175D02*
Y28425D01*
X181150D02*
X183150D01*
X181150Y27175D02*
Y28425D01*
Y27175D02*
X183150D01*
Y28425D01*
X178810Y29300D02*
Y30750D01*
X176610Y29300D02*
X178810D01*
X176610D02*
Y30750D01*
X178810D01*
X184975Y54599D02*
X187175D01*
X184975Y53149D02*
Y54599D01*
Y53149D02*
X187175D01*
Y54599D01*
X212025Y77900D02*
X214225D01*
X212025Y76450D02*
Y77900D01*
Y76450D02*
X214225D01*
Y77900D01*
X133925Y61450D02*
X135375D01*
Y59250D02*
Y61450D01*
X133925Y59250D02*
X135375D01*
X133925D02*
Y61450D01*
X154400Y23488D02*
Y24938D01*
X156600D01*
Y23488D02*
Y24938D01*
X154400Y23488D02*
X156600D01*
X163075Y22438D02*
Y23888D01*
X160875Y22438D02*
X163075D01*
X160875D02*
Y23888D01*
X163075D01*
X157225Y28163D02*
X158675D01*
Y25963D02*
Y28163D01*
X157225Y25963D02*
X158675D01*
X157225D02*
Y28163D01*
X184225Y56300D02*
Y59700D01*
X190425D01*
Y56300D02*
Y59700D01*
X184225Y56300D02*
X190425D01*
X184003Y51551D02*
X185558Y49996D01*
X182977Y50526D02*
X184003Y51551D01*
X182977Y50526D02*
X184533Y48970D01*
X185558Y49996D01*
X219900Y70450D02*
X221700D01*
X219900Y69100D02*
Y70450D01*
Y69100D02*
X221700D01*
Y70450D01*
X226725Y36385D02*
Y37835D01*
X224525Y36385D02*
X226725D01*
X224525D02*
Y37835D01*
X226725D01*
X251550Y109825D02*
X253000D01*
X251550D02*
Y112025D01*
X253000D01*
Y109825D02*
Y112025D01*
X193756Y31822D02*
X195356D01*
X193756D02*
Y35522D01*
X195356D01*
Y31822D02*
Y35522D01*
X112775Y76315D02*
Y79235D01*
X108175Y76315D02*
X112775D01*
X108175D02*
Y79235D01*
X112775D01*
X100631Y62920D02*
Y64520D01*
X96931Y62920D02*
X100631D01*
X96931D02*
Y64520D01*
X100631D01*
X116282Y94067D02*
Y95667D01*
X112582Y94067D02*
X116282D01*
X112582D02*
Y95667D01*
X116282D01*
X121379Y98685D02*
Y100035D01*
X119279Y98685D02*
X121379D01*
X119279D02*
Y100035D01*
X121379D01*
X115577Y101040D02*
Y102290D01*
X113577Y101040D02*
X115577D01*
X113577D02*
Y102290D01*
X115577D01*
X116227Y98459D02*
Y100059D01*
X112527Y98459D02*
X116227D01*
X112527D02*
Y100059D01*
X116227D01*
X99516Y70290D02*
Y71540D01*
X97516Y70290D02*
X99516D01*
X97516D02*
Y71540D01*
X99516D01*
X100366Y67715D02*
Y69315D01*
X96666Y67715D02*
X100366D01*
X96666D02*
Y69315D01*
X100366D01*
X105691Y67840D02*
Y69190D01*
X103591Y67840D02*
X105691D01*
X103591D02*
Y69190D01*
X105691D01*
X78464Y94862D02*
X80464D01*
X78464Y93612D02*
Y94862D01*
Y93612D02*
X80464D01*
Y94862D01*
X84414Y92112D02*
X86514D01*
X84414Y90762D02*
Y92112D01*
Y90762D02*
X86514D01*
Y92112D01*
X77614Y92237D02*
X81314D01*
X77614Y90637D02*
Y92237D01*
Y90637D02*
X81314D01*
Y92237D01*
X77614Y87188D02*
X81314D01*
X77614Y85588D02*
Y87188D01*
Y85588D02*
X81314D01*
Y87188D01*
X250695Y56326D02*
Y58526D01*
Y56326D02*
X252145D01*
Y58526D01*
X250695D02*
X252145D01*
X248346Y56312D02*
Y58512D01*
Y56312D02*
X249796D01*
Y58512D01*
X248346D02*
X249796D01*
X231630Y108396D02*
X233830D01*
Y109846D01*
X231630D02*
X233830D01*
X231630Y108396D02*
Y109846D01*
X231745Y105666D02*
X233945D01*
Y107116D01*
X231745D02*
X233945D01*
X231745Y105666D02*
Y107116D01*
X176677Y109566D02*
X178877D01*
Y111016D01*
X176677D02*
X178877D01*
X176677Y109566D02*
Y111016D01*
X141250Y46800D02*
Y49000D01*
Y46800D02*
X142700D01*
Y49000D01*
X141250D02*
X142700D01*
X129372Y72600D02*
Y74800D01*
Y72600D02*
X130822D01*
Y74800D01*
X129372D02*
X130822D01*
X86324Y40914D02*
X88524D01*
X86324Y39464D02*
Y40914D01*
Y39464D02*
X88524D01*
Y40914D01*
X129322Y40096D02*
X131522D01*
Y41546D01*
X129322D02*
X131522D01*
X129322Y40096D02*
Y41546D01*
X124122Y46596D02*
X126322D01*
Y48046D01*
X124122D02*
X126322D01*
X124122Y46596D02*
Y48046D01*
X125747Y42345D02*
Y44545D01*
X124297D02*
X125747D01*
X124297Y42345D02*
Y44545D01*
Y42345D02*
X125747D01*
X127072Y46596D02*
X129272D01*
Y48046D01*
X127072D02*
X129272D01*
X127072Y46596D02*
Y48046D01*
X87023Y49364D02*
X89223D01*
Y50814D01*
X87023D02*
X89223D01*
X87023Y49364D02*
Y50814D01*
X92223Y42715D02*
X94423D01*
Y44165D01*
X92223D02*
X94423D01*
X92223Y42715D02*
Y44165D01*
X88548Y45091D02*
Y47291D01*
X87098D02*
X88548D01*
X87098Y45091D02*
Y47291D01*
Y45091D02*
X88548D01*
X89823Y49364D02*
X92023D01*
Y50814D01*
X89823D02*
X92023D01*
X89823Y49364D02*
Y50814D01*
X61551Y42800D02*
X63751D01*
Y44250D01*
X61551D02*
X63751D01*
X61551Y42800D02*
Y44250D01*
X56106Y49044D02*
X58306D01*
Y50494D01*
X56106D02*
X58306D01*
X56106Y49044D02*
Y50494D01*
X57832Y45175D02*
Y47375D01*
X56382D02*
X57832D01*
X56382Y45175D02*
Y47375D01*
Y45175D02*
X57832D01*
X59051Y49044D02*
X61251D01*
Y50494D01*
X59051D02*
X61251D01*
X59051Y49044D02*
Y50494D01*
X124181Y38775D02*
X126381D01*
X124181Y37325D02*
Y38775D01*
Y37325D02*
X126381D01*
Y38775D01*
X58128Y39060D02*
Y40510D01*
X55928Y39060D02*
X58128D01*
X55928D02*
Y40510D01*
X58128D01*
X247650Y18935D02*
X249850D01*
X247650Y17485D02*
Y18935D01*
Y17485D02*
X249850D01*
Y18935D01*
%TF.MD5,78756ae9714843ebdb234719a1b4fd20*%
M02*
