%TF.GenerationSoftware,Altium Limited,Altium Designer,21.6.4 (81)*%
G04 Layer_Color=32768*
%FSLAX43Y43*%
%MOMM*%
%TF.SameCoordinates,76D5CAF9-2094-4FD7-9A7B-915B2AFADFAF*%
%TF.FilePolarity,Positive*%
%TF.FileFunction,Other,Mechanical_15*%
%TF.Part,Single*%
G01*
G75*
%TA.AperFunction,NonConductor*%
%ADD112C,0.152*%
%ADD115C,0.200*%
%ADD126C,0.100*%
%ADD132C,0.050*%
G36*
X108716Y64038D02*
Y62783D01*
X113237D01*
Y64038D01*
X113580D01*
Y68229D01*
X113237D01*
Y69484D01*
X108716D01*
Y68229D01*
X108373D01*
Y64038D01*
X108716D01*
D02*
G37*
G36*
X89399Y86679D02*
Y85424D01*
X93920D01*
Y86679D01*
X94263D01*
Y90870D01*
X93920D01*
Y92125D01*
X89399D01*
Y90870D01*
X89056D01*
Y86679D01*
X89399D01*
D02*
G37*
G36*
X176427Y37667D02*
Y37077D01*
X177017D01*
Y35824D01*
X183533D01*
Y37077D01*
X184123D01*
Y37667D01*
X185376D01*
Y44183D01*
X184123D01*
Y44773D01*
X183533D01*
Y46026D01*
X177017D01*
Y44773D01*
X176427D01*
Y44183D01*
X175174D01*
Y37667D01*
X176427D01*
D02*
G37*
G36*
X124517Y95169D02*
Y93914D01*
X129038D01*
Y95169D01*
X129381D01*
Y99360D01*
X129038D01*
Y100615D01*
X124517D01*
Y99360D01*
X124174D01*
Y95169D01*
X124517D01*
D02*
G37*
D112*
X108716Y62783D02*
X113237D01*
Y64038D01*
X113580D01*
Y68229D01*
X113237D02*
X113580D01*
X113237D02*
Y69484D01*
X108716D02*
X113237D01*
X108716Y68229D02*
Y69484D01*
X108373Y68229D02*
X108716D01*
X108373Y64038D02*
Y68229D01*
Y64038D02*
X108716D01*
Y62783D02*
Y64038D01*
X124517Y93914D02*
Y95169D01*
X124174D02*
X124517D01*
X124174D02*
Y99360D01*
X124517D01*
Y100615D01*
X129038D01*
Y99360D02*
Y100615D01*
Y99360D02*
X129381D01*
Y95169D02*
Y99360D01*
X129038Y95169D02*
X129381D01*
X129038Y93914D02*
Y95169D01*
X124517Y93914D02*
X129038D01*
X89399Y85424D02*
Y86679D01*
X89056D02*
X89399D01*
X89056D02*
Y90870D01*
X89399D01*
Y92125D01*
X93920D01*
Y90870D02*
Y92125D01*
Y90870D02*
X94263D01*
Y86679D02*
Y90870D01*
X93920Y86679D02*
X94263D01*
X93920Y85424D02*
Y86679D01*
X89399Y85424D02*
X93920D01*
X176427Y37077D02*
X177017D01*
Y35824D02*
Y37077D01*
Y35824D02*
X183533D01*
Y37077D01*
X184123D01*
Y37667D01*
X185376D01*
Y44183D01*
X184123D02*
X185376D01*
X184123D02*
Y44773D01*
X183533D02*
X184123D01*
X183533D02*
Y46026D01*
X177017D02*
X183533D01*
X177017Y44773D02*
Y46026D01*
X176427Y44773D02*
X177017D01*
X176427Y44183D02*
Y44773D01*
X175174Y44183D02*
X176427D01*
X175174Y37667D02*
Y44183D01*
Y37667D02*
X176427D01*
Y37077D02*
Y37667D01*
X229492Y57460D02*
X228730D01*
X228984D01*
X229492Y56952D01*
X229111Y57333D01*
X228730Y56952D01*
X230762Y60000D02*
X230000D01*
Y59492D01*
X230762Y58730D02*
Y59238D01*
X230000D01*
Y58730D01*
X230381Y59238D02*
Y58984D01*
X230762Y58476D02*
X230000D01*
Y58096D01*
X230127Y57969D01*
X230635D01*
X230762Y58096D01*
Y58476D01*
X230000Y57207D02*
Y57715D01*
X230508Y57207D01*
X230635D01*
X230762Y57334D01*
Y57588D01*
X230635Y57715D01*
X230508Y52540D02*
X231270D01*
X231016D01*
X230508Y53048D01*
X230889Y52667D01*
X231270Y53048D01*
X229238Y50000D02*
X230000D01*
Y50508D01*
X229238Y51270D02*
Y50762D01*
X230000D01*
Y51270D01*
X229619Y50762D02*
Y51016D01*
X229238Y51524D02*
X230000D01*
Y51904D01*
X229873Y52031D01*
X229365D01*
X229238Y51904D01*
Y51524D01*
X230000Y52285D02*
Y52539D01*
Y52412D01*
X229238D01*
X229365Y52285D01*
D115*
X231358Y57841D02*
G03*
X228620Y57861I-1355J2016D01*
G01*
X228642Y52159D02*
G03*
X231380Y52139I1355J-2016D01*
G01*
X114898Y109585D02*
X119206D01*
X114898Y107076D02*
Y109585D01*
Y107076D02*
X119206D01*
Y109585D01*
X192746Y37846D02*
Y42154D01*
Y37846D02*
X195254D01*
Y42154D01*
X192746D02*
X195254D01*
X228946Y62446D02*
Y64954D01*
X233254D01*
Y62446D02*
Y64954D01*
X228946Y62446D02*
X233254D01*
X257918Y66940D02*
X262226D01*
Y69448D01*
X257918D02*
X262226D01*
X257918Y66940D02*
Y69448D01*
X178918Y73152D02*
X194718D01*
Y66852D02*
Y73152D01*
X178918Y66852D02*
X194718D01*
X178918D02*
Y73152D01*
X238151Y12454D02*
X240659D01*
Y8146D02*
Y12454D01*
X238151Y8146D02*
X240659D01*
X238151D02*
Y12454D01*
X235611Y12456D02*
X238119D01*
Y8147D02*
Y12456D01*
X235611Y8147D02*
X238119D01*
X235611D02*
Y12456D01*
X128720Y55650D02*
Y57250D01*
X131428D01*
Y55650D02*
Y57250D01*
X128720Y55650D02*
X131428D01*
X126656Y56732D02*
X128256D01*
Y54024D02*
Y56732D01*
X126656Y54024D02*
X128256D01*
X126656D02*
Y56732D01*
X127225Y61179D02*
X128825D01*
Y58471D02*
Y61179D01*
X127225Y58471D02*
X128825D01*
X127225D02*
Y61179D01*
X132429Y62500D02*
Y64100D01*
X129721Y62500D02*
X132429D01*
X129721D02*
Y64100D01*
X132429D01*
X163382Y18093D02*
Y19693D01*
X160674Y18093D02*
X163382D01*
X160674D02*
Y19693D01*
X163382D01*
X160674Y19970D02*
Y21570D01*
X163382D01*
Y19970D02*
Y21570D01*
X160674Y19970D02*
X163382D01*
X158725Y21324D02*
X160325D01*
Y18616D02*
Y21324D01*
X158725Y18616D02*
X160325D01*
X158725D02*
Y21324D01*
X152950Y25559D02*
X154550D01*
X152950D02*
Y28267D01*
X154550D01*
Y25559D02*
Y28267D01*
X165300Y24963D02*
Y27672D01*
X163700D02*
X165300D01*
X163700Y24963D02*
Y27672D01*
Y24963D02*
X165300D01*
X154950Y28292D02*
X156550D01*
Y25584D02*
Y28292D01*
X154950Y25584D02*
X156550D01*
X154950D02*
Y28292D01*
X203302Y53547D02*
X209602D01*
X203302Y37746D02*
Y53547D01*
Y37746D02*
X209602D01*
Y53547D01*
X172821Y28423D02*
X177129D01*
X172821Y25915D02*
Y28423D01*
Y25915D02*
X177129D01*
Y28423D01*
X123044Y31443D02*
Y33043D01*
X125752D01*
Y31443D02*
Y33043D01*
X123044Y31443D02*
X125752D01*
X86795Y33525D02*
Y35125D01*
X89503D01*
Y33525D02*
Y35125D01*
X86795Y33525D02*
X89503D01*
X54371Y33875D02*
Y35475D01*
X57079D01*
Y33875D02*
Y35475D01*
X54371Y33875D02*
X57079D01*
X168442Y65175D02*
X171150D01*
Y66775D01*
X168442D02*
X171150D01*
X168442Y65175D02*
Y66775D01*
X168549Y63375D02*
X171257D01*
Y64975D01*
X168549D02*
X171257D01*
X168549Y63375D02*
Y64975D01*
X258204Y99468D02*
Y101976D01*
X253896Y99468D02*
X258204D01*
X253896D02*
Y101976D01*
X258204D01*
X259425Y101168D02*
X260975D01*
X259425Y97768D02*
Y101168D01*
Y97768D02*
X260975D01*
Y101168D01*
X193148Y8346D02*
Y12654D01*
Y8346D02*
X195656D01*
Y12654D01*
X193148D02*
X195656D01*
X195688Y8346D02*
Y12654D01*
Y8346D02*
X198196D01*
Y12654D01*
X195688D02*
X198196D01*
X209999Y8325D02*
Y12633D01*
Y8325D02*
X212507D01*
Y12633D01*
X209999D02*
X212507D01*
X212539Y8325D02*
Y12633D01*
Y8325D02*
X215047D01*
Y12633D01*
X212539D02*
X215047D01*
X201491Y8316D02*
Y12624D01*
Y8316D02*
X203999D01*
Y12624D01*
X201491D02*
X203999D01*
X204091Y8316D02*
Y12624D01*
Y8316D02*
X206599D01*
Y12624D01*
X204091D02*
X206599D01*
X218581Y8346D02*
Y12654D01*
Y8346D02*
X221089D01*
Y12654D01*
X218581D02*
X221089D01*
X221121Y8346D02*
Y12654D01*
Y8346D02*
X223629D01*
Y12654D01*
X221121D02*
X223629D01*
X227056Y8346D02*
Y12654D01*
Y8346D02*
X229564D01*
Y12654D01*
X227056D02*
X229564D01*
X229596Y8346D02*
Y12654D01*
Y8346D02*
X232104D01*
Y12654D01*
X229596D02*
X232104D01*
X211450Y26175D02*
X213000D01*
Y29575D01*
X211450D02*
X213000D01*
X211450Y26175D02*
Y29575D01*
X262260Y77145D02*
Y79653D01*
X257952Y77145D02*
X262260D01*
X257952D02*
Y79653D01*
X262260D01*
X258171Y56930D02*
Y59438D01*
X262479D01*
Y56930D02*
Y59438D01*
X258171Y56930D02*
X262479D01*
X228621Y57841D02*
X231358D01*
X228642Y52159D02*
X231379D01*
X253526Y73409D02*
Y83389D01*
Y73409D02*
X258686D01*
Y83389D01*
X253526D02*
X258686D01*
X253516Y63284D02*
Y73264D01*
Y63284D02*
X258676D01*
Y73264D01*
X253516D02*
X258676D01*
X253526Y43069D02*
Y53049D01*
Y43069D02*
X258686D01*
Y53049D01*
X253526D02*
X258686D01*
X253526Y53219D02*
Y63199D01*
Y53219D02*
X258686D01*
Y63199D01*
X253526D02*
X258686D01*
X262401Y46830D02*
Y49338D01*
X258093Y46830D02*
X262401D01*
X258093D02*
Y49338D01*
X262401D01*
X236829Y45670D02*
X239338D01*
X236829D02*
Y49978D01*
X239338D01*
Y45670D02*
Y49978D01*
X236830Y55922D02*
X239338D01*
Y51613D02*
Y55922D01*
X236830Y51613D02*
X239338D01*
X236830D02*
Y55922D01*
X239388Y49977D02*
X241896D01*
Y45668D02*
Y49977D01*
X239388Y45668D02*
X241896D01*
X239388D02*
Y49977D01*
X246267Y46844D02*
X248775D01*
X246267D02*
Y51152D01*
X248775D01*
Y46844D02*
Y51152D01*
X135851Y93503D02*
Y96011D01*
X131543Y93503D02*
X135851D01*
X131543D02*
Y96011D01*
X135851D01*
X118277Y93597D02*
Y96105D01*
X122585D01*
Y93597D02*
Y96105D01*
X118277Y93597D02*
X122585D01*
X135851Y95968D02*
Y98476D01*
X131543Y95968D02*
X135851D01*
X131543D02*
Y98476D01*
X135851D01*
X109327Y96021D02*
X111835D01*
Y91713D02*
Y96021D01*
X109327Y91713D02*
X111835D01*
X109327D02*
Y96021D01*
X112226Y91020D02*
Y93528D01*
X116534D01*
Y91020D02*
Y93528D01*
X112226Y91020D02*
X116534D01*
X96627Y59966D02*
Y62474D01*
X100935D01*
Y59966D02*
Y62474D01*
X96627Y59966D02*
X100935D01*
X102527Y62466D02*
Y64974D01*
X106835D01*
Y62466D02*
Y64974D01*
X102527Y62466D02*
X106835D01*
X119490Y61109D02*
Y63618D01*
X115181Y61109D02*
X119490D01*
X115181D02*
Y63618D01*
X119490D01*
Y63709D02*
Y66218D01*
X115181Y63709D02*
X119490D01*
X115181D02*
Y66218D01*
X119490D01*
X103369Y75961D02*
Y78469D01*
X99061Y75961D02*
X103369D01*
X99061D02*
Y78469D01*
X103369D01*
X91792Y59966D02*
Y62474D01*
X96100D01*
Y59966D02*
Y62474D01*
X91792Y59966D02*
X96100D01*
X79410Y101642D02*
X83718D01*
X79410Y99134D02*
Y101642D01*
Y99134D02*
X83718D01*
Y101642D01*
X72710Y82134D02*
X77018D01*
Y84642D01*
X72710D02*
X77018D01*
X72710Y82134D02*
Y84642D01*
X77310Y82134D02*
X81618D01*
Y84642D01*
X77310D02*
X81618D01*
X77310Y82134D02*
Y84642D01*
X83433Y85134D02*
X87741D01*
Y87642D01*
X83433D02*
X87741D01*
X83433Y85134D02*
Y87642D01*
X96978Y89973D02*
X101286D01*
X96978Y87465D02*
Y89973D01*
Y87465D02*
X101286D01*
Y89973D01*
X96978Y87303D02*
X101286D01*
X96978Y84795D02*
Y87303D01*
Y84795D02*
X101286D01*
Y87303D01*
X239502Y67730D02*
X243810D01*
Y70238D01*
X239502D02*
X243810D01*
X239502Y67730D02*
Y70238D01*
X241896Y57063D02*
Y61372D01*
X239388D02*
X241896D01*
X239388Y57063D02*
Y61372D01*
Y57063D02*
X241896D01*
X244633Y61687D02*
Y65996D01*
Y61687D02*
X247141D01*
Y65996D01*
X244633D02*
X247141D01*
X231568Y47476D02*
X235877D01*
Y49984D01*
X231568D02*
X235877D01*
X231568Y47476D02*
Y49984D01*
X251317Y46845D02*
Y51153D01*
X248808D02*
X251317D01*
X248808Y46845D02*
Y51153D01*
Y46845D02*
X251317D01*
X241896Y51613D02*
Y55922D01*
X239388D02*
X241896D01*
X239388Y51613D02*
Y55922D01*
Y51613D02*
X241896D01*
X251516Y46845D02*
Y51153D01*
Y46845D02*
X254024D01*
Y51153D01*
X251516D02*
X254024D01*
X239503Y67588D02*
X243811D01*
X239503Y65080D02*
Y67588D01*
Y65080D02*
X243811D01*
Y67588D01*
X236817Y57063D02*
Y61372D01*
Y57063D02*
X239325D01*
Y61372D01*
X236817D02*
X239325D01*
X252625Y61686D02*
Y65994D01*
X250117D02*
X252625D01*
X250117Y61686D02*
Y65994D01*
Y61686D02*
X252625D01*
X247392D02*
Y65994D01*
Y61686D02*
X249900D01*
Y65994D01*
X247392D02*
X249900D01*
X237032Y105891D02*
Y110200D01*
X234524D02*
X237032D01*
X234524Y105891D02*
Y110200D01*
Y105891D02*
X237032D01*
X237049Y101316D02*
Y105625D01*
X234541D02*
X237049D01*
X234541Y101316D02*
Y105625D01*
Y101316D02*
X237049D01*
X175423Y111812D02*
X179732D01*
Y114320D01*
X175423D02*
X179732D01*
X175423Y111812D02*
Y114320D01*
X179948Y111812D02*
X184257D01*
Y114320D01*
X179948D02*
X184257D01*
X179948Y111812D02*
Y114320D01*
X209121Y163546D02*
Y167854D01*
Y163546D02*
X211629D01*
Y167854D01*
X209121D02*
X211629D01*
X122797Y71821D02*
Y74529D01*
Y71821D02*
X124397D01*
Y74529D01*
X122797D02*
X124397D01*
X134650Y46021D02*
Y48729D01*
Y46021D02*
X136250D01*
Y48729D01*
X134650D02*
X136250D01*
X137146Y52125D02*
X139854D01*
X137146Y50525D02*
Y52125D01*
Y50525D02*
X139854D01*
Y52125D01*
X121096Y68775D02*
X123804D01*
Y70375D01*
X121096D02*
X123804D01*
X121096Y68775D02*
Y70375D01*
X125218Y77125D02*
X127926D01*
X125218Y75525D02*
Y77125D01*
Y75525D02*
X127926D01*
Y77125D01*
X124268Y68775D02*
X126976D01*
Y70375D01*
X124268D02*
X126976D01*
X124268Y68775D02*
Y70375D01*
X134407Y41924D02*
Y44632D01*
Y41924D02*
X136007D01*
Y44632D01*
X134407D02*
X136007D01*
X136368Y43525D02*
X139077D01*
Y45125D01*
X136368D02*
X139077D01*
X136368Y43525D02*
Y45125D01*
X166275Y6667D02*
Y10975D01*
X163767D02*
X166275D01*
X163767Y6667D02*
Y10975D01*
Y6667D02*
X166275D01*
X169796Y2121D02*
Y5521D01*
X168246Y2121D02*
X169796D01*
X168246D02*
Y5521D01*
X169796D01*
X174275Y6667D02*
Y10975D01*
X171767D02*
X174275D01*
X171767Y6667D02*
Y10975D01*
Y6667D02*
X174275D01*
X173796Y2121D02*
Y5521D01*
X172246Y2121D02*
X173796D01*
X172246D02*
Y5521D01*
X173796D01*
X178275Y6667D02*
Y10975D01*
X175767D02*
X178275D01*
X175767Y6667D02*
Y10975D01*
Y6667D02*
X178275D01*
X182275D02*
Y10975D01*
X179767D02*
X182275D01*
X179767Y6667D02*
Y10975D01*
Y6667D02*
X182275D01*
X170275D02*
Y10975D01*
X167767D02*
X170275D01*
X167767Y6667D02*
Y10975D01*
Y6667D02*
X170275D01*
X183767D02*
X186275D01*
X183767D02*
Y10975D01*
X186275D01*
Y6667D02*
Y10975D01*
X61028Y35896D02*
Y38404D01*
X56720Y35896D02*
X61028D01*
X56720D02*
Y38404D01*
X61028D01*
X85169Y42640D02*
X87877D01*
Y44240D01*
X85169D02*
X87877D01*
X85169Y42640D02*
Y44240D01*
X89009Y44240D02*
X91718D01*
X89009Y42640D02*
Y44240D01*
Y42640D02*
X91718D01*
Y44240D01*
X84923Y47960D02*
Y50669D01*
Y47960D02*
X86523D01*
Y50669D01*
X84923D02*
X86523D01*
X54453Y42725D02*
X57161D01*
Y44325D01*
X54453D02*
X57161D01*
X54453Y42725D02*
Y44325D01*
X54206Y47915D02*
Y50623D01*
Y47915D02*
X55806D01*
Y50623D01*
X54206D02*
X55806D01*
X122288Y40021D02*
X124997D01*
Y41621D01*
X122288D02*
X124997D01*
X122288Y40021D02*
Y41621D01*
X121922Y42092D02*
Y44800D01*
Y42092D02*
X123522D01*
Y44800D01*
X121922D02*
X123522D01*
X121922Y45091D02*
Y47799D01*
Y45091D02*
X123522D01*
Y47799D01*
X121922D02*
X123522D01*
X126169Y41621D02*
X128877D01*
X126169Y40021D02*
Y41621D01*
Y40021D02*
X128877D01*
Y41621D01*
X58396Y44325D02*
X61105D01*
X58396Y42725D02*
Y44325D01*
Y42725D02*
X61105D01*
Y44325D01*
X54207Y44921D02*
Y47629D01*
Y44921D02*
X55807D01*
Y47629D01*
X54207D02*
X55807D01*
X84923Y44959D02*
Y47668D01*
Y44959D02*
X86523D01*
Y47668D01*
X84923D02*
X86523D01*
X123046Y35725D02*
X125754D01*
X123046Y34125D02*
Y35725D01*
Y34125D02*
X125754D01*
Y35725D01*
X126121Y36179D02*
X130429D01*
X126121Y33671D02*
Y36179D01*
Y33671D02*
X130429D01*
Y36179D01*
X86071Y37750D02*
X88779D01*
X86071Y36150D02*
Y37750D01*
Y36150D02*
X88779D01*
Y37750D01*
X89146Y38204D02*
X93454D01*
X89146Y35696D02*
Y38204D01*
Y35696D02*
X93454D01*
Y38204D01*
X56659Y36350D02*
Y37950D01*
X53951Y36350D02*
X56659D01*
X53951D02*
Y37950D01*
X56659D01*
X212846Y31279D02*
X217154D01*
X212846Y28771D02*
Y31279D01*
Y28771D02*
X217154D01*
Y31279D01*
X212846Y26121D02*
X217154D01*
Y28629D01*
X212846D02*
X217154D01*
X212846Y26121D02*
Y28629D01*
Y23546D02*
X217154D01*
Y26054D01*
X212846D02*
X217154D01*
X212846Y23546D02*
Y26054D01*
Y23354D02*
X217154D01*
X212846Y20846D02*
Y23354D01*
Y20846D02*
X217154D01*
Y23354D01*
X252026Y34514D02*
X256334D01*
X252026Y32006D02*
Y34514D01*
Y32006D02*
X256334D01*
Y34514D01*
X243046Y16917D02*
X247354D01*
Y19425D01*
X243046D02*
X247354D01*
X243046Y16917D02*
Y19425D01*
X238151D02*
X242459D01*
X238151Y16917D02*
Y19425D01*
Y16917D02*
X242459D01*
Y19425D01*
X238196Y29124D02*
X242504D01*
X238196Y26616D02*
Y29124D01*
Y26616D02*
X242504D01*
Y29124D01*
X238192Y26424D02*
X242500D01*
X238192Y23916D02*
Y26424D01*
Y23916D02*
X242500D01*
Y26424D01*
X245986Y29998D02*
X250294D01*
X245986Y27490D02*
Y29998D01*
Y27490D02*
X250294D01*
Y29998D01*
X247286Y27010D02*
X249994D01*
X247286Y25410D02*
Y27010D01*
Y25410D02*
X249994D01*
Y27010D01*
X164246Y5521D02*
X165796D01*
X164246Y2121D02*
Y5521D01*
Y2121D02*
X165796D01*
Y5521D01*
X176246D02*
X177796D01*
X176246Y2121D02*
Y5521D01*
Y2121D02*
X177796D01*
Y5521D01*
X180246D02*
X181796D01*
X180246Y2121D02*
Y5521D01*
Y2121D02*
X181796D01*
Y5521D01*
X184246D02*
X185796D01*
X184246Y2121D02*
Y5521D01*
Y2121D02*
X185796D01*
Y5521D01*
D126*
X116552Y108331D02*
X117552D01*
X117052Y107831D02*
Y108831D01*
X194000Y39500D02*
Y40500D01*
X193500Y40000D02*
X194500D01*
X227560Y25440D02*
Y26440D01*
X227060Y25940D02*
X228060D01*
X231100Y63200D02*
Y64200D01*
X230600Y63700D02*
X231600D01*
X259572Y68194D02*
X260572D01*
X260072Y67694D02*
Y68694D01*
X186318Y70002D02*
X187318D01*
X186818Y69502D02*
Y70502D01*
X238905Y10300D02*
X239905D01*
X239405Y9800D02*
Y10800D01*
X236365Y10301D02*
X237365D01*
X236865Y9801D02*
Y10801D01*
X130500Y59850D02*
X131500D01*
X131000Y59350D02*
Y60350D01*
X130074Y55950D02*
Y56950D01*
X129574Y56450D02*
X130574D01*
X126956Y55378D02*
X127956D01*
X127456Y54878D02*
Y55878D01*
X127525Y59825D02*
X128525D01*
X128025Y59325D02*
Y60325D01*
X131075Y62800D02*
Y63800D01*
X130575Y63300D02*
X131575D01*
X162028Y18393D02*
Y19393D01*
X161528Y18893D02*
X162528D01*
X162028Y20270D02*
Y21270D01*
X161528Y20770D02*
X162528D01*
X159025Y19970D02*
X160025D01*
X159525Y19470D02*
Y20470D01*
X161500Y25813D02*
Y26813D01*
X161000Y26313D02*
X162000D01*
X153250Y26913D02*
X154250D01*
X153750Y26413D02*
Y27413D01*
X164500Y25817D02*
Y26817D01*
X164000Y26317D02*
X165000D01*
X155250Y26938D02*
X156250D01*
X155750Y26438D02*
Y27438D01*
X205952Y45646D02*
X206952D01*
X206452Y45146D02*
Y46146D01*
X174475Y27169D02*
X175475D01*
X174975Y26669D02*
Y27669D01*
X124398Y31743D02*
Y32743D01*
X123898Y32243D02*
X124898D01*
X88149Y33825D02*
Y34825D01*
X87649Y34325D02*
X88649D01*
X55725Y34175D02*
Y35175D01*
X55225Y34675D02*
X56225D01*
X169296Y65975D02*
X170296D01*
X169796Y65475D02*
Y66475D01*
X169403Y64175D02*
X170403D01*
X169903Y63675D02*
Y64675D01*
X246725Y109700D02*
Y110700D01*
X246225Y110200D02*
X247225D01*
X256050Y100222D02*
Y101222D01*
X255550Y100722D02*
X256550D01*
X259700Y99468D02*
X260700D01*
X260200Y98968D02*
Y99968D01*
X194402Y10000D02*
Y11000D01*
X193902Y10500D02*
X194902D01*
X196942Y10000D02*
Y11000D01*
X196442Y10500D02*
X197442D01*
X211253Y9979D02*
Y10979D01*
X210753Y10479D02*
X211753D01*
X213793Y9979D02*
Y10979D01*
X213293Y10479D02*
X214293D01*
X202745Y9970D02*
Y10970D01*
X202245Y10470D02*
X203245D01*
X205345Y9970D02*
Y10970D01*
X204845Y10470D02*
X205845D01*
X219835Y10000D02*
Y11000D01*
X219335Y10500D02*
X220335D01*
X222375Y10000D02*
Y11000D01*
X221875Y10500D02*
X222875D01*
X228310Y10000D02*
Y11000D01*
X227810Y10500D02*
X228810D01*
X230850Y10000D02*
Y11000D01*
X230350Y10500D02*
X231350D01*
X211725Y27875D02*
X212725D01*
X212225Y27375D02*
Y28375D01*
X260106Y77899D02*
Y78899D01*
X259606Y78399D02*
X260606D01*
X260325Y57684D02*
Y58684D01*
X259825Y58184D02*
X260825D01*
X256106Y77899D02*
Y78899D01*
X255606Y78399D02*
X256606D01*
X256096Y67774D02*
Y68774D01*
X255596Y68274D02*
X256596D01*
X256106Y47559D02*
Y48559D01*
X255606Y48059D02*
X256606D01*
X256106Y57709D02*
Y58709D01*
X255606Y58209D02*
X256606D01*
X260247Y47584D02*
Y48584D01*
X259747Y48084D02*
X260747D01*
X237584Y47824D02*
X238584D01*
X238084Y47324D02*
Y48324D01*
X237584Y53768D02*
X238584D01*
X238084Y53268D02*
Y54268D01*
X240142Y47822D02*
X241142D01*
X240642Y47322D02*
Y48322D01*
X247021Y48998D02*
X248021D01*
X247521Y48498D02*
Y49498D01*
X133697Y94257D02*
Y95257D01*
X133197Y94757D02*
X134197D01*
X120431Y94351D02*
Y95351D01*
X119931Y94851D02*
X120931D01*
X133697Y96722D02*
Y97722D01*
X133197Y97222D02*
X134197D01*
X110081Y93867D02*
X111081D01*
X110581Y93367D02*
Y94367D01*
X114380Y91774D02*
Y92774D01*
X113880Y92274D02*
X114880D01*
X98781Y60720D02*
Y61720D01*
X98281Y61220D02*
X99281D01*
X104681Y63220D02*
Y64220D01*
X104181Y63720D02*
X105181D01*
X117336Y61863D02*
Y62863D01*
X116836Y62363D02*
X117836D01*
X117336Y64463D02*
Y65463D01*
X116836Y64963D02*
X117836D01*
X101215Y76715D02*
Y77715D01*
X100715Y77215D02*
X101715D01*
X93946Y60720D02*
Y61720D01*
X93446Y61220D02*
X94446D01*
X81064Y100388D02*
X82064D01*
X81564Y99888D02*
Y100888D01*
X74364Y83388D02*
X75364D01*
X74864Y82888D02*
Y83888D01*
X78964Y83388D02*
X79964D01*
X79464Y82888D02*
Y83888D01*
X85087Y86388D02*
X86087D01*
X85587Y85888D02*
Y86888D01*
X98632Y88719D02*
X99632D01*
X99132Y88219D02*
Y89219D01*
X98632Y86049D02*
X99632D01*
X99132Y85549D02*
Y86549D01*
X241156Y68984D02*
X242156D01*
X241656Y68484D02*
Y69484D01*
X240642Y58718D02*
Y59718D01*
X240142Y59218D02*
X241142D01*
X245887Y63341D02*
Y64341D01*
X245387Y63841D02*
X246387D01*
X233223Y48730D02*
X234223D01*
X233723Y48230D02*
Y49230D01*
X250063Y48499D02*
Y49499D01*
X249563Y48999D02*
X250563D01*
X240642Y53268D02*
Y54268D01*
X240142Y53768D02*
X241142D01*
X252770Y48499D02*
Y49499D01*
X252270Y48999D02*
X253270D01*
X241157Y66334D02*
X242157D01*
X241657Y65834D02*
Y66834D01*
X238071Y58718D02*
Y59718D01*
X237571Y59218D02*
X238571D01*
X251371Y63340D02*
Y64340D01*
X250871Y63840D02*
X251871D01*
X248646Y63340D02*
Y64340D01*
X248146Y63840D02*
X249146D01*
X235778Y107546D02*
Y108546D01*
X235278Y108046D02*
X236278D01*
X235795Y102971D02*
Y103971D01*
X235295Y103471D02*
X236295D01*
X177077Y113066D02*
X178077D01*
X177577Y112566D02*
Y113566D01*
X181602Y113066D02*
X182602D01*
X182102Y112566D02*
Y113566D01*
X210375Y165200D02*
Y166200D01*
X209875Y165700D02*
X210875D01*
X123597Y72675D02*
Y73675D01*
X123097Y73175D02*
X124097D01*
X135450Y46875D02*
Y47875D01*
X134950Y47375D02*
X135950D01*
X138000Y51325D02*
X139000D01*
X138500Y50825D02*
Y51825D01*
X138500Y46900D02*
Y47900D01*
X138000Y47400D02*
X139000D01*
X121950Y69575D02*
X122950D01*
X122450Y69075D02*
Y70075D01*
X126072Y76325D02*
X127072D01*
X126572Y75825D02*
Y76825D01*
X126572Y72700D02*
Y73700D01*
X126072Y73200D02*
X127072D01*
X125122Y69575D02*
X126122D01*
X125622Y69075D02*
Y70075D01*
X135207Y42778D02*
Y43778D01*
X134707Y43278D02*
X135707D01*
X137223Y44325D02*
X138223D01*
X137723Y43825D02*
Y44825D01*
X165021Y8321D02*
Y9321D01*
X164521Y8821D02*
X165521D01*
X169021Y3321D02*
Y4321D01*
X168521Y3821D02*
X169521D01*
X173021Y8321D02*
Y9321D01*
X172521Y8821D02*
X173521D01*
X173021Y3321D02*
Y4321D01*
X172521Y3821D02*
X173521D01*
X177021Y8321D02*
Y9321D01*
X176521Y8821D02*
X177521D01*
X181021Y8321D02*
Y9321D01*
X180521Y8821D02*
X181521D01*
X169021Y8321D02*
Y9321D01*
X168521Y8821D02*
X169521D01*
X184521D02*
X185521D01*
X185021Y8321D02*
Y9321D01*
X58874Y36650D02*
Y37650D01*
X58374Y37150D02*
X59374D01*
X86023Y43440D02*
X87023D01*
X86523Y42940D02*
Y43940D01*
X89864Y43440D02*
X90864D01*
X90364Y42940D02*
Y43940D01*
X127923Y43569D02*
X128923D01*
X128423Y43069D02*
Y44069D01*
X85723Y48814D02*
Y49814D01*
X85223Y49314D02*
X86223D01*
X90923Y46314D02*
X91923D01*
X91423Y45814D02*
Y46814D01*
X55307Y43525D02*
X56307D01*
X55807Y43025D02*
Y44025D01*
X55006Y48769D02*
Y49769D01*
X54506Y49269D02*
X55506D01*
X60151Y46275D02*
X61151D01*
X60651Y45775D02*
Y46775D01*
X123143Y40821D02*
X124143D01*
X123643Y40321D02*
Y41321D01*
X122722Y42946D02*
Y43946D01*
X122222Y43446D02*
X123222D01*
X122722Y45945D02*
Y46945D01*
X122222Y46445D02*
X123222D01*
X127023Y40821D02*
X128023D01*
X127523Y40321D02*
Y41321D01*
X59251Y43525D02*
X60251D01*
X59751Y43025D02*
Y44025D01*
X55007Y45775D02*
Y46775D01*
X54507Y46275D02*
X55507D01*
X85723Y45814D02*
Y46814D01*
X85223Y46314D02*
X86223D01*
X123900Y34925D02*
X124900D01*
X124400Y34425D02*
Y35425D01*
X127775Y34925D02*
X128775D01*
X128275Y34425D02*
Y35425D01*
X86925Y36950D02*
X87925D01*
X87425Y36450D02*
Y37450D01*
X90800Y36950D02*
X91800D01*
X91300Y36450D02*
Y37450D01*
X55305Y36650D02*
Y37650D01*
X54805Y37150D02*
X55805D01*
X180250Y25000D02*
X181250D01*
X180750Y24500D02*
Y25500D01*
X214500Y30025D02*
X215500D01*
X215000Y29525D02*
Y30525D01*
X214500Y27375D02*
X215500D01*
X215000Y26875D02*
Y27875D01*
X214500Y24800D02*
X215500D01*
X215000Y24300D02*
Y25300D01*
X214500Y22100D02*
X215500D01*
X215000Y21600D02*
Y22600D01*
X253680Y33260D02*
X254680D01*
X254180Y32760D02*
Y33760D01*
X244700Y18171D02*
X245700D01*
X245200Y17671D02*
Y18671D01*
X239805Y18171D02*
X240805D01*
X240305Y17671D02*
Y18671D01*
X239850Y27870D02*
X240850D01*
X240350Y27370D02*
Y28370D01*
X239846Y25170D02*
X240846D01*
X240346Y24670D02*
Y25670D01*
X247640Y28744D02*
X248640D01*
X248140Y28244D02*
Y29244D01*
Y26210D02*
X249140D01*
X248640Y25710D02*
Y26710D01*
X164521Y3821D02*
X165521D01*
X165021Y3321D02*
Y4321D01*
X176521Y3821D02*
X177521D01*
X177021Y3321D02*
Y4321D01*
X180521Y3821D02*
X181521D01*
X181021Y3321D02*
Y4321D01*
X184521Y3821D02*
X185521D01*
X185021Y3321D02*
Y4321D01*
D132*
X221160Y31690D02*
X233960D01*
X221160Y20190D02*
X233960D01*
Y31690D01*
X221160Y20190D02*
Y31690D01*
X178785Y63270D02*
X189775D01*
X178785Y60280D02*
Y63270D01*
Y60280D02*
X189775D01*
Y63270D01*
X236865Y5450D02*
Y6450D01*
X236365Y5950D02*
X237365D01*
X232685Y9125D02*
X241045D01*
Y2775D02*
Y9125D01*
X232685Y2775D02*
X241045D01*
X232685D02*
Y9125D01*
X129350Y58100D02*
Y61600D01*
X132650Y58100D02*
Y61600D01*
X129350D02*
X132650D01*
X129350Y58100D02*
X132650D01*
X159750Y27963D02*
X163250D01*
X159750Y24663D02*
X163250D01*
Y27963D01*
X159750Y24663D02*
Y27963D01*
X242825Y106750D02*
X250625D01*
X242825Y113650D02*
X250625D01*
X242825Y106750D02*
Y113650D01*
X250625Y106750D02*
Y113650D01*
X228310Y5450D02*
Y6450D01*
X227810Y5950D02*
X228810D01*
X224130Y9125D02*
X232490D01*
Y2775D02*
Y9125D01*
X224130Y2775D02*
X232490D01*
X224130D02*
Y9125D01*
X219835Y5451D02*
Y6451D01*
X219335Y5951D02*
X220335D01*
X215655Y9126D02*
X224015D01*
Y2776D02*
Y9126D01*
X215655Y2776D02*
X224015D01*
X215655D02*
Y9126D01*
X194402Y5425D02*
Y6425D01*
X193902Y5925D02*
X194902D01*
X190222Y9100D02*
X198582D01*
Y2750D02*
Y9100D01*
X190222Y2750D02*
X198582D01*
X190222D02*
Y9100D01*
X211253Y5429D02*
Y6429D01*
X210753Y5929D02*
X211753D01*
X207073Y9104D02*
X215433D01*
Y2754D02*
Y9104D01*
X207073Y2754D02*
X215433D01*
X207073D02*
Y9104D01*
X202745Y5420D02*
Y6420D01*
X202245Y5920D02*
X203245D01*
X198565Y9095D02*
X206925D01*
Y2745D02*
Y9095D01*
X198565Y2745D02*
X206925D01*
X198565D02*
Y9095D01*
X136850Y45650D02*
X140150D01*
X136850Y49150D02*
X140150D01*
Y45650D02*
Y49150D01*
X136850Y45650D02*
Y49150D01*
X124922Y71450D02*
X128222D01*
X124922Y74950D02*
X128222D01*
Y71450D02*
Y74950D01*
X124922Y71450D02*
Y74950D01*
X261431Y54004D02*
X267781D01*
Y62364D01*
X261431D02*
X267781D01*
X261431Y54004D02*
Y62364D01*
X264606Y57684D02*
Y58684D01*
X264106Y58184D02*
X265106D01*
X261431Y43904D02*
X267781D01*
Y52264D01*
X261431D02*
X267781D01*
X261431Y43904D02*
Y52264D01*
X264606Y47584D02*
Y48584D01*
X264106Y48084D02*
X265106D01*
X261431Y74279D02*
X267781D01*
Y82639D01*
X261431D02*
X267781D01*
X261431Y74279D02*
Y82639D01*
X264606Y77959D02*
Y78959D01*
X264106Y78459D02*
X265106D01*
X261431Y64014D02*
X267781D01*
Y72374D01*
X261431D02*
X267781D01*
X261431Y64014D02*
Y72374D01*
X264606Y67694D02*
Y68694D01*
X264106Y68194D02*
X265106D01*
X130173Y41919D02*
Y45219D01*
X126673Y41919D02*
Y45219D01*
X130173D01*
X126673Y41919D02*
X130173D01*
X93173Y44664D02*
Y47964D01*
X89673Y44664D02*
Y47964D01*
X93173D01*
X89673Y44664D02*
X93173D01*
X62401Y44625D02*
Y47925D01*
X58901Y44625D02*
Y47925D01*
X62401D01*
X58901Y44625D02*
X62401D01*
X174975Y27424D02*
X186525D01*
X174975Y22576D02*
Y27424D01*
Y22576D02*
X186525D01*
Y27425D01*
X243075Y19670D02*
Y25170D01*
X250525D01*
Y19670D02*
Y25170D01*
X243075Y19670D02*
X250525D01*
%TF.MD5,9a8f0be64b553d2dd4af40a278b99879*%
M02*
