%TF.GenerationSoftware,Altium Limited,Altium Designer,21.6.4 (81)*%
G04 Layer_Color=255*
%FSLAX43Y43*%
%MOMM*%
%TF.SameCoordinates,76D5CAF9-2094-4FD7-9A7B-915B2AFADFAF*%
%TF.FilePolarity,Positive*%
%TF.FileFunction,Pads,Bot*%
%TF.Part,Single*%
G01*
G75*
%TA.AperFunction,SMDPad,CuDef*%
%ADD22R,1.350X0.950*%
%ADD26R,1.300X1.800*%
%TA.AperFunction,ComponentPad*%
%ADD37C,6.604*%
%ADD38C,1.524*%
%ADD39C,2.000*%
%ADD40C,3.556*%
%ADD41C,1.950*%
G04:AMPARAMS|DCode=42|XSize=1.95mm|YSize=1.95mm|CornerRadius=0.488mm|HoleSize=0mm|Usage=FLASHONLY|Rotation=90.000|XOffset=0mm|YOffset=0mm|HoleType=Round|Shape=RoundedRectangle|*
%AMROUNDEDRECTD42*
21,1,1.950,0.975,0,0,90.0*
21,1,0.975,1.950,0,0,90.0*
1,1,0.975,0.488,0.488*
1,1,0.975,0.488,-0.488*
1,1,0.975,-0.488,-0.488*
1,1,0.975,-0.488,0.488*
%
%ADD42ROUNDEDRECTD42*%
%ADD43C,2.286*%
%ADD44C,1.600*%
G04:AMPARAMS|DCode=45|XSize=1.6mm|YSize=1.6mm|CornerRadius=0.4mm|HoleSize=0mm|Usage=FLASHONLY|Rotation=180.000|XOffset=0mm|YOffset=0mm|HoleType=Round|Shape=RoundedRectangle|*
%AMROUNDEDRECTD45*
21,1,1.600,0.800,0,0,180.0*
21,1,0.800,1.600,0,0,180.0*
1,1,0.800,-0.400,0.400*
1,1,0.800,0.400,0.400*
1,1,0.800,0.400,-0.400*
1,1,0.800,-0.400,-0.400*
%
%ADD45ROUNDEDRECTD45*%
%ADD46C,1.550*%
%ADD47R,1.550X1.550*%
%ADD48R,1.500X1.500*%
%ADD49C,1.500*%
%ADD50R,1.550X1.550*%
%ADD51R,1.600X1.600*%
G04:AMPARAMS|DCode=52|XSize=1.95mm|YSize=1.95mm|CornerRadius=0.488mm|HoleSize=0mm|Usage=FLASHONLY|Rotation=180.000|XOffset=0mm|YOffset=0mm|HoleType=Round|Shape=RoundedRectangle|*
%AMROUNDEDRECTD52*
21,1,1.950,0.975,0,0,180.0*
21,1,0.975,1.950,0,0,180.0*
1,1,0.975,-0.488,0.488*
1,1,0.975,0.488,0.488*
1,1,0.975,0.488,-0.488*
1,1,0.975,-0.488,-0.488*
%
%ADD52ROUNDEDRECTD52*%
%ADD53O,4.826X6.350*%
%ADD54C,6.350*%
%ADD55O,6.350X4.826*%
%ADD56C,1.300*%
%ADD57R,1.300X1.300*%
%ADD58C,1.200*%
%ADD59R,1.200X1.200*%
%ADD60R,1.500X1.500*%
%ADD61C,2.200*%
%ADD62O,6.600X6.000*%
%ADD63O,5.588X5.080*%
%ADD65C,3.048*%
%ADD66C,1.800*%
%ADD67O,8.890X5.080*%
%TA.AperFunction,SMDPad,CuDef*%
%ADD75R,2.500X2.300*%
%ADD76R,2.500X1.700*%
%ADD77R,0.508X1.670*%
%ADD78R,1.157X1.508*%
G04:AMPARAMS|DCode=79|XSize=2.75mm|YSize=6.2mm|CornerRadius=0mm|HoleSize=0mm|Usage=FLASHONLY|Rotation=135.000|XOffset=0mm|YOffset=0mm|HoleType=Round|Shape=Rectangle|*
%AMROTATEDRECTD79*
4,1,4,3.164,1.220,-1.220,-3.164,-3.164,-1.220,1.220,3.164,3.164,1.220,0.0*
%
%ADD79ROTATEDRECTD79*%

%ADD80R,0.958X1.262*%
%ADD81R,0.950X1.350*%
%ADD82R,1.508X1.157*%
%ADD83O,2.600X0.700*%
%ADD84R,1.450X1.800*%
%ADD85R,0.650X0.900*%
%ADD86R,0.757X1.308*%
%ADD87R,1.308X0.757*%
%ADD88R,0.800X1.250*%
%ADD89R,0.900X0.650*%
%ADD90R,2.000X2.800*%
G04:AMPARAMS|DCode=91|XSize=0.95mm|YSize=1.35mm|CornerRadius=0mm|HoleSize=0mm|Usage=FLASHONLY|Rotation=135.000|XOffset=0mm|YOffset=0mm|HoleType=Round|Shape=Rectangle|*
%AMROTATEDRECTD91*
4,1,4,0.813,0.141,-0.141,-0.813,-0.813,-0.141,0.141,0.813,0.813,0.141,0.0*
%
%ADD91ROTATEDRECTD91*%

%ADD92R,0.305X1.194*%
%ADD93R,1.194X0.305*%
%ADD94R,0.600X0.600*%
G04:AMPARAMS|DCode=95|XSize=0.9mm|YSize=1.45mm|CornerRadius=0.05mm|HoleSize=0mm|Usage=FLASHONLY|Rotation=90.000|XOffset=0mm|YOffset=0mm|HoleType=Round|Shape=RoundedRectangle|*
%AMROUNDEDRECTD95*
21,1,0.900,1.351,0,0,90.0*
21,1,0.801,1.450,0,0,90.0*
1,1,0.099,0.676,0.401*
1,1,0.099,0.676,-0.401*
1,1,0.099,-0.676,-0.401*
1,1,0.099,-0.676,0.401*
%
%ADD95ROUNDEDRECTD95*%
G04:AMPARAMS|DCode=96|XSize=3.15mm|YSize=1.45mm|CornerRadius=0.051mm|HoleSize=0mm|Usage=FLASHONLY|Rotation=90.000|XOffset=0mm|YOffset=0mm|HoleType=Round|Shape=RoundedRectangle|*
%AMROUNDEDRECTD96*
21,1,3.150,1.349,0,0,90.0*
21,1,3.049,1.450,0,0,90.0*
1,1,0.102,0.674,1.524*
1,1,0.102,0.674,-1.524*
1,1,0.102,-0.674,-1.524*
1,1,0.102,-0.674,1.524*
%
%ADD96ROUNDEDRECTD96*%
%ADD97R,2.000X1.250*%
%ADD98R,1.800X1.300*%
%ADD99R,1.250X2.000*%
%ADD100R,0.900X1.200*%
%ADD101R,0.808X1.262*%
G04:AMPARAMS|DCode=102|XSize=0.8mm|YSize=1.6mm|CornerRadius=0.2mm|HoleSize=0mm|Usage=FLASHONLY|Rotation=0.000|XOffset=0mm|YOffset=0mm|HoleType=Round|Shape=RoundedRectangle|*
%AMROUNDEDRECTD102*
21,1,0.800,1.200,0,0,0.0*
21,1,0.400,1.600,0,0,0.0*
1,1,0.400,0.200,-0.600*
1,1,0.400,-0.200,-0.600*
1,1,0.400,-0.200,0.600*
1,1,0.400,0.200,0.600*
%
%ADD102ROUNDEDRECTD102*%
G04:AMPARAMS|DCode=103|XSize=0.6mm|YSize=1.6mm|CornerRadius=0.15mm|HoleSize=0mm|Usage=FLASHONLY|Rotation=0.000|XOffset=0mm|YOffset=0mm|HoleType=Round|Shape=RoundedRectangle|*
%AMROUNDEDRECTD103*
21,1,0.600,1.300,0,0,0.0*
21,1,0.300,1.600,0,0,0.0*
1,1,0.300,0.150,-0.650*
1,1,0.300,-0.150,-0.650*
1,1,0.300,-0.150,0.650*
1,1,0.300,0.150,0.650*
%
%ADD103ROUNDEDRECTD103*%
%ADD104R,1.525X0.650*%
%ADD105R,2.300X2.500*%
%TA.AperFunction,ComponentPad*%
%ADD108O,2.032X2.540*%
D22*
X134650Y59600D02*
D03*
Y61100D02*
D03*
X157950Y26313D02*
D03*
Y27813D02*
D03*
X252275Y111675D02*
D03*
Y110175D02*
D03*
X251420Y58176D02*
D03*
Y56676D02*
D03*
X249071Y58162D02*
D03*
Y56662D02*
D03*
X141975Y48650D02*
D03*
Y47150D02*
D03*
X130097Y74450D02*
D03*
Y72950D02*
D03*
X125022Y42695D02*
D03*
Y44195D02*
D03*
X87823Y45441D02*
D03*
Y46941D02*
D03*
X57107Y45525D02*
D03*
Y47025D02*
D03*
D26*
X90869Y94288D02*
D03*
X93719D02*
D03*
X113221Y71712D02*
D03*
X110371D02*
D03*
X128802Y102965D02*
D03*
X125952D02*
D03*
X118904Y101765D02*
D03*
X121754D02*
D03*
X106066Y70915D02*
D03*
X103216D02*
D03*
X87114Y93980D02*
D03*
X84264D02*
D03*
D37*
X246539Y159840D02*
D03*
X180160Y159539D02*
D03*
D38*
X8225Y34675D02*
D03*
Y39625D02*
D03*
X213000Y156655D02*
D03*
Y154155D02*
D03*
X238031Y35285D02*
D03*
Y40235D02*
D03*
X234873Y111221D02*
D03*
X232968D02*
D03*
X236778D02*
D03*
D39*
X171082Y99500D02*
D03*
Y104500D02*
D03*
X157632D02*
D03*
Y99500D02*
D03*
X144232D02*
D03*
Y104500D02*
D03*
X149107Y162068D02*
D03*
X152643Y158532D02*
D03*
X214000Y161575D02*
D03*
Y173575D02*
D03*
D40*
X107500Y147365D02*
D03*
X112834D02*
D03*
X102166D02*
D03*
X75000D02*
D03*
X80334D02*
D03*
X69666D02*
D03*
X42500D02*
D03*
X47834D02*
D03*
X37166D02*
D03*
X47834Y32635D02*
D03*
X42500D02*
D03*
X37166D02*
D03*
X75000D02*
D03*
X69666D02*
D03*
X80334D02*
D03*
X107500D02*
D03*
X102166D02*
D03*
X112834D02*
D03*
D41*
X262320Y22590D02*
D03*
Y27590D02*
D03*
X262075Y110875D02*
D03*
X202500Y173500D02*
D03*
X149000Y172800D02*
D03*
X220500Y173500D02*
D03*
D42*
X262320Y17590D02*
D03*
X262075Y105875D02*
D03*
D43*
X89030Y82561D02*
D03*
X95707Y83761D02*
D03*
X112782Y74555D02*
D03*
X98130Y91161D02*
D03*
X135450Y50525D02*
D03*
X83854Y51783D02*
D03*
X159850Y29975D02*
D03*
X202126Y51996D02*
D03*
X233795Y13916D02*
D03*
X124675Y61050D02*
D03*
X114275Y60125D02*
D03*
X134425Y54725D02*
D03*
X241450Y30740D02*
D03*
X154725Y22020D02*
D03*
X155868Y19547D02*
D03*
X158625Y23163D02*
D03*
X162682Y29925D02*
D03*
X221900Y57489D02*
D03*
X215000Y46910D02*
D03*
X212725Y44425D02*
D03*
X215000Y41775D02*
D03*
X226400Y43526D02*
D03*
X170378Y73427D02*
D03*
X175328Y73502D02*
D03*
X185021Y11821D02*
D03*
X181021D02*
D03*
X177021D02*
D03*
X173021D02*
D03*
X169021D02*
D03*
X165021D02*
D03*
X228620Y54822D02*
D03*
X32325Y127856D02*
D03*
X90869Y97088D02*
D03*
X217075Y89825D02*
D03*
X235800Y89075D02*
D03*
X225900Y13916D02*
D03*
X219749Y14101D02*
D03*
X202801Y13931D02*
D03*
X211253Y14079D02*
D03*
X193200Y92475D02*
D03*
X219183Y94070D02*
D03*
X235321Y58142D02*
D03*
X245496Y68984D02*
D03*
X250084Y43420D02*
D03*
X243081Y46709D02*
D03*
X250871Y52968D02*
D03*
X197027Y14100D02*
D03*
X135347Y107828D02*
D03*
X135225Y103650D02*
D03*
X130525Y89475D02*
D03*
X130466Y92400D02*
D03*
X132622Y99259D02*
D03*
X131950Y105743D02*
D03*
X128686Y105765D02*
D03*
X109932Y74555D02*
D03*
X106675D02*
D03*
X116300Y57000D02*
D03*
X106059Y60154D02*
D03*
X102136Y66538D02*
D03*
X93564Y97088D02*
D03*
X83082Y89211D02*
D03*
X240642Y63409D02*
D03*
X249925Y67393D02*
D03*
X236075Y96425D02*
D03*
X240270Y108168D02*
D03*
X181027Y110291D02*
D03*
X193375Y58750D02*
D03*
X234809Y63700D02*
D03*
X124622Y65080D02*
D03*
X127022Y63175D02*
D03*
X142349Y42380D02*
D03*
X136800Y40032D02*
D03*
X124145Y56832D02*
D03*
X119620Y71539D02*
D03*
X127950Y142000D02*
D03*
X213999Y32725D02*
D03*
X119000Y38050D02*
D03*
X82200Y40189D02*
D03*
X51535Y40075D02*
D03*
Y47151D02*
D03*
X60626Y39800D02*
D03*
X51535Y43525D02*
D03*
X55006Y51975D02*
D03*
X82200Y43440D02*
D03*
X91308Y39789D02*
D03*
X82200Y47190D02*
D03*
X129672Y37476D02*
D03*
X119000Y44322D02*
D03*
Y41040D02*
D03*
X120931Y48972D02*
D03*
X97325Y128025D02*
D03*
X64575Y127325D02*
D03*
X98396Y99522D02*
D03*
X245450Y14075D02*
D03*
X262340Y32480D02*
D03*
X262390Y12370D02*
D03*
X248000Y12016D02*
D03*
X252340Y11856D02*
D03*
X247064Y31800D02*
D03*
D44*
X171536Y70213D02*
D03*
X174076D02*
D03*
X166456D02*
D03*
X168996D02*
D03*
X171536Y61773D02*
D03*
X174076D02*
D03*
X166456D02*
D03*
X168996D02*
D03*
X181491Y15221D02*
D03*
X178951D02*
D03*
X184031D02*
D03*
X186571D02*
D03*
X206013Y92475D02*
D03*
X230000Y58730D02*
D03*
Y61270D02*
D03*
Y51270D02*
D03*
Y48730D02*
D03*
X173216Y15196D02*
D03*
X170676D02*
D03*
X165596D02*
D03*
X168136D02*
D03*
D45*
X176616Y70213D02*
D03*
Y61773D02*
D03*
X176411Y15221D02*
D03*
X163056Y15196D02*
D03*
D46*
X185550Y61775D02*
D03*
X183010D02*
D03*
X188090D02*
D03*
X183008Y70302D02*
D03*
X185548D02*
D03*
X188088D02*
D03*
X190628D02*
D03*
X193168D02*
D03*
X206752Y39297D02*
D03*
Y41836D02*
D03*
Y44376D02*
D03*
Y46917D02*
D03*
Y49457D02*
D03*
X231480Y35010D02*
D03*
X228940D02*
D03*
X226400D02*
D03*
D47*
X180470Y61775D02*
D03*
X180468Y70302D02*
D03*
X223860Y35010D02*
D03*
D48*
X239405Y6250D02*
D03*
X230850D02*
D03*
X222375Y6251D02*
D03*
X196942Y6225D02*
D03*
X213793Y6229D02*
D03*
X205285Y6220D02*
D03*
D49*
X236865Y6250D02*
D03*
X234325D02*
D03*
X228310D02*
D03*
X225770D02*
D03*
X219835Y6251D02*
D03*
X217295D02*
D03*
X194402Y6225D02*
D03*
X191862D02*
D03*
X211253Y6229D02*
D03*
X208713D02*
D03*
X202745Y6220D02*
D03*
X200205D02*
D03*
X264306Y55644D02*
D03*
Y58184D02*
D03*
Y45544D02*
D03*
Y48084D02*
D03*
Y75919D02*
D03*
Y78459D02*
D03*
Y65654D02*
D03*
Y68194D02*
D03*
D50*
X206752Y51996D02*
D03*
D51*
X196237Y92475D02*
D03*
D52*
X207500Y173500D02*
D03*
X154000Y172800D02*
D03*
X225500Y173500D02*
D03*
D53*
X177239Y136171D02*
D03*
X183081Y136298D02*
D03*
D54*
X205000Y135000D02*
D03*
Y125000D02*
D03*
X155000D02*
D03*
Y135000D02*
D03*
D55*
X223171Y162761D02*
D03*
X223298Y156919D02*
D03*
D56*
X131050Y128700D02*
D03*
D57*
Y138700D02*
D03*
D58*
X256111Y80939D02*
D03*
Y78399D02*
D03*
X256101Y70814D02*
D03*
Y68274D02*
D03*
X256111Y50599D02*
D03*
Y48059D02*
D03*
Y60749D02*
D03*
Y58209D02*
D03*
X178310Y25000D02*
D03*
X183190D02*
D03*
D59*
X256111Y75859D02*
D03*
X256101Y65734D02*
D03*
X256111Y45519D02*
D03*
Y55669D02*
D03*
D60*
X264306Y60724D02*
D03*
Y50624D02*
D03*
Y80999D02*
D03*
Y70734D02*
D03*
D61*
X99350Y45000D02*
D03*
X105800D02*
D03*
X67350D02*
D03*
X73800D02*
D03*
X35350D02*
D03*
X41800D02*
D03*
X46150Y135000D02*
D03*
X111150D02*
D03*
X104700D02*
D03*
X78650D02*
D03*
X72200D02*
D03*
X39700D02*
D03*
D62*
X9460Y100000D02*
D03*
X19366D02*
D03*
Y90000D02*
D03*
X9460D02*
D03*
X19366Y80000D02*
D03*
X9460D02*
D03*
D63*
X251100Y122650D02*
D03*
X261100D02*
D03*
X251100Y132650D02*
D03*
X261100D02*
D03*
D65*
X198725Y104875D02*
D03*
X190000Y53874D02*
D03*
Y33935D02*
D03*
D66*
X24000Y135000D02*
D03*
X99000D02*
D03*
X89000D02*
D03*
X66500D02*
D03*
X56500D02*
D03*
X34000D02*
D03*
D67*
X229793Y132811D02*
D03*
X239699Y132684D02*
D03*
D75*
X78714Y79988D02*
D03*
X83014D02*
D03*
X79414Y97088D02*
D03*
X83714D02*
D03*
X196250Y95675D02*
D03*
X200550D02*
D03*
X114902Y105165D02*
D03*
X119202D02*
D03*
X113231Y88974D02*
D03*
X117531D02*
D03*
X98916Y74015D02*
D03*
X103216D02*
D03*
X97705Y58120D02*
D03*
X102005D02*
D03*
D76*
X89464Y100088D02*
D03*
X93464D02*
D03*
X129095Y109065D02*
D03*
X125095D02*
D03*
X108475Y77775D02*
D03*
X112475D02*
D03*
D77*
X112881Y63720D02*
D03*
X111611D02*
D03*
X109071D02*
D03*
X110341Y68548D02*
D03*
X111611D02*
D03*
X112881D02*
D03*
X110341Y63720D02*
D03*
X109071Y68548D02*
D03*
X126142Y94851D02*
D03*
X124872Y99679D02*
D03*
X128682D02*
D03*
X127412D02*
D03*
X126142D02*
D03*
X124872Y94851D02*
D03*
X127412D02*
D03*
X128682D02*
D03*
X93564Y91188D02*
D03*
X92294D02*
D03*
X91024D02*
D03*
X89754D02*
D03*
Y86360D02*
D03*
X91024D02*
D03*
X92294D02*
D03*
X93564D02*
D03*
D78*
X118128Y108331D02*
D03*
X115977D02*
D03*
X232176Y63700D02*
D03*
X230024D02*
D03*
X258996Y68194D02*
D03*
X261148D02*
D03*
X176051Y27169D02*
D03*
X173899D02*
D03*
X254974Y100722D02*
D03*
X257126D02*
D03*
X259030Y78399D02*
D03*
X261181D02*
D03*
X261401Y58184D02*
D03*
X259249D02*
D03*
X259171Y48084D02*
D03*
X261323D02*
D03*
X134773Y94757D02*
D03*
X132622D02*
D03*
X121507Y94851D02*
D03*
X119355D02*
D03*
X134773Y97222D02*
D03*
X132622D02*
D03*
X115456Y92274D02*
D03*
X113304D02*
D03*
X99857Y61220D02*
D03*
X97705D02*
D03*
X105757Y63720D02*
D03*
X103605D02*
D03*
X118411Y62363D02*
D03*
X116260D02*
D03*
X118411Y64963D02*
D03*
X116260D02*
D03*
X100139Y77215D02*
D03*
X102291D02*
D03*
X92870Y61220D02*
D03*
X95022D02*
D03*
X82640Y100388D02*
D03*
X80488D02*
D03*
X73788Y83388D02*
D03*
X75940D02*
D03*
X78388D02*
D03*
X80540D02*
D03*
X84511Y86388D02*
D03*
X86663D02*
D03*
X100207Y88719D02*
D03*
X98056D02*
D03*
X100207Y86049D02*
D03*
X98056D02*
D03*
X242732Y68984D02*
D03*
X240580D02*
D03*
X232647Y48730D02*
D03*
X234798D02*
D03*
X242733Y66334D02*
D03*
X240581D02*
D03*
X178653Y113066D02*
D03*
X176502D02*
D03*
X181027Y113066D02*
D03*
X183178D02*
D03*
X57798Y37150D02*
D03*
X59950D02*
D03*
X127199Y34925D02*
D03*
X129351D02*
D03*
X90224Y36950D02*
D03*
X92376D02*
D03*
X213924Y27375D02*
D03*
X216076Y30025D02*
D03*
X213924D02*
D03*
X216076Y27375D02*
D03*
X213924Y24800D02*
D03*
X216076D02*
D03*
Y22100D02*
D03*
X213924D02*
D03*
X255256Y33260D02*
D03*
X253104D02*
D03*
X244124Y18171D02*
D03*
X246276D02*
D03*
X241381D02*
D03*
X239229D02*
D03*
X241426Y27870D02*
D03*
X239274D02*
D03*
X241422Y25170D02*
D03*
X239270D02*
D03*
X249216Y28744D02*
D03*
X247064D02*
D03*
D79*
X39530Y23970D02*
D03*
X45470Y18030D02*
D03*
X72030Y23970D02*
D03*
X77970Y18030D02*
D03*
X104630Y23970D02*
D03*
X110570Y18030D02*
D03*
D80*
X178648Y27800D02*
D03*
X180102D02*
D03*
X182877D02*
D03*
X181422D02*
D03*
D81*
X176960Y30025D02*
D03*
X178460D02*
D03*
X186825Y53874D02*
D03*
X185325D02*
D03*
X213875Y77175D02*
D03*
X212375D02*
D03*
X156250Y24213D02*
D03*
X154750D02*
D03*
X161225Y23163D02*
D03*
X162725D02*
D03*
X224875Y37110D02*
D03*
X226375D02*
D03*
X231980Y109121D02*
D03*
X233480D02*
D03*
X233595Y106391D02*
D03*
X232095D02*
D03*
X178527Y110291D02*
D03*
X177027D02*
D03*
X88174Y40189D02*
D03*
X86674D02*
D03*
X129672Y40821D02*
D03*
X131172D02*
D03*
X124472Y47321D02*
D03*
X125972D02*
D03*
X127422D02*
D03*
X128922D02*
D03*
X87373Y50089D02*
D03*
X88873D02*
D03*
X92573Y43440D02*
D03*
X94073D02*
D03*
X90173Y50089D02*
D03*
X91673D02*
D03*
X61901Y43525D02*
D03*
X63401D02*
D03*
X56456Y49769D02*
D03*
X57956D02*
D03*
X59401D02*
D03*
X60901D02*
D03*
X126031Y38050D02*
D03*
X124531D02*
D03*
X56278Y39785D02*
D03*
X57778D02*
D03*
X249500Y18210D02*
D03*
X248000D02*
D03*
D82*
X194000Y41076D02*
D03*
Y38924D02*
D03*
X239405Y9224D02*
D03*
Y11376D02*
D03*
X236865Y9226D02*
D03*
Y11377D02*
D03*
X194402Y11576D02*
D03*
Y9424D02*
D03*
X196942Y11576D02*
D03*
Y9424D02*
D03*
X211253Y11555D02*
D03*
Y9403D02*
D03*
X213793Y11555D02*
D03*
Y9403D02*
D03*
X202745Y11545D02*
D03*
Y9394D02*
D03*
X205345Y11545D02*
D03*
Y9394D02*
D03*
X219835Y11576D02*
D03*
Y9424D02*
D03*
X222375Y11576D02*
D03*
Y9424D02*
D03*
X228310Y11576D02*
D03*
Y9424D02*
D03*
X230850Y11576D02*
D03*
Y9424D02*
D03*
X238084Y48899D02*
D03*
Y46748D02*
D03*
X238084Y52692D02*
D03*
Y54843D02*
D03*
X240642Y48898D02*
D03*
Y46747D02*
D03*
X247521Y50074D02*
D03*
Y47922D02*
D03*
X110581Y94943D02*
D03*
Y92791D02*
D03*
X240642Y58142D02*
D03*
Y60293D02*
D03*
X245887Y64917D02*
D03*
Y62766D02*
D03*
X250063Y47923D02*
D03*
Y50075D02*
D03*
X240642Y54843D02*
D03*
Y52692D02*
D03*
X252770Y47923D02*
D03*
Y50075D02*
D03*
X238071Y60293D02*
D03*
Y58142D02*
D03*
X251371Y64916D02*
D03*
Y62764D02*
D03*
X248646Y64916D02*
D03*
Y62764D02*
D03*
X235778Y106970D02*
D03*
Y109121D02*
D03*
X235795Y104546D02*
D03*
Y102395D02*
D03*
X210375Y166776D02*
D03*
Y164624D02*
D03*
X165021Y7745D02*
D03*
Y9897D02*
D03*
X173021Y7745D02*
D03*
Y9897D02*
D03*
X177021Y7745D02*
D03*
Y9897D02*
D03*
X181021Y7745D02*
D03*
Y9897D02*
D03*
X169021Y7745D02*
D03*
Y9897D02*
D03*
X185021D02*
D03*
Y7745D02*
D03*
D83*
X232185Y30385D02*
D03*
Y29115D02*
D03*
Y27845D02*
D03*
Y26575D02*
D03*
Y25305D02*
D03*
Y24035D02*
D03*
Y22765D02*
D03*
Y21495D02*
D03*
X222935Y29115D02*
D03*
Y27845D02*
D03*
Y26575D02*
D03*
Y25305D02*
D03*
Y24035D02*
D03*
Y21495D02*
D03*
Y22765D02*
D03*
Y30385D02*
D03*
D84*
X207021Y155025D02*
D03*
Y161575D02*
D03*
X209471Y155025D02*
D03*
Y161575D02*
D03*
D85*
X131000Y58650D02*
D03*
X131950Y61050D02*
D03*
X130050D02*
D03*
Y58650D02*
D03*
X131950D02*
D03*
X139450Y46200D02*
D03*
X137550D02*
D03*
Y48600D02*
D03*
X139450D02*
D03*
X138500Y46200D02*
D03*
X127522Y72000D02*
D03*
X125622D02*
D03*
Y74400D02*
D03*
X127522D02*
D03*
X126572Y72000D02*
D03*
D86*
X130950Y56450D02*
D03*
X129198D02*
D03*
X130199Y63300D02*
D03*
X131951D02*
D03*
X161152Y18893D02*
D03*
X162904D02*
D03*
X162904Y20770D02*
D03*
X161152D02*
D03*
X125274Y32243D02*
D03*
X123522D02*
D03*
X89025Y34325D02*
D03*
X87273D02*
D03*
X56601Y34675D02*
D03*
X54849D02*
D03*
X170672Y65975D02*
D03*
X168920D02*
D03*
X170779Y64175D02*
D03*
X169027D02*
D03*
X139376Y51325D02*
D03*
X137624D02*
D03*
X121574Y69575D02*
D03*
X123326D02*
D03*
X127448Y76325D02*
D03*
X125696D02*
D03*
X124746Y69575D02*
D03*
X126498D02*
D03*
X136847Y44325D02*
D03*
X138598D02*
D03*
X85647Y43440D02*
D03*
X87399D02*
D03*
X91239Y43440D02*
D03*
X89488D02*
D03*
X54931Y43525D02*
D03*
X56683D02*
D03*
X122767Y40821D02*
D03*
X124518D02*
D03*
X128399Y40821D02*
D03*
X126647D02*
D03*
X60626Y43525D02*
D03*
X58875D02*
D03*
X123524Y34925D02*
D03*
X125276D02*
D03*
X86549Y36950D02*
D03*
X88301D02*
D03*
X54430Y37150D02*
D03*
X56181D02*
D03*
X249516Y26210D02*
D03*
X247764D02*
D03*
D87*
X127456Y56254D02*
D03*
Y54502D02*
D03*
X128025Y58949D02*
D03*
Y60701D02*
D03*
X159525Y19094D02*
D03*
Y20846D02*
D03*
X153750Y27788D02*
D03*
Y26037D02*
D03*
X164500Y25442D02*
D03*
Y27193D02*
D03*
X155750Y26062D02*
D03*
Y27813D02*
D03*
X123597Y74051D02*
D03*
Y72299D02*
D03*
X135450Y48251D02*
D03*
Y46499D02*
D03*
X135207Y44154D02*
D03*
Y42402D02*
D03*
X85723Y50190D02*
D03*
Y48439D02*
D03*
X55006Y50145D02*
D03*
Y48393D02*
D03*
X122722Y44322D02*
D03*
Y42570D02*
D03*
Y47321D02*
D03*
Y45569D02*
D03*
X55007Y47151D02*
D03*
Y45399D02*
D03*
X85723Y47189D02*
D03*
Y45438D02*
D03*
D88*
X131075Y54425D02*
D03*
X129075D02*
D03*
X136723Y42380D02*
D03*
X138723D02*
D03*
X124622Y67351D02*
D03*
X126622D02*
D03*
D89*
X160300Y26313D02*
D03*
X162700Y25363D02*
D03*
Y27263D02*
D03*
X160300D02*
D03*
Y25363D02*
D03*
X129623Y44519D02*
D03*
Y42619D02*
D03*
X127223D02*
D03*
Y44519D02*
D03*
X129623Y43569D02*
D03*
X92623Y47264D02*
D03*
Y45364D02*
D03*
X90223D02*
D03*
Y47264D02*
D03*
X92623Y46314D02*
D03*
X61851Y47225D02*
D03*
Y45325D02*
D03*
X59451D02*
D03*
Y47225D02*
D03*
X61851Y46275D02*
D03*
D90*
X185075Y58000D02*
D03*
X189575D02*
D03*
D91*
X184798Y49731D02*
D03*
X183738Y50791D02*
D03*
D92*
X183025Y36675D02*
D03*
X182525D02*
D03*
X182025D02*
D03*
X181525D02*
D03*
X181025D02*
D03*
X180525D02*
D03*
X180025D02*
D03*
X179525D02*
D03*
X179025D02*
D03*
X178525D02*
D03*
X178025D02*
D03*
X177525D02*
D03*
Y45175D02*
D03*
X178025D02*
D03*
X178525D02*
D03*
X179025D02*
D03*
X179525D02*
D03*
X180025D02*
D03*
X180525D02*
D03*
X181025D02*
D03*
X181525D02*
D03*
X182025D02*
D03*
X182525D02*
D03*
X183025D02*
D03*
D93*
X176025Y38175D02*
D03*
Y38675D02*
D03*
Y39175D02*
D03*
Y39675D02*
D03*
Y40175D02*
D03*
Y40675D02*
D03*
Y41175D02*
D03*
Y41675D02*
D03*
Y42175D02*
D03*
Y42675D02*
D03*
Y43175D02*
D03*
Y43675D02*
D03*
X184525D02*
D03*
Y43175D02*
D03*
Y42675D02*
D03*
Y42175D02*
D03*
Y41675D02*
D03*
Y41175D02*
D03*
Y40675D02*
D03*
Y40175D02*
D03*
Y39675D02*
D03*
Y39175D02*
D03*
Y38675D02*
D03*
Y38175D02*
D03*
D94*
X221900Y69775D02*
D03*
X219700D02*
D03*
D95*
X249800Y112500D02*
D03*
Y107900D02*
D03*
Y110200D02*
D03*
D96*
X243650D02*
D03*
D97*
X194556Y35547D02*
D03*
Y31797D02*
D03*
D98*
X167950Y104425D02*
D03*
Y101575D02*
D03*
X154850D02*
D03*
Y104425D02*
D03*
X141275D02*
D03*
Y101575D02*
D03*
D99*
X96906Y63720D02*
D03*
X100656D02*
D03*
X112557Y94867D02*
D03*
X116307D02*
D03*
X112502Y99259D02*
D03*
X116252D02*
D03*
X96641Y68515D02*
D03*
X100391D02*
D03*
X81339Y91437D02*
D03*
X77589D02*
D03*
X81339Y86388D02*
D03*
X77589D02*
D03*
D100*
X119279Y99360D02*
D03*
X121379D02*
D03*
X103591Y68515D02*
D03*
X105691D02*
D03*
X86514Y91437D02*
D03*
X84414D02*
D03*
D101*
X113775Y101665D02*
D03*
X115379D02*
D03*
X97714Y70915D02*
D03*
X99318D02*
D03*
X80266Y94237D02*
D03*
X78662D02*
D03*
D102*
X247046Y52968D02*
D03*
Y58168D02*
D03*
X242996D02*
D03*
Y52968D02*
D03*
D103*
X245656D02*
D03*
X244386D02*
D03*
X245656Y58168D02*
D03*
X244386D02*
D03*
D104*
X249512Y20515D02*
D03*
Y21785D02*
D03*
Y23055D02*
D03*
Y24325D02*
D03*
X244088D02*
D03*
Y23055D02*
D03*
Y21785D02*
D03*
Y20515D02*
D03*
D105*
X255150Y20950D02*
D03*
Y16650D02*
D03*
X255180Y24275D02*
D03*
Y28575D02*
D03*
D108*
X198852Y99414D02*
D03*
X196312D02*
D03*
X201392D02*
D03*
%TF.MD5,44dd66741e8720024f17dc3f2f327781*%
M02*
