%TF.GenerationSoftware,Altium Limited,Altium Designer,21.6.4 (81)*%
G04 Layer_Color=16711935*
%FSLAX43Y43*%
%MOMM*%
%TF.SameCoordinates,76D5CAF9-2094-4FD7-9A7B-915B2AFADFAF*%
%TF.FilePolarity,Negative*%
%TF.FileFunction,Soldermask,Bot*%
%TF.Part,Single*%
G01*
G75*
%TA.AperFunction,SMDPad,CuDef*%
%ADD22R,1.350X0.950*%
%ADD26R,1.300X1.800*%
%TA.AperFunction,ComponentPad*%
%ADD37C,6.604*%
%ADD38C,1.524*%
%ADD39C,2.000*%
%ADD40C,3.556*%
%ADD41C,1.950*%
G04:AMPARAMS|DCode=42|XSize=1.95mm|YSize=1.95mm|CornerRadius=0.488mm|HoleSize=0mm|Usage=FLASHONLY|Rotation=90.000|XOffset=0mm|YOffset=0mm|HoleType=Round|Shape=RoundedRectangle|*
%AMROUNDEDRECTD42*
21,1,1.950,0.975,0,0,90.0*
21,1,0.975,1.950,0,0,90.0*
1,1,0.975,0.488,0.488*
1,1,0.975,0.488,-0.488*
1,1,0.975,-0.488,-0.488*
1,1,0.975,-0.488,0.488*
%
%ADD42ROUNDEDRECTD42*%
%ADD44C,1.600*%
G04:AMPARAMS|DCode=45|XSize=1.6mm|YSize=1.6mm|CornerRadius=0.4mm|HoleSize=0mm|Usage=FLASHONLY|Rotation=180.000|XOffset=0mm|YOffset=0mm|HoleType=Round|Shape=RoundedRectangle|*
%AMROUNDEDRECTD45*
21,1,1.600,0.800,0,0,180.0*
21,1,0.800,1.600,0,0,180.0*
1,1,0.800,-0.400,0.400*
1,1,0.800,0.400,0.400*
1,1,0.800,0.400,-0.400*
1,1,0.800,-0.400,-0.400*
%
%ADD45ROUNDEDRECTD45*%
%ADD46C,1.550*%
%ADD47R,1.550X1.550*%
%ADD48R,1.500X1.500*%
%ADD49C,1.500*%
%ADD50R,1.550X1.550*%
%ADD51R,1.600X1.600*%
G04:AMPARAMS|DCode=52|XSize=1.95mm|YSize=1.95mm|CornerRadius=0.488mm|HoleSize=0mm|Usage=FLASHONLY|Rotation=180.000|XOffset=0mm|YOffset=0mm|HoleType=Round|Shape=RoundedRectangle|*
%AMROUNDEDRECTD52*
21,1,1.950,0.975,0,0,180.0*
21,1,0.975,1.950,0,0,180.0*
1,1,0.975,-0.488,0.488*
1,1,0.975,0.488,0.488*
1,1,0.975,0.488,-0.488*
1,1,0.975,-0.488,-0.488*
%
%ADD52ROUNDEDRECTD52*%
%ADD53O,4.826X6.350*%
%ADD54C,6.350*%
%ADD55O,6.350X4.826*%
%ADD56C,1.300*%
%ADD57R,1.300X1.300*%
%ADD58C,1.200*%
%ADD59R,1.200X1.200*%
%ADD60R,1.500X1.500*%
%ADD61C,2.200*%
%ADD62O,6.600X6.000*%
%ADD63O,5.588X5.080*%
%ADD65C,3.048*%
%ADD66C,1.800*%
%ADD67O,8.890X5.080*%
%TA.AperFunction,SMDPad,CuDef*%
%ADD75R,2.500X2.300*%
%ADD76R,2.500X1.700*%
%ADD77R,0.508X1.670*%
%ADD78R,1.157X1.508*%
G04:AMPARAMS|DCode=79|XSize=2.75mm|YSize=6.2mm|CornerRadius=0mm|HoleSize=0mm|Usage=FLASHONLY|Rotation=135.000|XOffset=0mm|YOffset=0mm|HoleType=Round|Shape=Rectangle|*
%AMROTATEDRECTD79*
4,1,4,3.164,1.220,-1.220,-3.164,-3.164,-1.220,1.220,3.164,3.164,1.220,0.0*
%
%ADD79ROTATEDRECTD79*%

%ADD80R,0.958X1.262*%
%ADD81R,0.950X1.350*%
%ADD82R,1.508X1.157*%
%ADD83O,2.600X0.700*%
%ADD84R,1.450X1.800*%
%ADD85R,0.650X0.900*%
%ADD86R,0.757X1.308*%
%ADD87R,1.308X0.757*%
%ADD89R,0.900X0.650*%
%ADD90R,2.000X2.800*%
G04:AMPARAMS|DCode=91|XSize=0.95mm|YSize=1.35mm|CornerRadius=0mm|HoleSize=0mm|Usage=FLASHONLY|Rotation=135.000|XOffset=0mm|YOffset=0mm|HoleType=Round|Shape=Rectangle|*
%AMROTATEDRECTD91*
4,1,4,0.813,0.141,-0.141,-0.813,-0.813,-0.141,0.141,0.813,0.813,0.141,0.0*
%
%ADD91ROTATEDRECTD91*%

%ADD92R,0.305X1.194*%
%ADD93R,1.194X0.305*%
%ADD94R,0.600X0.600*%
G04:AMPARAMS|DCode=95|XSize=0.9mm|YSize=1.45mm|CornerRadius=0.05mm|HoleSize=0mm|Usage=FLASHONLY|Rotation=90.000|XOffset=0mm|YOffset=0mm|HoleType=Round|Shape=RoundedRectangle|*
%AMROUNDEDRECTD95*
21,1,0.900,1.351,0,0,90.0*
21,1,0.801,1.450,0,0,90.0*
1,1,0.099,0.676,0.401*
1,1,0.099,0.676,-0.401*
1,1,0.099,-0.676,-0.401*
1,1,0.099,-0.676,0.401*
%
%ADD95ROUNDEDRECTD95*%
G04:AMPARAMS|DCode=96|XSize=3.15mm|YSize=1.45mm|CornerRadius=0.051mm|HoleSize=0mm|Usage=FLASHONLY|Rotation=90.000|XOffset=0mm|YOffset=0mm|HoleType=Round|Shape=RoundedRectangle|*
%AMROUNDEDRECTD96*
21,1,3.150,1.349,0,0,90.0*
21,1,3.049,1.450,0,0,90.0*
1,1,0.102,0.674,1.524*
1,1,0.102,0.674,-1.524*
1,1,0.102,-0.674,-1.524*
1,1,0.102,-0.674,1.524*
%
%ADD96ROUNDEDRECTD96*%
%ADD97R,2.000X1.250*%
%ADD98R,1.800X1.300*%
%ADD99R,1.250X2.000*%
%ADD100R,0.900X1.200*%
%ADD101R,0.808X1.262*%
G04:AMPARAMS|DCode=102|XSize=0.8mm|YSize=1.6mm|CornerRadius=0.2mm|HoleSize=0mm|Usage=FLASHONLY|Rotation=0.000|XOffset=0mm|YOffset=0mm|HoleType=Round|Shape=RoundedRectangle|*
%AMROUNDEDRECTD102*
21,1,0.800,1.200,0,0,0.0*
21,1,0.400,1.600,0,0,0.0*
1,1,0.400,0.200,-0.600*
1,1,0.400,-0.200,-0.600*
1,1,0.400,-0.200,0.600*
1,1,0.400,0.200,0.600*
%
%ADD102ROUNDEDRECTD102*%
G04:AMPARAMS|DCode=103|XSize=0.6mm|YSize=1.6mm|CornerRadius=0.15mm|HoleSize=0mm|Usage=FLASHONLY|Rotation=0.000|XOffset=0mm|YOffset=0mm|HoleType=Round|Shape=RoundedRectangle|*
%AMROUNDEDRECTD103*
21,1,0.600,1.300,0,0,0.0*
21,1,0.300,1.600,0,0,0.0*
1,1,0.300,0.150,-0.650*
1,1,0.300,-0.150,-0.650*
1,1,0.300,-0.150,0.650*
1,1,0.300,0.150,0.650*
%
%ADD103ROUNDEDRECTD103*%
%ADD104R,1.525X0.650*%
%ADD105R,2.300X2.500*%
%TA.AperFunction,ComponentPad*%
%ADD108O,2.032X2.540*%
%TA.AperFunction,NonConductor*%
%ADD120C,3.000*%
%ADD121C,4.000*%
%TA.AperFunction,SMDPad,CuDef*%
%ADD122R,0.830X1.280*%
%TA.AperFunction,ComponentPad*%
%ADD123C,2.489*%
G36*
X9425Y0D02*
X-0D01*
Y9016D01*
X9425D01*
Y0D01*
D02*
G37*
G36*
X24625Y21087D02*
X13050D01*
Y32825D01*
X24625D01*
Y21087D01*
D02*
G37*
G36*
X24950Y147750D02*
X13050D01*
Y159016D01*
X24950D01*
Y147750D01*
D02*
G37*
G36*
X9484Y171163D02*
X-0D01*
Y180000D01*
X9484D01*
Y171163D01*
D02*
G37*
G36*
X600615Y943985D02*
X600629Y943983D01*
X600647Y943981D01*
X600687Y943974D01*
X600731Y943960D01*
X600777Y943939D01*
X600798Y943925D01*
X600821Y943909D01*
X600842Y943890D01*
X600860Y943870D01*
X600862Y943865D01*
X600872Y943853D01*
X600883Y943837D01*
X600897Y943814D01*
X600911Y943786D01*
X600923Y943754D01*
X600932Y943721D01*
X600934Y943684D01*
Y943682D01*
Y943677D01*
X600932Y943668D01*
Y943657D01*
X600927Y943640D01*
X600923Y943624D01*
X600918Y943603D01*
X600909Y943580D01*
X600897Y943557D01*
X600886Y943529D01*
X600867Y943502D01*
X600849Y943472D01*
X600825Y943441D01*
X600798Y943411D01*
X600768Y943379D01*
X600731Y943347D01*
X600733D01*
X600737Y943344D01*
X600744Y943342D01*
X600754Y943337D01*
X600777Y943323D01*
X600807Y943307D01*
X600842Y943286D01*
X600874Y943259D01*
X600909Y943229D01*
X600936Y943192D01*
X600939Y943187D01*
X600948Y943173D01*
X600960Y943152D01*
X600973Y943124D01*
X600985Y943090D01*
X600997Y943050D01*
X601006Y943006D01*
X601008Y942958D01*
Y942956D01*
Y942949D01*
Y942939D01*
X601006Y942925D01*
X601004Y942909D01*
X601001Y942888D01*
X600999Y942868D01*
X600992Y942842D01*
X600978Y942789D01*
X600955Y942733D01*
X600941Y942706D01*
X600925Y942676D01*
X600906Y942648D01*
X600883Y942620D01*
X600881Y942618D01*
X600876Y942613D01*
X600867Y942604D01*
X600853Y942592D01*
X600837Y942578D01*
X600816Y942562D01*
X600793Y942546D01*
X600765Y942530D01*
X600733Y942511D01*
X600698Y942495D01*
X600659Y942479D01*
X600617Y942465D01*
X600573Y942453D01*
X600525Y942444D01*
X600471Y942440D01*
X600416Y942437D01*
X600393D01*
X600365Y942440D01*
X600335Y942442D01*
X600300Y942446D01*
X600265Y942453D01*
X600235Y942463D01*
X600210Y942474D01*
X600208Y942477D01*
X600201Y942481D01*
X600194Y942488D01*
X600184Y942497D01*
X600173Y942511D01*
X600166Y942525D01*
X600159Y942539D01*
X600157Y942555D01*
Y942558D01*
Y942560D01*
X600159Y942574D01*
X600168Y942592D01*
X600173Y942602D01*
X600182Y942611D01*
X600184Y942613D01*
X600187Y942615D01*
X600201Y942625D01*
X600219Y942632D01*
X600231Y942636D01*
X600263D01*
X600279Y942632D01*
X600300Y942627D01*
X600305Y942625D01*
X600309Y942622D01*
X600319Y942620D01*
X600330Y942613D01*
X600344Y942606D01*
X600363Y942597D01*
X600386Y942585D01*
X600388Y942583D01*
X600397Y942581D01*
X600409Y942574D01*
X600423Y942567D01*
X600453Y942553D01*
X600467Y942548D01*
X600478Y942544D01*
X600481D01*
X600485Y942541D01*
X600492Y942539D01*
X600504D01*
X600531Y942534D01*
X600564Y942532D01*
X600569D01*
X600582Y942534D01*
X600603Y942537D01*
X600631Y942544D01*
X600661Y942553D01*
X600696Y942569D01*
X600728Y942590D01*
X600761Y942618D01*
X600765Y942622D01*
X600774Y942634D01*
X600788Y942652D01*
X600805Y942676D01*
X600818Y942706D01*
X600832Y942743D01*
X600842Y942782D01*
X600846Y942824D01*
Y942828D01*
Y942840D01*
X600844Y942856D01*
X600842Y942879D01*
X600837Y942905D01*
X600830Y942932D01*
X600821Y942965D01*
X600807Y942995D01*
X600805Y942997D01*
X600802Y943004D01*
X600795Y943016D01*
X600788Y943030D01*
X600768Y943060D01*
X600756Y943076D01*
X600744Y943087D01*
X600742Y943090D01*
X600735Y943094D01*
X600724Y943104D01*
X600710Y943115D01*
X600691Y943127D01*
X600668Y943141D01*
X600643Y943155D01*
X600612Y943168D01*
X600608Y943171D01*
X600599Y943175D01*
X600582Y943180D01*
X600562Y943187D01*
X600536Y943194D01*
X600506Y943201D01*
X600476Y943203D01*
X600444Y943205D01*
X600409D01*
Y943238D01*
X600414D01*
X600425Y943240D01*
X600441Y943242D01*
X600464Y943249D01*
X600490Y943256D01*
X600520Y943268D01*
X600550Y943282D01*
X600582Y943298D01*
X600587Y943300D01*
X600596Y943307D01*
X600612Y943319D01*
X600631Y943333D01*
X600652Y943351D01*
X600673Y943374D01*
X600693Y943398D01*
X600710Y943423D01*
X600712Y943425D01*
X600717Y943437D01*
X600724Y943451D01*
X600731Y943472D01*
X600737Y943495D01*
X600744Y943522D01*
X600749Y943550D01*
X600751Y943583D01*
Y943585D01*
Y943587D01*
Y943601D01*
X600747Y943622D01*
X600742Y943647D01*
X600733Y943677D01*
X600721Y943708D01*
X600703Y943738D01*
X600680Y943765D01*
X600677Y943768D01*
X600666Y943777D01*
X600652Y943789D01*
X600631Y943802D01*
X600606Y943814D01*
X600573Y943826D01*
X600541Y943835D01*
X600501Y943837D01*
X600485D01*
X600474Y943835D01*
X600457Y943833D01*
X600441Y943828D01*
X600402Y943814D01*
X600379Y943805D01*
X600356Y943793D01*
X600333Y943777D01*
X600309Y943761D01*
X600284Y943740D01*
X600261Y943715D01*
X600238Y943687D01*
X600214Y943654D01*
X600180Y943673D01*
Y943675D01*
X600182Y943680D01*
X600187Y943687D01*
X600191Y943698D01*
X600205Y943724D01*
X600224Y943758D01*
X600247Y943795D01*
X600275Y943835D01*
X600305Y943872D01*
X600339Y943904D01*
X600342D01*
X600344Y943909D01*
X600358Y943918D01*
X600379Y943930D01*
X600407Y943946D01*
X600444Y943962D01*
X600485Y943974D01*
X600531Y943983D01*
X600585Y943988D01*
X600601D01*
X600615Y943985D01*
D02*
G37*
G36*
X809224Y943013D02*
X809426D01*
Y942856D01*
X809224D01*
Y942463D01*
X809042D01*
Y942856D01*
X808410D01*
Y942997D01*
X809102Y943988D01*
X809224D01*
Y943013D01*
D02*
G37*
G36*
X1017606Y147881D02*
X1017155D01*
X1017058Y147680D01*
X1017060D01*
X1017071Y147678D01*
X1017085Y147675D01*
X1017106Y147671D01*
X1017132Y147664D01*
X1017159Y147657D01*
X1017192Y147647D01*
X1017226Y147636D01*
X1017301Y147608D01*
X1017340Y147590D01*
X1017377Y147569D01*
X1017416Y147548D01*
X1017453Y147522D01*
X1017490Y147492D01*
X1017523Y147462D01*
X1017525Y147460D01*
X1017530Y147455D01*
X1017537Y147446D01*
X1017546Y147437D01*
X1017557Y147421D01*
X1017569Y147404D01*
X1017583Y147384D01*
X1017597Y147363D01*
X1017611Y147337D01*
X1017624Y147310D01*
X1017648Y147249D01*
X1017657Y147217D01*
X1017664Y147185D01*
X1017668Y147148D01*
X1017671Y147111D01*
Y147108D01*
Y147106D01*
Y147099D01*
Y147090D01*
X1017668Y147069D01*
X1017664Y147039D01*
X1017659Y147004D01*
X1017650Y146967D01*
X1017638Y146930D01*
X1017622Y146891D01*
X1017620Y146886D01*
X1017613Y146875D01*
X1017604Y146856D01*
X1017590Y146833D01*
X1017571Y146805D01*
X1017550Y146777D01*
X1017525Y146747D01*
X1017500Y146720D01*
X1017497Y146717D01*
X1017488Y146708D01*
X1017472Y146696D01*
X1017453Y146680D01*
X1017430Y146662D01*
X1017402Y146643D01*
X1017372Y146625D01*
X1017340Y146608D01*
X1017338D01*
X1017335Y146606D01*
X1017328Y146604D01*
X1017319Y146599D01*
X1017294Y146590D01*
X1017259Y146578D01*
X1017220Y146567D01*
X1017176Y146558D01*
X1017129Y146551D01*
X1017078Y146548D01*
X1017058D01*
X1017032Y146551D01*
X1017004Y146553D01*
X1016972Y146560D01*
X1016940Y146567D01*
X1016909Y146578D01*
X1016884Y146592D01*
X1016882Y146595D01*
X1016875Y146602D01*
X1016865Y146611D01*
X1016854Y146622D01*
X1016842Y146639D01*
X1016833Y146655D01*
X1016826Y146673D01*
X1016824Y146694D01*
Y146696D01*
Y146699D01*
X1016826Y146713D01*
X1016833Y146729D01*
X1016847Y146747D01*
X1016849D01*
X1016852Y146752D01*
X1016865Y146759D01*
X1016884Y146766D01*
X1016912Y146770D01*
X1016930D01*
X1016946Y146766D01*
X1016963Y146761D01*
X1016967Y146759D01*
X1016972Y146757D01*
X1016979Y146754D01*
X1016990Y146747D01*
X1017002Y146740D01*
X1017018Y146729D01*
X1017037Y146717D01*
X1017041Y146715D01*
X1017051Y146708D01*
X1017067Y146699D01*
X1017088Y146689D01*
X1017113Y146678D01*
X1017141Y146669D01*
X1017171Y146664D01*
X1017203Y146662D01*
X1017215D01*
X1017224Y146664D01*
X1017250Y146666D01*
X1017280Y146673D01*
X1017314Y146685D01*
X1017351Y146703D01*
X1017391Y146727D01*
X1017428Y146759D01*
X1017430Y146761D01*
X1017432Y146764D01*
X1017444Y146777D01*
X1017460Y146796D01*
X1017479Y146826D01*
X1017495Y146858D01*
X1017511Y146900D01*
X1017523Y146944D01*
X1017527Y146969D01*
Y146995D01*
Y146997D01*
Y147002D01*
Y147009D01*
X1017525Y147018D01*
X1017523Y147044D01*
X1017516Y147078D01*
X1017506Y147118D01*
X1017490Y147159D01*
X1017469Y147203D01*
X1017439Y147247D01*
Y147249D01*
X1017435Y147252D01*
X1017423Y147266D01*
X1017405Y147289D01*
X1017377Y147314D01*
X1017342Y147344D01*
X1017301Y147374D01*
X1017252Y147404D01*
X1017199Y147430D01*
X1017196D01*
X1017194Y147432D01*
X1017187Y147435D01*
X1017178Y147437D01*
X1017164Y147442D01*
X1017150Y147446D01*
X1017132Y147451D01*
X1017113Y147455D01*
X1017090Y147460D01*
X1017067Y147465D01*
X1017011Y147474D01*
X1016946Y147483D01*
X1016872Y147488D01*
X1017157Y148069D01*
X1017694D01*
X1017606Y147881D01*
D02*
G37*
G36*
Y943770D02*
X1017155D01*
X1017058Y943569D01*
X1017060D01*
X1017071Y943566D01*
X1017085Y943564D01*
X1017106Y943559D01*
X1017132Y943553D01*
X1017159Y943546D01*
X1017192Y943536D01*
X1017226Y943525D01*
X1017301Y943497D01*
X1017340Y943479D01*
X1017377Y943458D01*
X1017416Y943437D01*
X1017453Y943411D01*
X1017490Y943381D01*
X1017523Y943351D01*
X1017525Y943349D01*
X1017530Y943344D01*
X1017537Y943335D01*
X1017546Y943326D01*
X1017557Y943310D01*
X1017569Y943293D01*
X1017583Y943273D01*
X1017597Y943252D01*
X1017611Y943226D01*
X1017624Y943198D01*
X1017648Y943138D01*
X1017657Y943106D01*
X1017664Y943074D01*
X1017668Y943036D01*
X1017671Y943000D01*
Y942997D01*
Y942995D01*
Y942988D01*
Y942979D01*
X1017668Y942958D01*
X1017664Y942928D01*
X1017659Y942893D01*
X1017650Y942856D01*
X1017638Y942819D01*
X1017622Y942780D01*
X1017620Y942775D01*
X1017613Y942763D01*
X1017604Y942745D01*
X1017590Y942722D01*
X1017571Y942694D01*
X1017550Y942666D01*
X1017525Y942636D01*
X1017500Y942608D01*
X1017497Y942606D01*
X1017488Y942597D01*
X1017472Y942585D01*
X1017453Y942569D01*
X1017430Y942551D01*
X1017402Y942532D01*
X1017372Y942514D01*
X1017340Y942497D01*
X1017338D01*
X1017335Y942495D01*
X1017328Y942493D01*
X1017319Y942488D01*
X1017294Y942479D01*
X1017259Y942467D01*
X1017220Y942456D01*
X1017176Y942446D01*
X1017129Y942440D01*
X1017078Y942437D01*
X1017058D01*
X1017032Y942440D01*
X1017004Y942442D01*
X1016972Y942449D01*
X1016940Y942456D01*
X1016909Y942467D01*
X1016884Y942481D01*
X1016882Y942484D01*
X1016875Y942490D01*
X1016865Y942500D01*
X1016854Y942511D01*
X1016842Y942527D01*
X1016833Y942544D01*
X1016826Y942562D01*
X1016824Y942583D01*
Y942585D01*
Y942588D01*
X1016826Y942602D01*
X1016833Y942618D01*
X1016847Y942636D01*
X1016849D01*
X1016852Y942641D01*
X1016865Y942648D01*
X1016884Y942655D01*
X1016912Y942659D01*
X1016930D01*
X1016946Y942655D01*
X1016963Y942650D01*
X1016967Y942648D01*
X1016972Y942645D01*
X1016979Y942643D01*
X1016990Y942636D01*
X1017002Y942629D01*
X1017018Y942618D01*
X1017037Y942606D01*
X1017041Y942604D01*
X1017051Y942597D01*
X1017067Y942588D01*
X1017088Y942578D01*
X1017113Y942567D01*
X1017141Y942558D01*
X1017171Y942553D01*
X1017203Y942551D01*
X1017215D01*
X1017224Y942553D01*
X1017250Y942555D01*
X1017280Y942562D01*
X1017314Y942574D01*
X1017351Y942592D01*
X1017391Y942615D01*
X1017428Y942648D01*
X1017430Y942650D01*
X1017432Y942652D01*
X1017444Y942666D01*
X1017460Y942685D01*
X1017479Y942715D01*
X1017495Y942747D01*
X1017511Y942789D01*
X1017523Y942833D01*
X1017527Y942858D01*
Y942884D01*
Y942886D01*
Y942891D01*
Y942898D01*
X1017525Y942907D01*
X1017523Y942932D01*
X1017516Y942967D01*
X1017506Y943006D01*
X1017490Y943048D01*
X1017469Y943092D01*
X1017439Y943136D01*
Y943138D01*
X1017435Y943141D01*
X1017423Y943155D01*
X1017405Y943178D01*
X1017377Y943203D01*
X1017342Y943233D01*
X1017301Y943263D01*
X1017252Y943293D01*
X1017199Y943319D01*
X1017196D01*
X1017194Y943321D01*
X1017187Y943323D01*
X1017178Y943326D01*
X1017164Y943330D01*
X1017150Y943335D01*
X1017132Y943340D01*
X1017113Y943344D01*
X1017090Y943349D01*
X1017067Y943354D01*
X1017011Y943363D01*
X1016946Y943372D01*
X1016872Y943377D01*
X1017157Y943957D01*
X1017694D01*
X1017606Y943770D01*
D02*
G37*
G36*
X1225991Y148055D02*
X1225984D01*
X1225977Y148052D01*
X1225968D01*
X1225940Y148048D01*
X1225908Y148041D01*
X1225868Y148034D01*
X1225829Y148022D01*
X1225790Y148011D01*
X1225753Y147995D01*
X1225748Y147992D01*
X1225736Y147988D01*
X1225718Y147976D01*
X1225695Y147962D01*
X1225667Y147944D01*
X1225637Y147920D01*
X1225604Y147895D01*
X1225570Y147863D01*
X1225565Y147858D01*
X1225556Y147846D01*
X1225540Y147830D01*
X1225519Y147805D01*
X1225496Y147777D01*
X1225470Y147742D01*
X1225445Y147705D01*
X1225422Y147666D01*
Y147664D01*
X1225419Y147661D01*
X1225417Y147654D01*
X1225412Y147647D01*
X1225401Y147624D01*
X1225387Y147592D01*
X1225373Y147555D01*
X1225357Y147511D01*
X1225341Y147462D01*
X1225325Y147407D01*
X1225327Y147409D01*
X1225332Y147411D01*
X1225341Y147416D01*
X1225352Y147423D01*
X1225366Y147432D01*
X1225382Y147442D01*
X1225401Y147451D01*
X1225424Y147462D01*
X1225470Y147481D01*
X1225526Y147499D01*
X1225581Y147511D01*
X1225611Y147516D01*
X1225655D01*
X1225667Y147513D01*
X1225681Y147511D01*
X1225695Y147509D01*
X1225732Y147499D01*
X1225773Y147485D01*
X1225817Y147462D01*
X1225841Y147448D01*
X1225864Y147432D01*
X1225887Y147414D01*
X1225908Y147391D01*
X1225910Y147388D01*
X1225912Y147386D01*
X1225919Y147379D01*
X1225926Y147367D01*
X1225933Y147356D01*
X1225945Y147342D01*
X1225954Y147326D01*
X1225966Y147305D01*
X1225986Y147261D01*
X1226003Y147205D01*
X1226016Y147145D01*
X1226019Y147111D01*
X1226021Y147076D01*
Y147074D01*
Y147067D01*
Y147057D01*
X1226019Y147044D01*
Y147027D01*
X1226014Y147009D01*
X1226012Y146986D01*
X1226007Y146963D01*
X1225993Y146909D01*
X1225972Y146851D01*
X1225959Y146824D01*
X1225945Y146794D01*
X1225926Y146764D01*
X1225905Y146733D01*
X1225903Y146731D01*
X1225898Y146727D01*
X1225891Y146717D01*
X1225880Y146706D01*
X1225866Y146689D01*
X1225850Y146676D01*
X1225831Y146657D01*
X1225808Y146641D01*
X1225785Y146625D01*
X1225757Y146606D01*
X1225727Y146592D01*
X1225695Y146578D01*
X1225660Y146565D01*
X1225625Y146555D01*
X1225586Y146551D01*
X1225544Y146548D01*
X1225531D01*
X1225519Y146551D01*
X1225505D01*
X1225491Y146553D01*
X1225454Y146560D01*
X1225415Y146574D01*
X1225371Y146590D01*
X1225327Y146615D01*
X1225306Y146629D01*
X1225285Y146648D01*
X1225283Y146650D01*
X1225276Y146657D01*
X1225267Y146669D01*
X1225253Y146683D01*
X1225237Y146703D01*
X1225220Y146727D01*
X1225200Y146754D01*
X1225181Y146787D01*
X1225163Y146821D01*
X1225144Y146858D01*
X1225126Y146902D01*
X1225109Y146946D01*
X1225095Y146995D01*
X1225086Y147046D01*
X1225079Y147101D01*
X1225077Y147159D01*
Y147162D01*
Y147168D01*
Y147180D01*
X1225079Y147194D01*
Y147212D01*
X1225082Y147233D01*
X1225084Y147256D01*
X1225086Y147282D01*
X1225095Y147342D01*
X1225109Y147404D01*
X1225130Y147474D01*
X1225156Y147541D01*
Y147543D01*
X1225160Y147550D01*
X1225165Y147560D01*
X1225172Y147571D01*
X1225179Y147587D01*
X1225188Y147606D01*
X1225216Y147650D01*
X1225248Y147698D01*
X1225287Y147752D01*
X1225332Y147807D01*
X1225385Y147860D01*
X1225387Y147863D01*
X1225392Y147867D01*
X1225399Y147874D01*
X1225410Y147883D01*
X1225424Y147895D01*
X1225440Y147907D01*
X1225477Y147937D01*
X1225521Y147969D01*
X1225570Y147999D01*
X1225621Y148027D01*
X1225672Y148050D01*
X1225674D01*
X1225679Y148052D01*
X1225686Y148055D01*
X1225695Y148057D01*
X1225720Y148066D01*
X1225755Y148076D01*
X1225794Y148082D01*
X1225836Y148092D01*
X1225882Y148096D01*
X1225926Y148099D01*
X1225991D01*
Y148055D01*
D02*
G37*
G36*
Y943944D02*
X1225984D01*
X1225977Y943941D01*
X1225968D01*
X1225940Y943937D01*
X1225908Y943930D01*
X1225868Y943923D01*
X1225829Y943911D01*
X1225790Y943900D01*
X1225753Y943883D01*
X1225748Y943881D01*
X1225736Y943876D01*
X1225718Y943865D01*
X1225695Y943851D01*
X1225667Y943833D01*
X1225637Y943809D01*
X1225604Y943784D01*
X1225570Y943752D01*
X1225565Y943747D01*
X1225556Y943735D01*
X1225540Y943719D01*
X1225519Y943694D01*
X1225496Y943666D01*
X1225470Y943631D01*
X1225445Y943594D01*
X1225422Y943555D01*
Y943553D01*
X1225419Y943550D01*
X1225417Y943543D01*
X1225412Y943536D01*
X1225401Y943513D01*
X1225387Y943481D01*
X1225373Y943444D01*
X1225357Y943400D01*
X1225341Y943351D01*
X1225325Y943296D01*
X1225327Y943298D01*
X1225332Y943300D01*
X1225341Y943305D01*
X1225352Y943312D01*
X1225366Y943321D01*
X1225382Y943330D01*
X1225401Y943340D01*
X1225424Y943351D01*
X1225470Y943370D01*
X1225526Y943388D01*
X1225581Y943400D01*
X1225611Y943404D01*
X1225655D01*
X1225667Y943402D01*
X1225681Y943400D01*
X1225695Y943398D01*
X1225732Y943388D01*
X1225773Y943374D01*
X1225817Y943351D01*
X1225841Y943337D01*
X1225864Y943321D01*
X1225887Y943303D01*
X1225908Y943279D01*
X1225910Y943277D01*
X1225912Y943275D01*
X1225919Y943268D01*
X1225926Y943256D01*
X1225933Y943245D01*
X1225945Y943231D01*
X1225954Y943215D01*
X1225966Y943194D01*
X1225986Y943150D01*
X1226003Y943094D01*
X1226016Y943034D01*
X1226019Y943000D01*
X1226021Y942965D01*
Y942962D01*
Y942956D01*
Y942946D01*
X1226019Y942932D01*
Y942916D01*
X1226014Y942898D01*
X1226012Y942875D01*
X1226007Y942851D01*
X1225993Y942798D01*
X1225972Y942740D01*
X1225959Y942713D01*
X1225945Y942682D01*
X1225926Y942652D01*
X1225905Y942622D01*
X1225903Y942620D01*
X1225898Y942615D01*
X1225891Y942606D01*
X1225880Y942595D01*
X1225866Y942578D01*
X1225850Y942564D01*
X1225831Y942546D01*
X1225808Y942530D01*
X1225785Y942514D01*
X1225757Y942495D01*
X1225727Y942481D01*
X1225695Y942467D01*
X1225660Y942453D01*
X1225625Y942444D01*
X1225586Y942440D01*
X1225544Y942437D01*
X1225531D01*
X1225519Y942440D01*
X1225505D01*
X1225491Y942442D01*
X1225454Y942449D01*
X1225415Y942463D01*
X1225371Y942479D01*
X1225327Y942504D01*
X1225306Y942518D01*
X1225285Y942537D01*
X1225283Y942539D01*
X1225276Y942546D01*
X1225267Y942558D01*
X1225253Y942571D01*
X1225237Y942592D01*
X1225220Y942615D01*
X1225200Y942643D01*
X1225181Y942676D01*
X1225163Y942710D01*
X1225144Y942747D01*
X1225126Y942791D01*
X1225109Y942835D01*
X1225095Y942884D01*
X1225086Y942935D01*
X1225079Y942990D01*
X1225077Y943048D01*
Y943050D01*
Y943057D01*
Y943069D01*
X1225079Y943083D01*
Y943101D01*
X1225082Y943122D01*
X1225084Y943145D01*
X1225086Y943171D01*
X1225095Y943231D01*
X1225109Y943293D01*
X1225130Y943363D01*
X1225156Y943430D01*
Y943432D01*
X1225160Y943439D01*
X1225165Y943448D01*
X1225172Y943460D01*
X1225179Y943476D01*
X1225188Y943495D01*
X1225216Y943539D01*
X1225248Y943587D01*
X1225287Y943640D01*
X1225332Y943696D01*
X1225385Y943749D01*
X1225387Y943752D01*
X1225392Y943756D01*
X1225399Y943763D01*
X1225410Y943772D01*
X1225424Y943784D01*
X1225440Y943795D01*
X1225477Y943826D01*
X1225521Y943858D01*
X1225570Y943888D01*
X1225621Y943916D01*
X1225672Y943939D01*
X1225674D01*
X1225679Y943941D01*
X1225686Y943944D01*
X1225695Y943946D01*
X1225720Y943955D01*
X1225755Y943964D01*
X1225794Y943971D01*
X1225836Y943981D01*
X1225882Y943985D01*
X1225926Y943988D01*
X1225991D01*
Y943944D01*
D02*
G37*
G36*
X1327801Y245700D02*
X1327833Y245697D01*
X1327868Y245695D01*
X1327905Y245693D01*
X1327988Y245683D01*
X1328072Y245670D01*
X1328153Y245651D01*
X1328190Y245639D01*
X1328224Y245626D01*
X1328227D01*
X1328231Y245621D01*
X1328241Y245616D01*
X1328254Y245612D01*
X1328268Y245602D01*
X1328287Y245593D01*
X1328326Y245565D01*
X1328370Y245531D01*
X1328419Y245487D01*
X1328465Y245434D01*
X1328486Y245403D01*
X1328507Y245371D01*
X1328509Y245369D01*
X1328511Y245364D01*
X1328516Y245353D01*
X1328523Y245339D01*
X1328532Y245322D01*
X1328541Y245302D01*
X1328551Y245278D01*
X1328560Y245253D01*
X1328569Y245225D01*
X1328578Y245193D01*
X1328588Y245158D01*
X1328597Y245123D01*
X1328609Y245045D01*
X1328613Y245003D01*
Y244961D01*
Y244957D01*
Y244948D01*
X1328611Y244931D01*
Y244911D01*
X1328609Y244883D01*
X1328604Y244853D01*
X1328597Y244818D01*
X1328590Y244779D01*
X1328578Y244739D01*
X1328567Y244698D01*
X1328551Y244654D01*
X1328532Y244610D01*
X1328511Y244566D01*
X1328486Y244524D01*
X1328456Y244480D01*
X1328423Y244441D01*
X1328421Y244439D01*
X1328414Y244432D01*
X1328400Y244420D01*
X1328384Y244404D01*
X1328361Y244388D01*
X1328333Y244367D01*
X1328301Y244346D01*
X1328264Y244325D01*
X1328220Y244302D01*
X1328171Y244281D01*
X1328118Y244260D01*
X1328060Y244244D01*
X1327998Y244228D01*
X1327928Y244216D01*
X1327854Y244209D01*
X1327775Y244207D01*
X1327111D01*
Y244249D01*
X1327183D01*
X1327199Y244251D01*
X1327218Y244256D01*
X1327241Y244263D01*
X1327262Y244274D01*
X1327283Y244288D01*
X1327299Y244309D01*
X1327301Y244311D01*
X1327303Y244316D01*
X1327308Y244327D01*
X1327313Y244341D01*
X1327317Y244364D01*
X1327320Y244392D01*
X1327324Y244427D01*
Y244471D01*
Y245438D01*
Y245440D01*
Y245445D01*
Y245452D01*
Y245461D01*
X1327322Y245484D01*
X1327320Y245512D01*
X1327317Y245542D01*
X1327310Y245570D01*
X1327303Y245595D01*
X1327297Y245605D01*
X1327292Y245612D01*
X1327290Y245614D01*
X1327285Y245619D01*
X1327273Y245628D01*
X1327262Y245637D01*
X1327243Y245644D01*
X1327222Y245653D01*
X1327197Y245658D01*
X1327167Y245660D01*
X1327111D01*
Y245702D01*
X1327773D01*
X1327801Y245700D01*
D02*
G37*
G36*
X1328419Y445491D02*
X1328384D01*
Y445493D01*
X1328382Y445500D01*
X1328377Y445512D01*
X1328370Y445528D01*
X1328363Y445547D01*
X1328356Y445567D01*
X1328333Y445616D01*
X1328305Y445671D01*
X1328273Y445725D01*
X1328231Y445776D01*
X1328210Y445796D01*
X1328187Y445817D01*
X1328185Y445820D01*
X1328183Y445822D01*
X1328176Y445827D01*
X1328164Y445833D01*
X1328153Y445840D01*
X1328139Y445850D01*
X1328104Y445868D01*
X1328060Y445887D01*
X1328007Y445903D01*
X1327949Y445914D01*
X1327919Y445919D01*
X1327861D01*
X1327849Y445917D01*
X1327833Y445914D01*
X1327799Y445910D01*
X1327757Y445901D01*
X1327711Y445887D01*
X1327664Y445868D01*
X1327618Y445843D01*
X1327616D01*
X1327614Y445838D01*
X1327600Y445829D01*
X1327576Y445810D01*
X1327551Y445785D01*
X1327521Y445750D01*
X1327489Y445708D01*
X1327458Y445658D01*
X1327431Y445600D01*
Y445597D01*
X1327428Y445593D01*
X1327424Y445584D01*
X1327421Y445570D01*
X1327414Y445553D01*
X1327410Y445535D01*
X1327403Y445512D01*
X1327398Y445486D01*
X1327391Y445459D01*
X1327384Y445428D01*
X1327380Y445394D01*
X1327375Y445357D01*
X1327370Y445320D01*
X1327366Y445278D01*
X1327364Y445190D01*
Y445188D01*
Y445181D01*
Y445169D01*
Y445155D01*
X1327366Y445139D01*
Y445118D01*
X1327368Y445095D01*
X1327370Y445070D01*
X1327380Y445014D01*
X1327389Y444954D01*
X1327405Y444894D01*
X1327426Y444836D01*
Y444834D01*
X1327428Y444829D01*
X1327433Y444822D01*
X1327438Y444813D01*
X1327454Y444785D01*
X1327475Y444753D01*
X1327502Y444716D01*
X1327535Y444679D01*
X1327574Y444642D01*
X1327620Y444609D01*
X1327623D01*
X1327627Y444607D01*
X1327634Y444602D01*
X1327644Y444598D01*
X1327655Y444591D01*
X1327671Y444584D01*
X1327708Y444570D01*
X1327752Y444556D01*
X1327803Y444542D01*
X1327859Y444533D01*
X1327919Y444531D01*
X1327944D01*
X1327956Y444533D01*
X1327970D01*
X1328005Y444538D01*
X1328046Y444545D01*
X1328088Y444556D01*
X1328132Y444570D01*
X1328173Y444591D01*
X1328176D01*
X1328178Y444593D01*
X1328185Y444598D01*
X1328192Y444605D01*
X1328215Y444621D01*
X1328245Y444646D01*
X1328264Y444660D01*
X1328282Y444679D01*
X1328303Y444700D01*
X1328324Y444723D01*
X1328347Y444748D01*
X1328370Y444776D01*
X1328393Y444806D01*
X1328419Y444841D01*
X1328453Y444818D01*
X1328451Y444815D01*
X1328449Y444808D01*
X1328442Y444799D01*
X1328433Y444785D01*
X1328423Y444769D01*
X1328409Y444748D01*
X1328377Y444707D01*
X1328340Y444658D01*
X1328294Y444609D01*
X1328245Y444563D01*
X1328217Y444542D01*
X1328190Y444524D01*
X1328187D01*
X1328183Y444519D01*
X1328176Y444514D01*
X1328164Y444510D01*
X1328148Y444503D01*
X1328132Y444496D01*
X1328113Y444487D01*
X1328090Y444480D01*
X1328065Y444471D01*
X1328039Y444461D01*
X1327977Y444447D01*
X1327910Y444438D01*
X1327836Y444434D01*
X1327819D01*
X1327801Y444436D01*
X1327775Y444438D01*
X1327743Y444443D01*
X1327708Y444447D01*
X1327669Y444457D01*
X1327625Y444468D01*
X1327579Y444482D01*
X1327532Y444501D01*
X1327486Y444524D01*
X1327438Y444549D01*
X1327391Y444582D01*
X1327345Y444619D01*
X1327301Y444660D01*
X1327262Y444709D01*
X1327259Y444711D01*
X1327255Y444718D01*
X1327248Y444730D01*
X1327239Y444746D01*
X1327227Y444764D01*
X1327213Y444788D01*
X1327202Y444815D01*
X1327188Y444845D01*
X1327172Y444880D01*
X1327160Y444915D01*
X1327146Y444956D01*
X1327135Y444998D01*
X1327125Y445042D01*
X1327118Y445091D01*
X1327114Y445139D01*
X1327111Y445190D01*
Y445193D01*
Y445199D01*
Y445213D01*
X1327114Y445227D01*
Y445248D01*
X1327116Y445271D01*
X1327121Y445297D01*
X1327123Y445327D01*
X1327137Y445389D01*
X1327153Y445459D01*
X1327178Y445530D01*
X1327192Y445567D01*
X1327211Y445602D01*
X1327213Y445604D01*
X1327215Y445611D01*
X1327220Y445621D01*
X1327229Y445632D01*
X1327239Y445648D01*
X1327252Y445667D01*
X1327283Y445708D01*
X1327322Y445755D01*
X1327368Y445803D01*
X1327421Y445852D01*
X1327484Y445894D01*
X1327486Y445896D01*
X1327491Y445898D01*
X1327502Y445903D01*
X1327514Y445910D01*
X1327530Y445917D01*
X1327551Y445926D01*
X1327572Y445935D01*
X1327597Y445947D01*
X1327625Y445956D01*
X1327655Y445965D01*
X1327720Y445982D01*
X1327789Y445993D01*
X1327829Y445998D01*
X1327882D01*
X1327893Y445995D01*
X1327907D01*
X1327926Y445993D01*
X1327965Y445988D01*
X1328014Y445977D01*
X1328067Y445963D01*
X1328125Y445945D01*
X1328183Y445917D01*
X1328185D01*
X1328190Y445912D01*
X1328199Y445910D01*
X1328208Y445905D01*
X1328231Y445898D01*
X1328241Y445894D01*
X1328254D01*
X1328268Y445896D01*
X1328285Y445903D01*
X1328301Y445914D01*
X1328303Y445917D01*
X1328305Y445919D01*
X1328310Y445926D01*
X1328317Y445935D01*
X1328324Y445949D01*
X1328331Y445963D01*
X1328338Y445979D01*
X1328342Y445998D01*
X1328384D01*
X1328419Y445491D01*
D02*
G37*
G36*
X1327817Y646222D02*
X1327859D01*
X1327905Y646217D01*
X1327954Y646213D01*
X1328000Y646206D01*
X1328044Y646196D01*
X1328046D01*
X1328051Y646194D01*
X1328060Y646192D01*
X1328072Y646189D01*
X1328085Y646185D01*
X1328102Y646178D01*
X1328136Y646164D01*
X1328178Y646145D01*
X1328220Y646120D01*
X1328259Y646090D01*
X1328296Y646055D01*
X1328301Y646051D01*
X1328310Y646037D01*
X1328324Y646016D01*
X1328340Y645988D01*
X1328356Y645956D01*
X1328370Y645916D01*
X1328379Y645872D01*
X1328384Y645824D01*
Y645822D01*
Y645819D01*
Y645805D01*
X1328379Y645784D01*
X1328375Y645757D01*
X1328368Y645727D01*
X1328354Y645692D01*
X1328338Y645657D01*
X1328315Y645622D01*
X1328312Y645618D01*
X1328301Y645609D01*
X1328287Y645592D01*
X1328264Y645574D01*
X1328236Y645553D01*
X1328201Y645530D01*
X1328160Y645511D01*
X1328113Y645493D01*
X1328116D01*
X1328120Y645491D01*
X1328127Y645488D01*
X1328139Y645486D01*
X1328167Y645479D01*
X1328201Y645467D01*
X1328238Y645451D01*
X1328275Y645433D01*
X1328312Y645412D01*
X1328345Y645386D01*
X1328347D01*
X1328349Y645382D01*
X1328361Y645368D01*
X1328379Y645347D01*
X1328400Y645317D01*
X1328419Y645282D01*
X1328437Y645238D01*
X1328449Y645192D01*
X1328453Y645167D01*
Y645139D01*
Y645137D01*
Y645134D01*
Y645120D01*
X1328449Y645097D01*
X1328444Y645069D01*
X1328435Y645037D01*
X1328423Y645000D01*
X1328405Y644963D01*
X1328382Y644924D01*
X1328379Y644919D01*
X1328370Y644908D01*
X1328354Y644889D01*
X1328331Y644868D01*
X1328305Y644843D01*
X1328271Y644817D01*
X1328234Y644796D01*
X1328190Y644776D01*
X1328187D01*
X1328185Y644773D01*
X1328176Y644771D01*
X1328167Y644769D01*
X1328153Y644764D01*
X1328139Y644762D01*
X1328118Y644757D01*
X1328097Y644752D01*
X1328072Y644748D01*
X1328044Y644743D01*
X1328014Y644741D01*
X1327979Y644736D01*
X1327942Y644734D01*
X1327903Y644732D01*
X1327861Y644729D01*
X1327111D01*
Y644771D01*
X1327181D01*
X1327197Y644773D01*
X1327215Y644778D01*
X1327239Y644785D01*
X1327259Y644796D01*
X1327280Y644810D01*
X1327299Y644829D01*
X1327301Y644831D01*
X1327303Y644838D01*
X1327308Y644847D01*
X1327313Y644864D01*
X1327317Y644887D01*
X1327320Y644914D01*
X1327324Y644949D01*
Y644993D01*
Y645960D01*
Y645963D01*
Y645967D01*
Y645974D01*
Y645984D01*
X1327322Y646007D01*
X1327320Y646034D01*
X1327317Y646062D01*
X1327310Y646092D01*
X1327303Y646115D01*
X1327297Y646127D01*
X1327292Y646134D01*
X1327290Y646136D01*
X1327285Y646141D01*
X1327273Y646150D01*
X1327259Y646159D01*
X1327243Y646166D01*
X1327220Y646176D01*
X1327195Y646180D01*
X1327165Y646182D01*
X1327111D01*
Y646224D01*
X1327801D01*
X1327817Y646222D01*
D02*
G37*
G36*
X1328279Y845114D02*
Y845112D01*
X1328281Y845107D01*
X1328286Y845100D01*
X1328290Y845091D01*
X1328302Y845063D01*
X1328316Y845033D01*
X1328334Y845001D01*
X1328353Y844968D01*
X1328374Y844940D01*
X1328383Y844929D01*
X1328392Y844920D01*
X1328394Y844917D01*
X1328401Y844913D01*
X1328413Y844906D01*
X1328429Y844896D01*
X1328450Y844890D01*
X1328473Y844880D01*
X1328501Y844876D01*
X1328533Y844871D01*
Y844829D01*
X1327945D01*
Y844871D01*
X1327959D01*
X1327975Y844873D01*
X1327994Y844876D01*
X1328033Y844885D01*
X1328050Y844890D01*
X1328063Y844899D01*
X1328066Y844901D01*
X1328068Y844903D01*
X1328080Y844917D01*
X1328091Y844936D01*
X1328094Y844947D01*
X1328096Y844961D01*
Y844964D01*
Y844970D01*
X1328094Y844982D01*
X1328091Y844998D01*
X1328084Y845019D01*
X1328077Y845047D01*
X1328066Y845077D01*
X1328052Y845114D01*
X1327964Y845329D01*
X1327385D01*
X1327286Y845093D01*
X1327284Y845089D01*
X1327279Y845079D01*
X1327274Y845063D01*
X1327267Y845045D01*
X1327254Y845001D01*
X1327249Y844982D01*
X1327247Y844964D01*
Y844961D01*
Y844959D01*
X1327251Y844943D01*
X1327260Y844924D01*
X1327267Y844913D01*
X1327279Y844903D01*
X1327281D01*
X1327286Y844899D01*
X1327295Y844894D01*
X1327309Y844890D01*
X1327328Y844885D01*
X1327353Y844878D01*
X1327383Y844873D01*
X1327420Y844871D01*
Y844829D01*
X1326948D01*
Y844871D01*
X1326953D01*
X1326964Y844873D01*
X1326980Y844878D01*
X1326999Y844883D01*
X1327020Y844890D01*
X1327038Y844896D01*
X1327057Y844903D01*
X1327068Y844913D01*
X1327071Y844915D01*
X1327078Y844924D01*
X1327089Y844938D01*
X1327105Y844959D01*
X1327124Y844989D01*
X1327145Y845026D01*
X1327156Y845047D01*
X1327168Y845072D01*
X1327182Y845098D01*
X1327193Y845128D01*
X1327721Y846359D01*
X1327758D01*
X1328279Y845114D01*
D02*
G37*
G36*
X1185702Y520442D02*
X1185660D01*
Y520445D01*
X1185658Y520449D01*
X1185653Y520459D01*
X1185649Y520470D01*
X1185644Y520486D01*
X1185637Y520503D01*
X1185619Y520540D01*
X1185598Y520583D01*
X1185572Y520628D01*
X1185542Y520669D01*
X1185510Y520706D01*
X1185507Y520708D01*
X1185503Y520711D01*
X1185496Y520718D01*
X1185487Y520727D01*
X1185473Y520736D01*
X1185457Y520748D01*
X1185438Y520759D01*
X1185417Y520771D01*
X1185394Y520783D01*
X1185366Y520794D01*
X1185308Y520815D01*
X1185241Y520831D01*
X1185207Y520833D01*
X1185167Y520836D01*
X1185156D01*
X1185140Y520833D01*
X1185121D01*
X1185098Y520829D01*
X1185070Y520824D01*
X1185040Y520817D01*
X1185008Y520808D01*
X1184973Y520796D01*
X1184936Y520780D01*
X1184901Y520762D01*
X1184864Y520741D01*
X1184829Y520713D01*
X1184795Y520683D01*
X1184765Y520648D01*
X1184735Y520609D01*
X1184732Y520607D01*
X1184730Y520600D01*
X1184723Y520590D01*
X1184716Y520574D01*
X1184707Y520556D01*
X1184695Y520535D01*
X1184684Y520509D01*
X1184674Y520479D01*
X1184663Y520449D01*
X1184651Y520412D01*
X1184640Y520375D01*
X1184630Y520336D01*
X1184624Y520294D01*
X1184617Y520248D01*
X1184614Y520202D01*
X1184612Y520153D01*
Y520151D01*
Y520144D01*
Y520132D01*
X1184614Y520116D01*
Y520098D01*
X1184617Y520077D01*
X1184619Y520051D01*
X1184621Y520026D01*
X1184633Y519966D01*
X1184647Y519899D01*
X1184665Y519831D01*
X1184693Y519764D01*
Y519762D01*
X1184698Y519757D01*
X1184702Y519748D01*
X1184709Y519737D01*
X1184716Y519720D01*
X1184725Y519704D01*
X1184751Y519667D01*
X1184783Y519623D01*
X1184818Y519582D01*
X1184862Y519540D01*
X1184908Y519505D01*
X1184911D01*
X1184915Y519503D01*
X1184922Y519498D01*
X1184931Y519494D01*
X1184943Y519487D01*
X1184959Y519480D01*
X1184994Y519466D01*
X1185035Y519450D01*
X1185082Y519438D01*
X1185130Y519429D01*
X1185184Y519424D01*
X1185197D01*
X1185214Y519427D01*
X1185234D01*
X1185260Y519429D01*
X1185285Y519433D01*
X1185343Y519445D01*
X1185348D01*
X1185357Y519450D01*
X1185371Y519454D01*
X1185392Y519461D01*
X1185415Y519468D01*
X1185440Y519480D01*
X1185494Y519505D01*
Y519943D01*
Y519945D01*
Y519947D01*
Y519961D01*
Y519980D01*
X1185491Y520003D01*
X1185489Y520028D01*
X1185487Y520051D01*
X1185482Y520072D01*
X1185475Y520088D01*
Y520091D01*
X1185473Y520095D01*
X1185464Y520109D01*
X1185445Y520125D01*
X1185422Y520142D01*
X1185420D01*
X1185415Y520144D01*
X1185406Y520148D01*
X1185394Y520151D01*
X1185376Y520155D01*
X1185355Y520158D01*
X1185329Y520160D01*
X1185297D01*
Y520202D01*
X1185875D01*
Y520160D01*
X1185834D01*
X1185820Y520158D01*
X1185801Y520153D01*
X1185781Y520146D01*
X1185762Y520135D01*
X1185744Y520121D01*
X1185730Y520102D01*
Y520100D01*
X1185727Y520093D01*
X1185723Y520084D01*
X1185720Y520068D01*
X1185716Y520044D01*
X1185711Y520017D01*
X1185709Y519984D01*
Y519943D01*
Y519482D01*
X1185707D01*
X1185704Y519480D01*
X1185697Y519475D01*
X1185688Y519471D01*
X1185662Y519459D01*
X1185630Y519443D01*
X1185591Y519427D01*
X1185549Y519410D01*
X1185503Y519396D01*
X1185457Y519383D01*
X1185454D01*
X1185452Y519380D01*
X1185445D01*
X1185436Y519378D01*
X1185424Y519376D01*
X1185410Y519373D01*
X1185376Y519366D01*
X1185336Y519359D01*
X1185290Y519355D01*
X1185239Y519352D01*
X1185184Y519350D01*
X1185165D01*
X1185142Y519352D01*
X1185112Y519355D01*
X1185077Y519359D01*
X1185035Y519364D01*
X1184989Y519373D01*
X1184938Y519385D01*
X1184887Y519399D01*
X1184834Y519417D01*
X1184779Y519440D01*
X1184723Y519468D01*
X1184670Y519498D01*
X1184619Y519535D01*
X1184570Y519579D01*
X1184526Y519628D01*
X1184524Y519630D01*
X1184519Y519637D01*
X1184510Y519649D01*
X1184501Y519665D01*
X1184487Y519683D01*
X1184473Y519709D01*
X1184459Y519734D01*
X1184443Y519767D01*
X1184427Y519799D01*
X1184413Y519836D01*
X1184399Y519875D01*
X1184385Y519917D01*
X1184376Y519961D01*
X1184367Y520010D01*
X1184362Y520056D01*
X1184360Y520107D01*
Y520109D01*
Y520116D01*
Y520125D01*
X1184362Y520142D01*
Y520158D01*
X1184364Y520179D01*
X1184367Y520204D01*
X1184371Y520229D01*
X1184383Y520287D01*
X1184399Y520352D01*
X1184422Y520419D01*
X1184452Y520486D01*
X1184455Y520489D01*
X1184457Y520496D01*
X1184464Y520507D01*
X1184473Y520521D01*
X1184485Y520540D01*
X1184499Y520560D01*
X1184515Y520583D01*
X1184533Y520609D01*
X1184577Y520662D01*
X1184630Y520718D01*
X1184691Y520771D01*
X1184725Y520794D01*
X1184760Y520817D01*
X1184762Y520820D01*
X1184767Y520822D01*
X1184776Y520826D01*
X1184790Y520833D01*
X1184804Y520840D01*
X1184825Y520847D01*
X1184846Y520857D01*
X1184871Y520866D01*
X1184897Y520875D01*
X1184927Y520884D01*
X1184991Y520898D01*
X1185066Y520910D01*
X1185146Y520914D01*
X1185177D01*
X1185197Y520912D01*
X1185218D01*
X1185244Y520910D01*
X1185295Y520901D01*
X1185297D01*
X1185306Y520898D01*
X1185322Y520894D01*
X1185343Y520889D01*
X1185371Y520880D01*
X1185403Y520870D01*
X1185440Y520859D01*
X1185484Y520843D01*
X1185487D01*
X1185494Y520838D01*
X1185505Y520836D01*
X1185517Y520831D01*
X1185545Y520824D01*
X1185556Y520820D01*
X1185570D01*
X1185577Y520822D01*
X1185589Y520826D01*
X1185600Y520838D01*
X1185602Y520843D01*
X1185605Y520847D01*
X1185609Y520854D01*
X1185612Y520866D01*
X1185616Y520877D01*
X1185619Y520894D01*
X1185621Y520914D01*
X1185662D01*
X1185702Y520442D01*
D02*
G37*
G36*
X1188272Y520877D02*
X1188304Y520875D01*
X1188339Y520873D01*
X1188376Y520870D01*
X1188459Y520861D01*
X1188542Y520847D01*
X1188623Y520829D01*
X1188660Y520817D01*
X1188695Y520803D01*
X1188697D01*
X1188702Y520799D01*
X1188711Y520794D01*
X1188725Y520789D01*
X1188739Y520780D01*
X1188757Y520771D01*
X1188797Y520743D01*
X1188841Y520708D01*
X1188889Y520664D01*
X1188936Y520611D01*
X1188956Y520581D01*
X1188977Y520549D01*
X1188980Y520547D01*
X1188982Y520542D01*
X1188987Y520530D01*
X1188994Y520516D01*
X1189003Y520500D01*
X1189012Y520479D01*
X1189021Y520456D01*
X1189031Y520431D01*
X1189040Y520403D01*
X1189049Y520371D01*
X1189058Y520336D01*
X1189068Y520301D01*
X1189079Y520223D01*
X1189084Y520181D01*
Y520139D01*
Y520135D01*
Y520125D01*
X1189081Y520109D01*
Y520088D01*
X1189079Y520061D01*
X1189074Y520030D01*
X1189068Y519996D01*
X1189061Y519956D01*
X1189049Y519917D01*
X1189037Y519875D01*
X1189021Y519831D01*
X1189003Y519788D01*
X1188982Y519744D01*
X1188956Y519702D01*
X1188926Y519658D01*
X1188894Y519619D01*
X1188892Y519616D01*
X1188885Y519609D01*
X1188871Y519598D01*
X1188855Y519582D01*
X1188832Y519565D01*
X1188804Y519545D01*
X1188771Y519524D01*
X1188734Y519503D01*
X1188690Y519480D01*
X1188642Y519459D01*
X1188589Y519438D01*
X1188531Y519422D01*
X1188468Y519406D01*
X1188399Y519394D01*
X1188325Y519387D01*
X1188246Y519385D01*
X1187582D01*
Y519427D01*
X1187654D01*
X1187670Y519429D01*
X1187688Y519433D01*
X1187712Y519440D01*
X1187732Y519452D01*
X1187753Y519466D01*
X1187769Y519487D01*
X1187772Y519489D01*
X1187774Y519494D01*
X1187779Y519505D01*
X1187783Y519519D01*
X1187788Y519542D01*
X1187790Y519570D01*
X1187795Y519605D01*
Y519649D01*
Y520616D01*
Y520618D01*
Y520623D01*
Y520630D01*
Y520639D01*
X1187793Y520662D01*
X1187790Y520690D01*
X1187788Y520720D01*
X1187781Y520748D01*
X1187774Y520773D01*
X1187767Y520783D01*
X1187762Y520789D01*
X1187760Y520792D01*
X1187755Y520796D01*
X1187744Y520806D01*
X1187732Y520815D01*
X1187714Y520822D01*
X1187693Y520831D01*
X1187668Y520836D01*
X1187638Y520838D01*
X1187531D01*
X1187514Y520836D01*
X1187493Y520831D01*
X1187470Y520824D01*
X1187447Y520813D01*
X1187426Y520799D01*
X1187410Y520780D01*
Y520778D01*
X1187406Y520773D01*
X1187403Y520762D01*
X1187399Y520748D01*
X1187394Y520727D01*
X1187392Y520699D01*
X1187387Y520664D01*
Y520621D01*
Y519362D01*
X1187345D01*
X1186362Y520563D01*
Y519644D01*
Y519642D01*
Y519637D01*
Y519630D01*
Y519621D01*
X1186364Y519598D01*
X1186367Y519570D01*
X1186369Y519540D01*
X1186374Y519512D01*
X1186380Y519489D01*
X1186385Y519477D01*
X1186390Y519471D01*
X1186392Y519468D01*
X1186399Y519464D01*
X1186408Y519457D01*
X1186422Y519450D01*
X1186441Y519440D01*
X1186464Y519433D01*
X1186492Y519429D01*
X1186522Y519427D01*
X1186575D01*
Y519385D01*
X1186052D01*
Y519427D01*
X1186119D01*
X1186135Y519429D01*
X1186156Y519433D01*
X1186179Y519440D01*
X1186202Y519450D01*
X1186223Y519464D01*
X1186239Y519482D01*
X1186242Y519484D01*
X1186244Y519489D01*
X1186249Y519501D01*
X1186253Y519514D01*
X1186258Y519538D01*
X1186260Y519565D01*
X1186265Y519600D01*
Y519644D01*
Y520683D01*
X1186262Y520685D01*
X1186253Y520695D01*
X1186242Y520708D01*
X1186228Y520722D01*
X1186193Y520755D01*
X1186177Y520769D01*
X1186163Y520780D01*
X1186161Y520783D01*
X1186156Y520785D01*
X1186149Y520789D01*
X1186140Y520796D01*
X1186126Y520803D01*
X1186107Y520810D01*
X1186089Y520820D01*
X1186066Y520826D01*
X1186063D01*
X1186059Y520829D01*
X1186052Y520831D01*
X1186043Y520833D01*
X1186029D01*
X1186013Y520836D01*
X1185994Y520838D01*
X1185971D01*
Y520880D01*
X1186374D01*
X1187290Y519762D01*
Y520621D01*
Y520623D01*
Y520628D01*
Y520634D01*
Y520641D01*
X1187287Y520664D01*
X1187285Y520692D01*
X1187283Y520722D01*
X1187276Y520750D01*
X1187269Y520776D01*
X1187262Y520785D01*
X1187257Y520792D01*
X1187255Y520794D01*
X1187250Y520799D01*
X1187239Y520806D01*
X1187225Y520815D01*
X1187207Y520824D01*
X1187186Y520831D01*
X1187158Y520836D01*
X1187128Y520838D01*
X1187077D01*
Y520880D01*
X1188244D01*
X1188272Y520877D01*
D02*
G37*
G36*
X593036Y942839D02*
X593050Y942837D01*
X593069Y942835D01*
X593108Y942828D01*
X593152Y942814D01*
X593198Y942793D01*
X593219Y942779D01*
X593242Y942763D01*
X593263Y942744D01*
X593282Y942724D01*
X593284Y942719D01*
X593293Y942707D01*
X593305Y942691D01*
X593319Y942668D01*
X593332Y942640D01*
X593344Y942608D01*
X593353Y942575D01*
X593356Y942538D01*
Y942536D01*
Y942531D01*
X593353Y942522D01*
Y942511D01*
X593349Y942494D01*
X593344Y942478D01*
X593339Y942457D01*
X593330Y942434D01*
X593319Y942411D01*
X593307Y942383D01*
X593289Y942356D01*
X593270Y942326D01*
X593247Y942295D01*
X593219Y942265D01*
X593189Y942233D01*
X593152Y942201D01*
X593154D01*
X593159Y942198D01*
X593166Y942196D01*
X593175Y942191D01*
X593198Y942177D01*
X593228Y942161D01*
X593263Y942140D01*
X593295Y942113D01*
X593330Y942083D01*
X593358Y942046D01*
X593360Y942041D01*
X593370Y942027D01*
X593381Y942006D01*
X593395Y941978D01*
X593406Y941944D01*
X593418Y941904D01*
X593427Y941860D01*
X593430Y941812D01*
Y941810D01*
Y941803D01*
Y941793D01*
X593427Y941779D01*
X593425Y941763D01*
X593423Y941742D01*
X593420Y941722D01*
X593413Y941696D01*
X593400Y941643D01*
X593376Y941587D01*
X593363Y941560D01*
X593346Y941530D01*
X593328Y941502D01*
X593305Y941474D01*
X593302Y941472D01*
X593298Y941467D01*
X593289Y941458D01*
X593275Y941446D01*
X593258Y941432D01*
X593238Y941416D01*
X593214Y941400D01*
X593187Y941384D01*
X593154Y941365D01*
X593120Y941349D01*
X593080Y941333D01*
X593039Y941319D01*
X592995Y941307D01*
X592946Y941298D01*
X592893Y941294D01*
X592837Y941291D01*
X592814D01*
X592786Y941294D01*
X592756Y941296D01*
X592722Y941300D01*
X592687Y941307D01*
X592657Y941317D01*
X592631Y941328D01*
X592629Y941331D01*
X592622Y941335D01*
X592615Y941342D01*
X592606Y941351D01*
X592594Y941365D01*
X592587Y941379D01*
X592580Y941393D01*
X592578Y941409D01*
Y941412D01*
Y941414D01*
X592580Y941428D01*
X592590Y941446D01*
X592594Y941456D01*
X592604Y941465D01*
X592606Y941467D01*
X592608Y941469D01*
X592622Y941479D01*
X592641Y941486D01*
X592652Y941490D01*
X592685D01*
X592701Y941486D01*
X592722Y941481D01*
X592726Y941479D01*
X592731Y941476D01*
X592740Y941474D01*
X592752Y941467D01*
X592766Y941460D01*
X592784Y941451D01*
X592807Y941439D01*
X592810Y941437D01*
X592819Y941435D01*
X592830Y941428D01*
X592844Y941421D01*
X592874Y941407D01*
X592888Y941402D01*
X592900Y941398D01*
X592902D01*
X592907Y941395D01*
X592914Y941393D01*
X592925D01*
X592953Y941388D01*
X592985Y941386D01*
X592990D01*
X593004Y941388D01*
X593025Y941391D01*
X593052Y941398D01*
X593083Y941407D01*
X593117Y941423D01*
X593150Y941444D01*
X593182Y941472D01*
X593187Y941476D01*
X593196Y941488D01*
X593210Y941506D01*
X593226Y941530D01*
X593240Y941560D01*
X593254Y941597D01*
X593263Y941636D01*
X593268Y941678D01*
Y941682D01*
Y941694D01*
X593265Y941710D01*
X593263Y941733D01*
X593258Y941759D01*
X593251Y941786D01*
X593242Y941819D01*
X593228Y941849D01*
X593226Y941851D01*
X593224Y941858D01*
X593217Y941870D01*
X593210Y941884D01*
X593189Y941914D01*
X593177Y941930D01*
X593166Y941941D01*
X593164Y941944D01*
X593157Y941948D01*
X593145Y941958D01*
X593131Y941969D01*
X593113Y941981D01*
X593089Y941995D01*
X593064Y942009D01*
X593034Y942022D01*
X593029Y942025D01*
X593020Y942029D01*
X593004Y942034D01*
X592983Y942041D01*
X592958Y942048D01*
X592928Y942055D01*
X592897Y942057D01*
X592865Y942059D01*
X592830D01*
Y942092D01*
X592835D01*
X592847Y942094D01*
X592863Y942096D01*
X592886Y942103D01*
X592911Y942110D01*
X592941Y942122D01*
X592971Y942136D01*
X593004Y942152D01*
X593009Y942154D01*
X593018Y942161D01*
X593034Y942173D01*
X593052Y942187D01*
X593073Y942205D01*
X593094Y942228D01*
X593115Y942252D01*
X593131Y942277D01*
X593133Y942279D01*
X593138Y942291D01*
X593145Y942305D01*
X593152Y942326D01*
X593159Y942349D01*
X593166Y942376D01*
X593170Y942404D01*
X593173Y942437D01*
Y942439D01*
Y942441D01*
Y942455D01*
X593168Y942476D01*
X593164Y942501D01*
X593154Y942531D01*
X593143Y942562D01*
X593124Y942592D01*
X593101Y942619D01*
X593099Y942622D01*
X593087Y942631D01*
X593073Y942643D01*
X593052Y942656D01*
X593027Y942668D01*
X592995Y942680D01*
X592962Y942689D01*
X592923Y942691D01*
X592907D01*
X592895Y942689D01*
X592879Y942687D01*
X592863Y942682D01*
X592823Y942668D01*
X592800Y942659D01*
X592777Y942647D01*
X592754Y942631D01*
X592731Y942615D01*
X592705Y942594D01*
X592682Y942568D01*
X592659Y942541D01*
X592636Y942508D01*
X592601Y942527D01*
Y942529D01*
X592604Y942534D01*
X592608Y942541D01*
X592613Y942552D01*
X592627Y942578D01*
X592645Y942612D01*
X592668Y942649D01*
X592696Y942689D01*
X592726Y942726D01*
X592761Y942758D01*
X592763D01*
X592766Y942763D01*
X592779Y942772D01*
X592800Y942784D01*
X592828Y942800D01*
X592865Y942816D01*
X592907Y942828D01*
X592953Y942837D01*
X593006Y942842D01*
X593022D01*
X593036Y942839D01*
D02*
G37*
G36*
X801646Y941867D02*
X801847D01*
Y941710D01*
X801646D01*
Y941317D01*
X801463D01*
Y941710D01*
X800831D01*
Y941851D01*
X801523Y942842D01*
X801646D01*
Y941867D01*
D02*
G37*
G36*
X1010027Y146735D02*
X1009576D01*
X1009479Y146534D01*
X1009481D01*
X1009493Y146532D01*
X1009507Y146529D01*
X1009528Y146525D01*
X1009553Y146518D01*
X1009581Y146511D01*
X1009613Y146501D01*
X1009648Y146490D01*
X1009722Y146462D01*
X1009761Y146444D01*
X1009798Y146423D01*
X1009838Y146402D01*
X1009875Y146376D01*
X1009912Y146346D01*
X1009944Y146316D01*
X1009946Y146314D01*
X1009951Y146309D01*
X1009958Y146300D01*
X1009967Y146291D01*
X1009979Y146275D01*
X1009990Y146258D01*
X1010004Y146238D01*
X1010018Y146217D01*
X1010032Y146191D01*
X1010046Y146164D01*
X1010069Y146103D01*
X1010078Y146071D01*
X1010085Y146039D01*
X1010090Y146002D01*
X1010092Y145965D01*
Y145962D01*
Y145960D01*
Y145953D01*
Y145944D01*
X1010090Y145923D01*
X1010085Y145893D01*
X1010081Y145858D01*
X1010071Y145821D01*
X1010060Y145784D01*
X1010044Y145745D01*
X1010041Y145740D01*
X1010034Y145729D01*
X1010025Y145710D01*
X1010011Y145687D01*
X1009993Y145659D01*
X1009972Y145631D01*
X1009946Y145601D01*
X1009921Y145574D01*
X1009919Y145571D01*
X1009909Y145562D01*
X1009893Y145550D01*
X1009875Y145534D01*
X1009852Y145516D01*
X1009824Y145497D01*
X1009794Y145479D01*
X1009761Y145462D01*
X1009759D01*
X1009757Y145460D01*
X1009750Y145458D01*
X1009740Y145453D01*
X1009715Y145444D01*
X1009680Y145432D01*
X1009641Y145421D01*
X1009597Y145412D01*
X1009551Y145405D01*
X1009500Y145402D01*
X1009479D01*
X1009454Y145405D01*
X1009426Y145407D01*
X1009393Y145414D01*
X1009361Y145421D01*
X1009331Y145432D01*
X1009305Y145446D01*
X1009303Y145449D01*
X1009296Y145456D01*
X1009287Y145465D01*
X1009275Y145476D01*
X1009264Y145493D01*
X1009255Y145509D01*
X1009248Y145527D01*
X1009245Y145548D01*
Y145550D01*
Y145553D01*
X1009248Y145567D01*
X1009255Y145583D01*
X1009268Y145601D01*
X1009271D01*
X1009273Y145606D01*
X1009287Y145613D01*
X1009305Y145620D01*
X1009333Y145624D01*
X1009352D01*
X1009368Y145620D01*
X1009384Y145615D01*
X1009389Y145613D01*
X1009393Y145611D01*
X1009400Y145608D01*
X1009412Y145601D01*
X1009423Y145594D01*
X1009440Y145583D01*
X1009458Y145571D01*
X1009463Y145569D01*
X1009472Y145562D01*
X1009488Y145553D01*
X1009509Y145543D01*
X1009535Y145532D01*
X1009562Y145523D01*
X1009592Y145518D01*
X1009625Y145516D01*
X1009636D01*
X1009646Y145518D01*
X1009671Y145520D01*
X1009701Y145527D01*
X1009736Y145539D01*
X1009773Y145557D01*
X1009812Y145581D01*
X1009849Y145613D01*
X1009852Y145615D01*
X1009854Y145618D01*
X1009865Y145631D01*
X1009882Y145650D01*
X1009900Y145680D01*
X1009916Y145712D01*
X1009933Y145754D01*
X1009944Y145798D01*
X1009949Y145823D01*
Y145849D01*
Y145851D01*
Y145856D01*
Y145863D01*
X1009946Y145872D01*
X1009944Y145898D01*
X1009937Y145932D01*
X1009928Y145972D01*
X1009912Y146013D01*
X1009891Y146057D01*
X1009861Y146101D01*
Y146103D01*
X1009856Y146106D01*
X1009845Y146120D01*
X1009826Y146143D01*
X1009798Y146168D01*
X1009764Y146198D01*
X1009722Y146228D01*
X1009673Y146258D01*
X1009620Y146284D01*
X1009618D01*
X1009616Y146286D01*
X1009609Y146289D01*
X1009599Y146291D01*
X1009585Y146296D01*
X1009572Y146300D01*
X1009553Y146305D01*
X1009535Y146309D01*
X1009511Y146314D01*
X1009488Y146319D01*
X1009433Y146328D01*
X1009368Y146337D01*
X1009294Y146342D01*
X1009578Y146923D01*
X1010115D01*
X1010027Y146735D01*
D02*
G37*
G36*
Y942624D02*
X1009576D01*
X1009479Y942423D01*
X1009481D01*
X1009493Y942420D01*
X1009507Y942418D01*
X1009528Y942413D01*
X1009553Y942407D01*
X1009581Y942400D01*
X1009613Y942390D01*
X1009648Y942379D01*
X1009722Y942351D01*
X1009761Y942333D01*
X1009798Y942312D01*
X1009838Y942291D01*
X1009875Y942265D01*
X1009912Y942235D01*
X1009944Y942205D01*
X1009946Y942203D01*
X1009951Y942198D01*
X1009958Y942189D01*
X1009967Y942180D01*
X1009979Y942164D01*
X1009990Y942147D01*
X1010004Y942127D01*
X1010018Y942106D01*
X1010032Y942080D01*
X1010046Y942052D01*
X1010069Y941992D01*
X1010078Y941960D01*
X1010085Y941928D01*
X1010090Y941891D01*
X1010092Y941854D01*
Y941851D01*
Y941849D01*
Y941842D01*
Y941833D01*
X1010090Y941812D01*
X1010085Y941782D01*
X1010081Y941747D01*
X1010071Y941710D01*
X1010060Y941673D01*
X1010044Y941634D01*
X1010041Y941629D01*
X1010034Y941617D01*
X1010025Y941599D01*
X1010011Y941576D01*
X1009993Y941548D01*
X1009972Y941520D01*
X1009946Y941490D01*
X1009921Y941462D01*
X1009919Y941460D01*
X1009909Y941451D01*
X1009893Y941439D01*
X1009875Y941423D01*
X1009852Y941405D01*
X1009824Y941386D01*
X1009794Y941368D01*
X1009761Y941351D01*
X1009759D01*
X1009757Y941349D01*
X1009750Y941347D01*
X1009740Y941342D01*
X1009715Y941333D01*
X1009680Y941321D01*
X1009641Y941310D01*
X1009597Y941300D01*
X1009551Y941294D01*
X1009500Y941291D01*
X1009479D01*
X1009454Y941294D01*
X1009426Y941296D01*
X1009393Y941303D01*
X1009361Y941310D01*
X1009331Y941321D01*
X1009305Y941335D01*
X1009303Y941337D01*
X1009296Y941344D01*
X1009287Y941354D01*
X1009275Y941365D01*
X1009264Y941381D01*
X1009255Y941398D01*
X1009248Y941416D01*
X1009245Y941437D01*
Y941439D01*
Y941442D01*
X1009248Y941456D01*
X1009255Y941472D01*
X1009268Y941490D01*
X1009271D01*
X1009273Y941495D01*
X1009287Y941502D01*
X1009305Y941509D01*
X1009333Y941513D01*
X1009352D01*
X1009368Y941509D01*
X1009384Y941504D01*
X1009389Y941502D01*
X1009393Y941499D01*
X1009400Y941497D01*
X1009412Y941490D01*
X1009423Y941483D01*
X1009440Y941472D01*
X1009458Y941460D01*
X1009463Y941458D01*
X1009472Y941451D01*
X1009488Y941442D01*
X1009509Y941432D01*
X1009535Y941421D01*
X1009562Y941412D01*
X1009592Y941407D01*
X1009625Y941405D01*
X1009636D01*
X1009646Y941407D01*
X1009671Y941409D01*
X1009701Y941416D01*
X1009736Y941428D01*
X1009773Y941446D01*
X1009812Y941469D01*
X1009849Y941502D01*
X1009852Y941504D01*
X1009854Y941506D01*
X1009865Y941520D01*
X1009882Y941539D01*
X1009900Y941569D01*
X1009916Y941601D01*
X1009933Y941643D01*
X1009944Y941687D01*
X1009949Y941712D01*
Y941738D01*
Y941740D01*
Y941745D01*
Y941752D01*
X1009946Y941761D01*
X1009944Y941786D01*
X1009937Y941821D01*
X1009928Y941860D01*
X1009912Y941902D01*
X1009891Y941946D01*
X1009861Y941990D01*
Y941992D01*
X1009856Y941995D01*
X1009845Y942009D01*
X1009826Y942032D01*
X1009798Y942057D01*
X1009764Y942087D01*
X1009722Y942117D01*
X1009673Y942147D01*
X1009620Y942173D01*
X1009618D01*
X1009616Y942175D01*
X1009609Y942177D01*
X1009599Y942180D01*
X1009585Y942184D01*
X1009572Y942189D01*
X1009553Y942194D01*
X1009535Y942198D01*
X1009511Y942203D01*
X1009488Y942208D01*
X1009433Y942217D01*
X1009368Y942226D01*
X1009294Y942231D01*
X1009578Y942811D01*
X1010115D01*
X1010027Y942624D01*
D02*
G37*
G36*
X1218412Y146909D02*
X1218406D01*
X1218399Y146906D01*
X1218389D01*
X1218362Y146902D01*
X1218329Y146895D01*
X1218290Y146888D01*
X1218250Y146876D01*
X1218211Y146865D01*
X1218174Y146849D01*
X1218169Y146846D01*
X1218158Y146842D01*
X1218139Y146830D01*
X1218116Y146816D01*
X1218089Y146798D01*
X1218058Y146774D01*
X1218026Y146749D01*
X1217991Y146717D01*
X1217987Y146712D01*
X1217977Y146700D01*
X1217961Y146684D01*
X1217940Y146659D01*
X1217917Y146631D01*
X1217892Y146596D01*
X1217866Y146559D01*
X1217843Y146520D01*
Y146518D01*
X1217841Y146515D01*
X1217839Y146508D01*
X1217834Y146501D01*
X1217822Y146478D01*
X1217808Y146446D01*
X1217795Y146409D01*
X1217778Y146365D01*
X1217762Y146316D01*
X1217746Y146261D01*
X1217748Y146263D01*
X1217753Y146265D01*
X1217762Y146270D01*
X1217774Y146277D01*
X1217788Y146286D01*
X1217804Y146296D01*
X1217822Y146305D01*
X1217846Y146316D01*
X1217892Y146335D01*
X1217947Y146353D01*
X1218003Y146365D01*
X1218033Y146370D01*
X1218077D01*
X1218089Y146367D01*
X1218102Y146365D01*
X1218116Y146363D01*
X1218153Y146353D01*
X1218195Y146339D01*
X1218239Y146316D01*
X1218262Y146302D01*
X1218285Y146286D01*
X1218308Y146268D01*
X1218329Y146245D01*
X1218331Y146242D01*
X1218334Y146240D01*
X1218341Y146233D01*
X1218348Y146221D01*
X1218355Y146210D01*
X1218366Y146196D01*
X1218375Y146180D01*
X1218387Y146159D01*
X1218408Y146115D01*
X1218424Y146059D01*
X1218438Y145999D01*
X1218440Y145965D01*
X1218443Y145930D01*
Y145928D01*
Y145921D01*
Y145911D01*
X1218440Y145898D01*
Y145881D01*
X1218436Y145863D01*
X1218433Y145840D01*
X1218429Y145817D01*
X1218415Y145763D01*
X1218394Y145705D01*
X1218380Y145678D01*
X1218366Y145648D01*
X1218348Y145618D01*
X1218327Y145587D01*
X1218324Y145585D01*
X1218320Y145581D01*
X1218313Y145571D01*
X1218301Y145560D01*
X1218287Y145543D01*
X1218271Y145530D01*
X1218253Y145511D01*
X1218230Y145495D01*
X1218207Y145479D01*
X1218179Y145460D01*
X1218149Y145446D01*
X1218116Y145432D01*
X1218082Y145419D01*
X1218047Y145409D01*
X1218007Y145405D01*
X1217966Y145402D01*
X1217952D01*
X1217940Y145405D01*
X1217927D01*
X1217913Y145407D01*
X1217876Y145414D01*
X1217836Y145428D01*
X1217792Y145444D01*
X1217748Y145469D01*
X1217728Y145483D01*
X1217707Y145502D01*
X1217704Y145504D01*
X1217697Y145511D01*
X1217688Y145523D01*
X1217674Y145537D01*
X1217658Y145557D01*
X1217642Y145581D01*
X1217621Y145608D01*
X1217603Y145641D01*
X1217584Y145675D01*
X1217566Y145712D01*
X1217547Y145756D01*
X1217531Y145800D01*
X1217517Y145849D01*
X1217508Y145900D01*
X1217501Y145955D01*
X1217498Y146013D01*
Y146016D01*
Y146022D01*
Y146034D01*
X1217501Y146048D01*
Y146066D01*
X1217503Y146087D01*
X1217505Y146110D01*
X1217508Y146136D01*
X1217517Y146196D01*
X1217531Y146258D01*
X1217552Y146328D01*
X1217577Y146395D01*
Y146397D01*
X1217582Y146404D01*
X1217586Y146414D01*
X1217593Y146425D01*
X1217600Y146441D01*
X1217609Y146460D01*
X1217637Y146504D01*
X1217670Y146552D01*
X1217709Y146606D01*
X1217753Y146661D01*
X1217806Y146714D01*
X1217808Y146717D01*
X1217813Y146721D01*
X1217820Y146728D01*
X1217832Y146737D01*
X1217846Y146749D01*
X1217862Y146761D01*
X1217899Y146791D01*
X1217943Y146823D01*
X1217991Y146853D01*
X1218042Y146881D01*
X1218093Y146904D01*
X1218095D01*
X1218100Y146906D01*
X1218107Y146909D01*
X1218116Y146911D01*
X1218142Y146920D01*
X1218176Y146930D01*
X1218216Y146936D01*
X1218257Y146946D01*
X1218304Y146950D01*
X1218348Y146953D01*
X1218412D01*
Y146909D01*
D02*
G37*
G36*
Y942798D02*
X1218406D01*
X1218399Y942795D01*
X1218389D01*
X1218362Y942791D01*
X1218329Y942784D01*
X1218290Y942777D01*
X1218250Y942765D01*
X1218211Y942754D01*
X1218174Y942737D01*
X1218169Y942735D01*
X1218158Y942730D01*
X1218139Y942719D01*
X1218116Y942705D01*
X1218089Y942687D01*
X1218058Y942663D01*
X1218026Y942638D01*
X1217991Y942606D01*
X1217987Y942601D01*
X1217977Y942589D01*
X1217961Y942573D01*
X1217940Y942548D01*
X1217917Y942520D01*
X1217892Y942485D01*
X1217866Y942448D01*
X1217843Y942409D01*
Y942407D01*
X1217841Y942404D01*
X1217839Y942397D01*
X1217834Y942390D01*
X1217822Y942367D01*
X1217808Y942335D01*
X1217795Y942298D01*
X1217778Y942254D01*
X1217762Y942205D01*
X1217746Y942150D01*
X1217748Y942152D01*
X1217753Y942154D01*
X1217762Y942159D01*
X1217774Y942166D01*
X1217788Y942175D01*
X1217804Y942184D01*
X1217822Y942194D01*
X1217846Y942205D01*
X1217892Y942224D01*
X1217947Y942242D01*
X1218003Y942254D01*
X1218033Y942258D01*
X1218077D01*
X1218089Y942256D01*
X1218102Y942254D01*
X1218116Y942252D01*
X1218153Y942242D01*
X1218195Y942228D01*
X1218239Y942205D01*
X1218262Y942191D01*
X1218285Y942175D01*
X1218308Y942157D01*
X1218329Y942133D01*
X1218331Y942131D01*
X1218334Y942129D01*
X1218341Y942122D01*
X1218348Y942110D01*
X1218355Y942099D01*
X1218366Y942085D01*
X1218375Y942069D01*
X1218387Y942048D01*
X1218408Y942004D01*
X1218424Y941948D01*
X1218438Y941888D01*
X1218440Y941854D01*
X1218443Y941819D01*
Y941816D01*
Y941810D01*
Y941800D01*
X1218440Y941786D01*
Y941770D01*
X1218436Y941752D01*
X1218433Y941729D01*
X1218429Y941705D01*
X1218415Y941652D01*
X1218394Y941594D01*
X1218380Y941567D01*
X1218366Y941536D01*
X1218348Y941506D01*
X1218327Y941476D01*
X1218324Y941474D01*
X1218320Y941469D01*
X1218313Y941460D01*
X1218301Y941449D01*
X1218287Y941432D01*
X1218271Y941418D01*
X1218253Y941400D01*
X1218230Y941384D01*
X1218207Y941368D01*
X1218179Y941349D01*
X1218149Y941335D01*
X1218116Y941321D01*
X1218082Y941307D01*
X1218047Y941298D01*
X1218007Y941294D01*
X1217966Y941291D01*
X1217952D01*
X1217940Y941294D01*
X1217927D01*
X1217913Y941296D01*
X1217876Y941303D01*
X1217836Y941317D01*
X1217792Y941333D01*
X1217748Y941358D01*
X1217728Y941372D01*
X1217707Y941391D01*
X1217704Y941393D01*
X1217697Y941400D01*
X1217688Y941412D01*
X1217674Y941425D01*
X1217658Y941446D01*
X1217642Y941469D01*
X1217621Y941497D01*
X1217603Y941530D01*
X1217584Y941564D01*
X1217566Y941601D01*
X1217547Y941645D01*
X1217531Y941689D01*
X1217517Y941738D01*
X1217508Y941789D01*
X1217501Y941844D01*
X1217498Y941902D01*
Y941904D01*
Y941911D01*
Y941923D01*
X1217501Y941937D01*
Y941955D01*
X1217503Y941976D01*
X1217505Y941999D01*
X1217508Y942025D01*
X1217517Y942085D01*
X1217531Y942147D01*
X1217552Y942217D01*
X1217577Y942284D01*
Y942286D01*
X1217582Y942293D01*
X1217586Y942302D01*
X1217593Y942314D01*
X1217600Y942330D01*
X1217609Y942349D01*
X1217637Y942393D01*
X1217670Y942441D01*
X1217709Y942494D01*
X1217753Y942550D01*
X1217806Y942603D01*
X1217808Y942606D01*
X1217813Y942610D01*
X1217820Y942617D01*
X1217832Y942626D01*
X1217846Y942638D01*
X1217862Y942649D01*
X1217899Y942680D01*
X1217943Y942712D01*
X1217991Y942742D01*
X1218042Y942770D01*
X1218093Y942793D01*
X1218095D01*
X1218100Y942795D01*
X1218107Y942798D01*
X1218116Y942800D01*
X1218142Y942809D01*
X1218176Y942818D01*
X1218216Y942825D01*
X1218257Y942835D01*
X1218304Y942839D01*
X1218348Y942842D01*
X1218412D01*
Y942798D01*
D02*
G37*
G36*
X1320222Y244554D02*
X1320255Y244551D01*
X1320289Y244549D01*
X1320327Y244547D01*
X1320410Y244537D01*
X1320493Y244524D01*
X1320574Y244505D01*
X1320611Y244493D01*
X1320646Y244480D01*
X1320648D01*
X1320653Y244475D01*
X1320662Y244470D01*
X1320676Y244466D01*
X1320690Y244456D01*
X1320708Y244447D01*
X1320748Y244419D01*
X1320792Y244385D01*
X1320840Y244341D01*
X1320886Y244288D01*
X1320907Y244257D01*
X1320928Y244225D01*
X1320930Y244223D01*
X1320933Y244218D01*
X1320937Y244207D01*
X1320944Y244193D01*
X1320954Y244176D01*
X1320963Y244156D01*
X1320972Y244132D01*
X1320981Y244107D01*
X1320991Y244079D01*
X1321000Y244047D01*
X1321009Y244012D01*
X1321018Y243977D01*
X1321030Y243899D01*
X1321035Y243857D01*
Y243815D01*
Y243811D01*
Y243802D01*
X1321032Y243785D01*
Y243765D01*
X1321030Y243737D01*
X1321025Y243707D01*
X1321018Y243672D01*
X1321011Y243633D01*
X1321000Y243593D01*
X1320988Y243552D01*
X1320972Y243508D01*
X1320954Y243464D01*
X1320933Y243420D01*
X1320907Y243378D01*
X1320877Y243334D01*
X1320845Y243295D01*
X1320843Y243293D01*
X1320836Y243286D01*
X1320822Y243274D01*
X1320805Y243258D01*
X1320782Y243242D01*
X1320755Y243221D01*
X1320722Y243200D01*
X1320685Y243179D01*
X1320641Y243156D01*
X1320593Y243135D01*
X1320539Y243114D01*
X1320482Y243098D01*
X1320419Y243082D01*
X1320350Y243070D01*
X1320276Y243063D01*
X1320197Y243061D01*
X1319533D01*
Y243103D01*
X1319604D01*
X1319621Y243105D01*
X1319639Y243110D01*
X1319662Y243117D01*
X1319683Y243128D01*
X1319704Y243142D01*
X1319720Y243163D01*
X1319723Y243165D01*
X1319725Y243170D01*
X1319729Y243181D01*
X1319734Y243195D01*
X1319739Y243218D01*
X1319741Y243246D01*
X1319746Y243281D01*
Y243325D01*
Y244292D01*
Y244294D01*
Y244299D01*
Y244306D01*
Y244315D01*
X1319743Y244338D01*
X1319741Y244366D01*
X1319739Y244396D01*
X1319732Y244424D01*
X1319725Y244449D01*
X1319718Y244459D01*
X1319713Y244466D01*
X1319711Y244468D01*
X1319706Y244473D01*
X1319695Y244482D01*
X1319683Y244491D01*
X1319665Y244498D01*
X1319644Y244507D01*
X1319618Y244512D01*
X1319588Y244514D01*
X1319533D01*
Y244556D01*
X1320195D01*
X1320222Y244554D01*
D02*
G37*
G36*
X1320840Y444345D02*
X1320805D01*
Y444347D01*
X1320803Y444354D01*
X1320799Y444366D01*
X1320792Y444382D01*
X1320785Y444401D01*
X1320778Y444421D01*
X1320755Y444470D01*
X1320727Y444525D01*
X1320694Y444579D01*
X1320653Y444630D01*
X1320632Y444650D01*
X1320609Y444671D01*
X1320606Y444674D01*
X1320604Y444676D01*
X1320597Y444681D01*
X1320586Y444687D01*
X1320574Y444694D01*
X1320560Y444704D01*
X1320526Y444722D01*
X1320482Y444741D01*
X1320428Y444757D01*
X1320370Y444768D01*
X1320340Y444773D01*
X1320282D01*
X1320271Y444771D01*
X1320255Y444768D01*
X1320220Y444764D01*
X1320178Y444755D01*
X1320132Y444741D01*
X1320086Y444722D01*
X1320040Y444697D01*
X1320037D01*
X1320035Y444692D01*
X1320021Y444683D01*
X1319998Y444664D01*
X1319972Y444639D01*
X1319942Y444604D01*
X1319910Y444562D01*
X1319880Y444512D01*
X1319852Y444454D01*
Y444451D01*
X1319850Y444447D01*
X1319845Y444438D01*
X1319843Y444424D01*
X1319836Y444407D01*
X1319831Y444389D01*
X1319824Y444366D01*
X1319820Y444340D01*
X1319813Y444313D01*
X1319806Y444283D01*
X1319801Y444248D01*
X1319797Y444211D01*
X1319792Y444174D01*
X1319787Y444132D01*
X1319785Y444044D01*
Y444042D01*
Y444035D01*
Y444023D01*
Y444009D01*
X1319787Y443993D01*
Y443972D01*
X1319790Y443949D01*
X1319792Y443924D01*
X1319801Y443868D01*
X1319810Y443808D01*
X1319827Y443748D01*
X1319848Y443690D01*
Y443688D01*
X1319850Y443683D01*
X1319854Y443676D01*
X1319859Y443667D01*
X1319875Y443639D01*
X1319896Y443607D01*
X1319924Y443570D01*
X1319956Y443533D01*
X1319996Y443496D01*
X1320042Y443463D01*
X1320044D01*
X1320049Y443461D01*
X1320056Y443456D01*
X1320065Y443452D01*
X1320077Y443445D01*
X1320093Y443438D01*
X1320130Y443424D01*
X1320174Y443410D01*
X1320225Y443396D01*
X1320280Y443387D01*
X1320340Y443385D01*
X1320366D01*
X1320377Y443387D01*
X1320391D01*
X1320426Y443392D01*
X1320468Y443399D01*
X1320509Y443410D01*
X1320553Y443424D01*
X1320595Y443445D01*
X1320597D01*
X1320599Y443447D01*
X1320606Y443452D01*
X1320613Y443459D01*
X1320637Y443475D01*
X1320667Y443500D01*
X1320685Y443514D01*
X1320704Y443533D01*
X1320724Y443554D01*
X1320745Y443577D01*
X1320768Y443602D01*
X1320792Y443630D01*
X1320815Y443660D01*
X1320840Y443695D01*
X1320875Y443672D01*
X1320873Y443669D01*
X1320870Y443662D01*
X1320863Y443653D01*
X1320854Y443639D01*
X1320845Y443623D01*
X1320831Y443602D01*
X1320799Y443561D01*
X1320761Y443512D01*
X1320715Y443463D01*
X1320667Y443417D01*
X1320639Y443396D01*
X1320611Y443378D01*
X1320609D01*
X1320604Y443373D01*
X1320597Y443368D01*
X1320586Y443364D01*
X1320569Y443357D01*
X1320553Y443350D01*
X1320535Y443341D01*
X1320512Y443334D01*
X1320486Y443325D01*
X1320461Y443315D01*
X1320398Y443301D01*
X1320331Y443292D01*
X1320257Y443288D01*
X1320241D01*
X1320222Y443290D01*
X1320197Y443292D01*
X1320165Y443297D01*
X1320130Y443301D01*
X1320090Y443311D01*
X1320047Y443322D01*
X1320000Y443336D01*
X1319954Y443355D01*
X1319908Y443378D01*
X1319859Y443403D01*
X1319813Y443436D01*
X1319766Y443473D01*
X1319723Y443514D01*
X1319683Y443563D01*
X1319681Y443565D01*
X1319676Y443572D01*
X1319669Y443584D01*
X1319660Y443600D01*
X1319649Y443618D01*
X1319635Y443642D01*
X1319623Y443669D01*
X1319609Y443699D01*
X1319593Y443734D01*
X1319581Y443769D01*
X1319568Y443810D01*
X1319556Y443852D01*
X1319547Y443896D01*
X1319540Y443945D01*
X1319535Y443993D01*
X1319533Y444044D01*
Y444046D01*
Y444053D01*
Y444067D01*
X1319535Y444081D01*
Y444102D01*
X1319537Y444125D01*
X1319542Y444151D01*
X1319544Y444181D01*
X1319558Y444243D01*
X1319574Y444313D01*
X1319600Y444384D01*
X1319614Y444421D01*
X1319632Y444456D01*
X1319635Y444458D01*
X1319637Y444465D01*
X1319642Y444475D01*
X1319651Y444486D01*
X1319660Y444502D01*
X1319674Y444521D01*
X1319704Y444562D01*
X1319743Y444609D01*
X1319790Y444657D01*
X1319843Y444706D01*
X1319905Y444748D01*
X1319908Y444750D01*
X1319912Y444752D01*
X1319924Y444757D01*
X1319935Y444764D01*
X1319952Y444771D01*
X1319972Y444780D01*
X1319993Y444789D01*
X1320019Y444801D01*
X1320047Y444810D01*
X1320077Y444819D01*
X1320141Y444836D01*
X1320211Y444847D01*
X1320250Y444852D01*
X1320303D01*
X1320315Y444849D01*
X1320329D01*
X1320347Y444847D01*
X1320387Y444842D01*
X1320435Y444831D01*
X1320489Y444817D01*
X1320546Y444799D01*
X1320604Y444771D01*
X1320606D01*
X1320611Y444766D01*
X1320620Y444764D01*
X1320630Y444759D01*
X1320653Y444752D01*
X1320662Y444748D01*
X1320676D01*
X1320690Y444750D01*
X1320706Y444757D01*
X1320722Y444768D01*
X1320724Y444771D01*
X1320727Y444773D01*
X1320731Y444780D01*
X1320738Y444789D01*
X1320745Y444803D01*
X1320752Y444817D01*
X1320759Y444833D01*
X1320764Y444852D01*
X1320805D01*
X1320840Y444345D01*
D02*
G37*
G36*
X1320239Y645076D02*
X1320280D01*
X1320327Y645071D01*
X1320375Y645067D01*
X1320421Y645060D01*
X1320465Y645050D01*
X1320468D01*
X1320472Y645048D01*
X1320482Y645046D01*
X1320493Y645043D01*
X1320507Y645039D01*
X1320523Y645032D01*
X1320558Y645018D01*
X1320599Y644999D01*
X1320641Y644974D01*
X1320681Y644944D01*
X1320718Y644909D01*
X1320722Y644905D01*
X1320731Y644891D01*
X1320745Y644870D01*
X1320761Y644842D01*
X1320778Y644810D01*
X1320792Y644770D01*
X1320801Y644726D01*
X1320805Y644678D01*
Y644676D01*
Y644673D01*
Y644659D01*
X1320801Y644638D01*
X1320796Y644611D01*
X1320789Y644581D01*
X1320775Y644546D01*
X1320759Y644511D01*
X1320736Y644477D01*
X1320734Y644472D01*
X1320722Y644463D01*
X1320708Y644446D01*
X1320685Y644428D01*
X1320657Y644407D01*
X1320623Y644384D01*
X1320581Y644365D01*
X1320535Y644347D01*
X1320537D01*
X1320542Y644345D01*
X1320549Y644342D01*
X1320560Y644340D01*
X1320588Y644333D01*
X1320623Y644321D01*
X1320660Y644305D01*
X1320697Y644287D01*
X1320734Y644266D01*
X1320766Y644240D01*
X1320768D01*
X1320771Y644236D01*
X1320782Y644222D01*
X1320801Y644201D01*
X1320822Y644171D01*
X1320840Y644136D01*
X1320859Y644092D01*
X1320870Y644046D01*
X1320875Y644021D01*
Y643993D01*
Y643991D01*
Y643988D01*
Y643974D01*
X1320870Y643951D01*
X1320866Y643923D01*
X1320856Y643891D01*
X1320845Y643854D01*
X1320826Y643817D01*
X1320803Y643778D01*
X1320801Y643773D01*
X1320792Y643762D01*
X1320775Y643743D01*
X1320752Y643722D01*
X1320727Y643697D01*
X1320692Y643671D01*
X1320655Y643650D01*
X1320611Y643630D01*
X1320609D01*
X1320606Y643627D01*
X1320597Y643625D01*
X1320588Y643623D01*
X1320574Y643618D01*
X1320560Y643616D01*
X1320539Y643611D01*
X1320519Y643606D01*
X1320493Y643602D01*
X1320465Y643597D01*
X1320435Y643595D01*
X1320401Y643590D01*
X1320364Y643588D01*
X1320324Y643586D01*
X1320282Y643583D01*
X1319533D01*
Y643625D01*
X1319602D01*
X1319618Y643627D01*
X1319637Y643632D01*
X1319660Y643639D01*
X1319681Y643650D01*
X1319702Y643664D01*
X1319720Y643683D01*
X1319723Y643685D01*
X1319725Y643692D01*
X1319729Y643701D01*
X1319734Y643718D01*
X1319739Y643741D01*
X1319741Y643768D01*
X1319746Y643803D01*
Y643847D01*
Y644814D01*
Y644817D01*
Y644821D01*
Y644828D01*
Y644837D01*
X1319743Y644861D01*
X1319741Y644888D01*
X1319739Y644916D01*
X1319732Y644946D01*
X1319725Y644969D01*
X1319718Y644981D01*
X1319713Y644988D01*
X1319711Y644990D01*
X1319706Y644995D01*
X1319695Y645004D01*
X1319681Y645013D01*
X1319665Y645020D01*
X1319642Y645030D01*
X1319616Y645034D01*
X1319586Y645036D01*
X1319533D01*
Y645078D01*
X1320222D01*
X1320239Y645076D01*
D02*
G37*
G36*
X1320700Y843968D02*
Y843966D01*
X1320702Y843961D01*
X1320707Y843954D01*
X1320712Y843945D01*
X1320723Y843917D01*
X1320737Y843887D01*
X1320756Y843855D01*
X1320774Y843822D01*
X1320795Y843794D01*
X1320804Y843783D01*
X1320813Y843774D01*
X1320816Y843771D01*
X1320823Y843767D01*
X1320834Y843760D01*
X1320850Y843750D01*
X1320871Y843744D01*
X1320894Y843734D01*
X1320922Y843730D01*
X1320955Y843725D01*
Y843683D01*
X1320367D01*
Y843725D01*
X1320381D01*
X1320397Y843727D01*
X1320415Y843730D01*
X1320455Y843739D01*
X1320471Y843744D01*
X1320485Y843753D01*
X1320487Y843755D01*
X1320490Y843757D01*
X1320501Y843771D01*
X1320513Y843790D01*
X1320515Y843801D01*
X1320517Y843815D01*
Y843818D01*
Y843824D01*
X1320515Y843836D01*
X1320513Y843852D01*
X1320506Y843873D01*
X1320499Y843901D01*
X1320487Y843931D01*
X1320473Y843968D01*
X1320385Y844183D01*
X1319807D01*
X1319707Y843947D01*
X1319705Y843943D01*
X1319700Y843933D01*
X1319696Y843917D01*
X1319689Y843899D01*
X1319675Y843855D01*
X1319670Y843836D01*
X1319668Y843818D01*
Y843815D01*
Y843813D01*
X1319673Y843797D01*
X1319682Y843778D01*
X1319689Y843767D01*
X1319700Y843757D01*
X1319703D01*
X1319707Y843753D01*
X1319717Y843748D01*
X1319731Y843744D01*
X1319749Y843739D01*
X1319775Y843732D01*
X1319805Y843727D01*
X1319842Y843725D01*
Y843683D01*
X1319370D01*
Y843725D01*
X1319374D01*
X1319386Y843727D01*
X1319402Y843732D01*
X1319420Y843737D01*
X1319441Y843744D01*
X1319460Y843750D01*
X1319478Y843757D01*
X1319490Y843767D01*
X1319492Y843769D01*
X1319499Y843778D01*
X1319511Y843792D01*
X1319527Y843813D01*
X1319545Y843843D01*
X1319566Y843880D01*
X1319578Y843901D01*
X1319589Y843926D01*
X1319603Y843952D01*
X1319615Y843982D01*
X1320142Y845213D01*
X1320179D01*
X1320700Y843968D01*
D02*
G37*
G36*
X1178123Y519296D02*
X1178082D01*
Y519299D01*
X1178079Y519303D01*
X1178075Y519313D01*
X1178070Y519324D01*
X1178065Y519340D01*
X1178059Y519357D01*
X1178040Y519394D01*
X1178019Y519438D01*
X1177994Y519482D01*
X1177964Y519523D01*
X1177931Y519560D01*
X1177929Y519562D01*
X1177924Y519565D01*
X1177917Y519572D01*
X1177908Y519581D01*
X1177894Y519590D01*
X1177878Y519602D01*
X1177859Y519613D01*
X1177839Y519625D01*
X1177816Y519637D01*
X1177788Y519648D01*
X1177730Y519669D01*
X1177663Y519685D01*
X1177628Y519687D01*
X1177589Y519690D01*
X1177577D01*
X1177561Y519687D01*
X1177542D01*
X1177519Y519683D01*
X1177492Y519678D01*
X1177462Y519671D01*
X1177429Y519662D01*
X1177394Y519650D01*
X1177357Y519634D01*
X1177323Y519616D01*
X1177286Y519595D01*
X1177251Y519567D01*
X1177216Y519537D01*
X1177186Y519502D01*
X1177156Y519463D01*
X1177154Y519461D01*
X1177151Y519454D01*
X1177145Y519444D01*
X1177138Y519428D01*
X1177128Y519410D01*
X1177117Y519389D01*
X1177105Y519363D01*
X1177096Y519333D01*
X1177084Y519303D01*
X1177073Y519266D01*
X1177061Y519229D01*
X1177052Y519190D01*
X1177045Y519148D01*
X1177038Y519102D01*
X1177036Y519056D01*
X1177033Y519007D01*
Y519005D01*
Y518998D01*
Y518986D01*
X1177036Y518970D01*
Y518952D01*
X1177038Y518931D01*
X1177040Y518905D01*
X1177043Y518880D01*
X1177054Y518820D01*
X1177068Y518753D01*
X1177087Y518685D01*
X1177115Y518618D01*
Y518616D01*
X1177119Y518611D01*
X1177124Y518602D01*
X1177131Y518591D01*
X1177138Y518574D01*
X1177147Y518558D01*
X1177172Y518521D01*
X1177205Y518477D01*
X1177239Y518436D01*
X1177283Y518394D01*
X1177330Y518359D01*
X1177332D01*
X1177337Y518357D01*
X1177344Y518352D01*
X1177353Y518348D01*
X1177364Y518341D01*
X1177381Y518334D01*
X1177415Y518320D01*
X1177457Y518304D01*
X1177503Y518292D01*
X1177552Y518283D01*
X1177605Y518278D01*
X1177619D01*
X1177635Y518281D01*
X1177656D01*
X1177681Y518283D01*
X1177707Y518287D01*
X1177765Y518299D01*
X1177769D01*
X1177779Y518304D01*
X1177792Y518308D01*
X1177813Y518315D01*
X1177836Y518322D01*
X1177862Y518334D01*
X1177915Y518359D01*
Y518797D01*
Y518799D01*
Y518801D01*
Y518815D01*
Y518834D01*
X1177913Y518857D01*
X1177910Y518882D01*
X1177908Y518905D01*
X1177904Y518926D01*
X1177897Y518942D01*
Y518945D01*
X1177894Y518949D01*
X1177885Y518963D01*
X1177866Y518979D01*
X1177843Y518996D01*
X1177841D01*
X1177836Y518998D01*
X1177827Y519003D01*
X1177816Y519005D01*
X1177797Y519009D01*
X1177776Y519012D01*
X1177751Y519014D01*
X1177718D01*
Y519056D01*
X1178297D01*
Y519014D01*
X1178255D01*
X1178241Y519012D01*
X1178223Y519007D01*
X1178202Y519000D01*
X1178183Y518989D01*
X1178165Y518975D01*
X1178151Y518956D01*
Y518954D01*
X1178149Y518947D01*
X1178144Y518938D01*
X1178142Y518922D01*
X1178137Y518898D01*
X1178133Y518871D01*
X1178130Y518838D01*
Y518797D01*
Y518336D01*
X1178128D01*
X1178126Y518334D01*
X1178119Y518329D01*
X1178109Y518325D01*
X1178084Y518313D01*
X1178052Y518297D01*
X1178012Y518281D01*
X1177971Y518264D01*
X1177924Y518250D01*
X1177878Y518237D01*
X1177876D01*
X1177873Y518234D01*
X1177866D01*
X1177857Y518232D01*
X1177846Y518230D01*
X1177832Y518227D01*
X1177797Y518220D01*
X1177758Y518213D01*
X1177711Y518209D01*
X1177661Y518206D01*
X1177605Y518204D01*
X1177587D01*
X1177563Y518206D01*
X1177533Y518209D01*
X1177499Y518213D01*
X1177457Y518218D01*
X1177411Y518227D01*
X1177360Y518239D01*
X1177309Y518253D01*
X1177256Y518271D01*
X1177200Y518294D01*
X1177145Y518322D01*
X1177091Y518352D01*
X1177040Y518389D01*
X1176992Y518433D01*
X1176948Y518482D01*
X1176946Y518484D01*
X1176941Y518491D01*
X1176932Y518503D01*
X1176922Y518519D01*
X1176909Y518537D01*
X1176895Y518563D01*
X1176881Y518588D01*
X1176865Y518621D01*
X1176848Y518653D01*
X1176834Y518690D01*
X1176821Y518729D01*
X1176807Y518771D01*
X1176797Y518815D01*
X1176788Y518864D01*
X1176784Y518910D01*
X1176781Y518961D01*
Y518963D01*
Y518970D01*
Y518979D01*
X1176784Y518996D01*
Y519012D01*
X1176786Y519033D01*
X1176788Y519058D01*
X1176793Y519083D01*
X1176804Y519141D01*
X1176821Y519206D01*
X1176844Y519273D01*
X1176874Y519340D01*
X1176876Y519343D01*
X1176878Y519350D01*
X1176885Y519361D01*
X1176895Y519375D01*
X1176906Y519394D01*
X1176920Y519414D01*
X1176936Y519438D01*
X1176955Y519463D01*
X1176999Y519516D01*
X1177052Y519572D01*
X1177112Y519625D01*
X1177147Y519648D01*
X1177182Y519671D01*
X1177184Y519674D01*
X1177188Y519676D01*
X1177198Y519680D01*
X1177212Y519687D01*
X1177225Y519694D01*
X1177246Y519701D01*
X1177267Y519711D01*
X1177293Y519720D01*
X1177318Y519729D01*
X1177348Y519738D01*
X1177413Y519752D01*
X1177487Y519764D01*
X1177568Y519768D01*
X1177598D01*
X1177619Y519766D01*
X1177640D01*
X1177665Y519764D01*
X1177716Y519755D01*
X1177718D01*
X1177728Y519752D01*
X1177744Y519748D01*
X1177765Y519743D01*
X1177792Y519734D01*
X1177825Y519724D01*
X1177862Y519713D01*
X1177906Y519697D01*
X1177908D01*
X1177915Y519692D01*
X1177927Y519690D01*
X1177938Y519685D01*
X1177966Y519678D01*
X1177978Y519674D01*
X1177991D01*
X1177998Y519676D01*
X1178010Y519680D01*
X1178021Y519692D01*
X1178024Y519697D01*
X1178026Y519701D01*
X1178031Y519708D01*
X1178033Y519720D01*
X1178038Y519731D01*
X1178040Y519748D01*
X1178042Y519768D01*
X1178084D01*
X1178123Y519296D01*
D02*
G37*
G36*
X1180693Y519731D02*
X1180725Y519729D01*
X1180760Y519727D01*
X1180797Y519724D01*
X1180880Y519715D01*
X1180964Y519701D01*
X1181045Y519683D01*
X1181082Y519671D01*
X1181116Y519657D01*
X1181119D01*
X1181123Y519653D01*
X1181133Y519648D01*
X1181147Y519643D01*
X1181160Y519634D01*
X1181179Y519625D01*
X1181218Y519597D01*
X1181262Y519562D01*
X1181311Y519518D01*
X1181357Y519465D01*
X1181378Y519435D01*
X1181399Y519403D01*
X1181401Y519401D01*
X1181403Y519396D01*
X1181408Y519384D01*
X1181415Y519370D01*
X1181424Y519354D01*
X1181433Y519333D01*
X1181443Y519310D01*
X1181452Y519285D01*
X1181461Y519257D01*
X1181470Y519225D01*
X1181480Y519190D01*
X1181489Y519155D01*
X1181501Y519077D01*
X1181505Y519035D01*
Y518993D01*
Y518989D01*
Y518979D01*
X1181503Y518963D01*
Y518942D01*
X1181501Y518915D01*
X1181496Y518884D01*
X1181489Y518850D01*
X1181482Y518810D01*
X1181470Y518771D01*
X1181459Y518729D01*
X1181443Y518685D01*
X1181424Y518642D01*
X1181403Y518598D01*
X1181378Y518556D01*
X1181348Y518512D01*
X1181315Y518473D01*
X1181313Y518470D01*
X1181306Y518463D01*
X1181292Y518452D01*
X1181276Y518436D01*
X1181253Y518419D01*
X1181225Y518399D01*
X1181193Y518378D01*
X1181156Y518357D01*
X1181112Y518334D01*
X1181063Y518313D01*
X1181010Y518292D01*
X1180952Y518276D01*
X1180890Y518260D01*
X1180820Y518248D01*
X1180746Y518241D01*
X1180668Y518239D01*
X1180003D01*
Y518281D01*
X1180075D01*
X1180091Y518283D01*
X1180110Y518287D01*
X1180133Y518294D01*
X1180154Y518306D01*
X1180175Y518320D01*
X1180191Y518341D01*
X1180193Y518343D01*
X1180196Y518348D01*
X1180200Y518359D01*
X1180205Y518373D01*
X1180209Y518396D01*
X1180212Y518424D01*
X1180216Y518459D01*
Y518503D01*
Y519470D01*
Y519472D01*
Y519477D01*
Y519484D01*
Y519493D01*
X1180214Y519516D01*
X1180212Y519544D01*
X1180209Y519574D01*
X1180203Y519602D01*
X1180196Y519627D01*
X1180189Y519637D01*
X1180184Y519643D01*
X1180182Y519646D01*
X1180177Y519650D01*
X1180165Y519660D01*
X1180154Y519669D01*
X1180135Y519676D01*
X1180115Y519685D01*
X1180089Y519690D01*
X1180059Y519692D01*
X1179952D01*
X1179936Y519690D01*
X1179915Y519685D01*
X1179892Y519678D01*
X1179869Y519667D01*
X1179848Y519653D01*
X1179832Y519634D01*
Y519632D01*
X1179827Y519627D01*
X1179825Y519616D01*
X1179820Y519602D01*
X1179815Y519581D01*
X1179813Y519553D01*
X1179808Y519518D01*
Y519475D01*
Y518216D01*
X1179767D01*
X1178783Y519417D01*
Y518498D01*
Y518496D01*
Y518491D01*
Y518484D01*
Y518475D01*
X1178786Y518452D01*
X1178788Y518424D01*
X1178790Y518394D01*
X1178795Y518366D01*
X1178802Y518343D01*
X1178807Y518331D01*
X1178811Y518325D01*
X1178813Y518322D01*
X1178820Y518318D01*
X1178830Y518311D01*
X1178844Y518304D01*
X1178862Y518294D01*
X1178885Y518287D01*
X1178913Y518283D01*
X1178943Y518281D01*
X1178996D01*
Y518239D01*
X1178473D01*
Y518281D01*
X1178540D01*
X1178557Y518283D01*
X1178578Y518287D01*
X1178601Y518294D01*
X1178624Y518304D01*
X1178645Y518318D01*
X1178661Y518336D01*
X1178663Y518338D01*
X1178665Y518343D01*
X1178670Y518355D01*
X1178675Y518368D01*
X1178679Y518392D01*
X1178682Y518419D01*
X1178686Y518454D01*
Y518498D01*
Y519537D01*
X1178684Y519539D01*
X1178675Y519549D01*
X1178663Y519562D01*
X1178649Y519576D01*
X1178615Y519609D01*
X1178598Y519623D01*
X1178584Y519634D01*
X1178582Y519637D01*
X1178578Y519639D01*
X1178571Y519643D01*
X1178561Y519650D01*
X1178547Y519657D01*
X1178529Y519664D01*
X1178510Y519674D01*
X1178487Y519680D01*
X1178485D01*
X1178480Y519683D01*
X1178473Y519685D01*
X1178464Y519687D01*
X1178450D01*
X1178434Y519690D01*
X1178416Y519692D01*
X1178392D01*
Y519734D01*
X1178795D01*
X1179711Y518616D01*
Y519475D01*
Y519477D01*
Y519482D01*
Y519488D01*
Y519495D01*
X1179709Y519518D01*
X1179707Y519546D01*
X1179704Y519576D01*
X1179697Y519604D01*
X1179690Y519630D01*
X1179684Y519639D01*
X1179679Y519646D01*
X1179677Y519648D01*
X1179672Y519653D01*
X1179660Y519660D01*
X1179646Y519669D01*
X1179628Y519678D01*
X1179607Y519685D01*
X1179579Y519690D01*
X1179549Y519692D01*
X1179498D01*
Y519734D01*
X1180665D01*
X1180693Y519731D01*
D02*
G37*
%LPC*%
G36*
X5148Y6684D02*
X4852D01*
X4835Y6680D01*
X4816D01*
X4527Y6622D01*
X4510Y6615D01*
X4492Y6612D01*
X4219Y6499D01*
X4204Y6489D01*
X4188Y6482D01*
X3942Y6318D01*
X3929Y6305D01*
X3914Y6295D01*
X3705Y6086D01*
X3695Y6071D01*
X3682Y6058D01*
X3518Y5812D01*
X3511Y5796D01*
X3501Y5781D01*
X3388Y5508D01*
X3385Y5490D01*
X3378Y5473D01*
X3320Y5184D01*
Y5165D01*
X3316Y5148D01*
Y5000D01*
Y4852D01*
X3320Y4835D01*
Y4816D01*
X3378Y4527D01*
X3385Y4510D01*
X3388Y4492D01*
X3501Y4219D01*
X3511Y4204D01*
X3518Y4188D01*
X3682Y3942D01*
X3695Y3929D01*
X3705Y3914D01*
X3914Y3705D01*
X3929Y3695D01*
X3942Y3682D01*
X4188Y3518D01*
X4204Y3511D01*
X4219Y3501D01*
X4492Y3388D01*
X4510Y3385D01*
X4527Y3378D01*
X4816Y3320D01*
X4835D01*
X4852Y3316D01*
X5148D01*
X5165Y3320D01*
X5184D01*
X5473Y3378D01*
X5490Y3385D01*
X5508Y3388D01*
X5781Y3501D01*
X5796Y3511D01*
X5812Y3518D01*
X6058Y3682D01*
X6071Y3695D01*
X6086Y3705D01*
X6295Y3914D01*
X6305Y3929D01*
X6318Y3942D01*
X6482Y4188D01*
X6489Y4204D01*
X6499Y4219D01*
X6612Y4492D01*
X6615Y4510D01*
X6622Y4527D01*
X6680Y4816D01*
Y4835D01*
X6684Y4852D01*
Y5000D01*
Y5148D01*
X6680Y5165D01*
Y5184D01*
X6622Y5473D01*
X6615Y5490D01*
X6612Y5508D01*
X6499Y5781D01*
X6489Y5796D01*
X6482Y5812D01*
X6318Y6058D01*
X6305Y6071D01*
X6295Y6086D01*
X6086Y6295D01*
X6071Y6305D01*
X6058Y6318D01*
X5812Y6482D01*
X5796Y6489D01*
X5781Y6499D01*
X5508Y6612D01*
X5490Y6615D01*
X5473Y6622D01*
X5184Y6680D01*
X5165D01*
X5148Y6684D01*
D02*
G37*
G36*
X19026Y29684D02*
X18534D01*
X18516Y29680D01*
X18498D01*
X18015Y29584D01*
X17998Y29577D01*
X17981Y29573D01*
X17526Y29385D01*
X17511Y29375D01*
X17494Y29368D01*
X17084Y29094D01*
X17072Y29082D01*
X17057Y29072D01*
X16708Y28723D01*
X16698Y28708D01*
X16686Y28696D01*
X16412Y28286D01*
X16405Y28269D01*
X16395Y28254D01*
X16207Y27799D01*
X16203Y27782D01*
X16196Y27765D01*
X16100Y27282D01*
Y27264D01*
X16096Y27246D01*
Y27000D01*
Y26754D01*
X16100Y26736D01*
Y26718D01*
X16196Y26235D01*
X16203Y26218D01*
X16207Y26201D01*
X16395Y25746D01*
X16405Y25731D01*
X16412Y25714D01*
X16686Y25304D01*
X16698Y25292D01*
X16708Y25277D01*
X17057Y24928D01*
X17072Y24918D01*
X17084Y24906D01*
X17494Y24632D01*
X17511Y24625D01*
X17526Y24615D01*
X17981Y24427D01*
X17998Y24423D01*
X18015Y24416D01*
X18498Y24320D01*
X18516D01*
X18534Y24316D01*
X19026D01*
X19044Y24320D01*
X19062D01*
X19545Y24416D01*
X19562Y24423D01*
X19579Y24427D01*
X20034Y24615D01*
X20049Y24625D01*
X20066Y24632D01*
X20476Y24906D01*
X20488Y24918D01*
X20503Y24928D01*
X20852Y25277D01*
X20862Y25292D01*
X20874Y25304D01*
X21148Y25714D01*
X21155Y25731D01*
X21165Y25746D01*
X21353Y26201D01*
X21357Y26218D01*
X21364Y26235D01*
X21460Y26718D01*
Y26736D01*
X21464Y26754D01*
Y27000D01*
Y27246D01*
X21460Y27264D01*
Y27282D01*
X21364Y27765D01*
X21357Y27782D01*
X21353Y27799D01*
X21165Y28254D01*
X21155Y28269D01*
X21148Y28286D01*
X20874Y28696D01*
X20862Y28708D01*
X20852Y28723D01*
X20503Y29072D01*
X20488Y29082D01*
X20476Y29094D01*
X20066Y29368D01*
X20049Y29375D01*
X20034Y29385D01*
X19579Y29573D01*
X19562Y29577D01*
X19545Y29584D01*
X19062Y29680D01*
X19044D01*
X19026Y29684D01*
D02*
G37*
G36*
X18946Y155684D02*
X18454D01*
X18436Y155680D01*
X18418D01*
X17935Y155584D01*
X17918Y155577D01*
X17901Y155573D01*
X17446Y155385D01*
X17431Y155375D01*
X17414Y155368D01*
X17004Y155094D01*
X16992Y155082D01*
X16977Y155072D01*
X16628Y154723D01*
X16618Y154708D01*
X16606Y154696D01*
X16332Y154286D01*
X16325Y154269D01*
X16315Y154254D01*
X16127Y153799D01*
X16123Y153782D01*
X16116Y153765D01*
X16020Y153282D01*
Y153264D01*
X16016Y153246D01*
Y153000D01*
Y152754D01*
X16020Y152736D01*
Y152718D01*
X16116Y152235D01*
X16123Y152218D01*
X16127Y152201D01*
X16315Y151746D01*
X16325Y151731D01*
X16332Y151714D01*
X16606Y151304D01*
X16618Y151292D01*
X16628Y151277D01*
X16977Y150928D01*
X16992Y150918D01*
X17004Y150906D01*
X17414Y150632D01*
X17431Y150625D01*
X17446Y150615D01*
X17901Y150427D01*
X17918Y150423D01*
X17935Y150416D01*
X18418Y150320D01*
X18436D01*
X18454Y150316D01*
X18946D01*
X18964Y150320D01*
X18982D01*
X19465Y150416D01*
X19482Y150423D01*
X19499Y150427D01*
X19954Y150615D01*
X19969Y150625D01*
X19986Y150632D01*
X20396Y150906D01*
X20408Y150918D01*
X20423Y150928D01*
X20772Y151277D01*
X20782Y151292D01*
X20794Y151304D01*
X21068Y151714D01*
X21075Y151731D01*
X21085Y151746D01*
X21273Y152201D01*
X21277Y152218D01*
X21284Y152235D01*
X21380Y152718D01*
Y152736D01*
X21384Y152754D01*
Y153000D01*
Y153246D01*
X21380Y153264D01*
Y153282D01*
X21284Y153765D01*
X21277Y153782D01*
X21273Y153799D01*
X21085Y154254D01*
X21075Y154269D01*
X21068Y154286D01*
X20794Y154696D01*
X20782Y154708D01*
X20772Y154723D01*
X20423Y155072D01*
X20408Y155082D01*
X20396Y155094D01*
X19986Y155368D01*
X19969Y155375D01*
X19954Y155385D01*
X19499Y155573D01*
X19482Y155577D01*
X19465Y155584D01*
X18982Y155680D01*
X18964D01*
X18946Y155684D01*
D02*
G37*
G36*
X5148Y176684D02*
X4852D01*
X4835Y176680D01*
X4816D01*
X4527Y176622D01*
X4510Y176615D01*
X4492Y176612D01*
X4219Y176499D01*
X4204Y176489D01*
X4188Y176482D01*
X3942Y176318D01*
X3929Y176305D01*
X3914Y176295D01*
X3705Y176086D01*
X3695Y176071D01*
X3682Y176058D01*
X3518Y175812D01*
X3511Y175796D01*
X3501Y175781D01*
X3388Y175508D01*
X3385Y175490D01*
X3378Y175473D01*
X3320Y175184D01*
Y175165D01*
X3316Y175148D01*
Y175000D01*
Y174852D01*
X3320Y174835D01*
Y174816D01*
X3378Y174527D01*
X3385Y174510D01*
X3388Y174492D01*
X3501Y174219D01*
X3511Y174204D01*
X3518Y174188D01*
X3682Y173942D01*
X3695Y173929D01*
X3705Y173914D01*
X3914Y173705D01*
X3929Y173695D01*
X3942Y173682D01*
X4188Y173518D01*
X4204Y173511D01*
X4219Y173501D01*
X4492Y173388D01*
X4510Y173385D01*
X4527Y173378D01*
X4816Y173320D01*
X4835D01*
X4852Y173316D01*
X5148D01*
X5165Y173320D01*
X5184D01*
X5473Y173378D01*
X5490Y173385D01*
X5508Y173388D01*
X5781Y173501D01*
X5796Y173511D01*
X5812Y173518D01*
X6058Y173682D01*
X6071Y173695D01*
X6086Y173705D01*
X6295Y173914D01*
X6305Y173929D01*
X6318Y173942D01*
X6482Y174188D01*
X6489Y174204D01*
X6499Y174219D01*
X6612Y174492D01*
X6615Y174510D01*
X6622Y174527D01*
X6680Y174816D01*
Y174835D01*
X6684Y174852D01*
Y175000D01*
Y175148D01*
X6680Y175165D01*
Y175184D01*
X6622Y175473D01*
X6615Y175490D01*
X6612Y175508D01*
X6499Y175781D01*
X6489Y175796D01*
X6482Y175812D01*
X6318Y176058D01*
X6305Y176071D01*
X6295Y176086D01*
X6086Y176295D01*
X6071Y176305D01*
X6058Y176318D01*
X5812Y176482D01*
X5796Y176489D01*
X5781Y176499D01*
X5508Y176612D01*
X5490Y176615D01*
X5473Y176622D01*
X5184Y176680D01*
X5165D01*
X5148Y176684D01*
D02*
G37*
G36*
X809042Y943754D02*
X808516Y943013D01*
X809042D01*
Y943754D01*
D02*
G37*
G36*
X1225535Y147421D02*
X1225519D01*
X1225507Y147418D01*
X1225480Y147414D01*
X1225445Y147402D01*
X1225443D01*
X1225436Y147398D01*
X1225426Y147393D01*
X1225410Y147386D01*
X1225392Y147374D01*
X1225366Y147363D01*
X1225339Y147347D01*
X1225306Y147326D01*
Y147324D01*
Y147319D01*
X1225304Y147312D01*
Y147300D01*
X1225299Y147275D01*
X1225297Y147240D01*
X1225292Y147203D01*
X1225287Y147164D01*
X1225285Y147124D01*
Y147087D01*
Y147083D01*
Y147069D01*
X1225287Y147048D01*
X1225290Y147018D01*
X1225294Y146983D01*
X1225301Y146944D01*
X1225311Y146902D01*
X1225322Y146856D01*
Y146854D01*
X1225325Y146851D01*
X1225327Y146845D01*
X1225329Y146835D01*
X1225339Y146814D01*
X1225352Y146787D01*
X1225369Y146754D01*
X1225389Y146722D01*
X1225412Y146692D01*
X1225440Y146662D01*
X1225443Y146659D01*
X1225449Y146655D01*
X1225461Y146646D01*
X1225477Y146636D01*
X1225498Y146627D01*
X1225521Y146618D01*
X1225547Y146613D01*
X1225577Y146611D01*
X1225581D01*
X1225593Y146613D01*
X1225611Y146615D01*
X1225635Y146622D01*
X1225660Y146632D01*
X1225690Y146648D01*
X1225718Y146669D01*
X1225748Y146699D01*
X1225750Y146703D01*
X1225760Y146715D01*
X1225771Y146736D01*
X1225787Y146766D01*
X1225801Y146803D01*
X1225813Y146847D01*
X1225822Y146898D01*
X1225824Y146958D01*
Y146960D01*
Y146967D01*
Y146976D01*
Y146990D01*
X1225822Y147006D01*
X1225820Y147025D01*
X1225815Y147069D01*
X1225806Y147120D01*
X1225792Y147173D01*
X1225773Y147229D01*
X1225748Y147282D01*
Y147284D01*
X1225746Y147289D01*
X1225741Y147296D01*
X1225734Y147303D01*
X1225718Y147326D01*
X1225695Y147351D01*
X1225665Y147377D01*
X1225628Y147400D01*
X1225607Y147407D01*
X1225584Y147414D01*
X1225561Y147418D01*
X1225535Y147421D01*
D02*
G37*
G36*
Y943310D02*
X1225519D01*
X1225507Y943307D01*
X1225480Y943303D01*
X1225445Y943291D01*
X1225443D01*
X1225436Y943286D01*
X1225426Y943282D01*
X1225410Y943275D01*
X1225392Y943263D01*
X1225366Y943252D01*
X1225339Y943236D01*
X1225306Y943215D01*
Y943212D01*
Y943208D01*
X1225304Y943201D01*
Y943189D01*
X1225299Y943164D01*
X1225297Y943129D01*
X1225292Y943092D01*
X1225287Y943053D01*
X1225285Y943013D01*
Y942976D01*
Y942972D01*
Y942958D01*
X1225287Y942937D01*
X1225290Y942907D01*
X1225294Y942872D01*
X1225301Y942833D01*
X1225311Y942791D01*
X1225322Y942745D01*
Y942743D01*
X1225325Y942740D01*
X1225327Y942733D01*
X1225329Y942724D01*
X1225339Y942703D01*
X1225352Y942676D01*
X1225369Y942643D01*
X1225389Y942611D01*
X1225412Y942581D01*
X1225440Y942551D01*
X1225443Y942548D01*
X1225449Y942544D01*
X1225461Y942534D01*
X1225477Y942525D01*
X1225498Y942516D01*
X1225521Y942507D01*
X1225547Y942502D01*
X1225577Y942500D01*
X1225581D01*
X1225593Y942502D01*
X1225611Y942504D01*
X1225635Y942511D01*
X1225660Y942521D01*
X1225690Y942537D01*
X1225718Y942558D01*
X1225748Y942588D01*
X1225750Y942592D01*
X1225760Y942604D01*
X1225771Y942625D01*
X1225787Y942655D01*
X1225801Y942692D01*
X1225813Y942736D01*
X1225822Y942787D01*
X1225824Y942847D01*
Y942849D01*
Y942856D01*
Y942865D01*
Y942879D01*
X1225822Y942895D01*
X1225820Y942914D01*
X1225815Y942958D01*
X1225806Y943009D01*
X1225792Y943062D01*
X1225773Y943117D01*
X1225748Y943171D01*
Y943173D01*
X1225746Y943178D01*
X1225741Y943185D01*
X1225734Y943192D01*
X1225718Y943215D01*
X1225695Y943240D01*
X1225665Y943266D01*
X1225628Y943289D01*
X1225607Y943296D01*
X1225584Y943303D01*
X1225561Y943307D01*
X1225535Y943310D01*
D02*
G37*
G36*
X1327759Y245619D02*
X1327741D01*
X1327722Y245616D01*
X1327694Y245614D01*
X1327660Y245612D01*
X1327623Y245605D01*
X1327581Y245598D01*
X1327535Y245586D01*
Y244316D01*
X1327537D01*
X1327542Y244314D01*
X1327549D01*
X1327558Y244311D01*
X1327583Y244307D01*
X1327616Y244302D01*
X1327653Y244295D01*
X1327692Y244290D01*
X1327731Y244288D01*
X1327769Y244286D01*
X1327780D01*
X1327794Y244288D01*
X1327810D01*
X1327833Y244290D01*
X1327859Y244295D01*
X1327886Y244300D01*
X1327917Y244309D01*
X1327949Y244318D01*
X1327984Y244330D01*
X1328018Y244344D01*
X1328055Y244362D01*
X1328090Y244381D01*
X1328125Y244406D01*
X1328160Y244432D01*
X1328192Y244464D01*
X1328194Y244466D01*
X1328199Y244473D01*
X1328208Y244482D01*
X1328217Y244496D01*
X1328231Y244515D01*
X1328245Y244538D01*
X1328261Y244563D01*
X1328278Y244594D01*
X1328292Y244626D01*
X1328308Y244663D01*
X1328322Y244702D01*
X1328335Y244746D01*
X1328345Y244793D01*
X1328354Y244843D01*
X1328359Y244897D01*
X1328361Y244952D01*
Y244957D01*
Y244966D01*
Y244982D01*
X1328359Y245003D01*
X1328356Y245029D01*
X1328352Y245059D01*
X1328347Y245093D01*
X1328340Y245128D01*
X1328331Y245167D01*
X1328319Y245207D01*
X1328305Y245246D01*
X1328289Y245288D01*
X1328271Y245327D01*
X1328247Y245366D01*
X1328222Y245403D01*
X1328192Y245438D01*
X1328190Y245440D01*
X1328185Y245445D01*
X1328176Y245454D01*
X1328162Y245466D01*
X1328146Y245480D01*
X1328125Y245496D01*
X1328102Y245512D01*
X1328074Y245528D01*
X1328044Y245545D01*
X1328011Y245561D01*
X1327977Y245577D01*
X1327937Y245591D01*
X1327898Y245602D01*
X1327854Y245612D01*
X1327808Y245616D01*
X1327759Y245619D01*
D02*
G37*
G36*
X1327769Y646150D02*
X1327713D01*
X1327692Y646148D01*
X1327667D01*
X1327637Y646143D01*
X1327602Y646139D01*
X1327569Y646134D01*
X1327535Y646125D01*
Y645553D01*
X1327542D01*
X1327551Y645551D01*
X1327560Y645548D01*
X1327574Y645546D01*
X1327590D01*
X1327625Y645542D01*
X1327660D01*
X1327678Y645539D01*
X1327782D01*
X1327799Y645542D01*
X1327833Y645544D01*
X1327873Y645546D01*
X1327912Y645553D01*
X1327951Y645560D01*
X1327984Y645572D01*
X1327988Y645574D01*
X1327998Y645579D01*
X1328011Y645586D01*
X1328030Y645597D01*
X1328051Y645613D01*
X1328072Y645632D01*
X1328092Y645653D01*
X1328109Y645678D01*
X1328111Y645680D01*
X1328116Y645690D01*
X1328123Y645706D01*
X1328132Y645724D01*
X1328139Y645747D01*
X1328146Y645773D01*
X1328150Y645803D01*
X1328153Y645833D01*
Y645835D01*
Y645840D01*
Y645847D01*
X1328150Y645856D01*
X1328148Y645879D01*
X1328139Y645912D01*
X1328127Y645946D01*
X1328106Y645984D01*
X1328081Y646021D01*
X1328062Y646039D01*
X1328044Y646058D01*
X1328042D01*
X1328039Y646062D01*
X1328032Y646067D01*
X1328023Y646071D01*
X1328014Y646078D01*
X1328000Y646088D01*
X1327984Y646095D01*
X1327965Y646104D01*
X1327944Y646113D01*
X1327921Y646120D01*
X1327896Y646129D01*
X1327868Y646136D01*
X1327838Y646141D01*
X1327803Y646145D01*
X1327769Y646150D01*
D02*
G37*
G36*
X1327729Y645461D02*
X1327651D01*
X1327611Y645458D01*
X1327595D01*
X1327583Y645456D01*
X1327558Y645454D01*
X1327535Y645449D01*
Y644836D01*
X1327542D01*
X1327546Y644833D01*
X1327556Y644831D01*
X1327581Y644827D01*
X1327614Y644822D01*
X1327653Y644817D01*
X1327694Y644813D01*
X1327741Y644810D01*
X1327787Y644808D01*
X1327806D01*
X1327819Y644810D01*
X1327838D01*
X1327856Y644813D01*
X1327900Y644820D01*
X1327951Y644829D01*
X1328002Y644845D01*
X1328051Y644866D01*
X1328095Y644896D01*
X1328097D01*
X1328099Y644901D01*
X1328111Y644912D01*
X1328130Y644931D01*
X1328148Y644958D01*
X1328167Y644991D01*
X1328185Y645028D01*
X1328197Y645072D01*
X1328201Y645095D01*
Y645118D01*
Y645123D01*
Y645134D01*
X1328199Y645150D01*
X1328194Y645171D01*
X1328190Y645197D01*
X1328180Y645225D01*
X1328167Y645255D01*
X1328150Y645285D01*
X1328148Y645289D01*
X1328141Y645299D01*
X1328130Y645312D01*
X1328113Y645331D01*
X1328090Y645352D01*
X1328062Y645373D01*
X1328030Y645393D01*
X1327993Y645412D01*
X1327991D01*
X1327988Y645414D01*
X1327981Y645417D01*
X1327974Y645419D01*
X1327951Y645428D01*
X1327921Y645437D01*
X1327882Y645444D01*
X1327838Y645454D01*
X1327785Y645458D01*
X1327729Y645461D01*
D02*
G37*
G36*
X1327679Y846012D02*
X1327420Y845410D01*
X1327929D01*
X1327679Y846012D01*
D02*
G37*
G36*
X1188230Y520796D02*
X1188211D01*
X1188193Y520794D01*
X1188165Y520792D01*
X1188130Y520789D01*
X1188093Y520783D01*
X1188052Y520776D01*
X1188005Y520764D01*
Y519494D01*
X1188008D01*
X1188012Y519491D01*
X1188019D01*
X1188029Y519489D01*
X1188054Y519484D01*
X1188086Y519480D01*
X1188123Y519473D01*
X1188163Y519468D01*
X1188202Y519466D01*
X1188239Y519464D01*
X1188251D01*
X1188265Y519466D01*
X1188281D01*
X1188304Y519468D01*
X1188329Y519473D01*
X1188357Y519477D01*
X1188387Y519487D01*
X1188420Y519496D01*
X1188454Y519508D01*
X1188489Y519521D01*
X1188526Y519540D01*
X1188561Y519558D01*
X1188595Y519584D01*
X1188630Y519609D01*
X1188663Y519642D01*
X1188665Y519644D01*
X1188670Y519651D01*
X1188679Y519660D01*
X1188688Y519674D01*
X1188702Y519693D01*
X1188716Y519716D01*
X1188732Y519741D01*
X1188748Y519771D01*
X1188762Y519804D01*
X1188778Y519841D01*
X1188792Y519880D01*
X1188806Y519924D01*
X1188815Y519970D01*
X1188825Y520021D01*
X1188829Y520074D01*
X1188832Y520130D01*
Y520135D01*
Y520144D01*
Y520160D01*
X1188829Y520181D01*
X1188827Y520206D01*
X1188822Y520236D01*
X1188818Y520271D01*
X1188811Y520306D01*
X1188801Y520345D01*
X1188790Y520385D01*
X1188776Y520424D01*
X1188760Y520466D01*
X1188741Y520505D01*
X1188718Y520544D01*
X1188693Y520581D01*
X1188663Y520616D01*
X1188660Y520618D01*
X1188656Y520623D01*
X1188646Y520632D01*
X1188633Y520644D01*
X1188616Y520658D01*
X1188595Y520674D01*
X1188572Y520690D01*
X1188545Y520706D01*
X1188515Y520722D01*
X1188482Y520739D01*
X1188447Y520755D01*
X1188408Y520769D01*
X1188369Y520780D01*
X1188325Y520789D01*
X1188278Y520794D01*
X1188230Y520796D01*
D02*
G37*
G36*
X801463Y942608D02*
X800938Y941867D01*
X801463D01*
Y942608D01*
D02*
G37*
G36*
X1217957Y146275D02*
X1217940D01*
X1217929Y146272D01*
X1217901Y146268D01*
X1217866Y146256D01*
X1217864D01*
X1217857Y146252D01*
X1217848Y146247D01*
X1217832Y146240D01*
X1217813Y146228D01*
X1217788Y146217D01*
X1217760Y146201D01*
X1217728Y146180D01*
Y146178D01*
Y146173D01*
X1217725Y146166D01*
Y146154D01*
X1217721Y146129D01*
X1217718Y146094D01*
X1217714Y146057D01*
X1217709Y146018D01*
X1217707Y145979D01*
Y145941D01*
Y145937D01*
Y145923D01*
X1217709Y145902D01*
X1217711Y145872D01*
X1217716Y145837D01*
X1217723Y145798D01*
X1217732Y145756D01*
X1217744Y145710D01*
Y145708D01*
X1217746Y145705D01*
X1217748Y145699D01*
X1217751Y145689D01*
X1217760Y145668D01*
X1217774Y145641D01*
X1217790Y145608D01*
X1217811Y145576D01*
X1217834Y145546D01*
X1217862Y145516D01*
X1217864Y145513D01*
X1217871Y145509D01*
X1217883Y145500D01*
X1217899Y145490D01*
X1217920Y145481D01*
X1217943Y145472D01*
X1217968Y145467D01*
X1217998Y145465D01*
X1218003D01*
X1218014Y145467D01*
X1218033Y145469D01*
X1218056Y145476D01*
X1218082Y145486D01*
X1218112Y145502D01*
X1218139Y145523D01*
X1218169Y145553D01*
X1218172Y145557D01*
X1218181Y145569D01*
X1218193Y145590D01*
X1218209Y145620D01*
X1218223Y145657D01*
X1218234Y145701D01*
X1218244Y145752D01*
X1218246Y145812D01*
Y145814D01*
Y145821D01*
Y145830D01*
Y145844D01*
X1218244Y145860D01*
X1218241Y145879D01*
X1218237Y145923D01*
X1218227Y145974D01*
X1218214Y146027D01*
X1218195Y146083D01*
X1218169Y146136D01*
Y146138D01*
X1218167Y146143D01*
X1218163Y146150D01*
X1218156Y146157D01*
X1218139Y146180D01*
X1218116Y146205D01*
X1218086Y146231D01*
X1218049Y146254D01*
X1218028Y146261D01*
X1218005Y146268D01*
X1217982Y146272D01*
X1217957Y146275D01*
D02*
G37*
G36*
Y942164D02*
X1217940D01*
X1217929Y942161D01*
X1217901Y942157D01*
X1217866Y942145D01*
X1217864D01*
X1217857Y942140D01*
X1217848Y942136D01*
X1217832Y942129D01*
X1217813Y942117D01*
X1217788Y942106D01*
X1217760Y942090D01*
X1217728Y942069D01*
Y942066D01*
Y942062D01*
X1217725Y942055D01*
Y942043D01*
X1217721Y942018D01*
X1217718Y941983D01*
X1217714Y941946D01*
X1217709Y941907D01*
X1217707Y941867D01*
Y941830D01*
Y941826D01*
Y941812D01*
X1217709Y941791D01*
X1217711Y941761D01*
X1217716Y941726D01*
X1217723Y941687D01*
X1217732Y941645D01*
X1217744Y941599D01*
Y941597D01*
X1217746Y941594D01*
X1217748Y941587D01*
X1217751Y941578D01*
X1217760Y941557D01*
X1217774Y941530D01*
X1217790Y941497D01*
X1217811Y941465D01*
X1217834Y941435D01*
X1217862Y941405D01*
X1217864Y941402D01*
X1217871Y941398D01*
X1217883Y941388D01*
X1217899Y941379D01*
X1217920Y941370D01*
X1217943Y941361D01*
X1217968Y941356D01*
X1217998Y941354D01*
X1218003D01*
X1218014Y941356D01*
X1218033Y941358D01*
X1218056Y941365D01*
X1218082Y941375D01*
X1218112Y941391D01*
X1218139Y941412D01*
X1218169Y941442D01*
X1218172Y941446D01*
X1218181Y941458D01*
X1218193Y941479D01*
X1218209Y941509D01*
X1218223Y941546D01*
X1218234Y941590D01*
X1218244Y941641D01*
X1218246Y941701D01*
Y941703D01*
Y941710D01*
Y941719D01*
Y941733D01*
X1218244Y941749D01*
X1218241Y941768D01*
X1218237Y941812D01*
X1218227Y941863D01*
X1218214Y941916D01*
X1218195Y941971D01*
X1218169Y942025D01*
Y942027D01*
X1218167Y942032D01*
X1218163Y942039D01*
X1218156Y942046D01*
X1218139Y942069D01*
X1218116Y942094D01*
X1218086Y942120D01*
X1218049Y942143D01*
X1218028Y942150D01*
X1218005Y942157D01*
X1217982Y942161D01*
X1217957Y942164D01*
D02*
G37*
G36*
X1320181Y244473D02*
X1320162D01*
X1320144Y244470D01*
X1320116Y244468D01*
X1320081Y244466D01*
X1320044Y244459D01*
X1320003Y244452D01*
X1319956Y244440D01*
Y243170D01*
X1319959D01*
X1319963Y243168D01*
X1319970D01*
X1319979Y243165D01*
X1320005Y243161D01*
X1320037Y243156D01*
X1320074Y243149D01*
X1320114Y243144D01*
X1320153Y243142D01*
X1320190Y243140D01*
X1320202D01*
X1320215Y243142D01*
X1320232D01*
X1320255Y243144D01*
X1320280Y243149D01*
X1320308Y243154D01*
X1320338Y243163D01*
X1320370Y243172D01*
X1320405Y243184D01*
X1320440Y243198D01*
X1320477Y243216D01*
X1320512Y243235D01*
X1320546Y243260D01*
X1320581Y243286D01*
X1320613Y243318D01*
X1320616Y243320D01*
X1320620Y243327D01*
X1320630Y243336D01*
X1320639Y243350D01*
X1320653Y243369D01*
X1320667Y243392D01*
X1320683Y243417D01*
X1320699Y243448D01*
X1320713Y243480D01*
X1320729Y243517D01*
X1320743Y243556D01*
X1320757Y243600D01*
X1320766Y243647D01*
X1320775Y243697D01*
X1320780Y243751D01*
X1320782Y243806D01*
Y243811D01*
Y243820D01*
Y243836D01*
X1320780Y243857D01*
X1320778Y243883D01*
X1320773Y243913D01*
X1320768Y243947D01*
X1320761Y243982D01*
X1320752Y244021D01*
X1320741Y244061D01*
X1320727Y244100D01*
X1320711Y244142D01*
X1320692Y244181D01*
X1320669Y244220D01*
X1320644Y244257D01*
X1320613Y244292D01*
X1320611Y244294D01*
X1320606Y244299D01*
X1320597Y244308D01*
X1320583Y244320D01*
X1320567Y244334D01*
X1320546Y244350D01*
X1320523Y244366D01*
X1320495Y244382D01*
X1320465Y244399D01*
X1320433Y244415D01*
X1320398Y244431D01*
X1320359Y244445D01*
X1320320Y244456D01*
X1320276Y244466D01*
X1320229Y244470D01*
X1320181Y244473D01*
D02*
G37*
G36*
X1320190Y645004D02*
X1320134D01*
X1320114Y645002D01*
X1320088D01*
X1320058Y644997D01*
X1320023Y644992D01*
X1319991Y644988D01*
X1319956Y644979D01*
Y644407D01*
X1319963D01*
X1319972Y644405D01*
X1319982Y644402D01*
X1319996Y644400D01*
X1320012D01*
X1320047Y644396D01*
X1320081D01*
X1320100Y644393D01*
X1320204D01*
X1320220Y644396D01*
X1320255Y644398D01*
X1320294Y644400D01*
X1320333Y644407D01*
X1320373Y644414D01*
X1320405Y644426D01*
X1320410Y644428D01*
X1320419Y644433D01*
X1320433Y644440D01*
X1320451Y644451D01*
X1320472Y644467D01*
X1320493Y644486D01*
X1320514Y644507D01*
X1320530Y644532D01*
X1320532Y644534D01*
X1320537Y644544D01*
X1320544Y644560D01*
X1320553Y644578D01*
X1320560Y644601D01*
X1320567Y644627D01*
X1320572Y644657D01*
X1320574Y644687D01*
Y644689D01*
Y644694D01*
Y644701D01*
X1320572Y644710D01*
X1320569Y644733D01*
X1320560Y644766D01*
X1320549Y644800D01*
X1320528Y644837D01*
X1320502Y644875D01*
X1320484Y644893D01*
X1320465Y644912D01*
X1320463D01*
X1320461Y644916D01*
X1320454Y644921D01*
X1320444Y644925D01*
X1320435Y644932D01*
X1320421Y644942D01*
X1320405Y644949D01*
X1320387Y644958D01*
X1320366Y644967D01*
X1320343Y644974D01*
X1320317Y644983D01*
X1320289Y644990D01*
X1320259Y644995D01*
X1320225Y644999D01*
X1320190Y645004D01*
D02*
G37*
G36*
X1320151Y644315D02*
X1320072D01*
X1320033Y644312D01*
X1320016D01*
X1320005Y644310D01*
X1319979Y644308D01*
X1319956Y644303D01*
Y643690D01*
X1319963D01*
X1319968Y643687D01*
X1319977Y643685D01*
X1320003Y643681D01*
X1320035Y643676D01*
X1320074Y643671D01*
X1320116Y643667D01*
X1320162Y643664D01*
X1320208Y643662D01*
X1320227D01*
X1320241Y643664D01*
X1320259D01*
X1320278Y643667D01*
X1320322Y643674D01*
X1320373Y643683D01*
X1320424Y643699D01*
X1320472Y643720D01*
X1320516Y643750D01*
X1320519D01*
X1320521Y643755D01*
X1320532Y643766D01*
X1320551Y643785D01*
X1320569Y643812D01*
X1320588Y643845D01*
X1320606Y643882D01*
X1320618Y643926D01*
X1320623Y643949D01*
Y643972D01*
Y643977D01*
Y643988D01*
X1320620Y644004D01*
X1320616Y644025D01*
X1320611Y644051D01*
X1320602Y644078D01*
X1320588Y644109D01*
X1320572Y644139D01*
X1320569Y644143D01*
X1320562Y644153D01*
X1320551Y644166D01*
X1320535Y644185D01*
X1320512Y644206D01*
X1320484Y644227D01*
X1320451Y644247D01*
X1320414Y644266D01*
X1320412D01*
X1320410Y644268D01*
X1320403Y644271D01*
X1320396Y644273D01*
X1320373Y644282D01*
X1320343Y644291D01*
X1320303Y644298D01*
X1320259Y644308D01*
X1320206Y644312D01*
X1320151Y644315D01*
D02*
G37*
G36*
X1320101Y844866D02*
X1319842Y844264D01*
X1320351D01*
X1320101Y844866D01*
D02*
G37*
G36*
X1180651Y519650D02*
X1180633D01*
X1180614Y519648D01*
X1180587Y519646D01*
X1180552Y519643D01*
X1180515Y519637D01*
X1180473Y519630D01*
X1180427Y519618D01*
Y518348D01*
X1180429D01*
X1180434Y518345D01*
X1180441D01*
X1180450Y518343D01*
X1180475Y518338D01*
X1180508Y518334D01*
X1180545Y518327D01*
X1180584Y518322D01*
X1180624Y518320D01*
X1180661Y518318D01*
X1180672D01*
X1180686Y518320D01*
X1180702D01*
X1180725Y518322D01*
X1180751Y518327D01*
X1180779Y518331D01*
X1180809Y518341D01*
X1180841Y518350D01*
X1180876Y518362D01*
X1180911Y518375D01*
X1180948Y518394D01*
X1180982Y518412D01*
X1181017Y518438D01*
X1181052Y518463D01*
X1181084Y518496D01*
X1181086Y518498D01*
X1181091Y518505D01*
X1181100Y518514D01*
X1181109Y518528D01*
X1181123Y518547D01*
X1181137Y518570D01*
X1181153Y518595D01*
X1181170Y518625D01*
X1181184Y518658D01*
X1181200Y518695D01*
X1181214Y518734D01*
X1181228Y518778D01*
X1181237Y518824D01*
X1181246Y518875D01*
X1181251Y518928D01*
X1181253Y518984D01*
Y518989D01*
Y518998D01*
Y519014D01*
X1181251Y519035D01*
X1181248Y519060D01*
X1181244Y519090D01*
X1181239Y519125D01*
X1181232Y519160D01*
X1181223Y519199D01*
X1181211Y519239D01*
X1181198Y519278D01*
X1181181Y519320D01*
X1181163Y519359D01*
X1181140Y519398D01*
X1181114Y519435D01*
X1181084Y519470D01*
X1181082Y519472D01*
X1181077Y519477D01*
X1181068Y519486D01*
X1181054Y519498D01*
X1181038Y519512D01*
X1181017Y519528D01*
X1180994Y519544D01*
X1180966Y519560D01*
X1180936Y519576D01*
X1180904Y519593D01*
X1180869Y519609D01*
X1180830Y519623D01*
X1180790Y519634D01*
X1180746Y519643D01*
X1180700Y519648D01*
X1180651Y519650D01*
D02*
G37*
%LPD*%
D22*
X134650Y59600D02*
D03*
Y61100D02*
D03*
X157950Y26313D02*
D03*
Y27813D02*
D03*
X252275Y111675D02*
D03*
Y110175D02*
D03*
X251420Y58176D02*
D03*
Y56676D02*
D03*
X249071Y58162D02*
D03*
Y56662D02*
D03*
X141975Y48650D02*
D03*
Y47150D02*
D03*
X130097Y74450D02*
D03*
Y72950D02*
D03*
X125022Y42695D02*
D03*
Y44195D02*
D03*
X87823Y45441D02*
D03*
Y46941D02*
D03*
X57107Y45525D02*
D03*
Y47025D02*
D03*
D26*
X90869Y94288D02*
D03*
X93719D02*
D03*
X113221Y71712D02*
D03*
X110371D02*
D03*
X128802Y102965D02*
D03*
X125952D02*
D03*
X118904Y101765D02*
D03*
X121754D02*
D03*
X106066Y70915D02*
D03*
X103216D02*
D03*
X87114Y93980D02*
D03*
X84264D02*
D03*
D37*
X246539Y159840D02*
D03*
X180160Y159539D02*
D03*
D38*
X8225Y34675D02*
D03*
Y39625D02*
D03*
X213000Y156655D02*
D03*
Y154155D02*
D03*
X238031Y35285D02*
D03*
Y40235D02*
D03*
X234873Y111221D02*
D03*
X232968D02*
D03*
X236778D02*
D03*
D39*
X171082Y99500D02*
D03*
Y104500D02*
D03*
X157632D02*
D03*
Y99500D02*
D03*
X144232D02*
D03*
Y104500D02*
D03*
X149107Y162068D02*
D03*
X152643Y158532D02*
D03*
X214000Y161575D02*
D03*
Y173575D02*
D03*
D40*
X107500Y147365D02*
D03*
X112834D02*
D03*
X102166D02*
D03*
X75000D02*
D03*
X80334D02*
D03*
X69666D02*
D03*
X42500D02*
D03*
X47834D02*
D03*
X37166D02*
D03*
X47834Y32635D02*
D03*
X42500D02*
D03*
X37166D02*
D03*
X75000D02*
D03*
X69666D02*
D03*
X80334D02*
D03*
X107500D02*
D03*
X102166D02*
D03*
X112834D02*
D03*
D41*
X262320Y22590D02*
D03*
Y27590D02*
D03*
X262075Y110875D02*
D03*
X202500Y173500D02*
D03*
X149000Y172800D02*
D03*
X220500Y173500D02*
D03*
D42*
X262320Y17590D02*
D03*
X262075Y105875D02*
D03*
D44*
X171536Y70213D02*
D03*
X174076D02*
D03*
X166456D02*
D03*
X168996D02*
D03*
X171536Y61773D02*
D03*
X174076D02*
D03*
X166456D02*
D03*
X168996D02*
D03*
X181491Y15221D02*
D03*
X178951D02*
D03*
X184031D02*
D03*
X186571D02*
D03*
X206013Y92475D02*
D03*
X230000Y58730D02*
D03*
Y61270D02*
D03*
Y51270D02*
D03*
Y48730D02*
D03*
X173216Y15196D02*
D03*
X170676D02*
D03*
X165596D02*
D03*
X168136D02*
D03*
D45*
X176616Y70213D02*
D03*
Y61773D02*
D03*
X176411Y15221D02*
D03*
X163056Y15196D02*
D03*
D46*
X185550Y61775D02*
D03*
X183010D02*
D03*
X188090D02*
D03*
X183008Y70302D02*
D03*
X185548D02*
D03*
X188088D02*
D03*
X190628D02*
D03*
X193168D02*
D03*
X206752Y39297D02*
D03*
Y41836D02*
D03*
Y44376D02*
D03*
Y46917D02*
D03*
Y49457D02*
D03*
X231480Y35010D02*
D03*
X228940D02*
D03*
X226400D02*
D03*
D47*
X180470Y61775D02*
D03*
X180468Y70302D02*
D03*
X223860Y35010D02*
D03*
D48*
X239405Y6250D02*
D03*
X230850D02*
D03*
X222375Y6251D02*
D03*
X196942Y6225D02*
D03*
X213793Y6229D02*
D03*
X205285Y6220D02*
D03*
D49*
X236865Y6250D02*
D03*
X234325D02*
D03*
X228310D02*
D03*
X225770D02*
D03*
X219835Y6251D02*
D03*
X217295D02*
D03*
X194402Y6225D02*
D03*
X191862D02*
D03*
X211253Y6229D02*
D03*
X208713D02*
D03*
X202745Y6220D02*
D03*
X200205D02*
D03*
X264306Y55644D02*
D03*
Y58184D02*
D03*
Y45544D02*
D03*
Y48084D02*
D03*
Y75919D02*
D03*
Y78459D02*
D03*
Y65654D02*
D03*
Y68194D02*
D03*
D50*
X206752Y51996D02*
D03*
D51*
X196237Y92475D02*
D03*
D52*
X207500Y173500D02*
D03*
X154000Y172800D02*
D03*
X225500Y173500D02*
D03*
D53*
X177239Y136171D02*
D03*
X183081Y136298D02*
D03*
D54*
X205000Y135000D02*
D03*
Y125000D02*
D03*
X155000D02*
D03*
Y135000D02*
D03*
D55*
X223171Y162761D02*
D03*
X223298Y156919D02*
D03*
D56*
X131050Y128700D02*
D03*
D57*
Y138700D02*
D03*
D58*
X256111Y80939D02*
D03*
Y78399D02*
D03*
X256101Y70814D02*
D03*
Y68274D02*
D03*
X256111Y50599D02*
D03*
Y48059D02*
D03*
Y60749D02*
D03*
Y58209D02*
D03*
X178310Y25000D02*
D03*
X183190D02*
D03*
D59*
X256111Y75859D02*
D03*
X256101Y65734D02*
D03*
X256111Y45519D02*
D03*
Y55669D02*
D03*
D60*
X264306Y60724D02*
D03*
Y50624D02*
D03*
Y80999D02*
D03*
Y70734D02*
D03*
D61*
X99350Y45000D02*
D03*
X105800D02*
D03*
X67350D02*
D03*
X73800D02*
D03*
X35350D02*
D03*
X41800D02*
D03*
X46150Y135000D02*
D03*
X111150D02*
D03*
X104700D02*
D03*
X78650D02*
D03*
X72200D02*
D03*
X39700D02*
D03*
D62*
X9460Y100000D02*
D03*
X19366D02*
D03*
Y90000D02*
D03*
X9460D02*
D03*
X19366Y80000D02*
D03*
X9460D02*
D03*
D63*
X251100Y122650D02*
D03*
X261100D02*
D03*
X251100Y132650D02*
D03*
X261100D02*
D03*
D65*
X198725Y104875D02*
D03*
X190000Y53874D02*
D03*
Y33935D02*
D03*
D66*
X24000Y135000D02*
D03*
X99000D02*
D03*
X89000D02*
D03*
X66500D02*
D03*
X56500D02*
D03*
X34000D02*
D03*
D67*
X229793Y132811D02*
D03*
X239699Y132684D02*
D03*
D75*
X78714Y79988D02*
D03*
X83014D02*
D03*
X79414Y97088D02*
D03*
X83714D02*
D03*
X196250Y95675D02*
D03*
X200550D02*
D03*
X114902Y105165D02*
D03*
X119202D02*
D03*
X113231Y88974D02*
D03*
X117531D02*
D03*
X98916Y74015D02*
D03*
X103216D02*
D03*
X97705Y58120D02*
D03*
X102005D02*
D03*
D76*
X89464Y100088D02*
D03*
X93464D02*
D03*
X129095Y109065D02*
D03*
X125095D02*
D03*
X108475Y77775D02*
D03*
X112475D02*
D03*
D77*
X112881Y63720D02*
D03*
X111611D02*
D03*
X109071D02*
D03*
X110341Y68548D02*
D03*
X111611D02*
D03*
X112881D02*
D03*
X110341Y63720D02*
D03*
X109071Y68548D02*
D03*
X126142Y94851D02*
D03*
X124872Y99679D02*
D03*
X128682D02*
D03*
X127412D02*
D03*
X126142D02*
D03*
X124872Y94851D02*
D03*
X127412D02*
D03*
X128682D02*
D03*
X93564Y91188D02*
D03*
X92294D02*
D03*
X91024D02*
D03*
X89754D02*
D03*
Y86360D02*
D03*
X91024D02*
D03*
X92294D02*
D03*
X93564D02*
D03*
D78*
X118128Y108331D02*
D03*
X115977D02*
D03*
X232176Y63700D02*
D03*
X230024D02*
D03*
X258996Y68194D02*
D03*
X261148D02*
D03*
X176051Y27169D02*
D03*
X173899D02*
D03*
X254974Y100722D02*
D03*
X257126D02*
D03*
X259030Y78399D02*
D03*
X261181D02*
D03*
X261401Y58184D02*
D03*
X259249D02*
D03*
X259171Y48084D02*
D03*
X261323D02*
D03*
X134773Y94757D02*
D03*
X132622D02*
D03*
X121507Y94851D02*
D03*
X119355D02*
D03*
X134773Y97222D02*
D03*
X132622D02*
D03*
X115456Y92274D02*
D03*
X113304D02*
D03*
X99857Y61220D02*
D03*
X97705D02*
D03*
X105757Y63720D02*
D03*
X103605D02*
D03*
X118411Y62363D02*
D03*
X116260D02*
D03*
X118411Y64963D02*
D03*
X116260D02*
D03*
X100139Y77215D02*
D03*
X102291D02*
D03*
X92870Y61220D02*
D03*
X95022D02*
D03*
X82640Y100388D02*
D03*
X80488D02*
D03*
X73788Y83388D02*
D03*
X75940D02*
D03*
X78388D02*
D03*
X80540D02*
D03*
X84511Y86388D02*
D03*
X86663D02*
D03*
X100207Y88719D02*
D03*
X98056D02*
D03*
X100207Y86049D02*
D03*
X98056D02*
D03*
X242732Y68984D02*
D03*
X240580D02*
D03*
X232647Y48730D02*
D03*
X234798D02*
D03*
X242733Y66334D02*
D03*
X240581D02*
D03*
X178653Y113066D02*
D03*
X176502D02*
D03*
X181027Y113066D02*
D03*
X183178D02*
D03*
X57798Y37150D02*
D03*
X59950D02*
D03*
X127199Y34925D02*
D03*
X129351D02*
D03*
X90224Y36950D02*
D03*
X92376D02*
D03*
X213924Y27375D02*
D03*
X216076Y30025D02*
D03*
X213924D02*
D03*
X216076Y27375D02*
D03*
X213924Y24800D02*
D03*
X216076D02*
D03*
Y22100D02*
D03*
X213924D02*
D03*
X255256Y33260D02*
D03*
X253104D02*
D03*
X244124Y18171D02*
D03*
X246276D02*
D03*
X241381D02*
D03*
X239229D02*
D03*
X241426Y27870D02*
D03*
X239274D02*
D03*
X241422Y25170D02*
D03*
X239270D02*
D03*
X249216Y28744D02*
D03*
X247064D02*
D03*
D79*
X39530Y23970D02*
D03*
X45470Y18030D02*
D03*
X72030Y23970D02*
D03*
X77970Y18030D02*
D03*
X104630Y23970D02*
D03*
X110570Y18030D02*
D03*
D80*
X178648Y27800D02*
D03*
X180102D02*
D03*
X182877D02*
D03*
X181422D02*
D03*
D81*
X176960Y30025D02*
D03*
X178460D02*
D03*
X186825Y53874D02*
D03*
X185325D02*
D03*
X213875Y77175D02*
D03*
X212375D02*
D03*
X156250Y24213D02*
D03*
X154750D02*
D03*
X161225Y23163D02*
D03*
X162725D02*
D03*
X224875Y37110D02*
D03*
X226375D02*
D03*
X231980Y109121D02*
D03*
X233480D02*
D03*
X233595Y106391D02*
D03*
X232095D02*
D03*
X178527Y110291D02*
D03*
X177027D02*
D03*
X88174Y40189D02*
D03*
X86674D02*
D03*
X129672Y40821D02*
D03*
X131172D02*
D03*
X124472Y47321D02*
D03*
X125972D02*
D03*
X127422D02*
D03*
X128922D02*
D03*
X87373Y50089D02*
D03*
X88873D02*
D03*
X92573Y43440D02*
D03*
X94073D02*
D03*
X90173Y50089D02*
D03*
X91673D02*
D03*
X61901Y43525D02*
D03*
X63401D02*
D03*
X56456Y49769D02*
D03*
X57956D02*
D03*
X59401D02*
D03*
X60901D02*
D03*
X126031Y38050D02*
D03*
X124531D02*
D03*
X56278Y39785D02*
D03*
X57778D02*
D03*
X249500Y18210D02*
D03*
X248000D02*
D03*
D82*
X194000Y41076D02*
D03*
Y38924D02*
D03*
X239405Y9224D02*
D03*
Y11376D02*
D03*
X236865Y9226D02*
D03*
Y11377D02*
D03*
X194402Y11576D02*
D03*
Y9424D02*
D03*
X196942Y11576D02*
D03*
Y9424D02*
D03*
X211253Y11555D02*
D03*
Y9403D02*
D03*
X213793Y11555D02*
D03*
Y9403D02*
D03*
X202745Y11545D02*
D03*
Y9394D02*
D03*
X205345Y11545D02*
D03*
Y9394D02*
D03*
X219835Y11576D02*
D03*
Y9424D02*
D03*
X222375Y11576D02*
D03*
Y9424D02*
D03*
X228310Y11576D02*
D03*
Y9424D02*
D03*
X230850Y11576D02*
D03*
Y9424D02*
D03*
X238084Y48899D02*
D03*
Y46748D02*
D03*
X238084Y52692D02*
D03*
Y54843D02*
D03*
X240642Y48898D02*
D03*
Y46747D02*
D03*
X247521Y50074D02*
D03*
Y47922D02*
D03*
X110581Y94943D02*
D03*
Y92791D02*
D03*
X240642Y58142D02*
D03*
Y60293D02*
D03*
X245887Y64917D02*
D03*
Y62766D02*
D03*
X250063Y47923D02*
D03*
Y50075D02*
D03*
X240642Y54843D02*
D03*
Y52692D02*
D03*
X252770Y47923D02*
D03*
Y50075D02*
D03*
X238071Y60293D02*
D03*
Y58142D02*
D03*
X251371Y64916D02*
D03*
Y62764D02*
D03*
X248646Y64916D02*
D03*
Y62764D02*
D03*
X235778Y106970D02*
D03*
Y109121D02*
D03*
X235795Y104546D02*
D03*
Y102395D02*
D03*
X210375Y166776D02*
D03*
Y164624D02*
D03*
X165021Y7745D02*
D03*
Y9897D02*
D03*
X173021Y7745D02*
D03*
Y9897D02*
D03*
X177021Y7745D02*
D03*
Y9897D02*
D03*
X181021Y7745D02*
D03*
Y9897D02*
D03*
X169021Y7745D02*
D03*
Y9897D02*
D03*
X185021D02*
D03*
Y7745D02*
D03*
D83*
X232185Y30385D02*
D03*
Y29115D02*
D03*
Y27845D02*
D03*
Y26575D02*
D03*
Y25305D02*
D03*
Y24035D02*
D03*
Y22765D02*
D03*
Y21495D02*
D03*
X222935Y29115D02*
D03*
Y27845D02*
D03*
Y26575D02*
D03*
Y25305D02*
D03*
Y24035D02*
D03*
Y21495D02*
D03*
Y22765D02*
D03*
Y30385D02*
D03*
D84*
X207021Y155025D02*
D03*
Y161575D02*
D03*
X209471Y155025D02*
D03*
Y161575D02*
D03*
D85*
X131000Y58650D02*
D03*
X131950Y61050D02*
D03*
X130050D02*
D03*
Y58650D02*
D03*
X131950D02*
D03*
X139450Y46200D02*
D03*
X137550D02*
D03*
Y48600D02*
D03*
X139450D02*
D03*
X138500Y46200D02*
D03*
X127522Y72000D02*
D03*
X125622D02*
D03*
Y74400D02*
D03*
X127522D02*
D03*
X126572Y72000D02*
D03*
D86*
X130950Y56450D02*
D03*
X129198D02*
D03*
X130199Y63300D02*
D03*
X131951D02*
D03*
X161152Y18893D02*
D03*
X162904D02*
D03*
X162904Y20770D02*
D03*
X161152D02*
D03*
X125274Y32243D02*
D03*
X123522D02*
D03*
X89025Y34325D02*
D03*
X87273D02*
D03*
X56601Y34675D02*
D03*
X54849D02*
D03*
X170672Y65975D02*
D03*
X168920D02*
D03*
X170779Y64175D02*
D03*
X169027D02*
D03*
X139376Y51325D02*
D03*
X137624D02*
D03*
X121574Y69575D02*
D03*
X123326D02*
D03*
X127448Y76325D02*
D03*
X125696D02*
D03*
X124746Y69575D02*
D03*
X126498D02*
D03*
X136847Y44325D02*
D03*
X138598D02*
D03*
X85647Y43440D02*
D03*
X87399D02*
D03*
X91239Y43440D02*
D03*
X89488D02*
D03*
X54931Y43525D02*
D03*
X56683D02*
D03*
X122767Y40821D02*
D03*
X124518D02*
D03*
X128399Y40821D02*
D03*
X126647D02*
D03*
X60626Y43525D02*
D03*
X58875D02*
D03*
X123524Y34925D02*
D03*
X125276D02*
D03*
X86549Y36950D02*
D03*
X88301D02*
D03*
X54430Y37150D02*
D03*
X56181D02*
D03*
X249516Y26210D02*
D03*
X247764D02*
D03*
D87*
X127456Y56254D02*
D03*
Y54502D02*
D03*
X128025Y58949D02*
D03*
Y60701D02*
D03*
X159525Y19094D02*
D03*
Y20846D02*
D03*
X153750Y27788D02*
D03*
Y26037D02*
D03*
X164500Y25442D02*
D03*
Y27193D02*
D03*
X155750Y26062D02*
D03*
Y27813D02*
D03*
X123597Y74051D02*
D03*
Y72299D02*
D03*
X135450Y48251D02*
D03*
Y46499D02*
D03*
X135207Y44154D02*
D03*
Y42402D02*
D03*
X85723Y50190D02*
D03*
Y48439D02*
D03*
X55006Y50145D02*
D03*
Y48393D02*
D03*
X122722Y44322D02*
D03*
Y42570D02*
D03*
Y47321D02*
D03*
Y45569D02*
D03*
X55007Y47151D02*
D03*
Y45399D02*
D03*
X85723Y47189D02*
D03*
Y45438D02*
D03*
D89*
X160300Y26313D02*
D03*
X162700Y25363D02*
D03*
Y27263D02*
D03*
X160300D02*
D03*
Y25363D02*
D03*
X129623Y44519D02*
D03*
Y42619D02*
D03*
X127223D02*
D03*
Y44519D02*
D03*
X129623Y43569D02*
D03*
X92623Y47264D02*
D03*
Y45364D02*
D03*
X90223D02*
D03*
Y47264D02*
D03*
X92623Y46314D02*
D03*
X61851Y47225D02*
D03*
Y45325D02*
D03*
X59451D02*
D03*
Y47225D02*
D03*
X61851Y46275D02*
D03*
D90*
X185075Y58000D02*
D03*
X189575D02*
D03*
D91*
X184798Y49731D02*
D03*
X183738Y50791D02*
D03*
D92*
X183025Y36675D02*
D03*
X182525D02*
D03*
X182025D02*
D03*
X181525D02*
D03*
X181025D02*
D03*
X180525D02*
D03*
X180025D02*
D03*
X179525D02*
D03*
X179025D02*
D03*
X178525D02*
D03*
X178025D02*
D03*
X177525D02*
D03*
Y45175D02*
D03*
X178025D02*
D03*
X178525D02*
D03*
X179025D02*
D03*
X179525D02*
D03*
X180025D02*
D03*
X180525D02*
D03*
X181025D02*
D03*
X181525D02*
D03*
X182025D02*
D03*
X182525D02*
D03*
X183025D02*
D03*
D93*
X176025Y38175D02*
D03*
Y38675D02*
D03*
Y39175D02*
D03*
Y39675D02*
D03*
Y40175D02*
D03*
Y40675D02*
D03*
Y41175D02*
D03*
Y41675D02*
D03*
Y42175D02*
D03*
Y42675D02*
D03*
Y43175D02*
D03*
Y43675D02*
D03*
X184525D02*
D03*
Y43175D02*
D03*
Y42675D02*
D03*
Y42175D02*
D03*
Y41675D02*
D03*
Y41175D02*
D03*
Y40675D02*
D03*
Y40175D02*
D03*
Y39675D02*
D03*
Y39175D02*
D03*
Y38675D02*
D03*
Y38175D02*
D03*
D94*
X221900Y69775D02*
D03*
X219700D02*
D03*
D95*
X249800Y112500D02*
D03*
Y107900D02*
D03*
Y110200D02*
D03*
D96*
X243650D02*
D03*
D97*
X194556Y35547D02*
D03*
Y31797D02*
D03*
D98*
X167950Y104425D02*
D03*
Y101575D02*
D03*
X154850D02*
D03*
Y104425D02*
D03*
X141275D02*
D03*
Y101575D02*
D03*
D99*
X96906Y63720D02*
D03*
X100656D02*
D03*
X112557Y94867D02*
D03*
X116307D02*
D03*
X112502Y99259D02*
D03*
X116252D02*
D03*
X96641Y68515D02*
D03*
X100391D02*
D03*
X81339Y91437D02*
D03*
X77589D02*
D03*
X81339Y86388D02*
D03*
X77589D02*
D03*
D100*
X119279Y99360D02*
D03*
X121379D02*
D03*
X103591Y68515D02*
D03*
X105691D02*
D03*
X86514Y91437D02*
D03*
X84414D02*
D03*
D101*
X113775Y101665D02*
D03*
X115379D02*
D03*
X97714Y70915D02*
D03*
X99318D02*
D03*
X80266Y94237D02*
D03*
X78662D02*
D03*
D102*
X247046Y52968D02*
D03*
Y58168D02*
D03*
X242996D02*
D03*
Y52968D02*
D03*
D103*
X245656D02*
D03*
X244386D02*
D03*
X245656Y58168D02*
D03*
X244386D02*
D03*
D104*
X249512Y20515D02*
D03*
Y21785D02*
D03*
Y23055D02*
D03*
Y24325D02*
D03*
X244088D02*
D03*
Y23055D02*
D03*
Y21785D02*
D03*
Y20515D02*
D03*
D105*
X255150Y20950D02*
D03*
Y16650D02*
D03*
X255180Y24275D02*
D03*
Y28575D02*
D03*
D108*
X198852Y99414D02*
D03*
X196312D02*
D03*
X201392D02*
D03*
D120*
X59000Y73175D02*
Y108175D01*
Y73175D02*
X75000Y57175D01*
Y32635D02*
Y57175D01*
X38275Y56500D02*
Y115225D01*
Y56500D02*
X42500Y52275D01*
Y32635D02*
Y52275D01*
D121*
X110977Y17200D02*
X111127Y17350D01*
X122000Y14200D02*
X135425D01*
X121575Y13775D02*
X122000Y14200D01*
X82150Y13775D02*
X95575D01*
X45934Y16993D02*
X51627Y11300D01*
X78905Y17020D02*
X82150Y13775D01*
X132525Y11300D02*
X138575Y17350D01*
X95575Y13775D02*
X121575D01*
X135425Y14200D02*
X143950Y22725D01*
X111127Y17350D02*
X138575Y17350D01*
X150925Y39400D02*
Y58550D01*
X143950Y32425D02*
X150925Y39400D01*
X143950Y22725D02*
Y32425D01*
X51627Y11300D02*
X132525D01*
D122*
X131075Y54425D02*
D03*
X129075D02*
D03*
X136723Y42380D02*
D03*
X138723D02*
D03*
X124622Y67351D02*
D03*
X126622D02*
D03*
D123*
X89030Y82561D02*
D03*
X95707Y83761D02*
D03*
X112782Y74555D02*
D03*
X98130Y91161D02*
D03*
X135450Y50525D02*
D03*
X83854Y51783D02*
D03*
X159850Y29975D02*
D03*
X202126Y51996D02*
D03*
X233795Y13916D02*
D03*
X124675Y61050D02*
D03*
X114275Y60125D02*
D03*
X134425Y54725D02*
D03*
X241450Y30740D02*
D03*
X154725Y22020D02*
D03*
X155868Y19547D02*
D03*
X158625Y23163D02*
D03*
X162682Y29925D02*
D03*
X221900Y57489D02*
D03*
X215000Y46910D02*
D03*
X212725Y44425D02*
D03*
X215000Y41775D02*
D03*
X226400Y43526D02*
D03*
X170378Y73427D02*
D03*
X175328Y73502D02*
D03*
X185021Y11821D02*
D03*
X181021D02*
D03*
X177021D02*
D03*
X173021D02*
D03*
X169021D02*
D03*
X165021D02*
D03*
X228620Y54822D02*
D03*
X32325Y127856D02*
D03*
X90869Y97088D02*
D03*
X217075Y89825D02*
D03*
X235800Y89075D02*
D03*
X225900Y13916D02*
D03*
X219749Y14101D02*
D03*
X202801Y13931D02*
D03*
X211253Y14079D02*
D03*
X193200Y92475D02*
D03*
X219183Y94070D02*
D03*
X235321Y58142D02*
D03*
X245496Y68984D02*
D03*
X250084Y43420D02*
D03*
X243081Y46709D02*
D03*
X250871Y52968D02*
D03*
X197027Y14100D02*
D03*
X135347Y107828D02*
D03*
X135225Y103650D02*
D03*
X130525Y89475D02*
D03*
X130466Y92400D02*
D03*
X132622Y99259D02*
D03*
X131950Y105743D02*
D03*
X128686Y105765D02*
D03*
X109932Y74555D02*
D03*
X106675D02*
D03*
X116300Y57000D02*
D03*
X106059Y60154D02*
D03*
X102136Y66538D02*
D03*
X93564Y97088D02*
D03*
X83082Y89211D02*
D03*
X240642Y63409D02*
D03*
X249925Y67393D02*
D03*
X236075Y96425D02*
D03*
X240270Y108168D02*
D03*
X181027Y110291D02*
D03*
X193375Y58750D02*
D03*
X234809Y63700D02*
D03*
X124622Y65080D02*
D03*
X127022Y63175D02*
D03*
X142349Y42380D02*
D03*
X136800Y40032D02*
D03*
X124145Y56832D02*
D03*
X119620Y71539D02*
D03*
X127950Y142000D02*
D03*
X213999Y32725D02*
D03*
X119000Y38050D02*
D03*
X82200Y40189D02*
D03*
X51535Y40075D02*
D03*
Y47151D02*
D03*
X60626Y39800D02*
D03*
X51535Y43525D02*
D03*
X55006Y51975D02*
D03*
X82200Y43440D02*
D03*
X91308Y39789D02*
D03*
X82200Y47190D02*
D03*
X129672Y37476D02*
D03*
X119000Y44322D02*
D03*
Y41040D02*
D03*
X120931Y48972D02*
D03*
X97325Y128025D02*
D03*
X64575Y127325D02*
D03*
X98396Y99522D02*
D03*
X245450Y14075D02*
D03*
X262340Y32480D02*
D03*
X262390Y12370D02*
D03*
X248000Y12016D02*
D03*
X252340Y11856D02*
D03*
X247064Y31800D02*
D03*
%TF.MD5,681eb036a378089c49532ab6d238c0d0*%
M02*
