%TF.GenerationSoftware,Altium Limited,Altium Designer,21.6.4 (81)*%
G04 Layer_Color=8421504*
%FSLAX43Y43*%
%MOMM*%
%TF.SameCoordinates,76D5CAF9-2094-4FD7-9A7B-915B2AFADFAF*%
%TF.FilePolarity,Positive*%
%TF.FileFunction,Paste,Top*%
%TF.Part,Single*%
G01*
G75*
%TA.AperFunction,SMDPad,CuDef*%
%ADD17R,2.500X5.500*%
%ADD18R,5.500X2.500*%
%ADD19R,3.750X9.500*%
%ADD20R,9.500X3.750*%
%ADD21R,1.200X1.100*%
%ADD22R,1.350X0.950*%
%ADD23R,2.000X4.000*%
%ADD24R,0.900X0.850*%
G04:AMPARAMS|DCode=25|XSize=1.8mm|YSize=1.3mm|CornerRadius=0mm|HoleSize=0mm|Usage=FLASHONLY|Rotation=45.000|XOffset=0mm|YOffset=0mm|HoleType=Round|Shape=Rectangle|*
%AMROTATEDRECTD25*
4,1,4,-0.177,-1.096,-1.096,-0.177,0.177,1.096,1.096,0.177,-0.177,-1.096,0.0*
%
%ADD25ROTATEDRECTD25*%

%ADD26R,1.300X1.800*%
D17*
X250000Y112500D02*
D03*
Y103500D02*
D03*
X180575Y84050D02*
D03*
Y93050D02*
D03*
X204525Y68775D02*
D03*
Y59775D02*
D03*
X240775Y73725D02*
D03*
Y82725D02*
D03*
X214450Y97825D02*
D03*
Y106825D02*
D03*
X250000Y96625D02*
D03*
Y87625D02*
D03*
D18*
X208625Y77175D02*
D03*
X217625D02*
D03*
D19*
X231025Y77175D02*
D03*
X224775D02*
D03*
X230900Y102350D02*
D03*
X224650D02*
D03*
X224650Y89883D02*
D03*
X230900D02*
D03*
X215650Y63725D02*
D03*
X221900D02*
D03*
D20*
X262800Y94650D02*
D03*
Y88400D02*
D03*
X144872Y85525D02*
D03*
Y91775D02*
D03*
X157565Y85525D02*
D03*
Y91775D02*
D03*
X168750Y85525D02*
D03*
Y91775D02*
D03*
D21*
X260200Y98418D02*
D03*
Y100518D02*
D03*
X212225Y26825D02*
D03*
Y28925D02*
D03*
X169021Y4871D02*
D03*
Y2771D02*
D03*
X173021Y4871D02*
D03*
Y2771D02*
D03*
X165021D02*
D03*
X177021D02*
D03*
X181021D02*
D03*
X185021D02*
D03*
X165021Y4871D02*
D03*
X177021D02*
D03*
X181021D02*
D03*
X185021D02*
D03*
D22*
X220100Y88325D02*
D03*
Y89825D02*
D03*
D23*
X185750Y106675D02*
D03*
Y99575D02*
D03*
D24*
X208246Y158967D02*
D03*
Y157417D02*
D03*
D25*
X37392Y130508D02*
D03*
X39408Y128492D02*
D03*
X71808D02*
D03*
X69792Y130508D02*
D03*
X102792Y130108D02*
D03*
X104808Y128092D02*
D03*
D26*
X75275Y140700D02*
D03*
X78125D02*
D03*
X107875Y140400D02*
D03*
X110725D02*
D03*
X42825Y140100D02*
D03*
X45675D02*
D03*
%TF.MD5,9f9df52619c7d51f73451bc1cae1435b*%
M02*
