%TF.GenerationSoftware,Altium Limited,Altium Designer,21.6.4 (81)*%
G04 Layer_Color=16711935*
%FSLAX43Y43*%
%MOMM*%
%TF.SameCoordinates,76D5CAF9-2094-4FD7-9A7B-915B2AFADFAF*%
%TF.FilePolarity,Positive*%
%TF.FileFunction,Keep-out,Top*%
%TF.Part,Single*%
G01*
G75*
%TA.AperFunction,NonConductor*%
%ADD114C,0.254*%
%ADD115C,0.200*%
D114*
X133650Y153000D02*
G03*
X133650Y153000I-2500J0D01*
G01*
X96130D02*
G03*
X96130Y153000I-2500J0D01*
G01*
X58680D02*
G03*
X58680Y153000I-2500J0D01*
G01*
X21200D02*
G03*
X21200Y153000I-2500J0D01*
G01*
X58730Y27000D02*
G03*
X58730Y27000I-2500J0D01*
G01*
X21280D02*
G03*
X21280Y27000I-2500J0D01*
G01*
X96270D02*
G03*
X96270Y27000I-2500J0D01*
G01*
X133770D02*
G03*
X133770Y27000I-2500J0D01*
G01*
X6500Y175000D02*
G03*
X6500Y175000I-1500J0D01*
G01*
Y5000D02*
G03*
X6500Y5000I-1500J0D01*
G01*
X266500D02*
G03*
X266500Y5000I-1500J0D01*
G01*
Y175000D02*
G03*
X266500Y175000I-1500J0D01*
G01*
D115*
X5000Y180000D02*
G03*
X0Y175000I0J-5000D01*
G01*
Y5000D02*
G03*
X5000Y0I5000J0D01*
G01*
X265000D02*
G03*
X270000Y5000I0J5000D01*
G01*
Y175000D02*
G03*
X265000Y180000I-5000J0D01*
G01*
X5000Y180000D02*
X265000Y180000D01*
X-0Y5000D02*
X-0Y175000D01*
X5000Y0D02*
X265000Y0D01*
X270000Y5000D02*
X270000Y175000D01*
%TF.MD5,dfe4f9625620a09cf5b71c2aa5e1a618*%
M02*
