%TF.GenerationSoftware,Altium Limited,Altium Designer,21.6.4 (81)*%
G04 Layer_Color=32768*
%FSLAX43Y43*%
%MOMM*%
%TF.SameCoordinates,76D5CAF9-2094-4FD7-9A7B-915B2AFADFAF*%
%TF.FilePolarity,Positive*%
%TF.FileFunction,Other,Top_3D_Body*%
%TF.Part,Single*%
G01*
G75*
%TA.AperFunction,NonConductor*%
%ADD115C,0.200*%
%ADD126C,0.100*%
D115*
X221745Y33985D02*
Y40235D01*
Y33985D02*
X233595D01*
Y40235D01*
X221745D02*
X233595D01*
X219375Y90175D02*
X220825D01*
X219375Y87975D02*
Y90175D01*
Y87975D02*
X220825D01*
Y90175D01*
X181500Y107375D02*
X190000D01*
X181500Y98875D02*
Y107375D01*
Y98875D02*
X190000D01*
Y107375D01*
X199075Y93775D02*
X203175D01*
Y91175D02*
Y93775D01*
X199075Y91175D02*
X203175D01*
X199075D02*
Y93775D01*
X128300Y139700D02*
X133800D01*
X128300Y127700D02*
Y139700D01*
Y127700D02*
X133800D01*
Y139700D01*
D126*
X226150Y81675D02*
G03*
X226150Y72675I1490J-4500D01*
G01*
X229650D02*
G03*
X229650Y81675I-1490J4500D01*
G01*
X232200Y77175D02*
G03*
X232200Y77175I-500J0D01*
G01*
X258300Y89775D02*
G03*
X267300Y89775I4500J1490D01*
G01*
Y93275D02*
G03*
X258300Y93275I-4500J-1490D01*
G01*
X263300Y95325D02*
G03*
X263300Y95325I-500J0D01*
G01*
X229525Y97850D02*
G03*
X229525Y106850I-1490J4500D01*
G01*
X226025D02*
G03*
X226025Y97850I1490J-4500D01*
G01*
X224475Y102350D02*
G03*
X224475Y102350I-500J0D01*
G01*
X226025Y94383D02*
G03*
X226025Y85383I1490J-4500D01*
G01*
X229525D02*
G03*
X229525Y94383I-1490J4500D01*
G01*
X232075Y89883D02*
G03*
X232075Y89883I-500J0D01*
G01*
X145372Y84850D02*
G03*
X145372Y84850I-500J0D01*
G01*
X140372Y86900D02*
G03*
X149372Y86900I4500J1490D01*
G01*
Y90400D02*
G03*
X140372Y90400I-4500J-1490D01*
G01*
X158065Y84850D02*
G03*
X158065Y84850I-500J0D01*
G01*
X153065Y86900D02*
G03*
X162065Y86900I4500J1490D01*
G01*
Y90400D02*
G03*
X153065Y90400I-4500J-1490D01*
G01*
X169250Y84850D02*
G03*
X169250Y84850I-500J0D01*
G01*
X164250Y86900D02*
G03*
X173250Y86900I4500J1490D01*
G01*
Y90400D02*
G03*
X164250Y90400I-4500J-1490D01*
G01*
X220525Y59225D02*
G03*
X220525Y68225I-1490J4500D01*
G01*
X217025D02*
G03*
X217025Y59225I1490J-4500D01*
G01*
X215475Y63725D02*
G03*
X215475Y63725I-500J0D01*
G01*
X258970Y30090D02*
X259220Y30690D01*
X258020D02*
X259220D01*
X258020D02*
X258270Y30090D01*
X257320D02*
X258270D01*
X258970D02*
X266320D01*
X257320Y15090D02*
Y30090D01*
X266320Y15090D02*
Y30090D01*
X264170Y15090D02*
X266320D01*
X257320D02*
X263470D01*
X263220Y14490D02*
X264420D01*
X264170Y15090D02*
X264420Y14490D01*
X263220D02*
X263470Y15090D01*
X165186Y68943D02*
X177886D01*
X165186Y71483D02*
X177886D01*
Y68943D02*
Y71483D01*
X165186Y68943D02*
Y71483D01*
Y60503D02*
X177886D01*
X165186Y63043D02*
X177886D01*
Y60503D02*
Y63043D01*
X165186Y60503D02*
Y63043D01*
X258725Y113375D02*
X266075D01*
X257075D02*
X258025D01*
X257075Y103375D02*
Y113375D01*
X266075Y103375D02*
Y113375D01*
X263925Y103375D02*
X266075D01*
X257075D02*
X263225D01*
X262975Y102775D02*
X264175D01*
X263925Y103375D02*
X264175Y102775D01*
X262975D02*
X263225Y103375D01*
X257775Y113975D02*
X258025Y113375D01*
X257775Y113975D02*
X258975D01*
X258725Y113375D02*
X258975Y113975D01*
X175141Y16491D02*
X187841D01*
X175141Y13951D02*
X187841D01*
X175141D02*
Y16491D01*
X187841Y13951D02*
Y16491D01*
X226150Y81675D02*
X229650D01*
X226150Y72675D02*
X229650D01*
X258300Y89775D02*
Y93275D01*
X267300Y89775D02*
Y93275D01*
X226025Y97850D02*
X229525D01*
X226025Y106850D02*
X229525D01*
X226025Y94383D02*
X229525D01*
X226025Y85383D02*
X229525D01*
X140372Y86900D02*
Y90400D01*
X149372Y86900D02*
Y90400D01*
X153065Y86900D02*
Y90400D01*
X162065Y86900D02*
Y90400D01*
X164250Y86900D02*
Y90400D01*
X173250Y86900D02*
Y90400D01*
X200000Y170150D02*
Y177500D01*
Y168500D02*
Y169450D01*
Y168500D02*
X210000D01*
X200000Y177500D02*
X210000D01*
Y175350D02*
Y177500D01*
Y168500D02*
Y174650D01*
X210600Y174400D02*
Y175600D01*
X210000Y175350D02*
X210600Y175600D01*
X210000Y174650D02*
X210600Y174400D01*
X199400Y169200D02*
X200000Y169450D01*
X199400Y169200D02*
Y170400D01*
X200000Y170150D01*
X145900Y169700D02*
X146500Y169450D01*
X145900Y168500D02*
Y169700D01*
Y168500D02*
X146500Y168750D01*
X156500Y173950D02*
X157100Y173700D01*
X156500Y174650D02*
X157100Y174900D01*
Y173700D02*
Y174900D01*
X156500Y167800D02*
Y173950D01*
Y174650D02*
Y176800D01*
X146500D02*
X156500D01*
X146500Y167800D02*
X156500D01*
X146500D02*
Y168750D01*
Y169450D02*
Y176800D01*
X174486Y13926D02*
Y16466D01*
X161786Y13926D02*
Y16466D01*
Y13926D02*
X174486D01*
X161786Y16466D02*
X174486D01*
X217025Y59225D02*
X220525D01*
X217025Y68225D02*
X220525D01*
X218000Y170150D02*
Y177500D01*
Y168500D02*
Y169450D01*
Y168500D02*
X228000D01*
X218000Y177500D02*
X228000D01*
Y175350D02*
Y177500D01*
Y168500D02*
Y174650D01*
X228600Y174400D02*
Y175600D01*
X228000Y175350D02*
X228600Y175600D01*
X228000Y174650D02*
X228600Y174400D01*
X217400Y169200D02*
X218000Y169450D01*
X217400Y169200D02*
Y170400D01*
X218000Y170150D01*
%TF.MD5,bc8ed5fb3abbff3e2b19343d553d1eeb*%
M02*
