%TF.GenerationSoftware,Altium Limited,Altium Designer,21.6.4 (81)*%
G04 Layer_Color=32896*
%FSLAX43Y43*%
%MOMM*%
%TF.SameCoordinates,76D5CAF9-2094-4FD7-9A7B-915B2AFADFAF*%
%TF.FilePolarity,Positive*%
%TF.FileFunction,Other,Mechanical_12*%
%TF.Part,Single*%
G01*
G75*
%TA.AperFunction,NonConductor*%
%ADD115C,0.200*%
%ADD116C,0.150*%
D115*
X179018Y73052D02*
X194618D01*
Y66952D02*
Y73052D01*
X179018Y66952D02*
X194618D01*
X179018D02*
Y73052D01*
X203402Y53446D02*
X209502D01*
X203402Y37847D02*
Y53446D01*
Y37847D02*
X209502D01*
Y53446D01*
X259525Y100518D02*
X260875D01*
X259525Y98418D02*
Y100518D01*
Y98418D02*
X260875D01*
Y100518D01*
X211550Y26825D02*
X212900D01*
Y28925D01*
X211550D02*
X212900D01*
X211550Y26825D02*
Y28925D01*
X253626Y73509D02*
Y83289D01*
Y73509D02*
X258586D01*
Y83289D01*
X253626D02*
X258586D01*
X253616Y63384D02*
Y73164D01*
Y63384D02*
X258576D01*
Y73164D01*
X253616D02*
X258576D01*
X253626Y43169D02*
Y52949D01*
Y43169D02*
X258586D01*
Y52949D01*
X253626D02*
X258586D01*
X253626Y53319D02*
Y63099D01*
Y53319D02*
X258586D01*
Y63099D01*
X253626D02*
X258586D01*
X169696Y2771D02*
Y4871D01*
X168346Y2771D02*
X169696D01*
X168346D02*
Y4871D01*
X169696D01*
X173696Y2771D02*
Y4871D01*
X172346Y2771D02*
X173696D01*
X172346D02*
Y4871D01*
X173696D01*
X164346D02*
X165696D01*
X164346Y2771D02*
Y4871D01*
Y2771D02*
X165696D01*
Y4871D01*
X176346D02*
X177696D01*
X176346Y2771D02*
Y4871D01*
Y2771D02*
X177696D01*
Y4871D01*
X180346D02*
X181696D01*
X180346Y2771D02*
Y4871D01*
Y2771D02*
X181696D01*
Y4871D01*
X184346D02*
X185696D01*
X184346Y2771D02*
Y4871D01*
Y2771D02*
X185696D01*
Y4871D01*
D116*
X116052Y108956D02*
X118052D01*
X116052Y107706D02*
Y108956D01*
Y107706D02*
X118052D01*
Y108956D01*
X193375Y39000D02*
Y41000D01*
Y39000D02*
X194625D01*
Y41000D01*
X193375D02*
X194625D01*
X230100Y63075D02*
Y64325D01*
X232100D01*
Y63075D02*
Y64325D01*
X230100Y63075D02*
X232100D01*
X259072Y67569D02*
X261072D01*
Y68819D01*
X259072D02*
X261072D01*
X259072Y67569D02*
Y68819D01*
X238780Y11300D02*
X240030D01*
Y9300D02*
Y11300D01*
X238780Y9300D02*
X240030D01*
X238780D02*
Y11300D01*
X236240Y11301D02*
X237490D01*
Y9301D02*
Y11301D01*
X236240Y9301D02*
X237490D01*
X236240D02*
Y11301D01*
X129074Y55825D02*
Y57075D01*
X131074D01*
Y55825D02*
Y57075D01*
X129074Y55825D02*
X131074D01*
X126831Y56378D02*
X128081D01*
Y54378D02*
Y56378D01*
X126831Y54378D02*
X128081D01*
X126831D02*
Y56378D01*
X127400Y60825D02*
X128650D01*
Y58825D02*
Y60825D01*
X127400Y58825D02*
X128650D01*
X127400D02*
Y60825D01*
X132075Y62675D02*
Y63925D01*
X130075Y62675D02*
X132075D01*
X130075D02*
Y63925D01*
X132075D01*
X163028Y18268D02*
Y19518D01*
X161028Y18268D02*
X163028D01*
X161028D02*
Y19518D01*
X163028D01*
X161028Y20145D02*
Y21395D01*
X163028D01*
Y20145D02*
Y21395D01*
X161028Y20145D02*
X163028D01*
X158900Y20970D02*
X160150D01*
Y18970D02*
Y20970D01*
X158900Y18970D02*
X160150D01*
X158900D02*
Y20970D01*
X153125Y25913D02*
X154375D01*
X153125D02*
Y27913D01*
X154375D01*
Y25913D02*
Y27913D01*
X165125Y25317D02*
Y27317D01*
X163875D02*
X165125D01*
X163875Y25317D02*
Y27317D01*
Y25317D02*
X165125D01*
X155125Y27938D02*
X156375D01*
Y25938D02*
Y27938D01*
X155125Y25938D02*
X156375D01*
X155125D02*
Y27938D01*
X173975Y27794D02*
X175975D01*
X173975Y26544D02*
Y27794D01*
Y26544D02*
X175975D01*
Y27794D01*
X123398Y31618D02*
Y32868D01*
X125398D01*
Y31618D02*
Y32868D01*
X123398Y31618D02*
X125398D01*
X87149Y33700D02*
Y34950D01*
X89149D01*
Y33700D02*
Y34950D01*
X87149Y33700D02*
X89149D01*
X54725Y34050D02*
Y35300D01*
X56725D01*
Y34050D02*
Y35300D01*
X54725Y34050D02*
X56725D01*
X168796Y65350D02*
X170796D01*
Y66600D01*
X168796D02*
X170796D01*
X168796Y65350D02*
Y66600D01*
X168903Y63550D02*
X170903D01*
Y64800D01*
X168903D02*
X170903D01*
X168903Y63550D02*
Y64800D01*
X257050Y100097D02*
Y101347D01*
X255050Y100097D02*
X257050D01*
X255050D02*
Y101347D01*
X257050D01*
X193777Y9500D02*
Y11500D01*
Y9500D02*
X195027D01*
Y11500D01*
X193777D02*
X195027D01*
X196317Y9500D02*
Y11500D01*
Y9500D02*
X197567D01*
Y11500D01*
X196317D02*
X197567D01*
X210628Y9479D02*
Y11479D01*
Y9479D02*
X211878D01*
Y11479D01*
X210628D02*
X211878D01*
X213168Y9479D02*
Y11479D01*
Y9479D02*
X214418D01*
Y11479D01*
X213168D02*
X214418D01*
X202120Y9470D02*
Y11470D01*
Y9470D02*
X203370D01*
Y11470D01*
X202120D02*
X203370D01*
X204720Y9470D02*
Y11470D01*
Y9470D02*
X205970D01*
Y11470D01*
X204720D02*
X205970D01*
X219210Y9500D02*
Y11500D01*
Y9500D02*
X220460D01*
Y11500D01*
X219210D02*
X220460D01*
X221750Y9500D02*
Y11500D01*
Y9500D02*
X223000D01*
Y11500D01*
X221750D02*
X223000D01*
X227685Y9500D02*
Y11500D01*
Y9500D02*
X228935D01*
Y11500D01*
X227685D02*
X228935D01*
X230225Y9500D02*
Y11500D01*
Y9500D02*
X231475D01*
Y11500D01*
X230225D02*
X231475D01*
X261106Y77774D02*
Y79024D01*
X259106Y77774D02*
X261106D01*
X259106D02*
Y79024D01*
X261106D01*
X259325Y57559D02*
Y58809D01*
X261325D01*
Y57559D02*
Y58809D01*
X259325Y57559D02*
X261325D01*
X261247Y47459D02*
Y48709D01*
X259247Y47459D02*
X261247D01*
X259247D02*
Y48709D01*
X261247D01*
X237459Y46824D02*
X238709D01*
X237459D02*
Y48824D01*
X238709D01*
Y46824D02*
Y48824D01*
X237459Y54768D02*
X238709D01*
Y52768D02*
Y54768D01*
X237459Y52768D02*
X238709D01*
X237459D02*
Y54768D01*
X240017Y48822D02*
X241267D01*
Y46822D02*
Y48822D01*
X240017Y46822D02*
X241267D01*
X240017D02*
Y48822D01*
X246896Y47998D02*
X248146D01*
X246896D02*
Y49998D01*
X248146D01*
Y47998D02*
Y49998D01*
X134697Y94132D02*
Y95382D01*
X132697Y94132D02*
X134697D01*
X132697D02*
Y95382D01*
X134697D01*
X119431Y94226D02*
Y95476D01*
X121431D01*
Y94226D02*
Y95476D01*
X119431Y94226D02*
X121431D01*
X134697Y96597D02*
Y97847D01*
X132697Y96597D02*
X134697D01*
X132697D02*
Y97847D01*
X134697D01*
X109956Y94867D02*
X111206D01*
Y92867D02*
Y94867D01*
X109956Y92867D02*
X111206D01*
X109956D02*
Y94867D01*
X113380Y91649D02*
Y92899D01*
X115380D01*
Y91649D02*
Y92899D01*
X113380Y91649D02*
X115380D01*
X97781Y60595D02*
Y61845D01*
X99781D01*
Y60595D02*
Y61845D01*
X97781Y60595D02*
X99781D01*
X103681Y63095D02*
Y64345D01*
X105681D01*
Y63095D02*
Y64345D01*
X103681Y63095D02*
X105681D01*
X118336Y61738D02*
Y62988D01*
X116336Y61738D02*
X118336D01*
X116336D02*
Y62988D01*
X118336D01*
Y64338D02*
Y65588D01*
X116336Y64338D02*
X118336D01*
X116336D02*
Y65588D01*
X118336D01*
X102215Y76590D02*
Y77840D01*
X100215Y76590D02*
X102215D01*
X100215D02*
Y77840D01*
X102215D01*
X92946Y60595D02*
Y61845D01*
X94946D01*
Y60595D02*
Y61845D01*
X92946Y60595D02*
X94946D01*
X80564Y101013D02*
X82564D01*
X80564Y99763D02*
Y101013D01*
Y99763D02*
X82564D01*
Y101013D01*
X73864Y82763D02*
X75864D01*
Y84013D01*
X73864D02*
X75864D01*
X73864Y82763D02*
Y84013D01*
X78464Y82763D02*
X80464D01*
Y84013D01*
X78464D02*
X80464D01*
X78464Y82763D02*
Y84013D01*
X84587Y85763D02*
X86587D01*
Y87013D01*
X84587D02*
X86587D01*
X84587Y85763D02*
Y87013D01*
X98132Y89344D02*
X100132D01*
X98132Y88094D02*
Y89344D01*
Y88094D02*
X100132D01*
Y89344D01*
X98132Y86674D02*
X100132D01*
X98132Y85424D02*
Y86674D01*
Y85424D02*
X100132D01*
Y86674D01*
X240656Y68359D02*
X242656D01*
Y69609D01*
X240656D02*
X242656D01*
X240656Y68359D02*
Y69609D01*
X241267Y58218D02*
Y60218D01*
X240017D02*
X241267D01*
X240017Y58218D02*
Y60218D01*
Y58218D02*
X241267D01*
X245262Y62841D02*
Y64841D01*
Y62841D02*
X246512D01*
Y64841D01*
X245262D02*
X246512D01*
X232723Y48105D02*
X234723D01*
Y49355D01*
X232723D02*
X234723D01*
X232723Y48105D02*
Y49355D01*
X250688Y47999D02*
Y49999D01*
X249438D02*
X250688D01*
X249438Y47999D02*
Y49999D01*
Y47999D02*
X250688D01*
X241267Y52768D02*
Y54768D01*
X240017D02*
X241267D01*
X240017Y52768D02*
Y54768D01*
Y52768D02*
X241267D01*
X252145Y47999D02*
Y49999D01*
Y47999D02*
X253395D01*
Y49999D01*
X252145D02*
X253395D01*
X240657Y66959D02*
X242657D01*
X240657Y65709D02*
Y66959D01*
Y65709D02*
X242657D01*
Y66959D01*
X237446Y58218D02*
Y60218D01*
Y58218D02*
X238696D01*
Y60218D01*
X237446D02*
X238696D01*
X251996Y62840D02*
Y64840D01*
X250746D02*
X251996D01*
X250746Y62840D02*
Y64840D01*
Y62840D02*
X251996D01*
X248021D02*
Y64840D01*
Y62840D02*
X249271D01*
Y64840D01*
X248021D02*
X249271D01*
X236403Y107046D02*
Y109046D01*
X235153D02*
X236403D01*
X235153Y107046D02*
Y109046D01*
Y107046D02*
X236403D01*
X236420Y102471D02*
Y104471D01*
X235170D02*
X236420D01*
X235170Y102471D02*
Y104471D01*
Y102471D02*
X236420D01*
X176577Y112441D02*
X178577D01*
Y113691D01*
X176577D02*
X178577D01*
X176577Y112441D02*
Y113691D01*
X181102Y112441D02*
X183102D01*
Y113691D01*
X181102D02*
X183102D01*
X181102Y112441D02*
Y113691D01*
X209750Y164700D02*
Y166700D01*
Y164700D02*
X211000D01*
Y166700D01*
X209750D02*
X211000D01*
X122972Y72175D02*
Y74175D01*
Y72175D02*
X124222D01*
Y74175D01*
X122972D02*
X124222D01*
X134825Y46375D02*
Y48375D01*
Y46375D02*
X136075D01*
Y48375D01*
X134825D02*
X136075D01*
X137500Y51950D02*
X139500D01*
X137500Y50700D02*
Y51950D01*
Y50700D02*
X139500D01*
Y51950D01*
X121450Y68950D02*
X123450D01*
Y70200D01*
X121450D02*
X123450D01*
X121450Y68950D02*
Y70200D01*
X125572Y76950D02*
X127572D01*
X125572Y75700D02*
Y76950D01*
Y75700D02*
X127572D01*
Y76950D01*
X124622Y68950D02*
X126622D01*
Y70200D01*
X124622D02*
X126622D01*
X124622Y68950D02*
Y70200D01*
X134582Y42278D02*
Y44278D01*
Y42278D02*
X135832D01*
Y44278D01*
X134582D02*
X135832D01*
X136723Y43700D02*
X138723D01*
Y44950D01*
X136723D02*
X138723D01*
X136723Y43700D02*
Y44950D01*
X165646Y7821D02*
Y9821D01*
X164396D02*
X165646D01*
X164396Y7821D02*
Y9821D01*
Y7821D02*
X165646D01*
X173646D02*
Y9821D01*
X172396D02*
X173646D01*
X172396Y7821D02*
Y9821D01*
Y7821D02*
X173646D01*
X177646D02*
Y9821D01*
X176396D02*
X177646D01*
X176396Y7821D02*
Y9821D01*
Y7821D02*
X177646D01*
X181646D02*
Y9821D01*
X180396D02*
X181646D01*
X180396Y7821D02*
Y9821D01*
Y7821D02*
X181646D01*
X169646D02*
Y9821D01*
X168396D02*
X169646D01*
X168396Y7821D02*
Y9821D01*
Y7821D02*
X169646D01*
X184396D02*
X185646D01*
X184396D02*
Y9821D01*
X185646D01*
Y7821D02*
Y9821D01*
X59874Y36525D02*
Y37775D01*
X57874Y36525D02*
X59874D01*
X57874D02*
Y37775D01*
X59874D01*
X85523Y42815D02*
X87523D01*
Y44065D01*
X85523D02*
X87523D01*
X85523Y42815D02*
Y44065D01*
X89364Y44065D02*
X91364D01*
X89364Y42815D02*
Y44065D01*
Y42815D02*
X91364D01*
Y44065D01*
X85098Y48314D02*
Y50314D01*
Y48314D02*
X86348D01*
Y50314D01*
X85098D02*
X86348D01*
X54807Y42900D02*
X56807D01*
Y44150D01*
X54807D02*
X56807D01*
X54807Y42900D02*
Y44150D01*
X54381Y48269D02*
Y50269D01*
Y48269D02*
X55631D01*
Y50269D01*
X54381D02*
X55631D01*
X122643Y40196D02*
X124643D01*
Y41446D01*
X122643D02*
X124643D01*
X122643Y40196D02*
Y41446D01*
X122097Y42446D02*
Y44446D01*
Y42446D02*
X123347D01*
Y44446D01*
X122097D02*
X123347D01*
X122097Y45445D02*
Y47445D01*
Y45445D02*
X123347D01*
Y47445D01*
X122097D02*
X123347D01*
X126523Y41446D02*
X128523D01*
X126523Y40196D02*
Y41446D01*
Y40196D02*
X128523D01*
Y41446D01*
X58751Y44150D02*
X60751D01*
X58751Y42900D02*
Y44150D01*
Y42900D02*
X60751D01*
Y44150D01*
X54382Y45275D02*
Y47275D01*
Y45275D02*
X55632D01*
Y47275D01*
X54382D02*
X55632D01*
X85098Y45314D02*
Y47314D01*
Y45314D02*
X86348D01*
Y47314D01*
X85098D02*
X86348D01*
X123400Y35550D02*
X125400D01*
X123400Y34300D02*
Y35550D01*
Y34300D02*
X125400D01*
Y35550D01*
X127275Y35550D02*
X129275D01*
X127275Y34300D02*
Y35550D01*
Y34300D02*
X129275D01*
Y35550D01*
X86425Y37575D02*
X88425D01*
X86425Y36325D02*
Y37575D01*
Y36325D02*
X88425D01*
Y37575D01*
X90300Y37575D02*
X92300D01*
X90300Y36325D02*
Y37575D01*
Y36325D02*
X92300D01*
Y37575D01*
X56305Y36525D02*
Y37775D01*
X54305Y36525D02*
X56305D01*
X54305D02*
Y37775D01*
X56305D01*
X214000Y30650D02*
X216000D01*
X214000Y29400D02*
Y30650D01*
Y29400D02*
X216000D01*
Y30650D01*
X214000Y26750D02*
X216000D01*
Y28000D01*
X214000D02*
X216000D01*
X214000Y26750D02*
Y28000D01*
Y24175D02*
X216000D01*
Y25425D01*
X214000D02*
X216000D01*
X214000Y24175D02*
Y25425D01*
Y22725D02*
X216000D01*
X214000Y21475D02*
Y22725D01*
Y21475D02*
X216000D01*
Y22725D01*
X253180Y33885D02*
X255180D01*
X253180Y32635D02*
Y33885D01*
Y32635D02*
X255180D01*
Y33885D01*
X244200Y17546D02*
X246200D01*
Y18796D01*
X244200D02*
X246200D01*
X244200Y17546D02*
Y18796D01*
X239305D02*
X241305D01*
X239305Y17546D02*
Y18796D01*
Y17546D02*
X241305D01*
Y18796D01*
X239350Y28495D02*
X241350D01*
X239350Y27245D02*
Y28495D01*
Y27245D02*
X241350D01*
Y28495D01*
X239346Y25795D02*
X241346D01*
X239346Y24545D02*
Y25795D01*
Y24545D02*
X241346D01*
Y25795D01*
X247140Y29369D02*
X249140D01*
X247140Y28119D02*
Y29369D01*
Y28119D02*
X249140D01*
Y29369D01*
X247640Y26835D02*
X249640D01*
X247640Y25585D02*
Y26835D01*
Y25585D02*
X249640D01*
Y26835D01*
%TF.MD5,bfba438e582f127c123227c2d55bd356*%
M02*
