%TF.GenerationSoftware,Altium Limited,Altium Designer,21.6.4 (81)*%
G04 Layer_Color=8388736*
%FSLAX43Y43*%
%MOMM*%
%TF.SameCoordinates,76D5CAF9-2094-4FD7-9A7B-915B2AFADFAF*%
%TF.FilePolarity,Positive*%
%TF.FileFunction,Other,Top_Designator*%
%TF.Part,Single*%
G01*
G75*
%TA.AperFunction,NonConductor*%
%ADD116C,0.150*%
D116*
X261070Y22340D02*
Y21840D01*
Y22090D01*
X262320D01*
X262570Y21840D01*
Y21590D01*
X262320Y21340D01*
X261070Y23840D02*
Y22840D01*
X261820D01*
X261570Y23340D01*
Y23590D01*
X261820Y23840D01*
X262320D01*
X262570Y23590D01*
Y23090D01*
X262320Y22840D01*
X172785Y70963D02*
Y69463D01*
X172036D01*
X171786Y69713D01*
Y70213D01*
X172036Y70463D01*
X172785D01*
X171286Y69713D02*
X171036Y69463D01*
X170536D01*
X170286Y69713D01*
Y69963D01*
X170536Y70213D01*
X170786D01*
X170536D01*
X170286Y70463D01*
Y70713D01*
X170536Y70963D01*
X171036D01*
X171286Y70713D01*
X172785Y62522D02*
Y61023D01*
X172036D01*
X171786Y61273D01*
Y61773D01*
X172036Y62022D01*
X172785D01*
X170286Y61023D02*
X171286D01*
Y61773D01*
X170786Y61523D01*
X170536D01*
X170286Y61773D01*
Y62272D01*
X170536Y62522D01*
X171036D01*
X171286Y62272D01*
X260825Y108125D02*
Y107625D01*
Y107875D01*
X262075D01*
X262325Y107625D01*
Y107375D01*
X262075Y107125D01*
X260825Y109625D02*
X261075Y109125D01*
X261575Y108625D01*
X262075D01*
X262325Y108875D01*
Y109375D01*
X262075Y109625D01*
X261825D01*
X261575Y109375D01*
Y108625D01*
X180492Y14471D02*
Y15971D01*
X181241D01*
X181491Y15721D01*
Y15221D01*
X181241Y14971D01*
X180492D01*
X181991Y14471D02*
X182491D01*
X182241D01*
Y15971D01*
X181991Y15721D01*
X229149Y76425D02*
Y77925D01*
X228149D01*
X227650Y77675D02*
X227400Y77925D01*
X226900D01*
X226650Y77675D01*
Y76675D01*
X226900Y76425D01*
X227400D01*
X227650Y76675D01*
Y76925D01*
X227400Y77175D01*
X226650D01*
X263552Y92522D02*
X262053D01*
Y91522D01*
Y91023D02*
Y90523D01*
Y90773D01*
X263552D01*
X263302Y91023D01*
X226525Y103100D02*
Y101600D01*
X227525D01*
X228025Y103100D02*
X229025D01*
Y102850D01*
X228025Y101850D01*
Y101600D01*
X229024Y89133D02*
Y90633D01*
X228024D01*
X227525Y89383D02*
X227275Y89133D01*
X226775D01*
X226525Y89383D01*
Y89633D01*
X226775Y89883D01*
X226525Y90133D01*
Y90383D01*
X226775Y90633D01*
X227275D01*
X227525Y90383D01*
Y90133D01*
X227275Y89883D01*
X227525Y89633D01*
Y89383D01*
X227275Y89883D02*
X226775D01*
X144121Y87402D02*
X145620D01*
Y88402D01*
X144121Y89902D02*
X144371Y89402D01*
X144870Y88902D01*
X145370D01*
X145620Y89152D01*
Y89652D01*
X145370Y89902D01*
X145120D01*
X144870Y89652D01*
Y88902D01*
X156813Y87405D02*
X158312D01*
Y88405D01*
X156813Y89904D02*
Y88904D01*
X157563D01*
X157313Y89404D01*
Y89654D01*
X157563Y89904D01*
X158063D01*
X158312Y89654D01*
Y89154D01*
X158063Y88904D01*
X167999Y87402D02*
X169498D01*
Y88402D01*
X168248Y88902D02*
X167999Y89152D01*
Y89651D01*
X168248Y89901D01*
X168498D01*
X168748Y89651D01*
Y89401D01*
Y89651D01*
X168998Y89901D01*
X169248D01*
X169498Y89651D01*
Y89152D01*
X169248Y88902D01*
X205250Y172250D02*
X205750D01*
X205500D01*
Y173500D01*
X205750Y173750D01*
X206000D01*
X206250Y173500D01*
X204750Y172250D02*
X203750D01*
Y172500D01*
X204750Y173500D01*
Y173750D01*
X151750Y171550D02*
X152250D01*
X152000D01*
Y172800D01*
X152250Y173050D01*
X152500D01*
X152750Y172800D01*
X150500Y173050D02*
Y171550D01*
X151250Y172300D01*
X150250D01*
X166887Y14446D02*
Y15946D01*
X167637D01*
X167886Y15696D01*
Y15196D01*
X167637Y14946D01*
X166887D01*
X169386Y14446D02*
X168386D01*
X169386Y15446D01*
Y15696D01*
X169136Y15946D01*
X168636D01*
X168386Y15696D01*
X216901Y64475D02*
Y62975D01*
X217900D01*
X218400D02*
X218900D01*
X218650D01*
Y64475D01*
X218400Y64225D01*
X219650D02*
X219900Y64475D01*
X220399D01*
X220649Y64225D01*
Y63225D01*
X220399Y62975D01*
X219900D01*
X219650Y63225D01*
Y64225D01*
X223250Y172250D02*
X223750D01*
X223500D01*
Y173500D01*
X223750Y173750D01*
X224000D01*
X224250Y173500D01*
X221750Y173750D02*
X222750D01*
X221750Y172750D01*
Y172500D01*
X222000Y172250D01*
X222500D01*
X222750Y172500D01*
%TF.MD5,b972b07f8027a612a9000d6df7aabee2*%
M02*
